<?xml version="1.0" encoding="utf-8"?>
<!-- Generator: Adobe Illustrator 26.0.1, SVG Export Plug-In . SVG Version: 6.00 Build 0)  -->
<svg version="1.1"
	 id="Layer_1" xmlns:inkscape="http://www.inkscape.org/namespaces/inkscape" xmlns:sodipodi="http://sodipodi.sourceforge.net/DTD/sodipodi-0.dtd"
	 xmlns="http://www.w3.org/2000/svg" xmlns:xlink="http://www.w3.org/1999/xlink" x="0px" y="0px" viewBox="0 0 1000 1000"
	 style="enable-background:new 0 0 1000 1000;" xml:space="preserve">
<style type="text/css">
	.st0{fill:#FFFFFF;}
</style>
<path d="M0,530.1c0-19.5,0-39,0-58.5c0.6-3.5,1.3-6.9,1.8-10.4c2.9-20.9,4.5-42,9-62.6c26.2-120.9,87.9-220.1,186.6-294.5
	c121-91.3,257.3-121.7,405.7-91c120.5,24.9,218.4,88,292.8,185.8c83.1,109.3,115.3,233.2,97.6,369.3
	c-12.9,99.2-53.3,186.7-119.6,261.6c-77.3,87.4-173.6,141.9-288.7,162.4c-18.8,3.3-37.8,5.2-56.8,7.8c-19.5,0-39,0-58.5,0
	c-7-0.8-14.1-1.6-21.1-2.4c-107.1-11.9-201.5-52.7-281.7-124.7C81.4,795.9,27.9,700.5,7.8,586.8C4.4,568.1,2.6,549,0,530.1z
	 M499.1,931.7c237.4,0.1,431.1-193.7,431-431C929.9,263.6,737,70.6,499.8,70.1c-237.2-0.5-431.1,193-431.4,430.5
	C68.1,737.8,261.7,931.7,499.1,931.7z"/>
<path class="st0" d="M0,530.1c2.6,18.9,4.4,37.9,7.8,56.7c20.1,113.6,73.6,209.1,159.3,286c80.2,72,174.7,112.8,281.7,124.7
	c7,0.8,14.1,1.6,21.1,2.4c-156.6,0-313.3,0-469.9,0C0,843.4,0,686.8,0,530.1z"/>
<path d="M352.3,466.8c3.8,0,7.6,0,11.4,0c118.6,0,237.2-0.1,355.8-0.1c4.9,0,9.8,0.1,14.6,0.7c17,2.2,29.3,16.3,29.4,33.4
	c0,17-12.4,31.4-29.3,33.5c-5.1,0.6-10.4,0.7-15.6,0.7c-118.3,0.1-236.6,0.1-354.8,0.1c-3.8,0-7.6,0-13.8,0c3.8,4.2,6,6.7,8.4,9.1
	c39.5,39.5,79.3,78.8,118.3,118.8c6.3,6.5,11.3,16.1,13,25c2.7,14-4.5,25.2-17,32.2c-12.2,6.8-24.4,5.8-35.8-2
	c-3.7-2.5-6.9-5.9-10.1-9.1c-59.5-59.5-119-119-178.5-178.5c-20.9-21-21-38.5,0-59.4c60-60,120-119.9,179.9-179.9
	c10-10,20.8-16.5,35.6-13.2c24.4,5.5,34.9,33.7,20,53.7c-2.3,3.1-5.2,5.8-7.9,8.6c-38.8,38.8-77.6,77.7-116.5,116.4
	c-2.5,2.5-5.6,4.3-8.4,6.5C351.1,464.5,351.7,465.6,352.3,466.8z"/>
</svg>
