<?xml version="1.0" encoding="utf-8"?>
<!-- Generator: Adobe Illustrator 26.0.1, SVG Export Plug-In . SVG Version: 6.00 Build 0)  -->
<svg version="1.1"
	 id="svg3712" xmlns:cc="http://creativecommons.org/ns#" xmlns:dc="http://purl.org/dc/elements/1.1/" xmlns:inkscape="http://www.inkscape.org/namespaces/inkscape" xmlns:rdf="http://www.w3.org/1999/02/22-rdf-syntax-ns#" xmlns:sodipodi="http://sodipodi.sourceforge.net/DTD/sodipodi-0.dtd" xmlns:svg="http://www.w3.org/2000/svg"
	 xmlns="http://www.w3.org/2000/svg" xmlns:xlink="http://www.w3.org/1999/xlink" x="0px" y="0px" viewBox="0 0 205.9 200.1"
	 style="enable-background:new 0 0 205.9 200.1;" xml:space="preserve">
<defs>
	
		<inkscape:perspective  id="perspective4373" inkscape:persp3d-origin="214.375 : 142.91667 : 1" inkscape:vp_x="0 : 214.375 : 1" inkscape:vp_y="0 : 1000 : 0" inkscape:vp_z="428.75 : 214.375 : 1" sodipodi:type="inkscape:persp3d">
		</inkscape:perspective>
</defs>
<sodipodi:namedview  bordercolor="#666666" borderopacity="1.0" fit-margin-bottom="0" fit-margin-left="0" fit-margin-right="0" fit-margin-top="0" id="base" inkscape:current-layer="layer1" inkscape:cx="124.82445" inkscape:cy="133.99094" inkscape:document-units="px" inkscape:pageopacity="0.0" inkscape:pageshadow="2" inkscape:window-height="721" inkscape:window-maximized="1" inkscape:window-width="1024" inkscape:window-x="-4" inkscape:window-y="-4" inkscape:zoom="1.4142136" pagecolor="#ffffff" showgrid="false">
	</sodipodi:namedview>
<path id="path8431" inkscape:connector-curvature="0" d="M102.2,129.8c-1.6,0-3.2,0-3.5-0.1c-0.3,0-1-0.1-1.4-0.1s-0.8-0.1-0.8-0.1
	c0,0-0.1-0.1-0.3-0.1c-0.1,0-1-0.1-1.8-0.2c-0.9-0.1-1.7-0.2-1.7-0.2s-0.1-0.1-0.2,0c-0.1,0.1-0.1,0-0.3-0.1
	c-0.1-0.1-0.5-0.1-0.9-0.2s-0.8-0.1-0.8-0.1c-0.1,0-0.2,0-0.3-0.1c-0.1-0.1-0.3-0.1-0.5-0.1c-0.2,0-0.5-0.1-0.6-0.1
	c-0.1,0-0.3-0.1-0.4-0.1c-0.1-0.1-0.5-0.1-0.8-0.2c-0.3-0.1-0.6-0.1-0.7-0.2c-0.1-0.1-0.4-0.1-0.7-0.2c-0.3-0.1-0.7-0.2-0.9-0.3
	c-0.1-0.1-0.4-0.1-0.5-0.1c-0.1,0-0.3-0.1-0.3-0.1c0-0.1-0.1-0.1-0.3-0.1s-0.3-0.1-0.5-0.1c-0.1-0.1-0.5-0.1-0.7-0.2
	c-0.3-0.1-0.5-0.1-0.6-0.1c-0.1-0.1-0.2-0.1-0.3-0.1c-0.1-0.1-0.3-0.1-0.3-0.1c-0.1,0-0.3-0.1-0.3-0.1c-0.1-0.1-0.5-0.2-0.8-0.3
	c-0.4-0.1-0.9-0.3-1.3-0.5s-0.8-0.3-1.2-0.4c-0.3-0.1-0.6-0.3-0.6-0.3c-0.1-0.1-0.1-0.1-0.2-0.1s-0.3-0.1-0.5-0.2s-0.5-0.2-0.5-0.2
	c-0.1,0-0.3-0.1-0.6-0.3s-0.8-0.3-1-0.5c-0.3-0.1-0.6-0.3-0.6-0.3c-0.1-0.1-0.3-0.1-0.5-0.2c-0.2-0.1-0.3-0.1-0.3-0.2
	c0-0.1-0.1-0.1-0.2-0.1s-0.2-0.1-0.3-0.1c-0.1-0.1-0.6-0.3-1-0.6s-0.8-0.4-0.9-0.4c-0.1,0-0.2-0.1-0.3-0.2s-0.3-0.3-0.5-0.3
	s-0.2-0.1-0.2-0.1s-0.1-0.1-0.3-0.2s-0.4-0.2-0.5-0.3s-0.2-0.1-0.2-0.1c-0.1,0-0.2-0.1-0.3-0.1c-0.1-0.1-0.3-0.2-0.3-0.3
	c-0.1-0.1-0.3-0.1-0.4-0.2c-0.1-0.1-0.3-0.2-0.3-0.3c-0.1-0.1-0.2-0.1-0.2-0.1s-0.3-0.1-0.5-0.3c-0.3-0.1-0.6-0.3-0.7-0.5
	c-0.2-0.1-0.6-0.4-0.9-0.6c-0.3-0.3-0.9-0.6-1.2-0.8c-0.3-0.2-1-0.7-1.5-1.1c-0.5-0.4-1.3-1-1.7-1.4c-0.4-0.3-1-0.8-1.3-1.1
	c-0.3-0.3-0.7-0.6-1-0.9c-0.3-0.2-0.5-0.4-0.5-0.4c-0.1,0-0.2-0.1-0.3-0.2c-0.1-0.1-0.4-0.4-0.6-0.6c-0.3-0.2-0.5-0.5-0.6-0.5
	c-0.1-0.1-0.5-0.5-0.9-0.9c-0.5-0.4-1-1-1.3-1.3c-0.3-0.3-0.8-0.9-1.2-1.4c-0.4-0.5-0.8-0.8-0.8-1c-0.1-0.1-0.4-0.5-0.6-0.8
	c-0.3-0.3-0.6-0.8-0.8-1c-0.2-0.3-0.4-0.5-0.5-0.6c-0.1-0.1-0.1-0.2-0.1-0.2c0-0.1-0.1-0.3-0.3-0.5c-0.2-0.2-0.5-0.5-0.6-0.7
	c-0.1-0.2-0.4-0.5-0.5-0.7c-0.1-0.2-0.5-0.6-0.7-1c-0.3-0.4-0.7-1-1-1.4c-0.3-0.4-0.5-0.8-0.6-0.8S47,99.2,47,99.1s0-0.2-0.1-0.2
	s-0.2-0.3-0.4-0.5c-0.2-0.3-0.3-0.5-0.3-0.6s-0.1-0.1-0.1-0.3c-0.1-0.1-0.3-0.5-0.5-0.8s-0.5-0.8-0.5-0.9c-0.1-0.1-0.1-0.3-0.2-0.3
	s-0.1-0.1-0.1-0.1c0-0.1-0.1-0.3-0.3-0.7c-0.1-0.3-0.5-0.9-0.7-1.3c-0.3-0.4-0.5-0.8-0.5-0.9s-0.1-0.3-0.2-0.5
	c-0.1-0.2-0.2-0.5-0.3-0.5c-0.1-0.1-0.3-0.5-0.5-1c-0.2-0.5-0.5-1-0.6-1.4s-0.3-1-0.5-1.6c-0.4-0.6-0.6-1.1-0.6-1.2
	c-0.1-0.1-0.1-0.3-0.2-0.6c-0.1-0.3-0.2-0.6-0.3-0.8c-0.1-0.1-0.1-0.4-0.2-0.5c0-0.1-0.1-0.4-0.2-0.6c-0.1-0.2-0.2-0.6-0.3-0.8
	c-0.1-0.3-0.2-0.8-0.4-1.3c-0.1-0.5-0.4-1.4-0.6-2.1c-0.1-0.7-0.3-1.4-0.3-1.4s-0.1-0.2-0.1-0.3c-0.1-0.1-0.1-0.5-0.3-1
	c-0.1-0.5-0.2-1.4-0.3-1.9c-0.1-0.6-0.2-1.1-0.2-1.2c0-0.1-0.1-0.6-0.2-1.3c-0.1-0.6-0.1-1.5-0.2-1.9c-0.1-0.4-0.1-1.4-0.1-2.3
	C37,67.6,37,65.8,37,64.6s0.1-2.6,0.1-3.1c0.1-0.5,0.1-1,0.1-1.2c0-0.2,0.1-0.6,0.1-1c0.1-0.4,0.2-1.3,0.3-2.1
	c0.1-0.8,0.2-1.6,0.3-1.7c0.1-0.2,0.1-0.5,0.1-0.6c0-0.1,0.1-0.3,0.1-0.4c0.1,0.1,0.3-0.4,0.3-0.8c0.1-0.5,0.2-0.8,0.2-0.8
	c0.1,0,0.1-0.1,0.1-0.3c0-0.1,0.1-0.4,0.1-0.6c0.1-0.2,0.1-0.5,0.2-0.5c0.1-0.1,0.1-0.3,0.1-0.6c0.1-0.2,0.1-0.6,0.1-0.8
	c0.1-0.3,0.1-0.6,0.1-0.7c0.1-0.1,0.2-0.6,0.3-1.1c0.3-0.5,0.4-1,0.5-1.2c0.1-0.1,0.1-0.3,0.1-0.3c0-0.1,0.1-0.6,0.3-1.2
	s0.4-1.2,0.5-1.2c0.1-0.1,0.1-0.3,0.2-0.5c0.1-0.2,0.2-0.5,0.3-0.6s0.1-0.4,0.1-0.5s0-0.1,0.1-0.1c0.1,0,0.1-0.3,0.3-0.6
	c0.1-0.3,0.3-0.7,0.3-0.9c0.1-0.2,0.2-0.4,0.2-0.5c0-0.1,0-0.1,0.1-0.1c0.1,0,0.1-0.1,0.2-0.3c0.1-0.2,0.1-0.4,0.2-0.5
	s0.1-0.1,0.1-0.2c0,0,0.1-0.3,0.2-0.5c0.1-0.3,0.3-0.6,0.3-0.8s0.2-0.4,0.2-0.4s0.3-0.5,0.5-1c0.3-0.5,0.5-0.9,0.5-1
	c0,0,0.1-0.3,0.3-0.5c0.1-0.3,0.4-0.8,0.6-1.1c0.2-0.4,0.4-0.7,0.4-0.8s0.1-0.1,0.1-0.1c0.1-0.1,0.2-0.2,0.3-0.3s0.3-0.5,0.3-0.6
	c0.1-0.2,0.2-0.4,0.3-0.4c0.1-0.1,0.3-0.4,0.6-0.8c0.3-0.4,0.5-0.8,0.6-0.9c0.1-0.1,0.2-0.3,0.3-0.4c0-0.1,0.3-0.4,0.5-0.7
	s0.6-0.8,0.8-1.1s0.5-0.6,0.5-0.6c0.1-0.1,0.3-0.4,0.6-0.7c0.3-0.3,0.5-0.6,0.5-0.7s0.1-0.1,0.2-0.2c0.1-0.1,0.2-0.1,0.2-0.2
	c0-0.1,0.1-0.1,0.2-0.3c0.1-0.1,0.2-0.2,0.2-0.3c0-0.1,0.1-0.1,0.1-0.2c0.1-0.1,0.3-0.3,0.6-0.6c0.3-0.3,0.5-0.6,0.6-0.8
	c0.1-0.1,0.8-0.9,1.6-1.7c0.8-0.8,1.4-1.5,1.4-1.6c0,0,0.2-0.3,0.5-0.5c0.3-0.2,0.5-0.5,0.5-0.5s0.3-0.3,0.6-0.6
	c0.3-0.3,0.9-0.8,1.4-1.2c0.4-0.3,0.8-0.7,0.9-0.8c0.1-0.1,0.2-0.2,0.3-0.2c0.1,0,0.2-0.1,0.3-0.3c0.1-0.1,0.3-0.3,0.4-0.3
	c0.1-0.1,0.2-0.1,0.3-0.3c0.1-0.1,0.4-0.3,0.5-0.5c0.2-0.1,0.4-0.3,0.5-0.4c0.1-0.1,0.3-0.2,0.4-0.3c0.1-0.1,0.4-0.3,0.5-0.4
	c0.1-0.1,0.3-0.3,0.3-0.3s0.2-0.1,0.4-0.3c0.2-0.1,0.3-0.3,0.4-0.3s0.1-0.1,0.1-0.1c0-0.1,0.1-0.1,0.1-0.1s0.2-0.1,0.3-0.1
	c0.1-0.1,0.3-0.3,0.5-0.4c0.2-0.1,0.4-0.3,0.5-0.3s0.1-0.1,0.1-0.1c0-0.1,0.2-0.2,0.3-0.3c0.1-0.1,0.3-0.2,0.3-0.2
	c0-0.1,0.1-0.1,0.1-0.1c0.1,0,0.3-0.1,0.6-0.3c0.3-0.2,0.6-0.4,0.8-0.5c0.1-0.1,0.4-0.2,0.5-0.3c0.1-0.1,0.3-0.1,0.3-0.2
	c0-0.1,0.2-0.1,0.3-0.2c0.1-0.1,0.5-0.2,0.6-0.3c0.2-0.1,0.4-0.2,0.5-0.3c0.1-0.1,0.5-0.3,0.8-0.5S71.7,9,71.7,9s0.3-0.1,0.6-0.3
	c0.3-0.1,0.6-0.4,0.8-0.5C73.4,8,73.5,8,73.6,8s0.4-0.1,0.8-0.3s0.8-0.4,1-0.5C75.6,7.1,75.8,7,75.8,7c0.1-0.1,0.1-0.1,0.2-0.1
	s0.3-0.1,0.6-0.3c0.3-0.1,0.6-0.3,0.7-0.3C77.5,6.1,77.6,6,77.6,6c0.1-0.1,0.5-0.2,0.9-0.4s1-0.3,1.2-0.4c0.2-0.1,0.5-0.1,0.5-0.2
	c0.1-0.1,0.3-0.1,0.5-0.2c0.2-0.1,0.5-0.2,0.7-0.3c0.2-0.1,0.4-0.1,0.5-0.1s0.2-0.1,0.3-0.1c0.1-0.1,0.6-0.2,1-0.3
	c0.5-0.1,1.2-0.3,1.5-0.4c0.3-0.1,1.2-0.3,2-0.5s1.6-0.4,1.8-0.5c0.3-0.1,0.9-0.2,1.5-0.3c0.6-0.1,1.1-0.2,1.2-0.3
	c0.1-0.1,0.7-0.1,1.4-0.3c0.6-0.1,1.5-0.2,1.9-0.3c0.4-0.1,1-0.1,1.4-0.1c0.4-0.1,1.3-0.1,1.9-0.2c0.6-0.1,1.4-0.1,1.6-0.1
	s1.6,0,3,0c1.5,0,3.6,0.1,4.8,0.1c1.2,0.1,2.3,0.1,2.3,0.2c0.1,0,0.2,0.1,0.3,0.1s0.6,0.1,1,0.1c0.4,0.1,1.4,0.2,2.3,0.3
	c0.8,0.1,1.6,0.3,1.7,0.3c0.1,0.1,0.3,0.1,0.7,0.1c0.3,0.1,0.9,0.2,1.3,0.3c0.4,0.1,1.1,0.3,1.6,0.4c0.5,0.1,1,0.3,1,0.3
	c0.1,0.1,0.6,0.2,1.2,0.4c0.6,0.1,1.2,0.3,1.2,0.4c0.1,0.1,0.5,0.1,0.8,0.3c0.4,0.1,0.8,0.3,1.1,0.3c0.3,0.1,0.6,0.2,0.9,0.3
	c0.3,0.1,0.6,0.2,0.7,0.3c0.1,0.1,0.5,0.2,0.8,0.3c0.3,0.1,0.8,0.3,1.2,0.4c0.4,0.1,0.8,0.3,1,0.4s0.4,0.1,0.5,0.1s0.3,0.1,0.5,0.2
	s0.7,0.3,1,0.5c0.4,0.1,0.9,0.5,1.2,0.6S132,8,132,8s0.1,0.1,0.2,0.1s0.3,0.3,0.6,0.4c0.3,0.1,0.6,0.4,0.8,0.5
	c0.1,0.1,0.3,0.2,0.5,0.2s0.1,0,0.2,0.1c0.1,0.1,0.1,0.1,0.3,0.2c0.1,0.1,0.4,0.2,0.5,0.3c0.1,0.1,0.3,0.1,0.3,0.2
	c0,0.1,0.2,0.1,0.4,0.2c0.2,0.1,0.6,0.3,0.9,0.5c0.3,0.2,0.6,0.4,0.6,0.4c0.1,0,0.3,0.1,0.5,0.3c0.3,0.2,0.5,0.3,0.5,0.3
	s0.3,0.1,0.5,0.3s0.5,0.3,0.6,0.3s0.1,0,0.1,0.1c0,0.1,0.2,0.2,0.5,0.4s0.5,0.4,0.6,0.4c0.1,0.1,0.3,0.1,0.4,0.3
	c0.1,0.1,0.5,0.3,0.7,0.6c0.3,0.2,0.5,0.4,0.6,0.4s0.2,0.1,0.4,0.3c0.2,0.1,0.4,0.4,0.5,0.5c0.1,0.1,0.2,0.2,0.3,0.2
	c0.1,0,0.1,0.1,0.2,0.2c0.1,0.1,0.2,0.2,0.3,0.2c0.1,0,0.1,0.1,0.2,0.1c0.1,0.1,0.2,0.2,0.3,0.3c0.1,0.1,0.3,0.2,0.3,0.1
	c0.1-0.1,0-0.1,0-0.1c-0.1,0.1-0.1,0-0.1,0s0.1-0.1,0.1-0.1s0.1,0.1,0.1,0.1c0,0.1,0.1,0.3,0.5,0.6c0.3,0.3,0.6,0.5,0.6,0.6
	c0.1,0.1,0.1,0.1,0.2,0.1c0.1,0,0.3,0.2,0.5,0.4c0.2,0.2,0.5,0.4,0.5,0.4s0.5,0.5,1.1,1c0.6,0.6,1.5,1.5,2.1,2.1s1.2,1.3,1.5,1.6
	c0.3,0.3,0.6,0.6,0.8,0.9c0.2,0.2,0.6,0.7,0.9,1.1c0.3,0.4,0.7,0.8,0.9,1.1c0.2,0.2,0.4,0.5,0.4,0.5c0.1,0.1,0.1,0.2,0.2,0.2
	c0.1,0.1,0.1,0.1,0.1,0.2s0,0.1,0.1,0.1s0.2,0.2,0.4,0.5c0.2,0.2,0.5,0.6,0.6,0.8s0.3,0.5,0.5,0.6c0.1,0.1,0.5,0.6,0.8,1.1
	c0.3,0.5,0.6,0.8,0.6,0.9c0,0,0.1,0.1,0.1,0.2c0.1,0.1,0.2,0.3,0.3,0.5c0.1,0.1,0.3,0.5,0.4,0.6c0.1,0.2,0.3,0.5,0.4,0.6
	c0.1,0.1,0.2,0.4,0.3,0.5s0.2,0.3,0.2,0.3c0.1,0,0.1,0.2,0.3,0.4s0.3,0.6,0.5,1c0.1,0.3,0.3,0.7,0.4,0.8c0.1,0.1,0.2,0.3,0.3,0.5
	c0.1,0.1,0.2,0.3,0.2,0.3c0.1,0,0.1,0.1,0.1,0.1s0.2,0.5,0.4,0.8s0.5,1,0.7,1.4s0.5,0.9,0.5,1.2c0.1,0.3,0.3,0.6,0.3,0.6
	c0.1,0.1,0.2,0.4,0.3,0.8c0.1,0.4,0.3,0.7,0.3,0.8c0.1,0.1,0.1,0.1,0.1,0.3c0,0.1,0.1,0.3,0.1,0.4c0.1,0.1,0.2,0.5,0.3,0.7
	c0.1,0.3,0.4,1.1,0.6,1.9c0.3,0.8,0.5,1.6,0.5,1.6c0,0.1,0.1,0.3,0.1,0.4c0.1,0.1,0.2,0.4,0.3,0.7c0.1,0.3,0.2,0.6,0.2,0.8
	c0.1,0.1,0.1,0.4,0.2,0.6c0.1,0.2,0.1,0.5,0.2,0.5c0.1,0.1,0.2,0.9,0.4,1.7c0.2,0.8,0.3,1.7,0.4,1.9c0.1,0.2,0.1,0.6,0.2,1
	c0.1,0.4,0.2,1.4,0.3,2.3c0.1,0.9,0.2,2.1,0.3,2.6c0,0.5,0.1,1,0.1,1.1c0.1,0.1,0.1,1.5,0.1,3.5c0,1.9,0,3.8-0.1,4.3
	c-0.1,0.5-0.1,1.2-0.1,1.6s-0.1,1.3-0.2,2.1c-0.1,0.8-0.2,1.4-0.2,1.5c-0.1,0.1-0.1,0.3-0.1,0.5c0,0.2-0.1,0.9-0.2,1.6
	c-0.1,0.6-0.2,1.4-0.3,1.7c-0.1,0.3-0.1,0.6-0.2,0.6s-0.1,0.1-0.1,0.2c0,0.1-0.1,0.6-0.2,1.2c-0.1,0.6-0.3,1-0.3,1.1
	c0,0-0.1,0.4-0.3,0.8s-0.2,0.9-0.2,1s-0.1,0.3-0.1,0.4c-0.1,0.1-0.3,0.6-0.4,1.1c-0.1,0.5-0.3,1-0.4,1.2s-0.1,0.5-0.2,0.5
	c-0.1,0.1-0.2,0.6-0.4,1c-0.2,0.5-0.4,1-0.5,1.2c-0.1,0.2-0.1,0.3-0.1,0.4s-0.1,0.2-0.1,0.4c-0.1,0.2-0.3,0.5-0.4,0.8
	c-0.1,0.3-0.3,0.8-0.5,1.2s-0.3,0.8-0.4,1c-0.1,0.2-0.2,0.4-0.2,0.5c0,0.1-0.1,0.1-0.1,0.1c-0.1,0-0.1,0.1-0.1,0.1
	c0,0.1-0.1,0.3-0.2,0.6c-0.1,0.3-0.3,0.6-0.4,0.8c-0.1,0.2-0.2,0.4-0.3,0.5c-0.1,0.1-0.2,0.5-0.4,0.8c-0.2,0.4-0.5,0.9-0.5,1.1
	c-0.1,0.2-0.3,0.5-0.3,0.5c-0.1,0.1-0.1,0.1-0.1,0.2s-0.1,0.1-0.1,0.2c-0.1,0.1-0.3,0.5-0.5,0.8c-0.2,0.4-0.5,0.8-0.5,0.8
	c-0.1,0.1-0.3,0.5-0.5,0.8c-0.3,0.3-0.5,0.6-0.5,0.7c0,0.1-0.1,0.2-0.2,0.3s-0.2,0.3-0.2,0.3c0,0.1-0.1,0.2-0.2,0.4
	c-0.1,0.2-0.3,0.5-0.5,0.7c-0.2,0.2-0.5,0.6-0.6,0.8c-0.2,0.2-0.4,0.5-0.5,0.6c-0.1,0.1-0.3,0.4-0.5,0.6c-0.2,0.3-0.5,0.6-0.6,0.9
	c-0.2,0.3-0.4,0.5-0.5,0.6c-0.1,0.1-0.3,0.3-0.4,0.5c-0.1,0.2-0.3,0.3-0.3,0.4c-0.1,0.1-0.1,0.2-0.1,0.3c0,0.1-0.1,0.1-0.1,0.2
	c-0.1,0.1-0.3,0.3-0.6,0.6c-0.3,0.3-0.5,0.6-0.6,0.8c-0.1,0.1-0.3,0.3-0.4,0.5s-0.7,0.8-1.4,1.4c-0.6,0.6-1.5,1.5-1.8,1.7
	c-0.3,0.3-0.8,0.7-1.1,1c-0.3,0.3-0.6,0.6-0.9,0.8c-0.3,0.2-0.7,0.6-1.1,0.9c-0.4,0.3-0.7,0.6-0.8,0.6s-0.2,0.1-0.3,0.2
	c-0.1,0.1-0.3,0.3-0.5,0.4c-0.2,0.1-0.4,0.3-0.5,0.4c-0.1,0.1-0.2,0.1-0.3,0.2c-0.1,0.1-0.4,0.3-0.6,0.5c-0.3,0.2-0.6,0.5-0.8,0.6
	c-0.2,0.1-0.4,0.3-0.4,0.3s-0.1,0.1-0.3,0.2c-0.1,0.1-0.6,0.5-1.1,0.8s-1,0.6-1,0.7c-0.1,0.1-0.5,0.3-1,0.6s-1,0.6-1.2,0.8
	c-0.2,0.1-0.6,0.3-0.8,0.5s-0.6,0.3-0.8,0.5c-0.2,0.1-0.6,0.3-0.8,0.5c-0.2,0.1-0.5,0.3-0.7,0.4c-0.1,0.1-0.5,0.2-0.6,0.3
	c-0.2,0.1-0.4,0.2-0.5,0.3c-0.1,0.1-0.2,0.1-0.3,0.1c-0.1,0-0.4,0.1-0.6,0.3c-0.3,0.1-0.5,0.3-0.5,0.3c0,0.1-0.1,0.1-0.2,0.1
	c-0.1,0-0.3,0.1-0.5,0.2s-0.5,0.2-0.5,0.2s-0.1,0.1-0.2,0.1c-0.1,0.1-0.3,0.1-0.4,0.2c-0.2,0.1-0.5,0.2-0.8,0.3s-0.6,0.3-0.6,0.3
	c-0.1,0-0.3,0.1-0.5,0.2s-0.4,0.2-0.5,0.2c-0.1,0-0.2,0.1-0.3,0.1c-0.1,0.1-0.5,0.2-0.8,0.3c-0.3,0.1-0.5,0.2-0.6,0.2
	c-0.1,0.1-0.3,0.1-0.6,0.3c-0.3,0.1-0.7,0.3-0.8,0.3c-0.1,0.1-0.4,0.1-0.6,0.2c-0.2,0.1-0.5,0.1-0.6,0.2c-0.2,0.1-0.5,0.1-0.7,0.2
	c-0.2,0.1-0.5,0.1-0.6,0.2c-0.2,0.1-0.4,0.1-0.5,0.1c-0.1,0-0.3,0.1-0.4,0.1c-0.1,0.1-0.4,0.1-0.5,0.1s-0.3,0.1-0.4,0.1
	c-0.1,0.1-0.4,0.1-0.8,0.2c-0.4,0.1-0.7,0.1-0.7,0.2c0,0.1-0.6,0.2-1.3,0.3c-0.6,0.1-1.4,0.3-1.5,0.3c-0.1,0-0.6,0.1-1,0.1
	s-0.9,0.1-1,0.1c-0.1,0.1-0.6,0.1-1,0.1c-0.4,0.1-1.2,0.1-1.7,0.2c-0.5,0.1-1,0.1-1.2,0.2c-0.1,0.1-0.6,0.1-1,0.1
	c-0.5,0-1.4,0.1-1.9,0.1C105.5,129.7,103.7,129.8,102.2,129.8L102.2,129.8z M102.8,124.4c1.3,0,2.4-0.1,2.5-0.1l0.2-0.1l-0.3-0.1
	c-0.1-0.1-0.3-0.2-0.5-0.3c-0.1-0.1-0.6-0.3-1-0.5c-0.5-0.2-0.8-0.5-0.8-0.5c0-0.1-0.1-0.1-0.1-0.1s-0.2-0.1-0.3-0.1
	s-0.3-0.2-0.4-0.3c-0.1-0.1-0.6-0.3-1-0.6c-0.5-0.3-1.1-0.7-1.4-1c-0.3-0.3-1.1-0.8-1.6-1.2c-0.5-0.4-1.1-0.9-1.3-1.1
	c-0.2-0.2-0.6-0.5-0.7-0.7c-0.2-0.2-0.4-0.3-0.5-0.3s-0.2-0.1-0.3-0.3c-0.1-0.1-0.5-0.6-0.9-1s-0.9-1-1.2-1.3
	c-0.3-0.3-0.6-0.8-0.8-1c-0.2-0.3-0.5-0.6-0.5-0.7s-0.3-0.3-0.4-0.5c-0.1-0.1-0.3-0.5-0.5-0.7c-0.1-0.3-0.4-0.6-0.6-0.8
	c-0.1-0.2-0.4-0.6-0.5-0.8c-0.1-0.3-0.3-0.5-0.3-0.5c-0.1-0.1-0.2-0.3-0.3-0.5c-0.1-0.3-0.3-0.6-0.5-0.8c-0.1-0.2-0.2-0.4-0.2-0.4
	c0-0.1-0.1-0.3-0.3-0.7c-0.1-0.3-0.3-0.6-0.3-0.7c0-0.1-0.1-0.1-0.1-0.2c-0.1-0.1-0.2-0.3-0.3-0.6c-0.1-0.3-0.2-0.6-0.2-0.6
	c0-0.1-0.1-0.1-0.1-0.2c-0.1,0-0.1-0.1-0.1-0.2s-0.1-0.2-0.1-0.3c-0.1-0.1-0.1-0.3-0.2-0.6c-0.1-0.3-0.1-0.5-0.1-0.6
	c0-0.1-0.1-0.3-0.1-0.4c-0.1-0.1-0.1-0.3-0.1-0.4c0-0.1-0.1-0.5-0.1-0.8c-0.1-0.4-0.1-0.7-0.2-0.8c-0.1-0.1-0.1-0.5-0.2-1
	c-0.1-0.5-0.1-1.7-0.1-2.8c0-1.2,0.1-2.4,0.1-3c0.1-0.6,0.1-1.1,0.2-1.1c0.1,0,0.1-0.1,0.1-0.3s0.1-0.6,0.2-1c0.1-0.5,0.3-1,0.3-1.3
	c0.1-0.3,0.1-0.5,0.2-0.6c0.1-0.1,0.1-0.3,0.1-0.4c0.1-0.3,0-0.3-0.1-0.5c-0.1-0.1-0.3-0.1-0.5-0.2c-0.3-0.1-0.4,0-0.4,0.1
	c0,0.1-0.1,0.1-0.1,0.1s-0.3,0.1-0.5,0.2c-0.2,0.1-0.4,0.2-0.5,0.2s-0.3,0.1-0.6,0.3c-0.3,0.1-0.6,0.3-0.8,0.3c-0.2,0-0.6,0.1-1,0.1
	c-0.3,0.1-0.7,0.1-0.8,0.2c-0.1,0.1-0.6,0.1-1.2,0.1c-0.5,0-1.4-0.1-1.8-0.1c-0.5-0.1-1-0.1-1-0.1c-0.1-0.1-0.4-0.1-0.6-0.2
	c-0.2-0.1-0.4-0.1-0.4-0.1s-0.4-0.2-0.8-0.3c-0.5-0.1-0.8-0.3-0.8-0.3c-0.1-0.1-0.2-0.1-0.4-0.1c-0.2-0.1-0.4-0.2-0.5-0.3
	c-0.1-0.1-0.2-0.1-0.3-0.1s-0.5-0.3-0.9-0.6c-0.5-0.3-0.8-0.6-0.8-0.6s-0.1-0.1-0.3-0.2c-0.1-0.1-0.7-0.6-1.2-1.1
	c-0.5-0.5-0.9-1-0.9-1c0-0.1-0.1-0.2-0.3-0.3c-0.1-0.1-0.3-0.3-0.3-0.3c0-0.1-0.2-0.3-0.4-0.6c-0.2-0.3-0.5-0.7-0.6-0.9
	c-0.1-0.3-0.3-0.6-0.5-1c-0.1-0.3-0.3-0.6-0.4-0.7s-0.2-0.4-0.3-0.6c-0.1-0.2-0.3-0.6-0.3-0.8c-0.1-0.3-0.1-0.5-0.2-0.6
	s-0.1-0.3-0.2-0.6c-0.1-0.3-0.2-0.8-0.3-1.2c-0.2-0.6-0.2-0.8-0.2-2.8c0-1.6,0.1-2.4,0.1-3c0.1-0.5,0.2-1.1,0.3-1.4
	c0.1-0.3,0.3-1,0.5-1.4c0.1-0.5,0.3-0.9,0.4-1c0.1-0.1,0.1-0.2,0.1-0.3s0.1-0.5,0.3-0.8c0.2-0.4,0.4-0.8,0.5-1
	c0.1-0.3,0.1-0.4,0.1-0.5c-0.1-0.1-0.3-0.1-0.6-0.2c-0.3-0.1-0.5-0.1-0.5,0c0,0.1-0.2,0.1-0.3,0.1s-0.3,0.1-0.4,0.1
	c-0.1,0.1-0.3,0.1-0.5,0.1s-0.5,0.1-0.8,0.3c-0.3,0.1-0.6,0.3-0.8,0.3s-0.8,0.5-1.2,0.8s-0.9,0.6-1,0.7c-0.1,0.1-0.5,0.4-0.8,0.8
	c-0.3,0.4-0.8,0.9-1,1.2c-0.2,0.3-0.5,0.7-0.6,0.9s-0.3,0.5-0.5,0.7c-0.1,0.1-0.3,0.6-0.5,1.1s-0.4,0.9-0.4,1
	c-0.1,0.1-0.1,0.5-0.3,0.9c-0.1,0.4-0.1,0.7-0.2,0.8c0,0.1-0.1,0.3-0.1,0.5c0,0.3-0.1,0.5-0.1,0.7s-0.1,0.6-0.1,0.8
	c0,0.3-0.1,0.8-0.1,1.2c0,0.4,0,1,0.1,1.4c0,0.4,0.1,0.8,0.1,1c0,0.2,0.1,0.6,0.2,0.8c0.1,0.3,0.2,0.9,0.3,1.3
	c0.1,0.4,0.3,1,0.3,1.4c0.1,0.3,0.3,0.8,0.3,0.9c0.1,0.2,0.1,0.4,0.1,0.4c0,0.1,0.1,0.2,0.1,0.3c0.1,0.1,0.1,0.4,0.2,0.5
	c0.1,0.2,0.1,0.4,0.2,0.5c0.1,0.1,0.1,0.2,0.1,0.3c0,0.1,0.1,0.5,0.3,0.8c0.2,0.4,0.4,0.7,0.4,0.8c0,0,0.1,0.2,0.1,0.3
	s0.1,0.3,0.2,0.4c0.1,0.1,0.1,0.2,0.1,0.2c0,0.1,0.2,0.5,0.5,0.9c0.3,0.5,0.5,0.8,0.5,0.8s0.1,0.1,0.2,0.3c0.1,0.2,0.3,0.3,0.3,0.3
	c0.1,0.1,0.1,0.1,0.1,0.1c0,0.1,0.2,0.3,0.4,0.6s0.5,0.6,0.6,0.9c0.1,0.2,0.3,0.5,0.5,0.6c0.1,0.1,0.3,0.3,0.5,0.5
	c0.1,0.2,0.4,0.5,0.5,0.6c0.1,0.2,1,1,1.8,1.8c0.8,0.8,1.7,1.7,1.9,1.9c0.3,0.2,0.5,0.4,0.5,0.4s0.3,0.2,0.6,0.5s0.6,0.5,0.7,0.6
	c0.1,0.1,0.2,0.2,0.3,0.3c0.1,0.1,0.1,0.3,0.1,0.4c0,0.1-0.1,0.3-0.2,0.3c-0.1,0.1-0.3,0.2-0.4,0.2s-0.3-0.1-0.5-0.2
	c-0.1-0.1-0.2-0.2-0.3-0.2s-0.2-0.1-0.3-0.2s-0.3-0.3-0.5-0.4c-0.1-0.1-0.3-0.2-0.3-0.2s-0.3-0.2-0.6-0.5c-0.3-0.3-0.6-0.5-0.6-0.5
	c-0.1,0-0.2-0.1-0.3-0.3c-0.1-0.1-0.5-0.5-0.8-0.8c-0.3-0.3-0.6-0.5-0.6-0.5c-0.1,0-0.2-0.1-0.4-0.3c-0.2-0.2-0.3-0.3-0.4-0.3
	s-0.6-0.5-1.2-1.2c-0.6-0.6-1.2-1.3-1.4-1.5c-0.1-0.2-0.4-0.6-0.6-0.8c-0.3-0.3-0.5-0.6-0.6-0.8c-0.1-0.2-0.4-0.5-0.5-0.7
	c-0.1-0.2-0.3-0.4-0.3-0.5c-0.1-0.1-0.2-0.3-0.4-0.6c-0.2-0.3-0.5-0.6-0.6-0.8s-0.3-0.4-0.3-0.5c0-0.1-0.1-0.3-0.2-0.5
	c-0.1-0.1-0.3-0.5-0.4-0.8c-0.1-0.3-0.4-0.8-0.5-1c-0.1-0.2-0.3-0.6-0.4-0.8c-0.1-0.3-0.3-0.6-0.3-0.9c-0.1-0.3-0.1-0.5-0.1-0.5
	c0,0-0.1-0.4-0.3-0.8c-0.1-0.4-0.3-1-0.3-1.2c-0.1-0.3-0.1-0.5-0.2-0.5c-0.1-0.1-0.1-0.4-0.2-0.8s-0.2-1.1-0.3-1.6
	c-0.1-0.5-0.2-1.4-0.2-2.1C56,77.6,56,76.7,56,76.2s0.1-1.3,0.1-1.8c0.1-0.5,0.1-1.1,0.1-1.3s0.1-0.4,0.1-0.5s0.1-0.5,0.2-1
	c0.1-0.5,0.2-0.9,0.3-1s0.1-0.2,0.1-0.4c0.1-0.1,0.1-0.5,0.3-0.6c0.1-0.2,0.2-0.5,0.2-0.5s0.1-0.2,0.1-0.3c0.1-0.1,0.2-0.3,0.3-0.5
	c0.1-0.2,0.2-0.3,0.2-0.4c0-0.1,0.2-0.3,0.4-0.6s0.4-0.6,0.5-0.6s0.2-0.3,0.4-0.6c0.2-0.3,0.4-0.5,0.4-0.5c0.1,0,0.1-0.1,0.1-0.1
	c0-0.1,0.2-0.3,0.5-0.6c0.3-0.3,0.6-0.8,0.8-1c0.2-0.2,0.6-0.6,1-0.9c0.3-0.3,0.9-0.6,1.2-0.8s0.8-0.5,1.2-0.6
	c0.3-0.2,0.9-0.4,1.2-0.5c0.3-0.1,1.1-0.3,1.7-0.4c0.5-0.1,1.2-0.2,1.6-0.3c0.4-0.1,0.8-0.1,1.1-0.1s0.5,0.1,0.5,0.1
	c0,0.1,0.2,0.1,0.4,0.1s0.6,0.1,0.9,0.1c0.4,0.1,0.6,0.1,0.8,0s0.8-0.6,1.5-1.3c0.7-0.6,1.4-1.3,1.6-1.4c0.1-0.1,0.3-0.3,0.5-0.3
	c0.1-0.1,0.3-0.2,0.3-0.3c0.1-0.1,0.3-0.2,0.3-0.2c0.1,0,0.3-0.2,0.5-0.4c0.3-0.3,0.5-0.5,0.6-0.5s0.2-0.1,0.2-0.1
	c0-0.1,0.1-0.1,0.1-0.1s0.4-0.3,0.7-0.5c0.3-0.3,0.6-0.5,0.8-0.5c0.1-0.1,0.5-0.3,0.7-0.5c0.3-0.2,0.6-0.5,0.8-0.6
	c0.1-0.1,0.3-0.3,0.3-0.4c0.1-0.1,0.1-0.3,0.2-0.4c0.1-0.1,0.3-0.5,0.4-0.7c0.1-0.3,0.3-0.6,0.3-0.6c0.1-0.1,0.1-0.2,0.1-0.3
	c0.1-0.1,0.1-0.3,0.3-0.4c0.1-0.1,0.3-0.5,0.4-0.7c0.1-0.3,0.3-0.6,0.5-0.8c0.1-0.1,0.3-0.4,0.3-0.5c0.1-0.1,0.2-0.3,0.3-0.5
	c0.1-0.2,0.3-0.3,0.3-0.3s0.3-0.4,0.5-0.7c0.3-0.4,0.6-0.8,0.6-0.8c0.1-0.1,0.3-0.3,0.4-0.5c0.1-0.2,0.4-0.6,0.6-0.8
	c0.3-0.4,0.3-0.6,0.3-0.7c0-0.1-0.4-0.6-0.8-1c-0.5-0.5-0.8-0.8-0.8-0.8c-0.1,0-0.2-0.1-0.4-0.3c-0.2-0.1-0.4-0.4-0.5-0.5
	c-0.1-0.1-0.3-0.2-0.3-0.2c-0.1,0-0.4-0.2-0.8-0.5c-0.4-0.3-0.9-0.6-1.1-0.7s-0.5-0.3-0.5-0.3c-0.1-0.1-0.3-0.2-0.5-0.3
	c-0.2-0.1-0.8-0.4-1.4-0.6c-0.6-0.3-1.1-0.5-1.2-0.5s-0.2-0.1-0.3-0.1c-0.1-0.1-0.3-0.1-0.5-0.2c-0.1,0-0.4-0.1-0.5-0.2
	s-0.4-0.1-0.6-0.2c-0.2-0.1-0.5-0.1-0.6-0.2S75.6,38,75.5,38s-0.4-0.1-0.6-0.1c-0.3-0.1-0.6-0.2-0.9-0.2c-0.2-0.1-0.6-0.1-1-0.1
	c-0.3,0-1.3-0.1-2.1-0.1c-1.1,0-1.9,0-2.8,0.1c-0.6,0.1-1.3,0.2-1.4,0.2c-0.1,0.1-0.2,0.1-0.3,0.1s-0.3,0-0.6,0.1
	c-0.3,0.1-0.7,0.1-1,0.2c-0.3,0.1-0.6,0.1-0.6,0.2c-0.1,0.1-0.3,0.1-0.3,0.1s-0.1,0-0.2,0.1c-0.1,0-0.5,0.1-0.8,0.3
	c-0.4,0.1-0.7,0.2-0.8,0.2c-0.1,0-0.3,0.1-0.5,0.2c-0.3,0.1-0.5,0.2-0.6,0.3c-0.1,0.1-0.4,0.1-0.6,0.3c-0.2,0.1-0.4,0.2-0.5,0.2
	s-0.5,0.2-0.8,0.4c-0.4,0.3-0.9,0.5-1.2,0.6c-0.3,0.1-0.5,0.3-0.5,0.3c0,0-0.2,0.1-0.3,0.2c-0.1,0.1-0.5,0.3-0.7,0.5
	c-0.3,0.1-0.5,0.3-0.5,0.4c-0.1,0.1-0.1,0.1-0.2,0.1s-0.2,0.1-0.3,0.2c-0.1,0.1-0.5,0.4-0.8,0.6c-0.3,0.2-0.6,0.5-0.7,0.6
	c-0.1,0.1-0.5,0.4-0.7,0.6s-1,0.9-1.6,1.5c-0.6,0.6-1.3,1.4-1.6,1.6s-0.5,0.6-0.6,0.7c-0.1,0.1-0.3,0.4-0.5,0.6
	c-0.2,0.3-0.5,0.7-0.8,1c-0.2,0.3-0.5,0.6-0.5,0.6s-0.1,0.1-0.1,0.1s-0.2,0.4-0.5,0.8c-0.3,0.4-0.6,1-0.8,1.3
	c-0.2,0.3-0.4,0.7-0.5,0.8c-0.1,0.1-0.3,0.7-0.6,1.3c-0.3,0.6-0.6,1.3-0.6,1.6c-0.1,0.3-0.2,0.6-0.3,0.7c-0.1,0.1-0.2,0.5-0.3,0.9
	c-0.1,0.4-0.3,1-0.4,1.4c-0.1,0.4-0.3,1.2-0.4,1.9c-0.1,0.6-0.3,1.7-0.3,2.2c-0.2,0.3-0.2,0.8-0.2,0.9c0,0.1,0,0.6-0.1,1
	c-0.1,0.5-0.1,1.6,0,3c0.1,1.2,0.1,2.5,0.2,2.8c0.1,0.3,0.1,0.9,0.2,1.4s0.1,1,0.2,1.3c0.1,0.3,0.1,0.6,0.1,1
	c0.1,0.3,0.1,0.9,0.2,1.4s0.1,0.9,0.1,1c0.1,0.1,0.1,0.4,0.2,0.8s0.2,1.1,0.3,1.6c0.1,0.5,0.3,1.2,0.4,1.6c0.1,0.4,0.3,1,0.3,1.2
	c0.1,0.3,0.1,0.6,0.2,0.7c0,0.1,0.1,0.3,0.1,0.3c0.1,0.1,0.2,0.5,0.4,1c0.2,0.5,0.3,1,0.4,1c0.1,0.1,0.1,0.4,0.3,0.6
	c0.1,0.3,0.2,0.6,0.3,0.8c0.1,0.2,0.2,0.6,0.3,0.8c0.1,0.3,0.3,0.6,0.3,0.7c0.1,0.1,0.1,0.3,0.1,0.4c0,0.1,0.1,0.1,0.1,0.2
	c0.1,0,0.1,0.1,0.1,0.2c0,0.1,0.1,0.2,0.1,0.3c0.1,0.1,0.3,0.5,0.5,0.8s0.5,1,0.7,1.4s0.4,0.7,0.4,0.8c0,0,0.2,0.4,0.5,0.8
	c0.3,0.4,0.6,1,0.7,1.3c0.2,0.3,0.4,0.6,0.5,0.8s0.2,0.3,0.2,0.3c0,0.1,0.1,0.3,0.3,0.4c0.1,0.2,0.5,0.6,0.6,1s0.5,0.6,0.5,0.7
	c0,0,0.1,0.2,0.3,0.4c0.1,0.2,0.3,0.4,0.3,0.4s0.1,0.2,0.3,0.4c0.1,0.2,0.4,0.5,0.5,0.6c0.1,0.1,0.4,0.5,0.6,0.8
	c0.2,0.3,0.5,0.6,0.6,0.8c0.1,0.1,0.6,0.7,1,1.3c0.5,0.5,1,1.3,1.4,1.6s0.6,0.6,0.6,0.6s0.9,1,2.1,2.1c1.2,1.2,2.5,2.5,3,2.8
	c0.5,0.5,1.2,1,1.4,1.2c0.2,0.2,0.5,0.4,0.6,0.5c0.1,0.1,0.6,0.5,1,0.7c0.4,0.3,0.8,0.6,0.8,0.6c0.1,0.1,0.2,0.1,0.3,0.2
	c0.1,0.1,0.5,0.4,0.9,0.6c0.5,0.3,0.8,0.6,0.8,0.6s0.1,0.1,0.1,0.1c0.1,0.1,0.5,0.4,1,0.7c0.5,0.3,1.1,0.6,1.2,0.7
	c0.1,0.1,0.6,0.3,1,0.6s1.4,0.8,2.2,1.2c0.8,0.4,1.6,0.8,1.7,0.8c0.2,0.1,0.7,0.3,1.2,0.6c0.5,0.2,1.1,0.5,1.4,0.6s0.5,0.3,0.6,0.3
	c0.1,0,0.3,0.1,0.6,0.3c0.3,0.1,0.8,0.3,1.4,0.5c0.5,0.1,1,0.3,1,0.4c0.1,0.1,0.3,0.1,0.5,0.2c0.2,0.1,0.4,0.1,0.5,0.2
	c0.1,0.1,0.5,0.2,0.7,0.3c0.3,0.1,0.8,0.3,1.1,0.3c0.3,0.1,0.6,0.1,0.6,0.2c0.1,0.1,0.8,0.2,1.6,0.4c0.8,0.2,1.6,0.4,1.7,0.5
	c0.1,0.1,0.3,0.1,0.4,0.1c0.1,0,0.2,0.1,0.3,0.1c0.1,0.1,0.5,0.1,1,0.3c0.5,0.1,0.9,0.2,1,0.2s0.3,0.1,0.6,0.1
	c0.3,0,0.7,0.1,0.9,0.1c0.2,0.1,0.5,0.1,0.7,0.1c0.2,0.1,0.8,0.1,1.2,0.2c0.5,0.1,0.9,0.1,1,0.2c0.1,0.1,0.6,0.1,1.4,0.2
	c0.7,0.1,1.8,0.1,2.5,0.2C99.9,124.4,101.5,124.4,102.8,124.4L102.8,124.4z M119.3,119.9c1.1,0,1.9-0.1,1.9-0.1
	c0.1-0.1,0.8-0.2,1.7-0.3c0.8-0.1,1.6-0.2,1.6-0.3c0.1-0.1,0.3-0.1,0.5-0.1c0.2,0,0.5-0.1,0.7-0.1c0.2,0,0.3-0.1,0.4-0.1
	c0,0,0.3-0.1,0.7-0.3c0.4-0.1,0.8-0.3,1.1-0.3c0.3-0.1,0.6-0.2,0.7-0.3c0.1-0.1,0.5-0.3,0.8-0.4s0.6-0.3,0.6-0.3s0.1-0.1,0.2-0.1
	c0-0.1,0.3-0.2,0.6-0.3c0.3-0.1,0.6-0.3,0.8-0.3c0.1-0.1,0.6-0.3,1.2-0.6c0.5-0.3,1.2-0.6,1.4-0.8c0.3-0.1,0.6-0.3,0.8-0.4
	c0.1-0.1,0.3-0.1,0.3-0.2c0-0.1,0.1-0.1,0.3-0.2c0.1-0.1,0.3-0.1,0.3-0.2c0,0,0.3-0.2,0.6-0.5c0.3-0.2,0.6-0.4,0.6-0.4
	s0.1-0.1,0.2-0.1c0.1-0.1,0.2-0.2,0.3-0.3c0.1-0.1,0.3-0.2,0.3-0.2c0.1-0.1,0.3-0.3,0.5-0.4c0.2-0.1,0.4-0.3,0.5-0.3
	c0.1,0,0.1-0.1,0.2-0.2c0.1-0.1,0.1-0.2,0.2-0.2s0.3-0.2,0.6-0.5c0.3-0.3,0.8-0.6,1.1-0.8c0.3-0.2,0.5-0.4,0.6-0.5
	c0.1,0,0.3-0.3,0.6-0.5c0.3-0.3,0.6-0.5,0.7-0.6c0.1-0.1,0.6-0.5,1.1-1s1-0.9,1-1c0.1-0.1,0.3-0.3,0.4-0.4c0.1-0.1,0.4-0.4,0.7-0.7
	c0.3-0.3,0.8-0.8,1.1-1.1c0.3-0.3,0.8-0.8,1.1-1.2c0.3-0.3,0.7-0.8,0.8-1c0.2-0.2,0.4-0.5,0.5-0.6c0.1-0.1,0.3-0.4,0.4-0.5
	c0.1-0.1,0.5-0.6,0.8-1.1c0.3-0.5,0.8-1,1-1.3c0.2-0.3,0.5-0.7,0.8-1c0.2-0.3,0.4-0.6,0.4-0.6s0.1-0.2,0.3-0.5
	c0.1-0.3,0.3-0.4,0.3-0.5c0-0.1,0.2-0.3,0.3-0.6c0.2-0.3,0.5-0.7,0.6-1c0.1-0.3,0.4-0.6,0.5-0.8c0.1-0.2,0.3-0.5,0.4-0.6
	c0.1-0.1,0.2-0.3,0.2-0.3c0-0.1,0.1-0.3,0.2-0.5c0.1-0.2,0.2-0.4,0.2-0.5c0-0.1,0.1-0.1,0.1-0.1c0.1,0,0.3-0.3,0.4-0.7
	c0.2-0.4,0.3-0.8,0.3-0.8c0-0.1,0-0.1,0.1-0.1s0.1-0.2,0.3-0.5c0.1-0.3,0.3-0.7,0.5-1.1c0.2-0.4,0.4-0.8,0.5-1
	c0.1-0.2,0.2-0.4,0.2-0.5c0,0,0.1-0.3,0.2-0.5c0.1-0.3,0.2-0.5,0.2-0.5c0,0,0.1-0.2,0.1-0.3c0.1-0.1,0.3-0.6,0.4-1.1
	c0.1-0.5,0.4-1,0.5-1.3c0.1-0.3,0.2-0.5,0.3-0.6c0.1-0.1,0.1-0.3,0.1-0.5c0.1-0.2,0.1-0.5,0.2-0.6s0.2-0.6,0.3-1.1s0.3-0.8,0.3-0.9
	c0.1-0.1,0.1-0.2,0.1-0.3c0-0.1,0.1-0.5,0.2-0.8s0.2-0.8,0.3-1.2s0.2-0.7,0.2-0.7c0.1-0.1,0.1-0.3,0.1-0.6c0.1-0.3,0.1-0.8,0.2-1.2
	s0.1-1,0.2-1.4c0.1-0.4,0.1-0.9,0.1-1.2s0.1-0.6,0.1-0.7c0.1-0.1,0.1-0.6,0.1-1.2c0-0.6,0.1-1.4,0.1-1.9c0-0.5,0.1-1,0.1-1.1
	s0.1-1.3,0.1-3.1c0-1.9,0-3-0.1-3.1c-0.1-0.1-0.1-0.6-0.1-1.2s-0.1-1.6-0.2-2.1c-0.1-0.6-0.2-1.4-0.3-1.8c-0.1-0.5-0.2-1-0.2-1.3
	c-0.1-0.3-0.1-0.7-0.2-1c-0.1-0.3-0.1-0.6-0.1-0.8c-0.1-0.2-0.1-0.7-0.3-1.2c-0.1-0.5-0.2-0.9-0.3-1s-0.2-0.5-0.3-1
	c-0.1-0.5-0.3-1-0.3-1.4c-0.1-0.3-0.1-0.6-0.2-0.7s-0.1-0.4-0.3-0.6c-0.1-0.3-0.2-0.6-0.3-0.9c-0.1-0.2-0.3-0.9-0.5-1.6
	c-0.3-0.6-0.5-1.3-0.6-1.4c-0.1-0.1-0.2-0.5-0.3-0.7c-0.1-0.3-0.3-0.6-0.3-0.8c-0.1-0.2-0.3-0.5-0.3-0.8c-0.1-0.3-0.3-0.7-0.5-1
	c-0.2-0.3-0.3-0.6-0.3-0.7s-0.2-0.5-0.5-1.1c-0.3-0.5-0.6-1.1-0.6-1.2c-0.1-0.1-0.2-0.4-0.3-0.5c-0.1-0.1-0.3-0.5-0.4-0.8
	s-0.3-0.5-0.4-0.6c-0.1-0.1-0.1-0.1-0.1-0.2s-0.1-0.1-0.1-0.3c-0.1-0.1-0.3-0.4-0.4-0.6c-0.1-0.3-0.3-0.5-0.4-0.5s-0.1,0-0.1,0.1
	s-0.1,1.3-0.1,2.7c0,1.6,0,2.6-0.1,2.7c-0.1,0.1-0.1,0.5-0.1,1c0,0.5-0.1,1.2-0.1,1.6c-0.1,0.3-0.1,0.8-0.2,1.1
	c-0.1,0.3-0.1,0.7-0.2,1c-0.1,0.3-0.1,0.6-0.1,0.7c-0.1,0.1-0.1,0.5-0.3,1c-0.1,0.5-0.2,1-0.3,1.2c-0.1,0.1-0.3,0.6-0.4,1.1
	c-0.1,0.5-0.3,0.9-0.3,0.9c-0.1,0.1-0.1,0.1-0.1,0.2c0,0.1-0.1,0.4-0.3,0.8c-0.1,0.4-0.3,0.8-0.4,0.9c-0.1,0.1-0.1,0.3-0.1,0.3
	s-0.3,0.6-0.6,1.2s-0.8,1.5-1,1.8c-0.2,0.3-0.5,0.8-0.5,0.8c-0.1,0.1-0.2,0.3-0.3,0.3c-0.1,0.1-0.1,0.2-0.1,0.3s-0.3,0.5-0.6,0.8
	c-0.3,0.4-0.7,0.8-0.8,1c-0.1,0.1-0.8,0.9-1.6,1.7c-0.8,0.8-1.6,1.5-1.7,1.6c-0.2,0.1-0.4,0.3-0.5,0.3s-0.3,0.3-0.4,0.3
	s-0.3,0.2-0.3,0.2s-0.3,0.1-0.5,0.3s-0.5,0.3-0.5,0.3c-0.1,0-0.1,0-0.1,0.1s-0.1,0.1-0.1,0.1c-0.1,0.1-0.5,0.3-0.8,0.5
	c-0.4,0.3-0.8,0.5-1,0.6c-0.1,0.1-0.3,0.1-0.4,0.2c-0.1,0.1-0.3,0.2-0.6,0.3c-0.3,0.1-0.5,0.3-0.6,0.3s-0.3,0.1-0.5,0.2
	c-0.2,0.1-0.5,0.2-0.6,0.3s-0.4,0.1-0.5,0.1s-0.4,0.1-0.6,0.3s-0.6,0.3-0.6,0.2c-0.1,0-0.3,0-0.5,0.1s-0.6,0.2-0.8,0.2
	c-0.3,0.1-0.5,0.1-0.5,0.1c-0.1,0.1-0.3,0.1-0.6,0.2c-0.3,0.1-0.6,0.1-0.8,0.2c-0.2,0-0.4,0.1-0.5,0.2c-0.1,0.1-0.1,0.2,0,0.4
	c0.1,0.1,0.3,0.3,0.5,0.5c0.2,0.1,0.5,0.3,0.5,0.3c0.1,0.1,0.4,0.3,0.6,0.5c0.3,0.2,0.8,0.7,1.3,1.1s0.8,0.9,0.9,1
	c0.1,0.2,0.2,0.3,0.2,0.3c0.1,0,0.1,0.2,0.3,0.4c0.1,0.2,0.2,0.5,0.3,0.5c0.1,0.1,0.2,0.3,0.3,0.4s0.3,0.8,0.6,1.6
	c0.3,0.7,0.5,1.5,0.5,1.7c0,0.2,0.1,0.9,0.1,1.5c0.1,0.8,0.1,1.4-0.1,2.4c-0.1,0.7-0.1,1.4-0.2,1.6c0,0.1-0.1,0.4-0.1,0.5
	c-0.1,0.1-0.1,0.5-0.2,0.8c-0.1,0.3-0.3,0.8-0.3,1.2c-0.1,0.3-0.3,0.7-0.4,1c-0.1,0.3-0.2,0.5-0.2,0.5c0,0.1-0.1,0.1-0.1,0.1
	c-0.1,0.1-0.2,0.4-0.4,0.7c-0.2,0.3-0.4,0.8-0.5,0.9s-0.2,0.3-0.2,0.3s-0.1,0.2-0.2,0.3c-0.1,0.1-0.5,0.6-0.7,1
	c-0.3,0.4-0.7,0.8-0.8,1c-0.1,0.2-0.5,0.5-0.8,0.7c-0.3,0.2-0.8,0.6-1.2,1c-0.4,0.3-0.8,0.6-0.9,0.6c-0.1,0.1-0.2,0.1-0.2,0.1
	s-0.5,0.3-1.2,0.6c-0.7,0.3-1.2,0.6-1.2,0.6c0,0-0.5,0.2-0.9,0.4s-0.9,0.3-1,0.3s-0.2,0.1-0.3,0.1c-0.1,0.1-0.8,0.3-1.6,0.5
	c-1.1,0.3-1.4,0.3-2.3,0.4c-0.6,0-1.1,0.1-1.2,0.1c-0.1,0.1-0.2,0.1-0.3,0.1s-0.3,0.1-0.4,0.1c-0.1,0.1-0.1,0.2-0.1,0.3
	c0,0.1,0.4,0.5,0.7,0.9c0.4,0.4,0.8,0.8,1,0.8c0.2,0.1,0.3,0.2,0.3,0.2c0,0.1,0.1,0.1,0.1,0.1s0.1,0.1,0.2,0.1
	c0.1,0.1,0.3,0.2,0.4,0.3c0.1,0.1,0.3,0.2,0.4,0.3c0.1,0.1,0.3,0.2,0.5,0.3c0.2,0.1,0.4,0.3,0.4,0.3c0,0,0.2,0.1,0.3,0.1
	c0.1,0.1,0.6,0.2,1,0.3c0.5,0.1,0.9,0.2,1,0.3c0.1,0,0.9,0.1,1.7,0.1c1.3,0,1.7,0,2.7-0.2c0.6-0.1,1.5-0.3,1.8-0.4
	c0.3-0.1,1-0.3,1.4-0.5c0.5-0.2,1-0.4,1.2-0.5c0.2-0.1,0.5-0.2,0.5-0.2c0.1,0,0.5-0.3,0.8-0.5c0.4-0.3,0.8-0.5,1-0.6
	c0.1-0.1,0.3-0.2,0.3-0.3c0-0.1,0.1-0.1,0.1-0.1c0.1,0,0.3-0.1,0.5-0.3s0.4-0.3,0.5-0.3c0.1-0.1,0.3-0.2,0.6-0.4
	c0.3-0.2,0.5-0.3,0.5-0.4c0-0.1,0.1-0.1,0.1-0.1c0.1,0,0.5-0.4,0.8-0.8c0.5-0.5,0.8-0.9,0.9-1c0.1-0.1,0.2-0.3,0.3-0.4
	c0.1-0.1,0.3-0.3,0.5-0.5s0.4-0.4,0.5-0.5c0.1-0.1,0.2-0.3,0.3-0.4c0.1-0.1,0.2-0.3,0.3-0.3c0.1-0.1,0.2-0.2,0.2-0.3
	c0-0.1,0.1-0.2,0.2-0.3c0.1-0.1,0.4-0.5,0.6-0.9c0.3-0.4,0.5-0.7,0.5-0.8s0.1-0.1,0.1-0.1c0.1,0,0.1-0.1,0.2-0.3s0.2-0.4,0.3-0.5
	c0.1-0.1,0.3-0.4,0.3-0.5s0.3-0.6,0.6-1c0.3-0.5,0.5-0.8,0.5-1c0-0.1,0.1-0.3,0.3-0.6c0.1-0.3,0.3-0.6,0.4-0.8
	c0.1-0.2,0.2-0.5,0.3-0.6c0.1-0.1,0.1-0.5,0.3-0.8c0.1-0.3,0.2-0.5,0.3-0.6s0.1-0.3,0.2-0.5c0.1-0.2,0.1-0.6,0.2-0.8
	c0.1-0.2,0.2-0.8,0.3-1.2c0.1-0.5,0.3-1.3,0.5-1.8c0.1-0.6,0.3-1.3,0.3-1.6c0.1-0.3,0.2-0.7,0.3-1l0.2-0.5h0.5c0.4,0,0.5,0,0.6,0.3
	c0.1,0.1,0.1,0.4,0.1,0.7c0,0.3-0.1,0.6-0.1,0.6c-0.1,0.1-0.1,0.5-0.2,1c-0.1,0.5-0.2,1.2-0.3,1.6c-0.1,0.4-0.2,0.9-0.3,1
	c-0.1,0.1-0.1,0.5-0.2,0.7c-0.1,0.3-0.2,0.8-0.3,1.1s-0.3,0.7-0.3,0.8c-0.1,0.1-0.2,0.6-0.4,1.1s-0.5,1.2-0.6,1.6
	c-0.2,0.3-0.4,0.8-0.5,1s-0.3,0.5-0.3,0.7s-0.3,0.5-0.3,0.7s-0.2,0.5-0.3,0.5c-0.1,0.1-0.1,0.3-0.2,0.4c-0.1,0.1-0.1,0.3-0.2,0.4
	s-0.2,0.3-0.3,0.4c-0.1,0.1-0.3,0.5-0.3,0.6c-0.1,0.2-0.2,0.3-0.2,0.3c-0.1,0-0.1,0.1-0.1,0.1c0,0.1-0.1,0.3-0.3,0.6
	c-0.2,0.3-0.5,0.7-0.6,1c-0.1,0.3-0.3,0.5-0.4,0.5s-0.1,0.1-0.2,0.3c-0.1,0.2-0.3,0.5-0.5,0.7c-0.2,0.2-0.3,0.4-0.3,0.5
	c0,0.1-0.1,0.1-0.2,0.3c-0.1,0.1-0.3,0.3-0.5,0.5c-0.1,0.2-0.5,0.5-0.7,0.8c-0.2,0.2-0.6,0.6-0.8,0.8c-0.2,0.2-0.6,0.6-1,0.9
	c-0.3,0.3-0.8,0.7-1,0.9c-0.2,0.2-0.4,0.4-0.4,0.5s-0.1,0.1-0.1,0.1s-0.2,0.1-0.3,0.1c-0.1,0.1-0.3,0.2-0.3,0.2
	c-0.1,0.1-0.3,0.3-0.6,0.5c-0.3,0.2-0.6,0.4-0.6,0.4s-0.3,0.1-0.5,0.3c-0.3,0.2-0.6,0.4-0.8,0.5c-0.2,0.1-0.4,0.2-0.5,0.3
	s-0.3,0.2-0.5,0.3c-0.3,0.1-0.5,0.2-0.5,0.2c-0.1,0-0.3,0.1-0.5,0.2c-0.2,0.1-0.5,0.2-0.6,0.3c-0.1,0.1-0.4,0.1-0.6,0.3
	c-0.3,0.1-0.5,0.2-0.6,0.2s-0.3,0.1-0.4,0.1c-0.1,0.1-0.5,0.1-0.6,0.2c-0.2,0.1-0.4,0.1-0.5,0.1c0,0-0.1,0-0.2,0.1
	c-0.1,0.1-0.3,0.1-0.6,0.1s-0.5,0.1-0.5,0.1c-0.1,0-0.5,0.1-0.9,0.2c-0.5,0.1-1.3,0.1-2,0.1c-0.6,0-1.3,0-1.5-0.1
	c-0.1,0-0.5-0.1-0.7-0.2c-0.3-0.1-0.5-0.1-0.6-0.1s-0.3-0.1-0.3-0.1c-0.1-0.1-0.2-0.1-0.3-0.1c-0.1,0-0.3,0-0.5-0.1
	c-0.2-0.1-0.4-0.2-0.5-0.3c-0.1-0.1-0.1-0.1-0.2-0.1c-0.1,0-0.3-0.1-0.6-0.2c-0.3-0.1-0.8-0.4-1.3-0.6c-0.5-0.2-0.8-0.5-0.8-0.5
	c0-0.1-0.1-0.1-0.3-0.2c-0.1-0.1-0.3-0.2-0.3-0.2c0-0.1-0.1-0.1-0.1-0.1s-0.2-0.1-0.3-0.2s-0.2-0.2-0.3-0.2s-0.5-0.3-0.8-0.8
	c-0.4-0.4-0.8-0.8-0.8-1c-0.1-0.1-0.2-0.3-0.4-0.5c-0.1-0.2-0.3-0.5-0.5-0.6c-0.1-0.1-0.4-0.7-0.6-1.3c-0.4-0.8-0.6-1-0.8-1.2
	c-0.1-0.1-0.5-0.2-0.6-0.2c-0.2,0-0.3-0.1-0.4-0.1s-0.3-0.1-0.6-0.2c-0.3-0.1-0.5-0.1-0.6-0.2c-0.1-0.1-0.4-0.1-0.6-0.2
	c-0.3-0.1-0.6-0.1-0.6-0.1s-0.2,0-0.2-0.1s-0.3-0.1-0.5-0.2c-0.3-0.1-0.6-0.2-0.8-0.3c-0.1-0.1-0.3-0.1-0.5-0.1
	c-0.1,0-0.3-0.1-0.5-0.1c-0.2-0.1-0.4-0.2-0.5-0.2c-0.1-0.1-0.3-0.1-0.5-0.3c-0.1-0.1-0.4-0.2-0.5-0.2c-0.1,0-0.5-0.2-0.9-0.4
	l-0.7-0.3l-2.4-0.1c-1.4-0.1-2.7-0.1-3-0.1c-0.4,0-0.8-0.1-1-0.1c-0.1,0-0.4-0.1-0.5-0.1s-0.3-0.1-0.4-0.1c-0.1,0-0.5-0.1-1-0.1
	c-0.5-0.1-1.2-0.1-1.5-0.2c-0.3-0.1-1-0.2-1.6-0.3c-0.7-0.1-1-0.1-1.1-0.1c-0.1,0.1-0.3,0.3-0.3,0.5s-0.3,0.7-0.3,1.2
	s-0.2,1.3-0.3,1.8c-0.1,0.6-0.1,1.7-0.1,2.6s0.1,1.9,0.1,2.4s0.2,1.3,0.3,1.7c0.1,0.5,0.2,1,0.3,1s0.2,0.6,0.4,1.2
	c0.2,0.6,0.4,1.2,0.5,1.4c0.1,0.3,0.2,0.5,0.2,0.5c0,0.1,0.3,0.6,0.6,1.4c0.3,0.7,0.9,1.6,1.2,2.1c0.3,0.5,0.6,0.9,0.6,1
	c0.1,0.1,0.2,0.3,0.4,0.5c0.2,0.2,0.4,0.5,0.5,0.6c0.1,0.1,0.4,0.4,0.6,0.7c0.3,0.3,0.8,0.8,1.2,1.2c0.4,0.4,1,1,1.3,1.2
	c0.3,0.3,0.8,0.7,1.1,1c0.3,0.3,0.6,0.5,0.6,0.6c0.1,0.1,0.1,0.1,0.1,0.1s0.4,0.2,0.8,0.5c0.4,0.3,0.9,0.6,1.1,0.7
	c0.2,0.1,0.5,0.3,0.6,0.3c0.1,0.1,0.6,0.3,1,0.5c0.4,0.2,0.7,0.4,0.7,0.4s0.3,0.1,0.5,0.2c0.3,0.1,0.6,0.3,0.8,0.3
	c0.2,0.1,0.5,0.2,0.5,0.2c0.1,0.1,0.5,0.2,0.9,0.3c0.5,0.1,1.1,0.3,1.4,0.5s0.9,0.3,1.2,0.3c0.3,0.1,0.6,0.1,0.6,0.1
	c0,0.1,0.2,0.1,0.5,0.1c0.3,0,0.6,0.1,0.8,0.1c0.2,0.1,0.9,0.2,1.6,0.3c0.6,0.1,1.4,0.2,1.6,0.2s0.5,0.1,0.5,0.1
	c0.1,0.1,0.4,0.1,0.8,0.1S118.3,119.9,119.3,119.9L119.3,119.9z M119.4,92.4c0.6,0,1.2-0.1,1.4-0.1c0.1,0,0.3-0.1,0.4-0.1
	c0.1-0.1,0.3-0.1,0.6-0.1c0.3,0,0.8-0.1,1.1-0.2c0.3-0.1,0.7-0.2,0.8-0.3c0.1-0.1,0.4-0.1,0.6-0.1s0.5-0.1,0.6-0.2
	c0.1-0.1,0.4-0.1,0.4-0.1s0.6-0.3,1.1-0.5c0.6-0.3,1.1-0.6,1.2-0.6c0.1-0.1,0.2-0.1,0.2-0.1c0.1,0,0.1-0.1,0.3-0.1
	c0.1-0.1,0.2-0.2,0.3-0.2c0.1,0,0.5-0.3,0.8-0.6s1.1-1,1.7-1.6c0.6-0.6,1-1,1-1.1s0.1-0.1,0.1-0.3c0.1-0.1,0.3-0.5,0.6-0.8
	c0.2-0.3,0.5-0.8,0.6-1c0.1-0.2,0.4-0.7,0.6-1.2c0.2-0.5,0.5-1,0.5-1.2c0.1-0.2,0.1-0.5,0.2-0.6c0.1-0.1,0.2-0.6,0.3-1.2
	c0.1-0.5,0.2-1.3,0.2-1.7s0-1-0.1-1.2c-0.1-0.2-0.1-0.8-0.2-1.3c-0.1-0.5-0.2-1.2-0.3-1.6c-0.1-0.3-0.3-0.6-0.3-0.6
	c-0.1-0.1-0.1-0.3-0.2-0.4c-0.1-0.2-0.2-0.5-0.3-0.6c-0.1-0.1-0.4-0.5-0.6-0.8c-0.3-0.3-0.7-0.8-1-1.1c-0.3-0.3-0.8-0.6-1-0.8
	c-0.3-0.2-0.6-0.4-0.8-0.5c-0.2-0.1-0.4-0.2-0.5-0.2c-0.1,0-0.1-0.1-0.2-0.1c-0.1-0.1-0.3-0.1-0.4-0.2c-0.2,0-0.4-0.1-0.5-0.1
	s-0.3-0.1-0.3-0.1c-0.1-0.1-0.3-0.1-0.3-0.1c-0.1,0-0.2-0.1-0.3-0.1c-0.1-0.1-0.5-0.1-0.8-0.2c-0.5-0.1-1.2-0.1-1.6-0.1
	s-1,0.1-1.4,0.1s-0.7,0.1-0.9,0.2c-0.2,0.1-0.5,0.2-0.6,0.3c-0.1,0.1-0.5,0.3-0.6,0.4c-0.2,0.1-0.5,0.3-0.6,0.5
	c-0.2,0.1-0.5,0.4-0.6,0.5c-0.1,0.1-0.3,0.3-0.4,0.5c-0.1,0.1-0.3,0.3-0.3,0.5c-0.1,0.2-0.3,0.5-0.3,0.6c-0.1,0.1-0.2,0.4-0.2,0.5
	c-0.1,0.1-0.1,0.4-0.3,0.7c-0.1,0.3-0.2,0.7-0.3,1s-0.1,1-0.2,1.9c-0.1,0.8-0.1,1.6-0.1,1.7c-0.1,0.1-0.2,0.2-0.4,0.3
	c-0.1,0.1-0.5,0.1-0.8,0.1c-0.3,0-0.8-0.1-1.2-0.1c-0.3-0.1-0.9-0.2-1.2-0.3c-0.4-0.1-0.8-0.3-0.9-0.3s-0.3-0.1-0.4-0.1
	s-0.2,0-0.2-0.1s-0.2-0.1-0.4-0.2s-0.6-0.3-1-0.5c-0.3-0.2-0.8-0.5-1-0.5c-0.2-0.1-0.6-0.4-0.8-0.6c-0.3-0.2-0.5-0.3-0.5-0.3
	s-0.1-0.1-0.1-0.1s-0.1-0.1-0.1-0.2c-0.1-0.1-0.6-0.5-1-0.9c-0.5-0.5-1-1-1.2-1.1c-0.2-0.1-0.6-0.7-1-1.2c-0.5-0.5-0.8-1-0.9-1.2
	c-0.1-0.1-0.4-0.6-0.6-0.9s-0.6-0.8-0.8-1c-0.1-0.2-0.4-0.5-0.6-0.6c-0.3-0.1-0.5-0.2-1.3-0.2c-0.5,0-1.6,0-2.4,0
	c-0.8,0-1.7,0-2.1,0.1c-0.4,0-1,0.1-1.4,0.2c-0.4,0.1-1,0.2-1.5,0.3s-0.8,0.3-0.8,0.3c-0.1,0.1-0.3,0.1-0.6,0.3
	c-0.3,0.1-0.7,0.3-1,0.4c-0.2,0.1-0.6,0.3-0.9,0.5c-0.3,0.2-0.6,0.3-0.7,0.4c-0.1,0-0.5,0.3-0.8,0.6c-0.4,0.3-0.8,0.6-1,0.8
	c-0.2,0.2-0.4,0.4-0.4,0.5c0,0.1-0.1,0.1-0.1,0.2c-0.1,0.1-0.1,0.2,0.8,1.1c0.5,0.5,1,1.1,1.2,1.2s0.3,0.3,0.3,0.5
	c0.1,0.1,0.2,0.2,0.2,0.2c0.1,0,0.1,0.1,0.1,0.1s0.1,0.3,0.3,0.6s0.5,0.7,0.6,1.1c0.2,0.3,0.4,0.7,0.4,0.8c0,0.1,0.2,0.5,0.4,0.8
	c0.2,0.3,0.4,0.6,0.4,0.7c0.1,0,0.1,0.1,0.1,0.1s0.5,0.5,1,1c0.6,0.5,1.2,1.2,1.4,1.4c0.3,0.2,0.6,0.5,0.8,0.7
	c0.2,0.1,0.4,0.3,0.5,0.3c0.1,0,0.1,0.1,0.2,0.1c0.1,0.1,0.3,0.3,0.5,0.5c0.3,0.2,0.5,0.4,0.6,0.5c0.1,0.1,0.3,0.2,0.4,0.3
	c0.1,0.1,0.3,0.2,0.3,0.2c0,0.1,0.1,0.1,0.2,0.2c0.1,0.1,0.5,0.3,0.8,0.5c0.3,0.2,0.6,0.5,0.8,0.5c0.1,0.1,0.2,0.2,0.3,0.2
	c0,0.1,0.1,0.1,0.1,0.1s0.3,0.1,0.5,0.3c0.2,0.1,0.5,0.3,0.5,0.3c0.1,0,0.1,0,0.1,0.1c0,0.1,0.1,0.2,0.3,0.3
	c0.1,0.1,0.4,0.3,0.6,0.3c0.2,0.1,0.4,0.2,0.6,0.3c0.2,0.1,0.5,0.3,0.6,0.4c0.2,0.1,0.4,0.2,0.4,0.2c0.1,0,0.1,0.1,0.3,0.1
	c0.1,0.1,0.6,0.3,1,0.6s1.1,0.5,1.4,0.6c0.3,0.1,0.6,0.3,0.6,0.3s0.3,0.1,0.5,0.2c0.2,0.1,0.5,0.3,0.6,0.3c0.1,0.1,0.4,0.1,0.5,0.2
	c0.1,0.1,0.6,0.3,1.2,0.4c0.5,0.2,1.2,0.4,1.4,0.5s0.8,0.3,1.3,0.4c0.5,0.1,0.8,0.2,1,0.2s0.2,0.1,0.2,0.1c0,0.1,0.5,0.1,0.9,0.2
	c0.5,0.1,1.1,0.1,1.4,0.2c0.3,0,0.5,0.1,0.5,0.1c0,0.1,0.1,0.1,0.3,0c0.1,0,0.4,0,0.5,0.1C118.1,92.3,118.8,92.4,119.4,92.4
	L119.4,92.4z M127.9,76.5c-0.3,0-0.5-0.1-0.7-0.2c-0.2-0.1-0.5-0.3-0.6-0.5c-0.2-0.1-0.3-0.5-0.4-0.6c-0.1-0.2-0.1-0.5-0.1-0.6
	c0-0.1,0.1-0.4,0.1-0.6c0.1-0.1,0.1-0.3,0.1-0.3s0.1-0.1,0.2-0.3c0.1-0.1,0.3-0.3,0.6-0.4c0.3-0.1,0.6-0.2,0.8-0.2
	c0.2,0,0.5,0.1,0.7,0.2c0.2,0.1,0.5,0.3,0.6,0.5c0.1,0.1,0.2,0.4,0.3,0.6c0.1,0.2,0.1,0.5,0.1,0.7c0,0.2-0.1,0.6-0.2,0.8
	c-0.1,0.3-0.3,0.4-0.6,0.6C128.4,76.4,128.2,76.5,127.9,76.5L127.9,76.5z M127.8,75.3c0.2,0,0.3-0.1,0.5-0.2
	c0.1-0.1,0.2-0.3,0.2-0.4c0-0.1-0.1-0.3-0.2-0.4c-0.1-0.1-0.3-0.2-0.5-0.2s-0.3,0.1-0.5,0.2c-0.1,0.1-0.2,0.3-0.2,0.4
	c0,0.1,0.1,0.3,0.2,0.4C127.5,75.2,127.6,75.3,127.8,75.3z M81.4,88.2c0.3,0,1-0.1,1.4-0.2c0.5-0.1,1-0.2,1.1-0.3
	c0.1-0.1,0.3-0.1,0.3-0.1s0.4-0.1,0.8-0.3c0.3-0.1,0.7-0.3,0.9-0.5c0.2-0.1,0.4-0.3,0.6-0.3c0.2-0.1,0.6-0.3,0.8-0.6
	c0.3-0.2,0.7-0.6,1-1c0.3-0.3,0.7-0.8,0.8-1c0.1-0.2,0.3-0.5,0.4-0.6c0.1-0.1,0.2-0.3,0.3-0.5s0.2-0.5,0.3-0.6
	c0.1-0.1,0.1-0.4,0.1-0.5c0-0.1,0.1-0.3,0.1-0.4c0.1-0.1,0.1-0.6,0.1-1.1c0-0.6-0.1-1.1-0.1-1.6c-0.1-0.4-0.3-0.9-0.4-1.2
	s-0.4-0.8-0.6-1.1c-0.2-0.3-0.7-0.9-1-1.3s-0.8-0.8-1.1-1c-0.3-0.2-0.7-0.5-1-0.6c-0.3-0.2-0.8-0.4-0.9-0.5
	c-0.2-0.1-0.4-0.3-0.4-0.3c-0.1-0.1-0.1-0.3-0.1-0.5c0-0.3,0.1-0.5,0.3-0.8c0.2-0.2,0.3-0.5,0.4-0.5c0.1-0.1,0.1-0.1,0.1-0.1
	s0.3-0.4,0.8-0.8s0.8-0.8,0.8-0.8c0.1,0,0.2-0.1,0.3-0.2c0.1-0.1,0.3-0.3,0.4-0.3c0.1-0.1,0.2-0.1,0.3-0.2s0.3-0.3,0.6-0.4
	c0.3-0.2,0.6-0.4,0.8-0.5c0.2-0.1,0.5-0.3,0.6-0.3s0.5-0.3,0.8-0.3c0.3-0.1,0.7-0.3,0.8-0.3s0.4-0.1,0.5-0.2s0.3-0.1,0.5-0.2
	c0.1-0.1,0.6-0.2,1-0.3s1-0.2,1.4-0.3c0.4-0.1,0.8-0.1,0.8-0.2s0.5-0.1,0.8-0.2c0.4-0.1,0.9-0.1,1.1-0.1c0.2,0,0.5-0.1,0.7-0.1
	s0.6-0.1,0.9-0.1c0.5-0.1,0.6-0.1,1.1-0.6c0.3-0.3,0.7-0.7,0.8-1c0.1-0.3,0.3-0.5,0.3-0.5l0.1-0.1c0.1-0.1,0.2-0.2,0.3-0.3
	c0.1-0.1,0.3-0.5,0.5-0.7s0.3-0.6,0.4-0.7c0.1-0.1,0.4-0.7,0.7-1.3c0.3-0.6,0.5-1.1,0.5-1.2c0-0.1,0.1-0.2,0.1-0.3
	c0.1-0.1,0.2-0.5,0.3-0.8s0.2-0.8,0.3-1c0-0.3,0.1-0.5,0.1-0.6s0.1-0.5,0.2-0.8c0.1-0.4,0.1-1,0.1-1.4s-0.1-1-0.1-1.4
	c-0.1-0.4-0.1-0.8-0.2-1c-0.1-0.1-0.2-0.4-0.2-0.5c-0.1-0.2-0.1-0.2-0.5-0.2c-0.2,0-0.5,0.1-0.7,0.1c-0.2,0.1-0.5,0.2-0.6,0.2
	s-0.6,0.1-1,0.2c-0.6,0.1-1,0.1-2.2,0.1c-0.9,0-1.7-0.1-2.1-0.1s-0.8-0.1-1-0.1s-0.7,0-1,0.1c-0.3,0-1.1,0.1-1.7,0.3
	c-0.6,0.1-1.1,0.3-1.1,0.3c0,0.1-0.3,0.1-0.5,0.1c-0.3,0-0.5,0.1-0.5,0.2c-0.1,0.1-0.1,0.1-0.2,0.1s-0.6,0.2-1.2,0.4
	c-0.6,0.2-1.2,0.4-1.3,0.5c-0.1,0.1-0.3,0.1-0.4,0.2c-0.1,0.1-0.5,0.1-0.7,0.3c-0.3,0.1-0.6,0.3-0.8,0.3c-0.1,0.1-0.5,0.2-0.8,0.3
	c-0.3,0.1-0.8,0.4-1.3,0.6c-0.4,0.2-0.8,0.4-1,0.4c-0.1,0-0.2,0.1-0.2,0.1c0,0.1-0.2,0.1-0.4,0.3s-0.5,0.3-0.7,0.3
	c-0.2,0.1-0.5,0.2-0.6,0.3c-0.1,0.1-0.4,0.3-0.6,0.4c-0.2,0.1-0.4,0.2-0.4,0.2s-0.3,0.1-0.5,0.3c-0.3,0.1-0.5,0.3-0.6,0.3
	c-0.1,0.1-0.4,0.3-0.7,0.5c-0.3,0.2-0.6,0.4-0.6,0.5c-0.1,0.1-0.1,0.1-0.2,0.1s-0.1,0.1-0.2,0.1s-0.3,0.3-0.6,0.5
	c-0.3,0.2-0.5,0.3-0.5,0.3s-0.1,0.1-0.1,0.2c-0.1,0.1-0.2,0.2-0.3,0.2s-0.3-0.1-0.3,0s-0.1,0.2-0.2,0.3c-0.1,0.1-0.4,0.3-0.6,0.5
	c-0.2,0.2-0.6,0.5-0.9,0.8c-0.3,0.3-0.6,0.5-0.6,0.5c-0.1,0-0.4,0.3-0.8,0.7c-0.4,0.4-0.7,0.7-0.7,0.8c0,0-0.3,0.3-0.5,0.6
	c-0.3,0.3-0.6,0.6-0.7,0.8c-0.1,0.2-0.2,0.3-0.2,0.3s-0.2,0.3-0.5,0.6c-0.3,0.3-0.6,1-0.9,1.6c-0.3,0.5-0.5,1.1-0.6,1.3
	c-0.1,0.2-0.1,0.4-0.1,0.4c0,0.1-0.1,0.3-0.1,0.5c-0.1,0.2-0.1,0.5-0.2,0.6c-0.1,0.1-0.2,0.8-0.3,1.4c-0.1,1-0.2,1.4-0.1,2.7
	c0,0.9,0.1,1.8,0.1,2.1s0.1,0.8,0.2,1c0.1,0.3,0.1,0.6,0.2,0.6c0.1,0.1,0.1,0.1,0.1,0.2c0,0.1,0.1,0.5,0.3,0.8
	c0.1,0.4,0.3,0.9,0.5,1.1c0.1,0.2,0.3,0.5,0.3,0.7s0.4,0.7,0.6,1.2c0.3,0.5,0.6,0.9,0.7,1c0.1,0.1,0.3,0.3,0.3,0.3
	c0,0.1,0.3,0.4,0.6,0.8c0.4,0.4,0.9,0.9,1.2,1.2c0.3,0.3,0.7,0.6,0.8,0.7c0.1,0.1,0.3,0.3,0.4,0.3c0.1,0,0.1,0.1,0.2,0.1
	c0.1,0.1,0.3,0.3,0.6,0.4c0.3,0.1,0.5,0.3,0.6,0.4c0.1,0.1,0.3,0.2,0.6,0.3c0.3,0.1,0.6,0.3,0.7,0.3c0.1,0.1,0.3,0.1,0.5,0.2
	c0.1,0,0.5,0.1,0.8,0.2c0.3,0.1,0.8,0.2,1.2,0.2C80.6,88.2,81.1,88.2,81.4,88.2L81.4,88.2z M82.5,84c-0.2,0-0.4,0-0.4,0
	c0-0.1-0.1-0.1-0.3-0.1s-0.4-0.2-0.6-0.3c-0.2-0.2-0.4-0.4-0.5-0.6c-0.1-0.3-0.1-0.5-0.1-0.9c0-0.5,0.1-0.6,0.3-0.9
	c0.1-0.2,0.3-0.4,0.5-0.5s0.2-0.1,0.2-0.1c0-0.1,0.1-0.1,0.2-0.1c0.1,0,0.2-0.1,0.3-0.1c0-0.1,0.2-0.1,0.4-0.1
	c0.2,0,0.4,0.1,0.4,0.1c0,0.1,0.1,0.1,0.3,0.1c0.1,0,0.3,0.1,0.6,0.4c0.3,0.3,0.5,0.5,0.5,0.7c0.1,0.2,0.1,0.5,0.1,0.6
	c0,0.1-0.1,0.5-0.1,0.7s-0.2,0.5-0.4,0.6s-0.5,0.3-0.6,0.3C82.9,84,82.7,84,82.5,84L82.5,84z M82.4,82.6c0.1,0,0.3-0.1,0.5-0.2
	c0.1-0.1,0.2-0.3,0.2-0.5s-0.1-0.3-0.2-0.5s-0.3-0.2-0.5-0.2c-0.1,0-0.3,0.1-0.5,0.2c-0.1,0.1-0.2,0.3-0.2,0.5s0.1,0.3,0.2,0.5
	S82.3,82.6,82.4,82.6z M101.9,86.3C101.9,86.3,101.9,86.2,101.9,86.3C101.9,86.2,101.9,86.2,101.9,86.3
	C101.9,86.2,101.8,86.2,101.9,86.3C101.8,86.2,101.8,86.3,101.9,86.3z M116.1,75.3c0.1,0,0.2-0.1,0.3-0.2c0.1-0.1,0.3-0.5,0.3-0.9
	s0.2-0.9,0.3-1.2c0.1-0.3,0.2-0.6,0.3-0.9c0.1-0.2,0.3-0.6,0.4-0.8c0.1-0.3,0.3-0.5,0.3-0.6s0.3-0.4,0.4-0.6
	c0.1-0.3,0.4-0.6,0.5-0.8c0.1-0.2,0.2-0.4,0.2-0.5c0-0.1,0.1-0.3,0.1-0.4c0.1-0.1,0.3-0.8,0.5-1.4c0.2-0.6,0.3-1.2,0.3-1.2
	s0.1-0.2,0.1-0.3c0.1-0.1,0.1-0.5,0.2-0.8c0.1-0.4,0.1-0.7,0.2-0.8c0.1-0.1,0.1-0.3,0.1-0.6c0.1-0.3,0.1-0.7,0.2-1
	c0.1-0.3,0.2-1,0.3-1.6c0.1-0.6,0.2-1.2,0.2-1.3c0.1-0.1,0.1-0.6,0.1-1s0.1-1.1,0.1-1.4c0-0.3,0.1-1,0.1-1.7c0.1-1,0.1-1.7,0-3.5
	c-0.1-1.3-0.1-2.8-0.2-3.3c-0.1-0.5-0.1-1.2-0.2-1.5c-0.1-0.3-0.2-0.9-0.3-1.4c-0.1-0.5-0.2-1.1-0.3-1.4c-0.1-0.3-0.2-0.7-0.3-0.9
	c-0.1-0.2-0.2-0.6-0.3-1c-0.1-0.4-0.3-1-0.3-1.2c-0.1-0.2-0.3-0.8-0.5-1.1c-0.2-0.4-0.4-0.8-0.5-1.1c-0.1-0.3-0.3-0.6-0.4-0.7
	c-0.1-0.1-0.3-0.5-0.5-0.8c-0.2-0.3-0.6-0.8-0.8-1s-0.4-0.5-0.4-0.6c0-0.1-0.1-0.1-0.1-0.1s-0.3-0.3-0.6-0.6c-0.3-0.3-0.8-0.7-1-0.9
	c-0.2-0.2-0.5-0.4-0.6-0.5c-0.1-0.1-0.3-0.2-0.5-0.3c-0.2-0.1-0.4-0.3-0.5-0.3s-0.5-0.3-0.6-0.4c-0.2-0.1-0.5-0.3-0.5-0.3
	c0-0.1-0.1-0.1-0.3-0.1c-0.1-0.1-0.5-0.1-0.7-0.3s-0.6-0.3-0.9-0.4c-0.2-0.1-0.5-0.2-0.6-0.3c-0.1-0.1-0.3-0.1-0.3-0.1
	c-0.1,0-0.3-0.1-0.5-0.1c-0.2,0-0.3-0.1-0.4-0.1c0-0.1-0.5-0.1-1-0.3c-0.6-0.1-1.2-0.2-1.4-0.3c-0.2-0.1-0.5-0.1-0.7-0.1
	c-0.1,0-0.6,0.1-1,0.1c-0.4,0-0.9,0.1-1.1,0.1s-0.8,0.1-1.3,0.1c-0.5,0.1-1.2,0.1-1.5,0.3c-0.3,0.1-0.8,0.3-1.1,0.3
	c-0.3,0.1-0.6,0.3-0.8,0.3c-0.2,0.1-0.4,0.1-0.5,0.1s-0.1,0.1-0.1,0.1c0,0.1-0.1,0.1-0.2,0.1c-0.1,0-0.5,0.3-0.9,0.5s-0.8,0.5-1,0.7
	c-0.2,0.2-0.6,0.5-0.8,0.7c-0.3,0.3-0.5,0.5-0.5,0.5s-0.2,0.3-0.4,0.5c-0.2,0.3-0.5,0.6-0.6,0.8c-0.1,0.2-0.3,0.5-0.3,0.6
	s-0.1,0.4-0.2,0.5c-0.1,0.1-0.2,0.5-0.3,0.8c-0.1,0.3-0.2,0.8-0.3,1.2c-0.1,0.3-0.1,1-0.1,1.7c0,0.6,0.1,1.5,0.1,1.8
	c0.1,0.3,0.2,0.9,0.3,1.2c0.1,0.3,0.3,0.8,0.4,1c0.1,0.2,0.3,0.6,0.5,0.8c0.1,0.2,0.4,0.6,0.5,0.8c0.1,0.2,0.5,0.5,0.6,0.7
	c0.2,0.2,0.5,0.5,0.7,0.6c0.2,0.2,0.5,0.4,0.8,0.5c0.3,0.1,0.6,0.3,0.8,0.4c0.3,0.1,0.7,0.3,1,0.3c0.3,0.1,1,0.1,1.6,0.1
	c0.6,0,1.4-0.1,1.8-0.1c0.4-0.1,0.8-0.1,0.8-0.2c0.1-0.1,0.3-0.1,0.5-0.2c0.3-0.1,0.7-0.2,1-0.3c0.3-0.1,0.8-0.3,1-0.4
	c0.2-0.1,0.4-0.2,0.5-0.3c0.1-0.1,0.3-0.1,0.5-0.1c0.3-0.1,0.4,0,0.6,0.1c0.1,0.1,0.3,0.3,0.3,0.5s0.1,0.3,0.2,0.4
	c0.1,0.1,0.2,0.6,0.3,1.1c0.1,0.5,0.3,1.5,0.3,2.1s0.1,1.6,0.1,2.1s-0.1,1.3-0.2,1.7s-0.2,1-0.3,1.2c-0.1,0.3-0.1,0.6-0.2,0.6
	c-0.1,0.1-0.1,0.5-0.2,0.7c-0.1,0.3-0.3,0.9-0.4,1.3c-0.1,0.4-0.3,0.8-0.3,0.8c0,0.1-0.1,0.3-0.1,0.4c-0.1,0.2-0.3,0.6-0.5,1.1
	c-0.2,0.4-0.4,0.8-0.5,1c-0.1,0.1-0.2,0.4-0.3,0.6s0,0.5,0.1,0.8c0.1,0.3,0.1,0.5,0.2,0.5c0,0.1,0.1,0.3,0.2,0.4
	c0.1,0.2,0.2,0.5,0.3,0.8s0.3,0.6,0.3,0.7s0.2,0.4,0.3,0.6c0.1,0.2,0.3,0.6,0.5,0.8c0.1,0.3,0.3,0.5,0.3,0.5s0.1,0.1,0.1,0.1
	c0.1,0,0.1,0.1,0.1,0.2s0.1,0.3,0.2,0.4c0.1,0.1,0.3,0.5,0.6,0.8s0.6,0.8,0.8,1c0.2,0.3,0.5,0.6,0.7,0.8s0.5,0.5,0.6,0.6
	s0.4,0.3,0.6,0.5c0.2,0.1,0.3,0.3,0.3,0.3s0.2,0.1,0.4,0.3c0.2,0.1,0.4,0.3,0.5,0.3s0.1,0,0.1,0.1s0.1,0.1,0.3,0.2
	c0.1,0.1,0.6,0.3,1,0.5s0.8,0.4,1,0.5s0.6,0.3,1,0.3c0.4,0.1,0.8,0.2,0.9,0.3C115.9,75.3,116,75.3,116.1,75.3L116.1,75.3z
	 M98.5,41.3c-0.2,0-0.5,0-0.6,0s-0.4-0.1-0.5-0.3c-0.2-0.1-0.4-0.3-0.5-0.4c-0.1-0.1-0.2-0.3-0.3-0.4s-0.1-0.3-0.1-0.5
	s0-0.6,0.1-0.8c0.1-0.3,0.2-0.5,0.4-0.7c0.1-0.1,0.3-0.3,0.5-0.4s0.5-0.1,0.6-0.2c0.3-0.1,0.6,0,0.9,0.1c0.3,0.1,0.5,0.3,0.6,0.3
	c0.1,0.1,0.3,0.4,0.4,0.6c0.1,0.3,0.1,0.5,0.1,0.8c0,0.3-0.1,0.6-0.1,0.7c-0.1,0.2-0.2,0.4-0.4,0.5c-0.1,0.1-0.3,0.2-0.3,0.3
	c0,0.1-0.1,0.1-0.1,0.1c-0.1,0-0.3,0.2-0.4,0.3C98.8,41.2,98.7,41.3,98.5,41.3L98.5,41.3z M98.3,40c0.1,0,0.3-0.1,0.4-0.2
	c0.1-0.1,0.2-0.3,0.2-0.4c0-0.1-0.1-0.3-0.2-0.4c-0.1-0.1-0.3-0.2-0.4-0.2S98,38.9,97.9,39s-0.2,0.3-0.2,0.4c0,0.1,0.1,0.3,0.2,0.4
	C98,39.9,98.2,40,98.3,40z M130.2,62.7c0.3,0,0.5-0.1,0.5-0.1c0.1-0.1,0.3-0.1,0.5-0.2c0.3-0.1,0.7-0.3,1-0.4
	c0.3-0.1,0.6-0.3,0.6-0.3s0.2-0.1,0.3-0.1c0.1-0.1,0.5-0.2,0.9-0.4c0.4-0.2,0.8-0.3,0.9-0.3c0.1,0,0.1-0.1,0.1-0.1
	c0-0.1,0.1-0.1,0.3-0.2s0.5-0.3,0.8-0.5c0.3-0.2,0.5-0.3,0.6-0.3s0.1-0.1,0.1-0.1c0-0.1,0.1-0.1,0.1-0.1c0.1,0,0.3-0.1,0.5-0.3
	c0.3-0.1,0.5-0.3,0.6-0.4s0.3-0.2,0.4-0.3c0.1-0.1,0.3-0.2,0.3-0.3c0.1-0.1,0.1-0.2,0.2-0.2s0.4-0.3,0.8-0.6c0.4-0.3,1-0.8,1.2-1.1
	c0.3-0.3,0.7-0.7,0.9-1c0.3-0.3,0.6-0.7,0.8-1c0.3-0.3,0.6-0.8,0.8-1.2c0.2-0.4,0.5-0.6,0.5-0.7s0.1-0.1,0.1-0.2
	c0.1-0.1,0.3-0.4,0.5-0.7c0.2-0.3,0.4-0.7,0.5-0.8c0.1-0.1,0.3-0.6,0.5-1.1c0.2-0.5,0.4-1,0.5-1.2c0.1-0.2,0.2-0.6,0.3-0.8
	c0.1-0.3,0.3-0.8,0.4-1.2c0.1-0.5,0.2-0.8,0.3-0.8c0,0,0.1-0.4,0.1-0.8c0.1-0.5,0.1-1.3,0.3-1.9c0.1-0.6,0.2-1.8,0.2-2.7
	c0.1-1,0-1.9-0.1-2.6c-0.1-0.6-0.2-1.5-0.3-2.1s-0.3-1.3-0.3-1.6s-0.3-0.8-0.3-1.2c-0.1-0.4-0.3-1-0.5-1.5c-0.1-0.5-0.3-1-0.4-1.3
	c-0.1-0.3-0.2-0.6-0.3-0.6c-0.1-0.1-0.1-0.3-0.2-0.5c-0.1-0.2-0.2-0.5-0.3-0.6c-0.1-0.2-0.2-0.5-0.3-0.6s-0.4-0.8-0.7-1.4
	c-0.3-0.6-0.8-1.5-1.1-1.9c-0.3-0.4-0.5-0.8-0.5-0.9c-0.1-0.1-0.1-0.2-0.1-0.3c-0.1-0.1-0.3-0.4-0.6-0.8c-0.3-0.4-0.6-0.7-0.6-0.8
	c-0.1-0.1-0.1-0.2-0.2-0.3c0-0.1-0.3-0.4-0.6-0.7c-0.3-0.3-1-1.1-1.6-1.6c-0.5-0.5-1-1-1.1-1c-0.1,0-0.1-0.1-0.1-0.1
	c0-0.1-0.1-0.2-0.3-0.3s-0.3-0.2-0.5-0.3c-0.1-0.1-0.3-0.3-0.5-0.4c-0.1-0.1-0.4-0.3-0.5-0.4c-0.1-0.1-0.2-0.2-0.3-0.2
	c-0.1,0-0.2-0.1-0.3-0.2c-0.1-0.1-0.4-0.3-0.6-0.5c-0.2-0.1-0.5-0.3-0.6-0.4c-0.2-0.1-0.4-0.2-0.5-0.3c-0.1-0.1-0.3-0.2-0.3-0.3
	c-0.1-0.1-0.4-0.3-0.6-0.4c-0.2-0.1-0.5-0.3-0.6-0.3c-0.1-0.1-0.3-0.2-0.4-0.3c-0.1-0.1-0.3-0.2-0.5-0.3c-0.1-0.1-0.3-0.1-0.3-0.2
	s-0.1-0.1-0.1-0.1s-0.6-0.3-1.2-0.6c-0.6-0.3-1.2-0.6-1.2-0.6c-0.1-0.1-0.1-0.1-0.2-0.1s-0.3-0.1-0.6-0.3c-0.3-0.1-0.7-0.3-0.9-0.4
	c-0.2-0.1-0.5-0.2-0.8-0.3c-0.3-0.1-0.6-0.2-0.7-0.3c-0.1-0.1-0.3-0.1-0.4-0.1c-0.1,0-0.2-0.1-0.2-0.1c-0.1-0.1-0.4-0.2-0.7-0.3
	c-0.4-0.1-0.7-0.3-0.8-0.3c-0.1-0.1-0.4-0.2-0.7-0.3c-0.3-0.1-0.8-0.3-1.2-0.4c-0.4-0.1-0.7-0.2-0.8-0.2c-0.1,0-0.3-0.1-0.4-0.1
	C119.7,9,119.6,9,119.4,9s-0.5-0.1-0.8-0.3c-0.4-0.1-0.7-0.2-0.8-0.2s-0.2,0-0.3-0.1c-0.1-0.1-0.7-0.3-1.3-0.4
	c-0.6-0.1-1.3-0.3-1.6-0.3c-0.3,0-0.5-0.1-0.6-0.1c-0.1-0.1-0.1-0.1-0.3,0c-0.1,0-0.2,0-0.3,0c-0.1-0.1-0.6-0.1-1.1-0.2
	c-0.6-0.1-1.1-0.2-1.2-0.2c-0.1-0.1-0.7-0.1-1.3-0.2c-0.6-0.1-1.2-0.1-1.4-0.1s-0.4-0.1-0.5-0.1s-0.8-0.1-1.6-0.1
	c-0.8-0.1-2.6-0.1-4-0.1c-1.4,0-2.5,0-2.6,0c0,0-0.3,0.1-0.7,0.1s-1,0-1.3,0.1c-0.3,0-0.6,0.1-0.7,0.1c-0.1,0.1-0.5,0.1-1.1,0.1
	c-0.6,0.1-1.7,0.2-2.5,0.3c-0.8,0.1-1.6,0.3-1.7,0.3c-0.1,0.1-0.6,0.1-1.1,0.3c-0.5,0.1-1.2,0.3-1.7,0.3c-0.5,0.1-0.9,0.2-1,0.3
	c-0.1,0.1-0.4,0.1-0.6,0.2c-0.3,0-0.6,0.1-0.8,0.2c-0.2,0.1-0.5,0.2-0.6,0.2C86,8.9,85.8,8.9,85.8,9S85.6,9,85.6,9
	c-0.1,0-0.2,0-0.3,0.1s-0.3,0.1-0.5,0.1c-0.1,0.1-0.5,0.1-0.7,0.3c-0.3,0.1-0.6,0.2-0.8,0.3c-0.2,0.1-0.5,0.2-0.6,0.3
	c-0.1,0.1-0.5,0.2-0.7,0.3c-0.3,0.1-0.6,0.2-0.8,0.3c-0.2,0.1-0.4,0.2-0.5,0.2s-0.3,0.1-0.5,0.1c-0.1,0.1-0.4,0.2-0.6,0.3
	c-0.2,0.1-0.4,0.1-0.5,0.2c-0.1,0.1-0.4,0.2-0.6,0.3c-0.3,0.1-0.5,0.2-0.6,0.3s-0.2,0.1-0.3,0.1s-0.5,0.1-0.8,0.4
	c-0.4,0.2-1,0.5-1.4,0.8c-0.4,0.3-1,0.5-1.2,0.6c-0.3,0.1-0.5,0.3-0.5,0.3c0,0-0.3,0.1-0.5,0.3c-0.3,0.1-0.6,0.3-0.8,0.5
	c-0.3,0.1-0.7,0.5-1.2,0.6c-0.4,0.3-0.8,0.5-0.8,0.5c-0.1,0.1-0.2,0.1-0.3,0.1c-0.1,0-0.2,0.1-0.2,0.1c0,0.1-0.1,0.1-0.3,0.2
	s-0.4,0.2-0.5,0.3c-0.1,0.1-0.1,0.1-0.2,0.1s-0.1,0.1-0.1,0.1c0,0.1-0.2,0.1-0.4,0.3c-0.2,0.1-0.4,0.3-0.5,0.3
	c-0.1,0.1-0.1,0.1-0.2,0.1s-0.2,0.1-0.4,0.3c-0.1,0.1-0.3,0.3-0.3,0.3c0,0-0.1,0.1-0.3,0.2c-0.1,0.1-0.7,0.6-1.2,1
	c-0.5,0.4-1,0.8-1.1,0.8s-0.4,0.3-0.6,0.6c-0.3,0.3-0.6,0.5-0.7,0.6c-0.1,0.1-0.3,0.3-0.5,0.5c-0.2,0.1-0.6,0.5-1,0.8
	c-0.4,0.3-1,0.9-1.4,1.4c-0.4,0.4-1.3,1.3-1.9,2c-0.6,0.7-1.4,1.4-1.6,1.6c-0.2,0.2-0.3,0.4-0.3,0.4s-0.1,0.3-0.3,0.5
	c-0.2,0.3-0.5,0.6-0.7,0.8c-0.2,0.2-0.3,0.3-0.3,0.3c0,0.1-0.2,0.4-0.5,0.7c-0.3,0.3-0.6,0.7-0.6,0.8c-0.1,0.1-0.3,0.5-0.6,0.8
	c-0.2,0.3-0.6,0.8-0.8,1.2c-0.3,0.3-0.5,0.7-0.6,0.9c-0.1,0.2-0.3,0.6-0.6,1c-0.2,0.4-0.5,0.8-0.6,1c-0.1,0.1-0.4,0.7-0.6,1.2
	c-0.3,0.5-0.5,1-0.5,1c0,0.1,0.2,0,0.3-0.1c0.2-0.1,0.4-0.2,0.5-0.3c0.1-0.1,0.2-0.1,0.2-0.1s0.3-0.1,0.6-0.3
	c0.3-0.2,0.6-0.4,0.6-0.4s0.2-0.1,0.4-0.2c0.2-0.1,0.3-0.2,0.4-0.2c0-0.1,0.5-0.3,1.2-0.6c0.6-0.3,1.3-0.6,1.5-0.7s0.5-0.3,0.6-0.3
	c0.1-0.1,0.4-0.2,0.6-0.3c0.2-0.1,0.5-0.2,0.6-0.3c0.1-0.1,0.5-0.2,0.9-0.4c0.4-0.1,0.8-0.3,1-0.3c0.1,0,0.3-0.1,0.3-0.1
	s0.3-0.1,0.6-0.2c0.3-0.1,0.7-0.2,0.8-0.2c0.1-0.1,0.5-0.1,0.8-0.2c0.3-0.1,0.6-0.1,0.7-0.2c0.1-0.1,0.5-0.1,0.9-0.2
	c0.5-0.1,1.3-0.2,1.9-0.3c0.6-0.1,1.4-0.2,1.7-0.2s0.6-0.1,0.6-0.1c0.1-0.1,0.7-0.1,2.5-0.1c2.1,0,2.6,0.1,3.9,0.2
	c0.8,0.1,1.6,0.3,1.7,0.3c0.1,0.1,0.7,0.2,1.4,0.4s1.3,0.3,1.3,0.4c0.1,0,0.3,0.1,0.5,0.2s0.8,0.3,1.3,0.5c0.5,0.2,0.9,0.4,1,0.5
	c0.1,0.1,0.3,0.2,0.6,0.3c0.3,0.1,0.7,0.4,1,0.6c0.3,0.2,0.6,0.4,0.6,0.4s0.3,0.1,0.4,0.2s0.3,0.2,0.5,0.3c0.1,0.1,0.2,0.1,0.3,0.1
	c0,0.1,0.3,0.2,0.5,0.4s0.7,0.5,1,0.8c0.3,0.3,0.6,0.5,0.7,0.6s0.6,0.5,1.1,1c0.5,0.5,1,1,1,1s0.2,0.3,0.4,0.5s0.5,0.3,0.6,0.3
	s0.3-0.1,0.3-0.2c0.1-0.1,0.2-0.5,0.2-0.8c0.1-0.3,0.1-1,0.2-1.4c0.1-0.5,0.2-1,0.3-1.3c0.1-0.3,0.4-0.9,0.6-1.4
	c0.3-0.5,0.5-0.9,0.5-1c0.1-0.1,0.2-0.2,0.3-0.3s0.2-0.3,0.3-0.4c0.1-0.1,0.2-0.3,0.2-0.3c0-0.1,0.1-0.2,0.3-0.3
	C92.8,33.2,93,33,93,33c0.1-0.1,0.3-0.3,0.6-0.5s0.8-0.6,1-0.9c0.3-0.3,0.7-0.5,0.8-0.5c0.1-0.1,0.3-0.1,0.3-0.1
	c0-0.1,0.1-0.1,0.2-0.1c0.1,0,0.5-0.2,0.8-0.3c0.3-0.1,0.7-0.3,0.8-0.4c0.1-0.1,0.5-0.1,0.7-0.3c0.3-0.1,0.8-0.2,1.1-0.3
	c0.3-0.1,0.6-0.1,0.6-0.2c0,0,0.6-0.1,1.3-0.3c1-0.1,1.6-0.2,3.3-0.2c1.1,0,2.4,0,2.8,0.1c0.5,0.1,1.1,0.1,1.4,0.2
	c0.3,0.1,0.9,0.2,1.3,0.3c0.4,0.1,0.8,0.2,0.9,0.2s0.2,0.1,0.2,0.1c0,0.1,0.1,0.1,0.3,0.1c0.1,0,0.5,0.1,0.6,0.2
	c0.2,0.1,0.6,0.3,0.8,0.4c0.3,0.1,0.7,0.4,1,0.5c0.3,0.1,0.6,0.4,0.9,0.5c0.2,0.1,0.5,0.3,0.6,0.4c0.1,0.1,0.3,0.3,0.5,0.4
	c0.2,0.1,0.5,0.4,0.8,0.6c0.3,0.2,0.6,0.5,0.7,0.6s0.6,0.7,1,1.2c0.4,0.5,0.9,1.1,1,1.2c0.1,0.2,0.3,0.3,0.3,0.3
	c0.1,0,0.2-0.1,0.3-0.2s0.3-0.3,0.4-0.5c0.1-0.1,0.2-0.6,0.3-0.9c0.1-0.5,0.1-1,0.1-2c0-0.7-0.1-1.6-0.1-1.9
	c-0.1-0.3-0.1-0.7-0.2-0.8c-0.1-0.1-0.1-0.3-0.1-0.3c0-0.1-0.1-0.5-0.3-0.9c-0.1-0.5-0.3-0.9-0.4-1c-0.1-0.1-0.2-0.4-0.3-0.6
	c-0.1-0.2-0.3-0.5-0.3-0.6c-0.1-0.1-0.3-0.5-0.5-0.8c-0.2-0.3-0.5-0.7-0.7-0.9c-0.1-0.2-0.6-0.6-1-1c-0.4-0.4-0.8-0.8-1.1-1
	s-0.5-0.4-0.6-0.5c-0.1-0.1-0.3-0.2-0.5-0.3c-0.2-0.1-0.5-0.4-0.8-0.6c-0.3-0.2-0.5-0.3-0.5-0.3s-0.2-0.1-0.3-0.1
	c-0.1-0.1-0.1-0.1-0.2-0.1s-0.4-0.1-0.8-0.3c-0.4-0.2-1-0.5-1.4-0.6s-0.8-0.3-0.8-0.3c-0.1-0.1-0.6-0.2-1.1-0.3
	c-0.5-0.1-1.3-0.3-1.7-0.4c-0.5-0.1-0.9-0.2-1-0.2c-0.1-0.1-0.6-0.1-1-0.2s-0.9-0.1-1-0.1c-0.1,0-0.3,0-0.4,0
	c-0.1-0.1-0.5-0.1-1-0.1c-0.5,0-1.4-0.1-2.1-0.1s-1.5,0-1.9,0.1c-0.4,0-0.7,0.1-0.8,0.1c-0.1,0-0.3,0.1-0.6,0.1
	c-0.3,0-0.8,0.1-1.3,0.1c-0.4,0.1-0.8,0.1-0.9,0.2C95,19,94.9,19,94.9,19c0,0-0.3,0-0.5,0.1c-0.3,0.1-0.5,0.1-0.6,0.1
	s-0.4,0.1-0.6,0.1c-0.2,0.1-0.6,0.1-0.8,0.2s-0.7,0.2-1.1,0.3c-0.4,0.1-0.9,0.3-1,0.3c-0.2,0.1-0.5,0.2-0.7,0.3
	c-0.2,0.1-0.7,0.3-1,0.4c-0.4,0.1-0.8,0.3-1,0.4c-0.2,0.1-0.5,0.1-0.6,0.1c-0.2,0-0.4,0-0.5-0.1C86.2,21.1,86.1,21,86,21
	S86,20.7,86,20.6c0-0.2,0.1-0.3,0.2-0.5c0.1-0.1,0.4-0.3,0.6-0.4c0.3-0.1,0.5-0.3,0.6-0.3c0.1-0.1,0.3-0.1,0.5-0.2
	c0.2-0.1,0.4-0.1,0.4-0.2c0.1-0.1,0.4-0.1,0.7-0.3c0.3-0.1,0.9-0.3,1.2-0.3s0.6-0.2,0.6-0.2s0.5-0.2,1-0.3c0.6-0.2,1.1-0.3,1.2-0.3
	c0.1,0,0.1,0,0.2-0.1c0-0.1,0.6-0.2,1.3-0.3s1.8-0.3,2.5-0.4c0.6-0.1,1.6-0.2,2.1-0.2c0.5,0,1-0.1,1-0.1s0.8-0.1,1.7-0.1
	c1,0,1.8,0.1,1.9,0.1s0.4,0.1,0.8,0.1s1,0.1,1.4,0.1s0.8,0.1,0.8,0.1c0.1,0.1,0.5,0.1,0.8,0.2s0.9,0.2,1.3,0.3
	c0.4,0.1,1,0.3,1.5,0.5c0.5,0.1,1,0.3,1.1,0.4c0.1,0.1,0.3,0.1,0.3,0.1s0.2,0.1,0.4,0.1c0.2,0.1,0.5,0.1,0.6,0.2
	c0.1,0.1,0.5,0.3,0.8,0.4c0.3,0.1,0.6,0.3,0.7,0.3s0.3,0.1,0.5,0.3c0.2,0.1,0.5,0.3,0.7,0.4c0.2,0.1,0.6,0.3,0.7,0.5
	c0.2,0.1,0.5,0.3,0.6,0.4c0.2,0.1,0.5,0.4,0.8,0.6c0.3,0.2,0.6,0.5,0.7,0.5c0.1,0.1,0.3,0.3,0.5,0.4c0.1,0.1,0.4,0.3,0.6,0.5
	c0.2,0.2,0.6,0.6,0.8,0.8c0.3,0.3,0.6,0.6,0.7,0.8c0.1,0.1,0.3,0.2,0.3,0.2c0.1,0,0.1,0.1,0.1,0.1c0,0.1,0.2,0.4,0.5,0.7
	c0.3,0.3,0.5,0.6,0.5,0.6c0,0.1,0.1,0.3,0.2,0.4c0.1,0.2,0.5,0.8,0.8,1.5c0.3,0.6,0.6,1.3,0.6,1.5c0,0.2,0.1,0.5,0.2,0.8
	c0.1,0.3,0.2,0.6,0.2,1c0,0.3,0.1,0.5,0.1,0.6c0.1,0.1,0.1,0.5,0.1,1.1c0,0.6,0,1.4,0,1.7c-0.1,0.4-0.1,1.2-0.3,1.6
	c-0.1,0.5-0.2,0.9-0.3,1c-0.1,0.1-0.1,0.1-0.1,0.2s-0.1,0.3-0.2,0.5c-0.1,0.2-0.3,0.7-0.5,1.1c-0.2,0.4-0.4,0.8-0.5,0.8
	s-0.1,0.1-0.1,0.1s-0.2,0.4-0.5,0.7c-0.3,0.3-0.5,0.7-0.6,0.9c-0.1,0.2-0.1,0.4-0.1,0.6c0,0.2,0.1,0.4,0.1,0.5
	c0.1,0.1,0.2,0.4,0.3,0.8c0.1,0.4,0.3,1,0.4,1.3c0.1,0.3,0.2,0.8,0.3,1c0.1,0.2,0.1,0.5,0.1,0.7c0,0.2,0.1,0.5,0.1,0.5
	c0.1,0.1,0.1,0.4,0.1,0.6c0.1,0.3,0.1,0.9,0.2,1.4c0.1,0.5,0.1,1,0.1,1.2c0.1,0.1,0.1,0.5,0.1,1c0,0.5,0.1,0.9,0.1,1
	s0.2,0.3,0.3,0.5c0.1,0.2,0.3,0.5,0.4,0.6c0.1,0.2,0.3,0.5,0.4,0.7c0.1,0.2,0.3,0.6,0.5,0.8c0.1,0.3,0.5,0.8,0.7,1.4
	s0.5,1.1,0.6,1.3c0.1,0.2,0.3,0.5,0.3,0.8c0.1,0.3,0.3,0.6,0.4,0.8c0.1,0.2,0.3,0.6,0.4,1c0.1,0.3,0.3,0.8,0.5,1.2
	c0.1,0.3,0.3,0.7,0.3,0.8c0,0.1,0.2,0.3,0.3,0.5C129.8,62.8,129.8,62.8,130.2,62.7L130.2,62.7z M122.1,24.9
	C122.1,24.9,122.1,24.9,122.1,24.9C122.1,24.8,122.1,24.8,122.1,24.9C122.1,24.8,122.1,24.8,122.1,24.9L122.1,24.9z"/>
<path d="M68.2,176.9c-1.1-1.3-2.2-2.5-3.1-3.8c-1.2-1.7-1.8-3.6-1.6-5.8c0.3-2.9,1.9-4.9,4.7-5.7c2-0.6,4-0.8,6.1-1
	c1.3-0.1,2.6,0,3.9-0.1c1.4-0.1,2.9,0.3,4.3-0.3c0.6-1.4,0.1-2.9,0.3-4.4c0-0.3,0-0.7,0-1.1c-9.3,0-18.5,0-27.8,0c0,0.3,0,0.6,0,0.8
	c0,11,0.1,22.1,0.1,33.1c0,1.2-0.1,1.2-1.2,0.9c-1.1-0.3-2.3-0.6-3.4-0.9c0-11.3,0-22.6,0-34c-0.2,0-0.5,0-0.7,0c-1.3,0-2.7,0-4,0
	c-0.4,0-0.7-0.1-0.9-0.5c-0.4-0.8-0.8-1.6-1.2-2.5c-0.5-1-0.4-1.1,0.7-1.1c2,0,3.9,0,5.9,0c0.2,0,0.5,0,0.7,0
	c-0.6-1.1-1.2-2.2-1.6-3.3c-1.9-5.2,0.8-10.7,6.2-12.8c3.1-1.2,6.3-1.3,9.6-0.8c5.2,0.8,9.7,3.2,13.8,6.5c2.6,2.1,5,4.4,7.3,7
	c-0.4,0.5-0.8,1-1.1,1.5c-0.3,0.5-0.6,0.3-0.9,0c-1.7-1.7-3.3-3.4-5.1-4.9c-3.1-2.7-6.7-4.7-10.7-5.6c-3.1-0.7-6.2-0.7-9.2,0.4
	c-3.2,1.2-5.3,3.3-5.9,6.7c-0.3,1.6-0.1,3.2,0.7,4.7c0.2,0.4,0.5,0.6,1,0.6c11.8,0,23.7,0,35.5,0c11.2,0,22.3,0,33.5,0
	c6.2,0,12.4,0,18.6,0c2.6,0,5.2,0,8,0c-0.1-1-0.2-1.9-0.3-2.9c-0.4-2.3-1-4.5-2.2-6.5c-1.6-2.5-3.9-3.9-7-3.7
	c-3.9,0.2-6,3.2-5.1,6.9c0.4,1.5,1.1,2.9,2,4.2c0.1,0.2,0.1,0.4,0.2,0.6c-0.2,0-0.5,0-0.7,0c-0.7-0.3-1.4-0.7-2.2-1
	c-1.1-0.4-1.8-1.1-2.4-2.1c-1.3-2-2.1-4.2-1.7-6.7c0.6-3.1,3.1-5.3,6.4-5.7c4.9-0.6,8.8,1.4,12,4.9c2.9,3.2,4.5,7,5.2,11.2
	c0.1,0.6,0.3,0.7,0.8,0.7c1.4,0,2.8,0,4.2,0c0.4,0,0.7,0.1,0.9,0.5c0.4,0.9,0.8,1.7,1.3,2.6c0.4,0.8,0.3,1-0.6,1c-1.8,0-3.6,0-5.4,0
	c-0.3,0-0.5,0-0.9,0c0,0.3,0,0.6,0,0.8c0,11.1,0.1,22.2,0.1,33.3c0,1.1-0.1,1.2-1.1,0.9c-1-0.3-1.9-0.5-2.9-0.7
	c-0.5-0.1-0.6-0.3-0.6-0.9c0-5.1,0-10.2,0-15.3c0-5.7,0-11.4,0.1-17.2c0-0.3,0-0.5,0-0.8c-4.1,0-8.2,0-12.3,0c0,0.3,0,0.5,0,0.8
	c0,3.2,0,6.4,0,9.6c0,1.2,0,1.2-1.2,1.2c-2.4,0-4.8,0-7.2,0.1c-2.1,0.1-4.2,0.4-6.1,1.3c-2.5,1.1-4.2,2.9-4.3,5.8
	c-0.2,3.1,1,5.6,3.7,7.1c3,1.7,6.2,1.5,9.3,0.3c0.4-0.1,0.7-0.3,1-0.4c0.1,0,0.2-0.1,0.1,0c-0.4-1-0.9-2-1.1-3
	c-0.3-1.8,0.3-3.3,1.9-4.4c1.6-1.1,3.3-1.1,4.9-0.3c3.6,1.8,4.3,6.4,1.4,9.2c-0.4,0.4-0.9,0.8-1.4,1.2c0.6,0.6,1.3,1.1,1.8,1.8
	c1,1.3,2.1,2.6,2.9,4.1c1.4,2.8,1,5.4-1,7.8c-0.7,0.8-1.6,1.5-2.4,2.2c-0.2,0.1-0.6,0.2-0.7,0.1c-1.5-1.1-2.9-2.3-4.3-3.4
	c0.8-0.6,1.5-1.2,2.2-1.8c2.5-2.5,2.7-5.1,0.6-8c-1-1.4-1-1.3-2.6-0.8c-7.5,2.6-16.6-0.3-20-8.3c-1-2.4-1.3-4.8-0.6-7.4
	c0-0.1,0-0.2,0-0.3c-0.1,0-0.2-0.1-0.3-0.1c-3-0.2-6.1-0.3-9.1,0.4c-0.6,0.1-0.8,0.4-0.8,1c0,1.7,0,3.3-0.2,5
	c-0.2,1.7-2.2,2.6-3.6,1.7c-2.6-1.6-4.5-3.9-5.5-6.8c-0.6-1.6,0-3,1.4-4c1.6-1.1,3.3-1.6,5.2-1.6c3.3,0,6.7,0.1,10,0.2
	c1.6,0.1,3.2,0.3,4.8,0.4c0.2,0,0.5,0,0.6-0.2c2.3-2,5-2.9,7.9-3.1c2.4-0.2,4.8-0.1,7.2-0.1c1.2,0,1.4-0.3,1.4-1.4
	c0-1.7,0-3.4,0-5.1c0-0.2,0-0.4,0-0.7c-15.6,0-31.1,0-46.8,0c0,0.3,0,0.5,0,0.8c0,2.7,0.1,5.5,0.1,8.2c0,1-0.2,1.1-1.1,1.1
	c-3,0-5.9-0.1-8.9,0c-2.1,0.1-4.1,0.4-6,1.2c-4.2,1.8-3.6,6.6-1.2,8.5c0.2-0.1,0.4-0.3,0.6-0.4c3.4-2.7,7.2-4.1,11.6-3.8
	c4.9,0.4,9,5,8.8,9.9c-0.1,1.7-0.8,3.1-1.9,4.3c-1.4,1.5-3.2,2.5-5,3.4c-0.2,0.1-0.6,0-0.7-0.1c-1.2-1.2-2.3-2.4-3.5-3.7
	c0.6-0.3,1-0.4,1.4-0.7c1.5-0.9,3.1-1.8,4.5-2.8c0.6-0.4,1-1,1.4-1.7c0.9-1.6,0.3-3.2-1.5-3.8c-1.4-0.5-2.8-0.4-4.2-0.2
	c-2.7,0.5-5.1,1.5-7.2,3.3c-3.7,3.2-3.8,8.1-0.2,11.4c2.2,2,4.8,3,7.6,3.8c3.2,0.9,6.5,1.5,9.8,1.8c0.2,0,0.5,0.1,0.8,0.1
	c-0.9,1.5-1.8,2.9-2.7,4.3c-0.1,0.1-0.4,0.2-0.5,0.2c-5.8-1.5-11.4-3.3-16.3-6.9c-2.5-1.9-4.5-4.2-5.4-7.3
	C66.3,182.7,66.5,179.6,68.2,176.9z"/>
</svg>
