<?xml version="1.0" encoding="utf-8"?>
<!-- Generator: Adobe Illustrator 26.0.1, SVG Export Plug-In . SVG Version: 6.00 Build 0)  -->
<svg version="1.1"
	 id="Layer_1" xmlns:inkscape="http://www.inkscape.org/namespaces/inkscape" xmlns:sodipodi="http://sodipodi.sourceforge.net/DTD/sodipodi-0.dtd"
	 xmlns="http://www.w3.org/2000/svg" xmlns:xlink="http://www.w3.org/1999/xlink" x="0px" y="0px" viewBox="0 0 1000 1000"
	 style="enable-background:new 0 0 1000 1000;" xml:space="preserve">
<path d="M499.1,921.8c33.8,0,67.7,0,101.5,0.1c2.8,0,5.5,1.1,8.3,1.7c-1,2.8-1.6,6-3.2,8.4c-51.1,76-161.1,76.6-213.1,1.2
	c-1.9-2.7-2.5-6.2-3.7-9.3c3.2-0.7,6.4-2,9.6-2C431.9,921.8,465.5,921.8,499.1,921.8C499.1,921.8,499.1,921.8,499.1,921.8z"/>
<path d="M901.8,529.7c-21.6,0-43.2,0.1-64.8,0c-15.9-0.1-26.3-9.1-26.3-22.6c0-13.7,11.1-23.3,26.9-23.3c43.2,0,86.3,0,129.5,0
	c15.4,0,25.3,8.9,25.6,22.6c0.3,13.8-8.9,23.1-23.7,23.2C946.6,529.9,924.2,529.7,901.8,529.7z"/>
<path d="M98,532.3c-22.4,0-44.8,0.2-67.1-0.1c-15.1-0.2-24-9.2-23.6-23.2c0.4-12.8,9.2-22,22.5-22.1c45.6-0.2,91.1-0.2,136.7,0
	c13.2,0.1,22.8,10.3,22.8,23c0,12.5-9.8,22.2-23.2,22.3C143.3,532.4,120.7,532.3,98,532.3z"/>
<path d="M667.6,241.3c-20.6-0.6-30.3-19-21.2-35c15-26.4,30.3-52.5,45.5-78.8c7.4-12.9,14.7-25.9,22.4-38.7c5.1-8.5,13.2-12.5,23-11
	c10.3,1.5,17.5,7.8,18.7,18c0.7,5.8-0.9,12.9-3.8,18.1c-16.7,30-34.1,59.5-51.3,89.2c-5.2,9-10.2,18-15.5,26.9
	C680.7,237.9,673.6,241.4,667.6,241.3z"/>
<path d="M332,242.8c-8.8,0-15.5-4-19.8-11.4C289.3,192,266.5,152.6,244,113c-6.4-11.1-2.6-24.6,7.7-30.8c11.1-6.6,24.8-3.4,31.8,8.4
	c19.9,33.7,39.3,67.7,58.9,101.6c3.6,6.2,7.7,12.3,10.3,18.9C359,226.8,348.4,242.7,332,242.8z"/>
<path d="M788.6,363.7c-10.6-0.9-19.2-7-22.1-16.5c-3.2-10.5,0.8-21.1,10.6-26.8c24.8-14.5,49.8-28.8,74.7-43.2
	c14.1-8.1,28-16.5,42.2-24.4c15.1-8.3,31.8-0.9,34.9,15.1c1.8,9.3-2.3,18.7-10.9,23.8c-29.4,17.2-58.9,34.3-88.4,51.3
	c-9.5,5.5-18.9,11-28.5,16.1C797.2,361.1,792.7,362.2,788.6,363.7z"/>
<path d="M92.2,250.5c4.4,1.6,8.4,2.4,11.7,4.3c39.1,22.4,78,44.9,117,67.5c11,6.3,15.3,19.4,10,30.3c-5.5,11.3-18.8,16.5-30.4,10.3
	c-22.7-12.3-45-25.5-67.4-38.3c-16.9-9.7-33.8-19.3-50.5-29.2c-16-9.5-17.8-29.2-3.4-39.6C82.9,253.1,87.8,252.2,92.2,250.5z"/>
<path d="M520.9,106.5c0,22.9,0.2,45.8-0.1,68.7c-0.1,11.8-7.6,19.9-19.1,22.1c-8.9,1.7-19.4-3.7-23.4-12.9
	c-1.6-3.5-2.2-7.7-2.2-11.6c-0.1-44.5-0.2-89,0-133.4c0-14.4,9.2-24.1,22.1-24.3c13.5-0.2,22.7,9.4,22.8,24.3
	C521.1,61.8,521,84.2,520.9,106.5C520.9,106.5,520.9,106.5,520.9,106.5z"/>
<path d="M498.8,842.4c-38.6,0-77.2-0.2-115.8,0.2c-7.7,0.1-9.5-2.5-9.3-9.6c0.6-18.9-1.9-16.4,16-16.4c74.3-0.1,148.6,0,222.9,0
	c11.6,0,11.6,0,11.5,11.1c-0.1,16.4,2.1,14.7-15.1,14.7C572.3,842.5,535.5,842.4,498.8,842.4C498.8,842.4,498.8,842.4,498.8,842.4z"
	/>
<path d="M498.8,869.4c38.9,0,77.8,0.2,116.7-0.1c6.8-0.1,8.8,2.1,8.7,8.7c-0.5,20.6,2.3,17.3-17.4,17.4
	c-74.1,0.1-148.1,0.1-222.2,0.1c-10.8,0-10.9,0-10.8-11.1c0.2-17.9-1.9-14.7,14.7-14.8C425.3,869.3,462.1,869.4,498.8,869.4z"/>
<path d="M748.6,414.1c-42.8-112-160.2-180.5-275.2-168.8c-50.2,5.1-96.1,22.1-136.1,52.8C275.5,345.6,239.5,408.3,231,486
	c-7.3,67.1,8,129.1,47.7,183.7c28.2,38.8,59.2,75.5,88.8,113.2c4.2,5.3,8.9,7.4,15.7,7.4c73.3-0.2,146.6-0.3,220,0
	c12.4,0.1,24.1,0.4,30.9-12.6c0.3-0.6,1.3-1,1.8-1.6c9.5-11.8,19-23.5,28.5-35.3l0,0l36.4-44.5c0.9-1,1.7-2,2.5-3
	c5.1-6.6,8.7-14.3,13.6-21.2C773.9,591.8,783.4,504.9,748.6,414.1z M719.3,544.1c-5.6,39.6-22.2,74.9-46.3,106.6
	c-9,11.8-18.7,23.2-28,34.9c-12.9,16.3-25.9,32.4-38.4,49c-4.6,6.1-10,8.1-17.1,8.1c-30.4-0.1-60.8,0-91.2,0c0,0,0,0,0-0.1
	c-30.7,0-61.3-0.1-92,0c-5.9,0-10.7-1.1-14.7-6.2c-23.8-30.4-48.3-60.3-71.5-91.2c-36.5-48.7-49.5-103.9-40.6-163.8
	c15-100.3,91.9-174.9,192.6-187.8c92.6-11.8,181.8,36.2,223.5,120.4C716.2,455.2,725.8,498.4,719.3,544.1z"/>
<g>
	<defs>
		<inkscape:perspective  id="perspective4373"></inkscape:perspective>
	</defs>
	
		<sodipodi:namedview  bordercolor="#666666" borderopacity="1.0" fit-margin-bottom="0" fit-margin-left="0" fit-margin-right="0" fit-margin-top="0" id="base" pagecolor="#ffffff" showgrid="false">
		</sodipodi:namedview>
	<path id="path8431_00000130620098090794806400000017974667423865254048_" d="M497.6,663.6c-3.8,0-7.7,0-8.5-0.2
		c-0.8,0-2.4-0.2-3.5-0.2c-1.1,0-1.9-0.2-2-0.2c0,0-0.3-0.2-0.6-0.2c-0.3,0-2.4-0.3-4.4-0.5c-2.2-0.3-4.1-0.5-4.2-0.5
		s-0.3-0.2-0.5,0c-0.2,0.2-0.3,0-0.6-0.2c-0.3-0.2-1.3-0.3-2.2-0.5c-0.9-0.2-1.9-0.2-2-0.2s-0.5,0-0.6-0.2c-0.2-0.2-0.6-0.3-1.3-0.3
		c-0.5,0-1.3-0.2-1.4-0.2c-0.3,0-0.8-0.2-0.9-0.3c-0.3-0.2-1.1-0.3-2-0.5c-0.8-0.2-1.6-0.3-1.7-0.5c-0.2-0.2-0.9-0.3-1.7-0.5
		c-0.8-0.2-1.7-0.5-2.2-0.6c-0.3-0.2-0.9-0.3-1.3-0.3c-0.3,0-0.8-0.2-0.8-0.2c0-0.2-0.3-0.2-0.6-0.2s-0.8-0.2-1.1-0.3
		c-0.3-0.2-1.1-0.3-1.7-0.5c-0.6-0.2-1.3-0.3-1.4-0.3c-0.2-0.2-0.5-0.3-0.8-0.3c-0.3-0.2-0.6-0.2-0.8-0.2s-0.6-0.2-0.8-0.3
		c-0.3-0.2-1.3-0.5-2-0.8c-0.9-0.3-2.2-0.8-3.2-1.1c-0.9-0.3-2-0.8-2.8-0.9c-0.8-0.3-1.4-0.6-1.4-0.8c-0.2-0.2-0.3-0.3-0.5-0.3
		c-0.2,0-0.8-0.2-1.3-0.5c-0.5-0.3-1.1-0.5-1.1-0.5c-0.2,0-0.8-0.3-1.4-0.6c-0.6-0.3-1.9-0.8-2.5-1.1c-0.8-0.3-1.4-0.6-1.6-0.8
		c-0.2-0.2-0.6-0.3-1.1-0.5c-0.5-0.2-0.8-0.3-0.8-0.5c0-0.2-0.3-0.2-0.5-0.2s-0.5-0.2-0.8-0.3c-0.3-0.2-1.4-0.8-2.5-1.4
		c-1.1-0.6-2-0.9-2.2-0.9c-0.2,0-0.5-0.2-0.8-0.5c-0.3-0.3-0.8-0.6-1.1-0.6c-0.3,0-0.5-0.2-0.5-0.3c0-0.2-0.3-0.3-0.8-0.5
		c-0.5-0.2-0.9-0.5-1.1-0.6c-0.2-0.2-0.5-0.3-0.5-0.3c-0.2,0-0.5-0.2-0.6-0.3c-0.2-0.2-0.6-0.5-0.8-0.6c-0.3-0.2-0.6-0.3-0.9-0.5
		c-0.3-0.2-0.6-0.5-0.8-0.6c-0.2-0.2-0.5-0.3-0.5-0.3s-0.6-0.3-1.3-0.6c-0.6-0.3-1.4-0.8-1.7-1.1c-0.5-0.2-1.4-0.9-2.2-1.6
		c-0.8-0.6-2.2-1.6-2.8-2c-0.8-0.5-2.4-1.7-3.6-2.7c-1.3-1-3.2-2.5-4.1-3.3s-2.4-2-3.2-2.7c-0.8-0.6-1.7-1.6-2.4-2.2
		c-0.6-0.5-1.1-0.9-1.3-0.9s-0.5-0.2-0.6-0.5c-0.3-0.3-0.9-0.9-1.6-1.4s-1.3-1.1-1.4-1.3c-0.2-0.2-1.1-1.3-2.2-2.2
		c-1.1-0.9-2.5-2.5-3.2-3.2c-0.8-0.8-2-2.2-3-3.3c-0.9-1.1-1.9-2-2-2.4c-0.3-0.3-0.9-1.1-1.6-1.9s-1.6-1.9-1.9-2.5
		c-0.5-0.6-0.9-1.3-1.1-1.4c-0.2-0.2-0.3-0.5-0.3-0.5c0-0.2-0.3-0.6-0.8-1.1c-0.5-0.5-1.1-1.3-1.4-1.7c-0.3-0.5-0.9-1.3-1.3-1.7
		c-0.3-0.5-1.1-1.6-1.7-2.5c-0.6-0.9-1.7-2.5-2.4-3.5s-1.3-1.9-1.4-1.9c-0.2,0-0.2-0.2-0.2-0.5c0-0.3,0-0.5-0.2-0.5
		c-0.2,0-0.5-0.6-0.9-1.3c-0.5-0.6-0.8-1.3-0.8-1.4c0-0.2-0.2-0.3-0.3-0.6c-0.2-0.2-0.8-1.1-1.3-2c-0.5-0.9-1.1-1.9-1.3-2.2
		c-0.2-0.3-0.3-0.6-0.5-0.6c-0.2,0-0.2-0.2-0.2-0.2c0-0.2-0.3-0.8-0.6-1.7c-0.3-0.8-1.1-2.2-1.7-3.2c-0.6-0.9-1.1-1.9-1.1-2.2
		c0-0.3-0.3-0.8-0.5-1.3c-0.2-0.5-0.5-1.1-0.6-1.3c-0.2-0.2-0.6-1.3-1.1-2.4c-0.5-1.1-1.1-2.5-1.4-3.3c-0.3-0.8-0.8-2.4-1.3-3.8
		c-0.9-1.6-1.4-2.7-1.4-2.8c-0.2-0.2-0.3-0.8-0.5-1.4c-0.2-0.6-0.5-1.6-0.6-1.9s-0.3-0.9-0.5-1.3c0-0.3-0.3-0.9-0.5-1.4
		c-0.2-0.5-0.5-1.4-0.6-2c-0.2-0.6-0.5-2-0.9-3.2c-0.3-1.1-0.9-3.5-1.4-5.2c-0.3-1.7-0.8-3.3-0.8-3.5c0-0.2-0.2-0.5-0.2-0.6
		c-0.2-0.2-0.3-1.3-0.6-2.5c-0.2-1.3-0.5-3.3-0.8-4.7c-0.2-1.4-0.5-2.7-0.5-2.8s-0.3-1.6-0.5-3.2c-0.2-1.6-0.3-3.6-0.5-4.6
		s-0.3-3.5-0.3-5.7c-0.2-2.2-0.2-6.5-0.2-9.4s0.2-6.3,0.2-7.5c0.2-1.1,0.2-2.5,0.3-2.8c0-0.5,0.2-1.6,0.3-2.5c0.2-0.9,0.5-3.2,0.6-5
		c0.2-1.9,0.5-3.8,0.6-4.2c0.2-0.5,0.2-1.1,0.2-1.6c0-0.3,0.2-0.8,0.2-0.9c0.3,0.2,0.6-0.9,0.8-2c0.2-1.1,0.5-2,0.5-2
		c0.2,0,0.2-0.3,0.2-0.6c0-0.3,0.2-0.9,0.2-1.6c0.2-0.5,0.3-1.1,0.5-1.3c0.2-0.2,0.3-0.8,0.3-1.4c0.2-0.5,0.3-1.4,0.3-2
		c0.2-0.6,0.3-1.4,0.3-1.7c0.2-0.3,0.5-1.6,0.8-2.7c0.6-1.3,0.9-2.5,1.1-2.8c0.2-0.3,0.3-0.6,0.3-0.8c0-0.2,0.3-1.4,0.8-2.8
		c0.5-1.4,0.9-2.8,1.1-3c0.2-0.3,0.3-0.8,0.5-1.3c0.2-0.5,0.5-1.1,0.6-1.6c0.2-0.5,0.3-0.9,0.3-1.1c0-0.2,0-0.3,0.2-0.3
		c0.2,0,0.3-0.8,0.6-1.4c0.3-0.8,0.6-1.7,0.8-2.2c0.2-0.5,0.5-0.9,0.5-1.1s0-0.3,0.2-0.3c0.2,0,0.3-0.3,0.5-0.8
		c0.2-0.5,0.3-0.9,0.5-1.1c0.2-0.2,0.3-0.3,0.3-0.5c0,0,0.2-0.6,0.5-1.1c0.3-0.6,0.6-1.4,0.8-1.9c0.2-0.5,0.5-0.9,0.5-0.9
		s0.6-1.1,1.3-2.4c0.6-1.3,1.1-2.2,1.1-2.4c0,0,0.3-0.6,0.6-1.3c0.3-0.6,0.9-1.9,1.4-2.7c0.5-0.9,0.9-1.7,0.9-1.9
		c0-0.2,0.2-0.3,0.3-0.3c0.2-0.2,0.5-0.5,0.6-0.8c0.2-0.3,0.6-1.1,0.8-1.4c0.2-0.5,0.5-0.9,0.6-0.9c0.2-0.2,0.8-0.9,1.4-1.9
		c0.6-0.9,1.3-1.9,1.6-2.2c0.3-0.3,0.5-0.8,0.6-0.9c0-0.2,0.6-0.9,1.1-1.7c0.5-0.8,1.4-1.9,1.9-2.7c0.5-0.8,1.1-1.4,1.1-1.6
		c0.2-0.2,0.8-0.9,1.4-1.7c0.6-0.8,1.3-1.6,1.3-1.7c0-0.2,0.2-0.3,0.5-0.5c0.2-0.2,0.5-0.3,0.5-0.5c0-0.2,0.2-0.3,0.5-0.6
		c0.3-0.2,0.5-0.5,0.5-0.6c0-0.2,0.2-0.3,0.3-0.5c0.2-0.2,0.8-0.8,1.4-1.4c0.6-0.8,1.3-1.6,1.6-1.9c0.3-0.3,2-2.2,3.9-4.2
		c1.9-2,3.5-3.6,3.5-3.8c0,0,0.5-0.6,1.1-1.1s1.1-1.1,1.1-1.1s0.8-0.6,1.6-1.4c0.8-0.8,2.2-2,3.3-2.8c0.9-0.8,2-1.7,2.2-1.9
		c0.2-0.2,0.5-0.5,0.6-0.5c0.2,0,0.5-0.3,0.8-0.6c0.3-0.3,0.8-0.8,0.9-0.8c0.2-0.2,0.5-0.3,0.8-0.6c0.3-0.2,0.9-0.6,1.3-1.1
		c0.5-0.3,0.9-0.8,1.1-0.9s0.6-0.5,0.9-0.6c0.3-0.2,0.9-0.6,1.3-0.9c0.3-0.3,0.6-0.6,0.8-0.6c0.2,0,0.5-0.3,0.9-0.6s0.8-0.6,0.9-0.6
		s0.3-0.2,0.3-0.3c0-0.2,0.2-0.3,0.3-0.3s0.5-0.2,0.6-0.3c0.2-0.2,0.8-0.6,1.3-0.9c0.5-0.3,0.9-0.6,1.1-0.6c0.2,0,0.3-0.2,0.3-0.3
		c0-0.2,0.5-0.5,0.8-0.6c0.3-0.2,0.6-0.5,0.6-0.5c0-0.2,0.2-0.2,0.2-0.2c0.2,0,0.8-0.3,1.4-0.8s1.6-0.9,1.9-1.3
		c0.3-0.2,0.9-0.5,1.3-0.6c0.3-0.2,0.8-0.3,0.8-0.5c0-0.2,0.5-0.3,0.8-0.5c0.3-0.2,1.1-0.5,1.4-0.8c0.5-0.2,0.9-0.5,1.3-0.8
		c0.2-0.2,1.1-0.8,2-1.3c0.9-0.5,1.7-0.9,1.9-0.9s0.8-0.3,1.4-0.6c0.6-0.3,1.6-0.9,2-1.3c0.5-0.3,0.8-0.5,0.9-0.5s0.9-0.3,1.9-0.8
		s2-0.9,2.5-1.1c0.5-0.2,0.9-0.5,1.1-0.5c0.2-0.2,0.3-0.3,0.5-0.3c0.2,0,0.8-0.3,1.4-0.6c0.6-0.3,1.4-0.6,1.7-0.8
		c0.5-0.5,0.8-0.6,0.8-0.6c0.2-0.2,1.1-0.5,2.2-0.9c1.1-0.5,2.4-0.8,3-0.9c0.5-0.2,1.1-0.3,1.3-0.5s0.6-0.3,1.1-0.5s1.3-0.5,1.7-0.6
		c0.5-0.2,0.9-0.3,1.1-0.3c0.2,0,0.5-0.2,0.8-0.3c0.2-0.2,1.4-0.5,2.5-0.8c1.1-0.3,2.8-0.6,3.6-0.9c0.8-0.2,3-0.8,4.9-1.3
		s3.9-0.9,4.4-1.1c0.6-0.2,2.2-0.5,3.6-0.6c1.4-0.3,2.7-0.5,2.8-0.6c0.2-0.2,1.7-0.3,3.3-0.6c1.6-0.2,3.6-0.5,4.6-0.6
		c0.9-0.2,2.4-0.3,3.3-0.3c0.9-0.2,3.2-0.3,4.7-0.5c1.6-0.2,3.5-0.3,3.9-0.3c0.5,0,3.9,0,7.4,0c3.6,0,8.8,0.2,11.8,0.3
		c3,0.2,5.5,0.3,5.5,0.5c0.2,0,0.5,0.2,0.8,0.2s1.4,0.2,2.4,0.3c1,0.2,3.5,0.5,5.5,0.8c2,0.3,3.9,0.6,4.1,0.6
		c0.2,0.2,0.8,0.3,1.7,0.3c0.8,0.2,2.2,0.5,3.2,0.6c0.9,0.2,2.7,0.6,3.9,0.9c1.3,0.3,2.4,0.6,2.5,0.6c0.2,0.2,1.6,0.5,3,0.9
		c1.4,0.3,2.8,0.8,3,0.9c0.2,0.2,1.1,0.3,1.9,0.6c0.9,0.3,2,0.6,2.7,0.8c0.6,0.2,1.6,0.5,2.2,0.8c0.6,0.2,1.4,0.5,1.7,0.6
		c0.3,0.2,1.3,0.5,1.9,0.8c0.6,0.2,1.9,0.6,2.8,0.9c0.9,0.3,1.9,0.8,2.4,0.9c0.5,0.2,0.9,0.3,1.1,0.3s0.6,0.2,1.1,0.5
		c0.5,0.3,1.7,0.8,2.5,1.3c0.9,0.3,2.2,1.1,3,1.4c0.8,0.3,1.4,0.6,1.6,0.6c0.2,0,0.3,0.2,0.5,0.3c0.2,0.2,0.8,0.6,1.4,0.9
		c0.8,0.3,1.6,0.9,2,1.1c0.3,0.3,0.8,0.5,1.1,0.5s0.3,0,0.5,0.2c0.2,0.2,0.3,0.3,0.8,0.5c0.3,0.2,0.9,0.5,1.3,0.6
		c0.3,0.2,0.6,0.3,0.6,0.5c0,0.2,0.5,0.3,0.9,0.5c0.5,0.2,1.6,0.8,2.2,1.3c0.8,0.5,1.4,0.9,1.6,0.9c0.2,0,0.6,0.3,1.3,0.8
		c0.6,0.5,1.1,0.8,1.3,0.8c0.2,0,0.6,0.3,1.3,0.8c0.6,0.5,1.3,0.8,1.4,0.8c0.2,0,0.3,0,0.3,0.2c0,0.2,0.5,0.5,1.1,0.9
		s1.3,0.9,1.4,0.9c0.2,0.2,0.6,0.3,0.9,0.6c0.3,0.2,1.1,0.8,1.7,1.4c0.6,0.5,1.3,0.9,1.4,0.9c0.2,0,0.5,0.3,0.9,0.6
		c0.5,0.3,0.9,0.9,1.3,1.1c0.2,0.2,0.5,0.5,0.6,0.5c0.2,0,0.3,0.2,0.5,0.5c0.2,0.3,0.5,0.5,0.6,0.5c0.2,0,0.3,0.2,0.5,0.3
		c0.2,0.2,0.5,0.5,0.6,0.8c0.3,0.3,0.6,0.5,0.6,0.2c0.2-0.2,0-0.2,0-0.2c-0.2,0.2-0.2,0-0.2,0s0.2-0.2,0.3-0.2
		c0.2,0,0.3,0.2,0.2,0.3c0,0.3,0.3,0.6,1.3,1.4c0.8,0.6,1.4,1.3,1.6,1.4c0.2,0.2,0.3,0.3,0.5,0.3c0.2,0,0.6,0.5,1.1,0.9
		c0.5,0.5,1.1,0.9,1.1,0.9s1.3,1.1,2.7,2.4c1.4,1.4,3.6,3.6,5,5c1.4,1.4,3,3.2,3.6,3.8c0.6,0.6,1.6,1.6,2,2.2
		c0.5,0.5,1.6,1.7,2.2,2.7c0.8,0.9,1.7,2,2.2,2.7c0.5,0.5,0.9,1.1,0.9,1.3c0.2,0.2,0.3,0.5,0.5,0.5c0.2,0.2,0.3,0.3,0.3,0.5
		c0,0.2,0,0.3,0.2,0.3c0.2,0,0.5,0.5,0.9,1.1c0.5,0.5,1.1,1.4,1.4,1.9c0.3,0.5,0.8,1.1,1.1,1.6c0.3,0.3,1.1,1.6,1.9,2.7
		c0.8,1.1,1.4,2,1.4,2.2c0,0,0.2,0.3,0.3,0.5c0.2,0.2,0.5,0.6,0.8,1.1c0.2,0.3,0.6,1.1,0.9,1.6c0.3,0.5,0.8,1.1,0.9,1.4
		c0.2,0.3,0.5,0.9,0.6,1.3c0.2,0.3,0.5,0.8,0.5,0.8c0.2,0,0.3,0.5,0.6,0.9c0.3,0.5,0.8,1.6,1.3,2.4c0.3,0.8,0.8,1.7,0.9,2
		c0.2,0.3,0.5,0.8,0.6,1.3c0.2,0.3,0.5,0.8,0.5,0.8c0.2,0,0.2,0.2,0.2,0.3s0.5,1.1,0.9,2c0.5,0.9,1.3,2.5,1.7,3.5s1.1,2.2,1.3,3
		c0.3,0.8,0.6,1.4,0.6,1.4c0.2,0.2,0.5,0.9,0.6,1.9c0.3,0.9,0.6,1.7,0.8,1.9c0.2,0.2,0.2,0.3,0.2,0.6c0,0.2,0.2,0.6,0.3,0.9
		c0.2,0.3,0.5,1.1,0.6,1.7c0.2,0.6,0.9,2.7,1.6,4.6c0.6,1.9,1.3,3.8,1.3,3.9c0,0.3,0.2,0.6,0.3,0.9c0.2,0.2,0.5,0.9,0.6,1.7
		c0.2,0.8,0.5,1.6,0.5,1.9c0.2,0.3,0.3,0.9,0.5,1.4c0.2,0.5,0.3,1.1,0.5,1.3c0.2,0.2,0.5,2.2,0.9,4.2c0.5,2,0.8,4.2,0.9,4.7
		c0.2,0.5,0.3,1.6,0.5,2.5c0.2,0.9,0.5,3.5,0.8,5.7c0.3,2.2,0.5,5,0.6,6.5c0,1.3,0.2,2.5,0.3,2.7c0.2,0.2,0.2,3.6,0.2,8.5
		c0,4.6,0,9.3-0.2,10.5c-0.2,1.3-0.2,3-0.3,3.9c-0.2,0.9-0.3,3.2-0.5,5c-0.2,1.9-0.5,3.5-0.5,3.6c-0.2,0.2-0.2,0.6-0.3,1.3
		c0,0.5-0.3,2.2-0.5,3.8c-0.2,1.6-0.5,3.5-0.6,4.1c-0.2,0.8-0.3,1.4-0.5,1.4c-0.2,0-0.2,0.2-0.2,0.5c0,0.3-0.2,1.6-0.5,3
		c-0.3,1.4-0.6,2.5-0.6,2.7c0,0-0.3,0.9-0.6,2c-0.3,1.1-0.5,2.2-0.5,2.4c0,0.2-0.2,0.6-0.3,0.9c-0.2,0.3-0.6,1.6-0.9,2.7
		c-0.3,1.1-0.8,2.5-0.9,3c-0.2,0.5-0.3,1.1-0.5,1.3c-0.2,0.2-0.5,1.4-0.9,2.5c-0.5,1.1-0.9,2.5-1.1,2.8c-0.2,0.5-0.3,0.8-0.3,0.9
		c0,0.2-0.2,0.5-0.3,0.9c-0.2,0.5-0.6,1.3-0.9,1.9c-0.3,0.6-0.8,1.9-1.1,2.8s-0.8,1.9-0.9,2.4c-0.2,0.5-0.5,0.9-0.5,1.1
		c0,0.2-0.2,0.3-0.2,0.3c-0.2,0-0.2,0.2-0.2,0.2c0,0.2-0.2,0.8-0.5,1.4c-0.3,0.6-0.6,1.4-0.9,1.9c-0.2,0.5-0.5,0.9-0.6,1.1
		c-0.2,0.2-0.5,1.1-0.9,2c-0.5,0.9-1.1,2.2-1.3,2.7c-0.3,0.5-0.6,1.1-0.8,1.3c-0.2,0.2-0.3,0.3-0.3,0.5c0,0.2-0.2,0.3-0.3,0.5
		c-0.2,0.2-0.6,1.1-1.3,1.9c-0.5,0.9-1.1,1.9-1.3,2c-0.2,0.2-0.8,1.1-1.3,1.9c-0.6,0.8-1.1,1.6-1.1,1.7s-0.2,0.5-0.5,0.8
		c-0.3,0.3-0.5,0.6-0.5,0.8c0,0.2-0.3,0.5-0.5,0.9c-0.3,0.5-0.8,1.3-1.3,1.7c-0.5,0.5-1.1,1.4-1.4,2c-0.5,0.5-0.9,1.1-1.1,1.4
		c-0.2,0.3-0.6,0.9-1.1,1.4c-0.5,0.6-1.3,1.6-1.6,2.2c-0.5,0.6-0.9,1.3-1.3,1.6c-0.3,0.2-0.6,0.6-0.9,1.1c-0.3,0.5-0.6,0.8-0.8,0.9
		c-0.2,0.2-0.3,0.5-0.3,0.6c0,0.2-0.2,0.3-0.3,0.5c-0.2,0.2-0.8,0.8-1.4,1.6c-0.6,0.8-1.3,1.6-1.6,1.9c-0.3,0.3-0.8,0.8-0.9,1.1
		c-0.2,0.3-1.7,1.9-3.3,3.5s-3.6,3.6-4.4,4.2c-0.8,0.8-2,1.7-2.7,2.4c-0.6,0.6-1.6,1.4-2.2,1.9c-0.6,0.5-1.7,1.6-2.7,2.2
		c-0.9,0.8-1.7,1.4-1.9,1.4c-0.2,0-0.5,0.3-0.8,0.5c-0.3,0.2-0.8,0.6-1.3,0.9c-0.5,0.3-0.9,0.8-1.1,0.9c-0.2,0.2-0.5,0.3-0.6,0.5
		c-0.2,0.2-0.9,0.6-1.6,1.1c-0.6,0.5-1.6,1.3-2,1.6c-0.5,0.3-0.9,0.6-0.9,0.6s-0.3,0.2-0.6,0.5c-0.3,0.2-1.4,1.1-2.7,1.9
		c-1.3,0.8-2.4,1.6-2.5,1.7c-0.2,0.2-1.3,0.8-2.4,1.6c-1.1,0.8-2.4,1.6-3,1.9c-0.5,0.3-1.4,0.8-2,1.1c-0.6,0.3-1.6,0.8-2,1.1
		c-0.5,0.3-1.4,0.8-1.9,1.1c-0.5,0.3-1.3,0.8-1.7,0.9c-0.3,0.2-1.1,0.5-1.6,0.8s-0.9,0.5-1.1,0.6c-0.2,0.2-0.5,0.3-0.6,0.3
		c-0.3,0-0.9,0.3-1.6,0.6c-0.6,0.3-1.1,0.6-1.1,0.6c0,0.2-0.3,0.2-0.5,0.2c-0.2,0-0.8,0.2-1.3,0.5c-0.5,0.3-1.1,0.5-1.3,0.5
		s-0.3,0.2-0.5,0.3c-0.2,0.2-0.6,0.3-0.9,0.5c-0.5,0.2-1.3,0.5-2,0.8s-1.4,0.6-1.4,0.6c-0.2,0-0.6,0.2-1.1,0.5
		c-0.5,0.3-0.9,0.5-1.1,0.5c-0.2,0-0.5,0.2-0.8,0.3c-0.3,0.2-1.1,0.5-1.9,0.6c-0.6,0.2-1.3,0.5-1.4,0.5c-0.2,0.2-0.8,0.3-1.6,0.6
		c-0.8,0.3-1.7,0.6-2,0.6c-0.3,0.2-0.9,0.3-1.4,0.5c-0.5,0.2-1.1,0.3-1.6,0.5c-0.5,0.2-1.3,0.3-1.7,0.5c-0.5,0.2-1.3,0.3-1.6,0.5
		c-0.5,0.2-0.9,0.3-1.1,0.3c-0.2,0-0.6,0.2-0.9,0.3c-0.3,0.2-0.9,0.3-1.3,0.3s-0.8,0.2-0.9,0.2c-0.2,0.2-0.9,0.3-1.9,0.5
		c-0.9,0.2-1.7,0.3-1.7,0.5c0,0.2-1.4,0.5-3.2,0.8c-1.6,0.3-3.3,0.6-3.6,0.8c-0.3,0-1.4,0.2-2.5,0.3c-1.1,0.2-2.2,0.3-2.5,0.3
		c-0.3,0.2-1.4,0.3-2.4,0.3c-0.9,0.2-2.8,0.3-4.1,0.5c-1.3,0.2-2.5,0.3-2.8,0.5c-0.2,0.2-1.4,0.2-2.5,0.3c-1.1,0-3.3,0.2-4.7,0.2
		C505.8,663.5,501.4,663.6,497.6,663.6L497.6,663.6z M499.1,650.5c3.2,0,5.8-0.2,6.1-0.3l0.5-0.2l-0.6-0.3c-0.3-0.2-0.8-0.5-1.1-0.6
		c-0.3-0.2-1.4-0.8-2.4-1.3c-1.1-0.5-1.9-1.1-1.9-1.1c0-0.2-0.2-0.2-0.3-0.2c-0.2,0-0.5-0.2-0.6-0.3c-0.2-0.2-0.6-0.5-0.9-0.6
		c-0.3-0.2-1.4-0.8-2.5-1.4c-1.1-0.6-2.7-1.7-3.5-2.4c-0.8-0.6-2.7-2-3.8-3c-1.3-0.9-2.7-2.2-3.2-2.7c-0.5-0.5-1.4-1.3-1.7-1.7
		c-0.5-0.5-0.9-0.8-1.1-0.8c-0.2,0-0.5-0.3-0.6-0.6c-0.3-0.3-1.3-1.4-2.2-2.4c-0.9-0.9-2.2-2.4-2.8-3.2c-0.6-0.8-1.6-1.9-2-2.5
		c-0.5-0.6-1.1-1.4-1.3-1.7s-0.6-0.8-0.9-1.3c-0.3-0.3-0.8-1.1-1.3-1.7c-0.3-0.6-0.9-1.4-1.4-1.9c-0.3-0.5-0.9-1.4-1.3-2
		c-0.3-0.6-0.6-1.3-0.8-1.3c-0.2-0.2-0.5-0.6-0.8-1.3c-0.3-0.6-0.8-1.4-1.1-1.9c-0.3-0.5-0.5-0.9-0.5-0.9c0-0.2-0.3-0.8-0.6-1.7
		c-0.3-0.8-0.6-1.6-0.6-1.7c0-0.2-0.2-0.3-0.2-0.5c-0.2-0.2-0.5-0.8-0.6-1.6c-0.3-0.8-0.5-1.4-0.5-1.6c0-0.2-0.2-0.3-0.2-0.5
		c-0.2,0-0.2-0.3-0.2-0.5c0-0.2-0.2-0.5-0.2-0.8c-0.2-0.2-0.3-0.8-0.5-1.4c-0.2-0.6-0.3-1.3-0.3-1.4s-0.2-0.6-0.3-0.9
		c-0.2-0.3-0.3-0.6-0.3-0.9c0-0.2-0.2-1.1-0.2-2c-0.2-0.9-0.3-1.7-0.5-1.9c-0.2-0.2-0.3-1.1-0.5-2.4c-0.2-1.1-0.3-4.2-0.3-6.9
		c0-2.8,0.2-5.8,0.3-7.4c0.2-1.4,0.3-2.7,0.5-2.7c0.2,0,0.2-0.3,0.2-0.6c0-0.3,0.2-1.4,0.5-2.4c0.3-1.1,0.6-2.4,0.8-3.2
		c0.2-0.6,0.3-1.3,0.5-1.4s0.2-0.6,0.3-0.9c0.2-0.6,0-0.8-0.3-1.1c-0.2-0.2-0.8-0.3-1.3-0.5c-0.6-0.2-0.9,0-0.9,0.2
		c0,0.2-0.2,0.2-0.3,0.2c-0.2,0-0.8,0.2-1.3,0.5c-0.5,0.2-0.9,0.5-1.1,0.5c-0.2,0-0.8,0.3-1.4,0.6c-0.6,0.3-1.6,0.6-2,0.8
		c-0.5,0-1.6,0.3-2.4,0.3c-0.8,0.2-1.7,0.3-1.9,0.5c-0.3,0.2-1.4,0.2-2.8,0.2c-1.3,0-3.3-0.2-4.4-0.3c-1.1-0.2-2.4-0.3-2.5-0.3
		c-0.3-0.2-0.9-0.3-1.4-0.5c-0.5-0.2-0.9-0.3-0.9-0.3s-0.9-0.5-2-0.8c-1.1-0.3-2-0.8-2-0.8c-0.2-0.2-0.5-0.3-0.9-0.3
		c-0.5-0.2-0.9-0.5-1.1-0.6c-0.2-0.2-0.5-0.3-0.6-0.3c-0.2,0-1.1-0.6-2.2-1.4c-1.1-0.8-2-1.4-2-1.4s-0.3-0.3-0.8-0.5
		c-0.3-0.3-1.7-1.6-2.8-2.7c-1.3-1.3-2.2-2.4-2.2-2.4c0-0.2-0.3-0.5-0.6-0.8c-0.3-0.3-0.6-0.6-0.6-0.8c0-0.2-0.5-0.8-0.9-1.4
		c-0.5-0.6-1.1-1.7-1.4-2.2c-0.3-0.6-0.8-1.6-1.1-2.4c-0.3-0.6-0.8-1.4-0.9-1.7c-0.2-0.3-0.5-0.9-0.8-1.4c-0.2-0.5-0.6-1.4-0.8-2
		c-0.2-0.6-0.3-1.3-0.5-1.4c-0.2-0.2-0.3-0.8-0.5-1.4c-0.2-0.6-0.5-1.9-0.8-2.8c-0.5-1.6-0.5-2-0.5-6.9c0-3.8,0.2-5.8,0.3-7.4
		c0.2-1.1,0.5-2.7,0.6-3.5c0.2-0.8,0.6-2.4,1.1-3.5c0.3-1.1,0.8-2.2,0.9-2.5c0.2-0.2,0.3-0.5,0.3-0.6s0.3-1.1,0.8-1.9
		c0.5-0.9,0.9-2,1.3-2.5c0.3-0.8,0.3-0.9,0.2-1.3c-0.2-0.2-0.6-0.3-1.4-0.5c-0.6-0.2-1.3-0.2-1.3,0c0,0.2-0.5,0.2-0.8,0.2
		c-0.3,0-0.8,0.2-0.9,0.2c-0.2,0.2-0.6,0.3-1.1,0.3s-1.3,0.3-1.9,0.6c-0.6,0.3-1.4,0.6-1.9,0.8c-0.5,0.2-1.9,1.1-3,1.9
		c-1.1,0.8-2.2,1.6-2.5,1.7c-0.3,0.2-1.3,0.9-2,1.9c-0.8,0.9-2,2.2-2.5,2.8c-0.5,0.6-1.3,1.7-1.6,2.2c-0.3,0.5-0.8,1.3-1.1,1.7
		c-0.3,0.3-0.8,1.6-1.3,2.7c-0.5,1.1-0.9,2.2-0.9,2.5c-0.2,0.3-0.3,1.3-0.6,2.2c-0.2,0.9-0.3,1.7-0.5,1.9c0,0.2-0.2,0.6-0.2,1.3
		c0,0.6-0.2,1.3-0.2,1.7s-0.2,1.4-0.2,2c0,0.6-0.2,2-0.2,3s0,2.5,0.2,3.5c0,0.9,0.2,2,0.3,2.4c0,0.5,0.3,1.4,0.5,2
		c0.2,0.8,0.5,2.2,0.6,3.2c0.2,1,0.6,2.5,0.8,3.3s0.6,1.9,0.8,2.2c0.2,0.5,0.3,0.9,0.3,0.9c0,0.2,0.2,0.5,0.3,0.8
		c0.2,0.3,0.3,0.9,0.5,1.3c0.2,0.5,0.3,0.9,0.5,1.1c0.2,0.2,0.3,0.5,0.3,0.6c0,0.2,0.3,1.1,0.8,2s0.9,1.7,0.9,1.9
		c0,0,0.2,0.5,0.3,0.8s0.3,0.8,0.5,0.9c0.2,0.2,0.3,0.5,0.3,0.5c0,0.2,0.5,1.1,1.3,2.2c0.6,1.1,1.3,2,1.3,2s0.2,0.3,0.5,0.8
		c0.3,0.5,0.6,0.8,0.6,0.8c0.2,0.2,0.3,0.3,0.3,0.3c0,0.2,0.5,0.8,0.9,1.4c0.5,0.6,1.3,1.6,1.6,2.2c0.3,0.5,0.8,1.1,1.1,1.4
		c0.2,0.3,0.6,0.8,1.1,1.3c0.3,0.5,0.9,1.1,1.3,1.6c0.3,0.5,2.4,2.4,4.4,4.4s4.1,4.1,4.7,4.7c0.6,0.5,1.1,0.9,1.1,0.9
		s0.8,0.5,1.6,1.1c0.8,0.6,1.6,1.3,1.7,1.4c0.2,0.2,0.5,0.5,0.6,0.8c0.2,0.3,0.3,0.8,0.3,0.9c0,0.3-0.2,0.6-0.5,0.8
		c-0.2,0.2-0.6,0.5-0.9,0.5c-0.3,0-0.8-0.2-1.1-0.5c-0.3-0.2-0.5-0.5-0.6-0.5c-0.2,0-0.5-0.2-0.8-0.5c-0.3-0.3-0.8-0.8-1.1-0.9
		c-0.3-0.3-0.6-0.5-0.8-0.5c-0.2,0-0.8-0.5-1.6-1.3c-0.8-0.6-1.4-1.3-1.4-1.3c-0.2,0-0.5-0.3-0.8-0.6c-0.3-0.3-1.3-1.3-1.9-1.9
		c-0.6-0.6-1.4-1.3-1.4-1.3c-0.2,0-0.5-0.3-0.9-0.8s-0.8-0.8-0.9-0.8c-0.2,0-1.4-1.3-2.8-2.8c-1.4-1.6-3-3.2-3.3-3.6
		c-0.3-0.5-0.9-1.4-1.6-2c-0.6-0.6-1.3-1.6-1.6-2c-0.3-0.5-0.9-1.3-1.3-1.7c-0.3-0.5-0.6-0.9-0.8-1.1c-0.2-0.2-0.5-0.8-0.9-1.4
		c-0.5-0.8-1.1-1.6-1.4-2c-0.3-0.5-0.6-0.9-0.8-1.3c0-0.3-0.3-0.8-0.5-1.1c-0.2-0.3-0.6-1.3-0.9-2c-0.3-0.8-0.9-1.9-1.1-2.5
		c-0.3-0.5-0.6-1.4-0.9-2c-0.3-0.6-0.6-1.6-0.8-2.2c-0.2-0.6-0.3-1.1-0.3-1.3c0,0-0.3-0.9-0.6-1.9c-0.3-0.9-0.6-2.4-0.8-2.8
		c-0.2-0.6-0.3-1.3-0.5-1.3c-0.2-0.2-0.3-0.9-0.5-1.9c-0.2-0.9-0.5-2.7-0.6-3.8c-0.2-1.1-0.5-3.5-0.5-5c-0.2-1.6-0.2-3.9-0.2-5
		c0-1.1,0.2-3.2,0.2-4.4c0.2-1.3,0.3-2.7,0.3-3.2s0.2-0.9,0.2-1.1c0-0.2,0.3-1.3,0.5-2.5c0.2-1.3,0.5-2.2,0.6-2.4
		c0.2-0.2,0.3-0.5,0.3-0.9c0.2-0.3,0.3-1.1,0.6-1.6c0.3-0.5,0.5-1.1,0.5-1.3c0-0.2,0.2-0.5,0.3-0.8c0.2-0.2,0.5-0.8,0.6-1.1
		c0.2-0.5,0.5-0.8,0.5-0.9s0.5-0.8,0.9-1.6c0.5-0.8,0.9-1.4,1.1-1.6c0.2-0.2,0.5-0.8,0.9-1.4c0.5-0.6,0.9-1.3,0.9-1.3
		c0.2,0,0.2-0.2,0.2-0.2c0-0.2,0.5-0.8,1.1-1.6c0.6-0.8,1.6-1.9,2-2.4s1.6-1.4,2.4-2.2c0.8-0.6,2.2-1.6,3-2s2-1.1,2.8-1.6
		c0.8-0.5,2.2-0.9,3-1.3c0.8-0.3,2.7-0.6,4.1-0.9c1.3-0.2,3-0.5,3.9-0.6c0.9-0.2,2-0.2,2.7-0.2c0.6,0,1.1,0.2,1.1,0.2
		c0,0.2,0.5,0.2,0.9,0.2s1.6,0.2,2.2,0.2c0.9,0.2,1.6,0.2,1.9,0c0.3-0.2,1.9-1.6,3.6-3.2c1.7-1.6,3.3-3.2,3.8-3.5
		c0.3-0.3,0.8-0.6,1.1-0.8c0.2-0.2,0.6-0.5,0.8-0.8c0.2-0.3,0.6-0.5,0.6-0.5c0.2,0,0.6-0.5,1.3-0.9c0.6-0.6,1.3-1.1,1.6-1.1
		c0.3,0,0.5-0.2,0.5-0.3c0-0.2,0.2-0.3,0.3-0.3s0.9-0.6,1.7-1.1c0.8-0.6,1.6-1.1,1.9-1.3c0.3-0.2,1.1-0.6,1.7-1.1
		c0.6-0.5,1.6-1.1,1.9-1.4c0.3-0.3,0.8-0.8,0.8-0.9c0.2-0.2,0.3-0.6,0.5-0.9c0.2-0.3,0.6-1.1,0.9-1.7c0.3-0.8,0.8-1.4,0.8-1.6
		c0.2-0.2,0.3-0.5,0.3-0.6c0.2-0.2,0.3-0.6,0.6-0.9c0.2-0.3,0.6-1.1,0.9-1.7c0.3-0.6,0.8-1.6,1.1-1.9c0.3-0.3,0.6-0.9,0.8-1.3
		c0.2-0.3,0.5-0.8,0.8-1.3c0.3-0.5,0.6-0.8,0.6-0.8s0.6-0.9,1.3-1.7c0.6-0.9,1.4-1.9,1.6-2c0.2-0.3,0.6-0.8,0.9-1.3
		c0.3-0.5,0.9-1.4,1.4-2c0.6-0.9,0.8-1.4,0.8-1.7c0-0.3-0.9-1.4-2-2.4c-1.1-1.1-1.9-1.9-2-1.9c-0.2,0-0.5-0.3-0.9-0.6
		c-0.5-0.3-0.9-0.9-1.3-1.3c-0.3-0.3-0.6-0.5-0.6-0.5c-0.2,0-0.9-0.5-1.9-1.1c-0.9-0.6-2.2-1.4-2.7-1.7c-0.5-0.3-1.1-0.6-1.3-0.8
		s-0.6-0.5-1.3-0.6c-0.5-0.3-2-0.9-3.5-1.6c-1.4-0.6-2.7-1.3-2.8-1.3c-0.2,0-0.5-0.2-0.8-0.3c-0.3-0.2-0.8-0.3-1.3-0.5
		c-0.3,0-0.9-0.3-1.3-0.5c-0.3-0.2-0.9-0.3-1.4-0.5c-0.5-0.2-1.1-0.3-1.4-0.5c-0.3-0.2-0.6-0.2-0.9-0.2c-0.3,0-0.9-0.2-1.6-0.3
		c-0.6-0.2-1.6-0.5-2.2-0.5c-0.5-0.2-1.6-0.2-2.4-0.3c-0.8,0-3.2-0.2-5.2-0.2c-2.7,0-4.7,0-6.8,0.2c-1.6,0.2-3.2,0.5-3.3,0.5
		c-0.2,0.2-0.5,0.2-0.6,0.2c-0.2,0-0.8,0-1.6,0.2c-0.6,0.2-1.7,0.3-2.4,0.5c-0.6,0.2-1.4,0.3-1.6,0.5c-0.3,0.2-0.6,0.3-0.8,0.3
		c-0.2,0-0.3,0-0.5,0.2c-0.2,0-1.1,0.3-1.9,0.6c-0.9,0.3-1.7,0.5-1.9,0.5s-0.6,0.2-1.3,0.5c-0.6,0.3-1.3,0.5-1.6,0.6
		c-0.3,0.2-0.9,0.3-1.4,0.6c-0.5,0.3-0.9,0.5-1.1,0.5c-0.2,0-1.1,0.5-2,0.9c-0.9,0.6-2.2,1.3-2.8,1.6c-0.6,0.3-1.1,0.6-1.3,0.8
		c0,0-0.5,0.3-0.8,0.5c-0.3,0.2-1.1,0.6-1.7,1.1c-0.6,0.3-1.1,0.8-1.3,0.9c-0.2,0.2-0.3,0.3-0.5,0.3c-0.2,0-0.5,0.2-0.8,0.5
		c-0.3,0.3-1.3,0.9-1.9,1.4c-0.8,0.5-1.6,1.1-1.7,1.4c-0.3,0.3-1.1,0.9-1.7,1.4c-0.6,0.5-2.4,2.2-3.9,3.6c-1.4,1.4-3.2,3.3-3.8,3.9
		c-0.6,0.6-1.3,1.4-1.4,1.7c-0.2,0.3-0.8,0.9-1.3,1.6c-0.5,0.6-1.3,1.7-1.9,2.5c-0.5,0.8-1.1,1.6-1.3,1.6s-0.3,0.2-0.3,0.3
		c0,0.2-0.5,0.9-1.1,1.9c-0.6,0.9-1.4,2.4-1.9,3.2c-0.5,0.8-0.9,1.7-1.1,2c-0.2,0.3-0.8,1.7-1.6,3.2c-0.6,1.4-1.4,3.2-1.6,3.9
		c-0.3,0.8-0.5,1.6-0.6,1.7c-0.2,0.2-0.5,1.3-0.6,2.2c-0.3,0.9-0.6,2.5-0.9,3.5c-0.2,0.9-0.6,3-0.9,4.7c-0.3,1.6-0.6,4.1-0.8,5.3
		c-0.5,0.6-0.5,1.9-0.5,2.2s0,1.4-0.2,2.4c-0.2,1.1-0.2,3.9,0,7.2c0.2,3,0.3,6,0.5,6.8c0.2,0.8,0.3,2.2,0.5,3.3
		c0.2,1.1,0.3,2.5,0.5,3.2c0.2,0.6,0.3,1.6,0.3,2.4c0.2,0.6,0.3,2.2,0.5,3.3c0.2,1.1,0.3,2.2,0.3,2.4c0.2,0.2,0.3,0.9,0.5,1.9
		c0.2,0.9,0.5,2.7,0.8,3.9c0.3,1.3,0.8,3,0.9,3.9c0.3,0.9,0.6,2.4,0.8,3c0.2,0.6,0.3,1.4,0.5,1.7c0,0.3,0.2,0.6,0.3,0.6
		c0.2,0.2,0.5,1.3,0.9,2.4c0.5,1.3,0.8,2.4,0.9,2.5c0.2,0.2,0.3,0.9,0.6,1.6c0.3,0.6,0.5,1.6,0.8,2c0.2,0.5,0.5,1.4,0.8,2
		c0.3,0.6,0.6,1.4,0.8,1.7c0.2,0.3,0.3,0.8,0.3,0.9s0.2,0.3,0.2,0.5c0.2,0,0.2,0.3,0.2,0.5c0,0.2,0.2,0.5,0.3,0.6
		c0.2,0.2,0.6,1.1,1.1,2c0.5,0.9,1.3,2.5,1.7,3.5c0.5,0.9,0.9,1.7,0.9,1.9c0,0,0.5,0.9,1.1,1.9c0.6,0.9,1.4,2.4,1.7,3.2
		c0.5,0.8,0.9,1.6,1.1,1.9c0.2,0.3,0.5,0.6,0.5,0.6c0,0.2,0.3,0.6,0.6,0.9c0.3,0.5,1.1,1.6,1.6,2.4c0.5,0.8,1.1,1.6,1.1,1.7
		c0,0,0.3,0.5,0.6,0.9c0.3,0.5,0.6,0.9,0.6,0.9s0.3,0.5,0.6,0.9c0.3,0.5,0.9,1.3,1.1,1.6c0.3,0.3,0.9,1.3,1.4,1.9
		c0.5,0.6,1.1,1.4,1.4,1.9c0.3,0.3,1.4,1.7,2.5,3.2c1.1,1.3,2.5,3.2,3.3,3.9c0.8,0.8,1.4,1.6,1.4,1.6s2.2,2.4,5,5.2
		c2.8,2.8,6.1,6,7.4,6.9c1.3,1.1,2.8,2.4,3.3,2.8c0.5,0.5,1.1,0.9,1.4,1.3c0.3,0.2,1.4,1.1,2.4,1.7c0.9,0.8,1.9,1.4,2,1.6
		c0.2,0.2,0.5,0.3,0.6,0.5c0.2,0.2,1.3,0.9,2.2,1.6c1.1,0.8,2,1.4,2,1.4s0.2,0.2,0.3,0.3c0.2,0.2,1.3,0.9,2.5,1.7
		c1.3,0.8,2.7,1.6,2.8,1.7c0.3,0.2,1.4,0.8,2.4,1.4c0.9,0.6,3.5,2,5.3,3s3.8,1.9,4.2,2c0.5,0.2,1.7,0.8,3,1.4
		c1.3,0.5,2.7,1.3,3.3,1.6c0.6,0.3,1.3,0.6,1.4,0.6c0.2,0,0.8,0.3,1.4,0.6c0.6,0.3,2,0.8,3.3,1.3c1.3,0.3,2.4,0.8,2.5,0.9
		c0.2,0.2,0.8,0.3,1.3,0.5c0.5,0.2,0.9,0.3,1.3,0.5c0.2,0.2,1.1,0.5,1.7,0.6c0.8,0.3,2,0.6,2.7,0.8c0.8,0.2,1.4,0.3,1.4,0.5
		c0.2,0.2,1.9,0.5,3.8,0.9c2,0.5,3.8,0.9,4.1,1.1c0.3,0.2,0.6,0.2,0.9,0.2c0.3,0,0.5,0.2,0.6,0.2c0.2,0.2,1.1,0.3,2.4,0.6
		c1.1,0.2,2.2,0.5,2.4,0.5c0.2,0,0.8,0.2,1.4,0.2s1.7,0.2,2.2,0.3c0.5,0.2,1.3,0.3,1.7,0.3c0.5,0.2,1.9,0.3,3,0.5
		c1.1,0.2,2.2,0.3,2.4,0.5c0.2,0.2,1.6,0.3,3.3,0.5c1.7,0.2,4.4,0.3,6,0.5C492.1,650.5,495.9,650.5,499.1,650.5L499.1,650.5z
		 M539.3,639.4c2.7,0,4.6-0.2,4.7-0.3c0.2-0.2,2-0.5,4.2-0.6c2-0.3,3.9-0.5,3.9-0.6c0.2-0.2,0.6-0.2,1.1-0.3c0.5,0,1.3-0.2,1.7-0.2
		s0.8-0.2,0.9-0.3c0,0,0.8-0.3,1.7-0.6c0.9-0.3,2-0.6,2.7-0.8c0.6-0.2,1.4-0.5,1.7-0.6c0.3-0.2,1.3-0.6,2-0.9
		c0.8-0.3,1.4-0.6,1.6-0.6c0.2,0,0.3-0.2,0.5-0.2c0-0.2,0.6-0.5,1.4-0.8c0.6-0.3,1.6-0.6,1.9-0.8s1.6-0.6,2.8-1.4
		c1.3-0.6,2.8-1.4,3.5-1.9c0.6-0.3,1.4-0.8,1.9-0.9c0.3-0.2,0.6-0.3,0.6-0.5c0-0.2,0.3-0.3,0.6-0.5c0.3-0.2,0.6-0.3,0.8-0.5
		c0,0,0.6-0.5,1.4-1.1c0.6-0.5,1.4-0.9,1.6-0.9c0.2,0,0.3-0.2,0.5-0.3c0.2-0.2,0.5-0.5,0.8-0.6c0.3-0.2,0.6-0.5,0.8-0.5
		c0.2-0.2,0.8-0.6,1.3-0.9c0.5-0.3,0.9-0.6,1.1-0.6c0.2,0,0.3-0.2,0.5-0.5c0.2-0.2,0.3-0.5,0.5-0.5c0.2,0,0.8-0.5,1.6-1.1
		c0.8-0.6,1.9-1.6,2.7-2c0.6-0.5,1.3-0.9,1.4-1.1c0.2,0,0.8-0.6,1.4-1.3c0.6-0.6,1.4-1.3,1.7-1.4c0.3-0.2,1.6-1.3,2.7-2.4
		c1.1-1.1,2.4-2.2,2.5-2.5c0.2-0.3,0.6-0.6,0.9-0.9c0.3-0.2,0.9-0.9,1.7-1.7c0.6-0.6,1.9-1.9,2.7-2.7c0.8-0.8,2-2,2.7-2.8
		c0.8-0.8,1.7-1.9,2-2.4c0.5-0.5,0.9-1.3,1.3-1.6c0.3-0.3,0.6-0.9,0.9-1.1c0.2-0.3,1.1-1.4,2-2.7c0.8-1.1,1.9-2.5,2.4-3.2
		c0.5-0.6,1.3-1.7,1.9-2.5c0.5-0.8,0.9-1.6,0.9-1.6s0.3-0.5,0.6-1.1c0.3-0.6,0.6-0.9,0.8-1.1c0-0.2,0.5-0.8,0.8-1.4
		c0.5-0.6,1.1-1.7,1.6-2.4c0.3-0.6,0.9-1.6,1.3-2c0.3-0.5,0.6-1.3,0.9-1.4c0.3-0.3,0.5-0.6,0.5-0.8s0.2-0.6,0.5-1.1
		c0.2-0.5,0.5-0.9,0.5-1.1c0-0.2,0.2-0.2,0.2-0.2c0.2,0,0.6-0.8,0.9-1.7c0.5-0.9,0.8-1.9,0.8-2c0-0.2,0-0.3,0.2-0.3s0.3-0.5,0.6-1.1
		c0.3-0.6,0.8-1.7,1.3-2.7c0.5-0.9,0.9-2,1.1-2.5c0.2-0.5,0.5-0.9,0.5-1.1c0,0,0.2-0.6,0.5-1.3c0.3-0.6,0.5-1.1,0.5-1.3
		c0,0,0.2-0.5,0.3-0.8c0.2-0.3,0.6-1.6,0.9-2.7c0.3-1.1,0.9-2.5,1.1-3.2c0.2-0.6,0.5-1.3,0.6-1.4c0.2-0.2,0.3-0.8,0.3-1.3
		c0.2-0.5,0.3-1.3,0.5-1.6c0.2-0.3,0.5-1.6,0.8-2.7s0.6-2,0.6-2.2c0.2-0.2,0.2-0.5,0.3-0.8c0-0.3,0.3-1.1,0.5-1.9
		c0.2-0.8,0.5-2,0.6-2.8c0.2-0.8,0.5-1.7,0.5-1.7c0.2-0.2,0.3-0.8,0.3-1.4c0.2-0.8,0.3-2,0.5-3c0.2-0.9,0.3-2.4,0.5-3.3
		c0.2-0.9,0.3-2.2,0.3-3c0-0.8,0.2-1.4,0.3-1.7c0.2-0.2,0.3-1.4,0.3-2.8c0-1.4,0.3-3.5,0.3-4.7c0-1.3,0.2-2.5,0.3-2.7
		c0.2-0.2,0.2-3.2,0.2-7.5c0-4.6,0-7.4-0.2-7.5c-0.2-0.2-0.3-1.4-0.3-2.8s-0.3-3.8-0.5-5c-0.2-1.4-0.5-3.3-0.6-4.4
		c-0.2-1.1-0.5-2.5-0.5-3.2c-0.2-0.6-0.3-1.7-0.5-2.4c-0.2-0.6-0.3-1.6-0.3-2c-0.2-0.5-0.3-1.7-0.6-2.8c-0.3-1.1-0.5-2.2-0.6-2.4
		c-0.2-0.2-0.5-1.3-0.6-2.4c-0.3-1.1-0.6-2.5-0.8-3.3c-0.2-0.8-0.3-1.6-0.5-1.7c-0.2-0.2-0.3-0.9-0.6-1.6c-0.3-0.6-0.5-1.6-0.6-2.2
		c-0.2-0.5-0.6-2.2-1.3-3.8c-0.6-1.6-1.3-3.2-1.4-3.5c-0.2-0.3-0.5-1.1-0.6-1.7c-0.3-0.6-0.6-1.4-0.8-1.9c-0.2-0.5-0.6-1.3-0.8-1.9
		c-0.3-0.6-0.8-1.7-1.3-2.5c-0.5-0.8-0.8-1.6-0.8-1.7c0-0.2-0.5-1.3-1.3-2.7c-0.6-1.3-1.4-2.7-1.6-3c-0.2-0.3-0.5-0.9-0.8-1.3
		c-0.2-0.3-0.6-1.3-0.9-1.9c-0.3-0.6-0.8-1.3-0.9-1.6c-0.2-0.2-0.3-0.3-0.3-0.5c0-0.2-0.2-0.3-0.3-0.6c-0.2-0.3-0.6-0.9-0.9-1.6
		c-0.3-0.6-0.8-1.1-0.9-1.1s-0.3,0-0.3,0.2s-0.2,3.2-0.2,6.6c0,3.8,0,6.5-0.2,6.6c-0.2,0.2-0.3,1.3-0.3,2.5c0,1.3-0.2,3-0.3,3.8
		c-0.2,0.8-0.3,2-0.5,2.7c-0.2,0.6-0.3,1.7-0.5,2.5c-0.2,0.8-0.3,1.6-0.3,1.7c-0.2,0.2-0.3,1.3-0.6,2.5c-0.2,1.3-0.5,2.4-0.6,2.8
		c-0.2,0.3-0.6,1.6-0.9,2.7c-0.3,1.1-0.8,2.2-0.8,2.2c-0.2,0.2-0.2,0.3-0.2,0.5s-0.3,0.9-0.6,1.9c-0.3,0.9-0.8,1.9-0.9,2.2
		c-0.2,0.3-0.3,0.6-0.3,0.8c0,0.2-0.6,1.4-1.4,3c-0.8,1.6-1.9,3.6-2.4,4.4c-0.5,0.8-1.1,1.9-1.3,2c-0.2,0.3-0.5,0.6-0.6,0.8
		c-0.2,0.2-0.3,0.5-0.3,0.6c0,0.2-0.6,1.1-1.4,2c-0.8,0.9-1.7,2-1.9,2.5c-0.3,0.3-2,2.2-3.9,4.1c-1.9,1.9-3.8,3.6-4.2,3.9
		c-0.5,0.3-0.9,0.6-1.3,0.8c-0.3,0.2-0.6,0.6-0.9,0.8c-0.3,0.2-0.6,0.5-0.6,0.5s-0.6,0.3-1.1,0.6c-0.5,0.3-1.1,0.6-1.1,0.6
		c-0.2,0-0.2,0-0.2,0.2c0,0.2-0.2,0.3-0.3,0.3c-0.2,0.2-1.1,0.6-2,1.3c-0.9,0.6-1.9,1.3-2.4,1.4c-0.3,0.2-0.8,0.3-0.9,0.5
		c-0.2,0.2-0.8,0.5-1.4,0.6c-0.6,0.3-1.3,0.6-1.4,0.8c-0.2,0.2-0.6,0.3-1.1,0.5c-0.5,0.2-1.1,0.5-1.6,0.6c-0.5,0.2-0.9,0.3-1.1,0.3
		c-0.2,0-0.9,0.3-1.6,0.6c-0.6,0.3-1.4,0.6-1.6,0.5c-0.2,0-0.8,0-1.3,0.2c-0.5,0.2-1.4,0.5-2,0.5c-0.6,0.2-1.3,0.3-1.3,0.3
		c-0.2,0.2-0.8,0.3-1.4,0.5c-0.6,0.2-1.6,0.3-2,0.5c-0.5,0-0.9,0.3-1.1,0.5c-0.3,0.3-0.3,0.5,0,0.9c0.2,0.3,0.8,0.8,1.3,1.1
		c0.5,0.3,1.1,0.8,1.3,0.8c0.2,0.2,0.9,0.6,1.6,1.1c0.8,0.5,2,1.7,3.2,2.7c1.1,0.9,1.9,2.2,2.2,2.5c0.2,0.5,0.5,0.8,0.5,0.8
		c0.2,0,0.3,0.5,0.6,0.9c0.2,0.5,0.5,1.1,0.6,1.3c0.2,0.2,0.5,0.6,0.6,0.9c0.2,0.3,0.8,2,1.4,3.8c0.6,1.7,1.1,3.6,1.3,4.2
		c0,0.5,0.2,2.2,0.3,3.6c0.2,2,0.2,3.3-0.2,5.8c-0.2,1.7-0.3,3.5-0.5,3.9c0,0.3-0.2,0.9-0.3,1.1c-0.2,0.2-0.3,1.1-0.5,1.9
		c-0.2,0.8-0.6,2-0.8,2.8c-0.3,0.8-0.6,1.7-0.9,2.4c-0.3,0.6-0.5,1.1-0.5,1.3c0,0.2-0.2,0.3-0.2,0.3c-0.2,0.2-0.5,0.9-0.9,1.7
		c-0.5,0.8-0.9,1.9-1.3,2.2s-0.5,0.8-0.5,0.8s-0.2,0.5-0.5,0.8c-0.3,0.3-1.1,1.4-1.7,2.4c-0.8,0.9-1.7,2-2,2.5s-1.3,1.3-1.9,1.7
		c-0.6,0.5-1.9,1.6-2.8,2.4c-0.9,0.8-1.9,1.6-2.2,1.6c-0.3,0.2-0.5,0.3-0.5,0.3s-1.3,0.8-3,1.4c-1.7,0.6-3,1.4-3,1.6
		c0,0-1.1,0.5-2.2,0.9c-1.1,0.5-2.2,0.8-2.4,0.8c-0.2,0-0.5,0.2-0.8,0.3c-0.3,0.2-2,0.6-3.8,1.1c-2.7,0.6-3.5,0.8-5.7,0.9
		c-1.4,0-2.7,0.2-2.8,0.3c-0.2,0.2-0.5,0.2-0.8,0.2s-0.6,0.2-0.9,0.3c-0.2,0.2-0.3,0.5-0.2,0.8c0,0.3,0.9,1.3,1.7,2.2
		c0.9,0.9,2,1.9,2.4,2c0.5,0.2,0.8,0.5,0.8,0.5c0,0.2,0.2,0.2,0.3,0.2c0.2,0,0.3,0.2,0.5,0.3c0.2,0.2,0.6,0.5,0.9,0.6
		c0.3,0.2,0.8,0.5,0.9,0.6c0.2,0.2,0.6,0.5,1.1,0.8c0.5,0.3,0.9,0.6,0.9,0.8c0,0,0.5,0.2,0.8,0.3c0.3,0.2,1.6,0.5,2.5,0.8
		c1.1,0.3,2.2,0.5,2.5,0.6c0.3,0,2.2,0.2,4.2,0.2c3.2,0,4.1,0,6.6-0.5c1.6-0.3,3.6-0.8,4.4-0.9c0.8-0.3,2.4-0.8,3.3-1.3
		c1.1-0.5,2.4-0.9,2.8-1.1c0.5-0.2,1.1-0.5,1.3-0.5c0.2,0,1.1-0.6,2-1.3c0.9-0.6,2-1.3,2.4-1.4c0.3-0.2,0.6-0.5,0.8-0.6
		c0-0.2,0.2-0.3,0.3-0.3c0.2,0,0.6-0.3,1.1-0.6c0.5-0.3,0.9-0.8,1.3-0.8c0.2-0.2,0.8-0.5,1.4-0.9c0.6-0.5,1.1-0.8,1.1-0.9
		c0-0.2,0.2-0.2,0.2-0.2c0.2,0,1.1-0.9,2-2c1.1-1.1,2-2.2,2.2-2.4c0.2-0.2,0.5-0.6,0.8-0.9c0.3-0.3,0.8-0.8,1.1-1.3
		c0.3-0.5,0.9-0.9,1.1-1.3c0.2-0.3,0.5-0.8,0.6-0.9c0.2-0.2,0.5-0.6,0.8-0.8c0.3-0.2,0.5-0.5,0.5-0.6c0-0.2,0.2-0.5,0.5-0.8
		c0.3-0.3,0.9-1.3,1.6-2.2c0.6-0.9,1.1-1.7,1.1-1.9c0-0.2,0.2-0.2,0.2-0.2c0.2,0,0.3-0.3,0.5-0.6c0.2-0.3,0.5-0.9,0.6-1.3
		c0.3-0.3,0.6-0.9,0.8-1.3c0.2-0.3,0.8-1.4,1.4-2.5c0.6-1.1,1.1-2,1.3-2.4c0-0.2,0.3-0.8,0.6-1.4c0.3-0.6,0.6-1.6,0.9-2
		c0.2-0.5,0.5-1.3,0.6-1.6c0.2-0.3,0.3-1.3,0.6-1.9c0.2-0.6,0.5-1.3,0.6-1.4c0.2-0.2,0.3-0.8,0.5-1.3c0.2-0.5,0.3-1.4,0.5-1.9
		c0.2-0.5,0.5-1.9,0.8-3c0.3-1.1,0.8-3.2,1.1-4.4c0.3-1.4,0.6-3.2,0.6-3.8c0.2-0.8,0.5-1.7,0.6-2.4l0.5-1.1h1.1c0.9,0,1.1,0,1.4,0.6
		c0.2,0.3,0.3,0.9,0.3,1.7c0,0.6-0.2,1.4-0.2,1.6c-0.2,0.2-0.3,1.3-0.5,2.4c-0.2,1.1-0.5,3-0.8,3.9c-0.3,0.9-0.5,2.2-0.6,2.5
		c-0.2,0.3-0.3,1.1-0.5,1.7c-0.2,0.6-0.5,1.9-0.8,2.7s-0.6,1.7-0.6,1.9c-0.2,0.2-0.5,1.4-0.9,2.7c-0.5,1.3-1.1,3-1.4,3.8
		c-0.5,0.8-0.9,1.9-1.1,2.4c-0.2,0.5-0.6,1.3-0.8,1.7s-0.6,1.3-0.8,1.7c-0.2,0.5-0.5,1.1-0.6,1.3c-0.2,0.2-0.3,0.6-0.5,0.9
		c-0.2,0.3-0.3,0.8-0.5,0.9c-0.2,0.2-0.5,0.6-0.6,0.9c-0.3,0.3-0.6,1.1-0.8,1.4c-0.2,0.5-0.5,0.8-0.5,0.8c-0.2,0-0.2,0.2-0.2,0.2
		c0,0.2-0.3,0.8-0.8,1.4c-0.5,0.6-1.3,1.7-1.6,2.5c-0.3,0.8-0.8,1.3-0.9,1.3s-0.3,0.3-0.5,0.8c-0.2,0.5-0.8,1.1-1.3,1.7
		c-0.5,0.5-0.8,0.9-0.8,1.1c0,0.2-0.2,0.3-0.5,0.6c-0.3,0.2-0.8,0.8-1.1,1.3c-0.3,0.5-1.1,1.3-1.7,1.9c-0.5,0.5-1.4,1.4-1.9,1.9
		c-0.5,0.5-1.6,1.4-2.5,2.2c-0.8,0.8-2,1.7-2.5,2.2s-0.9,0.9-0.9,1.1c0,0.2-0.2,0.2-0.3,0.2c-0.2,0-0.5,0.2-0.8,0.3
		c-0.3,0.2-0.6,0.5-0.8,0.5c-0.2,0.2-0.8,0.6-1.6,1.1c-0.8,0.5-1.4,0.9-1.4,0.9s-0.6,0.3-1.3,0.8c-0.6,0.5-1.6,0.9-2,1.3
		c-0.5,0.2-0.9,0.5-1.1,0.6c-0.2,0.2-0.8,0.5-1.3,0.6c-0.6,0.3-1.1,0.5-1.3,0.5c-0.2,0-0.6,0.2-1.1,0.5c-0.5,0.2-1.1,0.5-1.4,0.6
		c-0.2,0.2-0.9,0.3-1.6,0.6c-0.6,0.2-1.3,0.5-1.4,0.5c-0.2,0-0.6,0.2-0.9,0.3c-0.3,0.2-1.1,0.3-1.6,0.5c-0.5,0.2-0.9,0.2-1.1,0.2
		c0,0-0.3,0-0.5,0.2c-0.2,0.2-0.8,0.2-1.4,0.3c-0.6,0.2-1.1,0.2-1.3,0.2c-0.2,0-1.1,0.3-2.2,0.5c-1.3,0.2-3.2,0.3-4.9,0.3
		c-1.6,0-3.2,0-3.6-0.2c-0.3,0-1.3-0.3-1.7-0.5c-0.6-0.2-1.3-0.3-1.4-0.3c-0.2,0-0.6-0.2-0.8-0.3c-0.2-0.2-0.5-0.2-0.6-0.2
		c-0.2,0-0.6,0-1.1-0.3c-0.5-0.2-0.9-0.5-1.1-0.6c-0.2-0.2-0.3-0.3-0.5-0.3c-0.2,0-0.8-0.2-1.4-0.5c-0.6-0.3-2-0.9-3.2-1.6
		c-1.1-0.5-2-1.1-2-1.1c0-0.2-0.3-0.3-0.6-0.5c-0.3-0.2-0.6-0.5-0.6-0.5c0-0.2-0.2-0.2-0.3-0.2c-0.2,0-0.5-0.2-0.6-0.5
		c-0.2-0.3-0.5-0.5-0.6-0.5c-0.2,0-1.1-0.8-2-1.9c-0.9-0.9-1.9-2-2-2.4c-0.2-0.3-0.5-0.8-0.9-1.3c-0.3-0.5-0.8-1.1-1.1-1.4
		c-0.2-0.3-0.9-1.7-1.6-3.2c-0.9-1.9-1.4-2.5-1.9-2.8c-0.3-0.2-1.1-0.5-1.4-0.5c-0.5,0-0.8-0.2-0.9-0.2c-0.2,0-0.8-0.3-1.4-0.5
		c-0.6-0.2-1.3-0.3-1.6-0.5c-0.2-0.2-0.9-0.3-1.6-0.5c-0.6-0.2-1.4-0.3-1.6-0.3c-0.2,0-0.5,0-0.5-0.2s-0.6-0.3-1.3-0.5
		c-0.6-0.2-1.6-0.5-1.9-0.8c-0.3-0.3-0.8-0.3-1.1-0.3c-0.2,0-0.6-0.2-1.1-0.3c-0.5-0.2-0.9-0.5-1.3-0.5c-0.3-0.2-0.8-0.3-1.3-0.6
		c-0.3-0.2-0.9-0.5-1.3-0.5c-0.3,0-1.3-0.5-2.2-0.9l-1.7-0.8l-5.8-0.2c-3.3-0.2-6.6-0.2-7.4-0.3c-0.9,0-1.9-0.2-2.4-0.2
		c-0.3,0-0.9-0.2-1.3-0.2c-0.3,0-0.8-0.2-0.9-0.2s-1.3-0.2-2.5-0.3c-1.3-0.2-2.8-0.3-3.6-0.5c-0.8-0.2-2.5-0.5-3.8-0.6
		c-1.7-0.3-2.4-0.3-2.7-0.2c-0.2,0.2-0.6,0.6-0.8,1.1c-0.2,0.5-0.6,1.7-0.8,2.8c-0.2,1.1-0.5,3.2-0.6,4.4c-0.2,1.4-0.2,4.2-0.2,6.3
		s0.2,4.7,0.2,5.8c0,1.1,0.5,3.2,0.6,4.2c0.2,1.3,0.5,2.4,0.6,2.5c0.2,0.2,0.5,1.4,0.9,2.8s0.9,2.8,1.3,3.5c0.3,0.6,0.5,1.1,0.5,1.3
		s0.6,1.6,1.6,3.3c0.8,1.7,2.2,3.9,3,5.2c0.8,1.1,1.6,2.2,1.6,2.4c0.2,0.2,0.5,0.6,0.9,1.3c0.5,0.5,0.9,1.3,1.1,1.4
		c0.2,0.3,0.9,0.9,1.4,1.7c0.6,0.6,1.9,2,3,3c0.9,0.9,2.5,2.4,3.2,3c0.8,0.6,1.9,1.7,2.7,2.4c0.8,0.6,1.4,1.3,1.6,1.4
		c0.2,0.2,0.3,0.3,0.3,0.3s0.9,0.5,1.9,1.1c0.9,0.6,2.2,1.4,2.7,1.7c0.5,0.3,1.3,0.6,1.6,0.8c0.3,0.2,1.4,0.6,2.4,1.1
		c0.9,0.5,1.7,0.9,1.7,0.9s0.6,0.3,1.3,0.5c0.6,0.2,1.6,0.6,2,0.8c0.5,0.2,1.1,0.5,1.3,0.5c0.2,0.2,1.1,0.5,2.2,0.8
		c1.1,0.3,2.7,0.8,3.5,1.1c0.8,0.3,2.2,0.6,3,0.6c0.8,0.2,1.6,0.3,1.6,0.3c0,0.2,0.5,0.2,1.1,0.3c0.6,0,1.6,0.2,2,0.3
		c0.5,0.2,2.2,0.5,3.8,0.6c1.6,0.2,3.3,0.5,3.9,0.5c0.6,0,1.1,0.2,1.3,0.2c0.2,0.2,0.9,0.2,1.9,0.3
		C535.3,638.5,537,639.4,539.3,639.4L539.3,639.4z M539.7,572.4c1.4,0,3-0.2,3.3-0.2c0.3,0,0.8-0.2,0.9-0.2c0.2-0.2,0.8-0.2,1.4-0.3
		c0.6,0,1.9-0.3,2.7-0.5c0.8-0.2,1.7-0.5,2-0.6c0.3-0.2,0.9-0.3,1.4-0.3s1.3-0.3,1.6-0.5c0.3-0.2,0.9-0.3,0.9-0.3s1.4-0.6,2.7-1.3
		c1.4-0.8,2.7-1.4,2.8-1.6c0.2-0.2,0.5-0.3,0.5-0.3c0.2,0,0.3-0.2,0.6-0.3c0.2-0.2,0.5-0.5,0.8-0.5c0.2,0,1.1-0.6,2-1.4
		c0.9-0.8,2.7-2.4,4.1-3.8c1.4-1.4,2.5-2.5,2.5-2.7c0-0.2,0.2-0.3,0.3-0.6c0.2-0.3,0.8-1.1,1.4-1.9c0.5-0.8,1.3-1.9,1.6-2.4
		c0.3-0.5,0.9-1.7,1.6-2.8c0.5-1.1,1.1-2.4,1.3-2.8c0.2-0.5,0.3-1.1,0.5-1.4c0.2-0.3,0.5-1.6,0.6-2.8c0.3-1.3,0.5-3.2,0.5-4.2
		c0-1.1,0-2.4-0.2-2.8c-0.2-0.5-0.3-1.9-0.5-3.2c-0.2-1.3-0.5-3-0.8-3.8s-0.6-1.6-0.6-1.6c-0.2-0.2-0.3-0.6-0.5-0.9
		c-0.2-0.5-0.5-1.1-0.6-1.4c-0.2-0.3-0.9-1.3-1.6-2c-0.6-0.8-1.7-1.9-2.5-2.7s-1.9-1.6-2.5-2c-0.6-0.5-1.6-0.9-2-1.3
		c-0.5-0.3-0.9-0.5-1.1-0.5c-0.2,0-0.3-0.2-0.5-0.3c-0.2-0.2-0.6-0.3-0.9-0.5c-0.5,0-0.9-0.2-1.3-0.3c-0.3-0.2-0.6-0.3-0.8-0.3
		c-0.2-0.2-0.6-0.2-0.8-0.2c-0.3,0-0.5-0.2-0.6-0.2c-0.2-0.2-1.1-0.3-2-0.5c-1.1-0.2-2.8-0.3-3.9-0.3c-1.1,0-2.5,0.2-3.3,0.3
		s-1.7,0.3-2.2,0.5c-0.5,0.2-1.3,0.5-1.6,0.6c-0.3,0.3-1.1,0.6-1.6,0.9c-0.5,0.3-1.1,0.8-1.6,1.1s-1.1,0.9-1.4,1.3
		c-0.3,0.3-0.8,0.8-0.9,1.1s-0.6,0.8-0.8,1.3c-0.3,0.5-0.6,1.1-0.8,1.4c-0.2,0.3-0.5,0.9-0.5,1.1c-0.2,0.2-0.3,0.9-0.6,1.7
		c-0.2,0.8-0.5,1.7-0.6,2.4c-0.2,0.6-0.3,2.4-0.5,4.7c-0.2,2-0.3,3.9-0.3,4.1c-0.2,0.2-0.5,0.5-0.9,0.6c-0.3,0.2-1.3,0.2-2,0.2
		c-0.8,0-2-0.2-2.8-0.3c-0.8-0.2-2.2-0.5-3-0.6c-0.9-0.2-1.9-0.6-2.2-0.8c-0.3-0.2-0.8-0.3-0.9-0.3s-0.5,0-0.5-0.2
		c0-0.2-0.5-0.3-0.9-0.5c-0.5-0.2-1.6-0.6-2.4-1.1c-0.8-0.5-1.9-1.1-2.4-1.3s-1.4-0.9-2-1.4c-0.6-0.5-1.1-0.8-1.3-0.8
		c-0.2,0-0.2-0.2-0.2-0.3c0-0.2-0.2-0.3-0.3-0.5c-0.2-0.2-1.4-1.1-2.5-2.2c-1.3-1.1-2.4-2.4-2.8-2.7s-1.4-1.7-2.5-2.8
		c-1.1-1.1-2-2.5-2.2-2.8c-0.2-0.3-0.9-1.4-1.6-2.2s-1.6-2-1.9-2.5c-0.3-0.5-0.9-1.1-1.4-1.4c-0.6-0.3-1.1-0.5-3.2-0.5
		c-1.3,0-3.9,0-5.8,0c-1.9,0-4.2,0-5,0.2c-0.9,0-2.4,0.3-3.3,0.5c-0.9,0.2-2.5,0.5-3.6,0.8c-1.1,0.3-2,0.6-2,0.6
		c-0.2,0.2-0.8,0.3-1.6,0.6c-0.8,0.3-1.7,0.6-2.4,0.9c-0.5,0.3-1.4,0.8-2.2,1.3c-0.6,0.5-1.4,0.8-1.7,0.9c-0.3,0-1.1,0.6-2,1.4
		c-0.9,0.6-2,1.6-2.5,2c-0.5,0.5-0.9,0.9-0.9,1.1c0,0.2-0.2,0.3-0.3,0.5c-0.3,0.3-0.2,0.5,2,2.7c1.3,1.3,2.5,2.7,2.8,3
		c0.3,0.3,0.6,0.8,0.8,1.1c0.2,0.3,0.5,0.5,0.5,0.5c0.2,0,0.2,0.2,0.2,0.3c0,0.2,0.3,0.8,0.8,1.4c0.5,0.6,1.1,1.7,1.6,2.7
		c0.5,0.8,0.9,1.7,0.9,1.9c0,0.2,0.5,1.1,0.9,1.9c0.5,0.8,0.9,1.6,0.9,1.7c0.2,0,0.3,0.2,0.3,0.3c0,0.2,1.1,1.3,2.4,2.5
		c1.4,1.3,3,2.8,3.5,3.3c0.6,0.5,1.6,1.3,2,1.7c0.5,0.3,0.9,0.8,1.1,0.8c0.2,0,0.3,0.2,0.5,0.3c0.2,0.2,0.8,0.8,1.3,1.1
		c0.6,0.5,1.3,0.9,1.4,1.1c0.2,0.2,0.6,0.5,0.9,0.6c0.3,0.2,0.6,0.5,0.6,0.5c0,0.2,0.2,0.3,0.5,0.5c0.3,0.2,1.1,0.6,1.9,1.3
		c0.8,0.5,1.6,1.1,1.9,1.3c0.3,0.2,0.5,0.5,0.6,0.5c0,0.2,0.2,0.2,0.3,0.2c0.2,0,0.6,0.3,1.1,0.6c0.5,0.3,1.1,0.6,1.3,0.6
		c0.2,0,0.3,0,0.3,0.2s0.3,0.5,0.6,0.8s0.9,0.6,1.4,0.8c0.5,0.2,0.9,0.5,1.4,0.8c0.5,0.3,1.1,0.6,1.6,0.9c0.5,0.3,0.9,0.5,0.9,0.5
		c0.2,0,0.3,0.2,0.6,0.3c0.3,0.2,1.4,0.8,2.5,1.4c1.1,0.6,2.7,1.3,3.3,1.6c0.8,0.3,1.4,0.6,1.6,0.6c0.2,0,0.6,0.2,1.1,0.5
		c0.5,0.3,1.3,0.6,1.6,0.8c0.3,0.2,0.9,0.3,1.3,0.5c0.3,0.2,1.6,0.6,2.8,0.9c1.3,0.5,2.8,0.9,3.5,1.3c0.6,0.3,2,0.6,3.2,0.9
		c1.1,0.3,2,0.5,2.4,0.5c0.3,0,0.5,0.2,0.5,0.2c0,0.2,1.1,0.3,2.2,0.5c1.3,0.2,2.7,0.3,3.5,0.5c0.6,0,1.3,0.2,1.3,0.3
		c0,0.2,0.3,0.2,0.6,0c0.3,0,0.9,0,1.3,0.2C536.5,572.3,538.3,572.4,539.7,572.4L539.7,572.4z M560.3,533.4c-0.6,0-1.3-0.2-1.7-0.5
		c-0.5-0.2-1.1-0.8-1.6-1.1s-0.8-1.1-0.9-1.4c-0.2-0.5-0.2-1.1-0.2-1.4c0-0.3,0.2-0.9,0.2-1.4c0.2-0.3,0.3-0.8,0.3-0.8
		s0.3-0.3,0.5-0.6c0.2-0.3,0.8-0.6,1.6-0.9c0.6-0.3,1.6-0.5,1.9-0.5c0.5,0,1.3,0.2,1.7,0.5c0.5,0.3,1.3,0.8,1.4,1.1
		c0.2,0.3,0.5,0.9,0.6,1.4c0.2,0.5,0.2,1.1,0.2,1.7c0,0.5-0.3,1.4-0.5,1.9c-0.3,0.6-0.6,0.9-1.4,1.4
		C561.5,533.3,561.1,533.4,560.3,533.4L560.3,533.4z M560.1,530.6c0.5,0,0.8-0.2,1.1-0.5c0.2-0.3,0.5-0.8,0.5-0.9
		c0-0.3-0.2-0.6-0.5-0.9c-0.3-0.3-0.6-0.5-1.1-0.5c-0.5,0-0.8,0.2-1.1,0.5c-0.2,0.3-0.5,0.8-0.5,0.9c0,0.3,0.2,0.6,0.5,0.9
		C559.3,530.4,559.6,530.6,560.1,530.6z M447.1,561.9c0.8,0,2.4-0.3,3.5-0.5c1.1-0.2,2.4-0.5,2.7-0.6c0.3-0.2,0.6-0.3,0.8-0.3
		s0.9-0.3,1.9-0.6c0.8-0.3,1.7-0.8,2.2-1.1c0.5-0.3,0.9-0.6,1.6-0.8c0.5-0.2,1.4-0.8,2-1.4c0.6-0.5,1.7-1.6,2.5-2.4
		c0.8-0.8,1.7-1.9,2-2.4c0.3-0.5,0.6-1.3,0.9-1.4c0.2-0.3,0.5-0.8,0.6-1.3c0.2-0.5,0.5-1.1,0.6-1.4c0.2-0.3,0.3-0.9,0.3-1.1
		c0-0.3,0.2-0.6,0.2-0.9c0.2-0.3,0.2-1.4,0.2-2.7c0-1.4-0.2-2.7-0.3-3.8c-0.2-0.9-0.6-2.2-0.9-2.8c-0.3-0.6-0.9-1.9-1.6-2.7
		c-0.5-0.8-1.7-2.2-2.5-3.2c-0.8-0.9-2-2-2.7-2.5c-0.6-0.5-1.7-1.1-2.5-1.6c-0.8-0.5-1.9-0.9-2.2-1.3c-0.5-0.3-0.9-0.6-0.9-0.8
		c-0.2-0.2-0.2-0.6-0.2-1.1c0-0.6,0.3-1.1,0.8-1.9c0.5-0.5,0.8-1.1,0.9-1.3c0.2-0.2,0.2-0.3,0.2-0.3s0.8-0.9,1.9-2
		c1.1-1.1,1.9-1.9,2-1.9s0.5-0.3,0.6-0.5c0.3-0.3,0.6-0.6,0.9-0.8c0.2-0.2,0.5-0.3,0.6-0.5c0.2-0.2,0.8-0.6,1.4-0.9
		c0.6-0.5,1.6-0.9,2-1.3c0.5-0.3,1.3-0.6,1.6-0.8c0.3-0.2,1.3-0.6,2-0.8c0.8-0.3,1.7-0.6,2-0.8c0.3-0.2,0.9-0.3,1.1-0.5
		c0.2-0.2,0.8-0.3,1.1-0.5c0.3-0.2,1.4-0.5,2.4-0.6c0.9-0.2,2.5-0.5,3.5-0.8c0.9-0.2,1.9-0.3,2-0.5c0.2-0.2,1.1-0.3,2-0.5
		c0.9-0.2,2.2-0.3,2.7-0.3c0.5,0,1.3-0.2,1.7-0.3c0.5-0.2,1.4-0.3,2.2-0.3c1.3-0.2,1.4-0.2,2.7-1.4c0.8-0.8,1.7-1.7,2-2.4
		c0.3-0.6,0.8-1.1,0.8-1.1l0.2-0.3c0.2-0.2,0.5-0.5,0.6-0.8c0.3-0.3,0.8-1.1,1.1-1.7c0.3-0.6,0.8-1.4,0.9-1.7
		c0.2-0.3,0.9-1.7,1.7-3.2c0.8-1.4,1.3-2.7,1.3-2.8c0-0.2,0.2-0.5,0.3-0.8c0.2-0.3,0.5-1.1,0.8-1.9c0.3-0.8,0.5-1.9,0.6-2.5
		c0-0.6,0.2-1.3,0.3-1.4c0.2-0.2,0.3-1.1,0.5-2c0.2-0.9,0.2-2.4,0.2-3.3c0-0.9-0.2-2.4-0.2-3.3c-0.2-0.9-0.3-2-0.5-2.4
		c-0.2-0.3-0.5-0.9-0.5-1.3c-0.2-0.5-0.3-0.5-1.1-0.5c-0.5,0-1.3,0.2-1.7,0.3c-0.5,0.2-1.1,0.5-1.4,0.5c-0.3,0-1.4,0.3-2.4,0.5
		c-1.4,0.3-2.5,0.3-5.3,0.3c-2.2,0-4.1-0.2-5-0.3c-0.9-0.2-2-0.3-2.5-0.3s-1.7,0-2.5,0.2c-0.8,0-2.7,0.3-4.1,0.6
		c-1.4,0.3-2.7,0.6-2.7,0.6c0,0.2-0.6,0.2-1.1,0.3c-0.6,0-1.1,0.3-1.3,0.5c-0.2,0.2-0.3,0.3-0.5,0.3s-1.4,0.5-3,0.9
		c-1.4,0.5-2.8,0.9-3.2,1.1c-0.3,0.2-0.6,0.3-0.9,0.5c-0.3,0.2-1.1,0.3-1.7,0.6c-0.6,0.3-1.6,0.6-1.9,0.8c-0.3,0.2-1.3,0.5-2,0.8
		c-0.8,0.3-2,0.9-3.2,1.4c-0.9,0.5-2,0.9-2.4,0.9c-0.3,0-0.5,0.2-0.5,0.3c0,0.2-0.5,0.3-0.9,0.6c-0.5,0.3-1.3,0.6-1.7,0.8
		c-0.5,0.2-1.1,0.5-1.4,0.8c-0.3,0.2-0.9,0.6-1.4,0.9c-0.5,0.3-0.9,0.5-0.9,0.5s-0.6,0.3-1.1,0.6c-0.6,0.3-1.1,0.8-1.4,0.8
		c-0.2,0.2-0.9,0.6-1.7,1.1c-0.8,0.5-1.6,0.9-1.6,1.1c-0.2,0.2-0.3,0.3-0.5,0.3c-0.2,0-0.3,0.2-0.5,0.3c-0.2,0.2-0.8,0.6-1.4,1.1
		c-0.6,0.5-1.3,0.8-1.3,0.8s-0.3,0.2-0.3,0.5c-0.2,0.2-0.5,0.5-0.6,0.5c-0.2,0-0.6-0.2-0.6,0s-0.3,0.5-0.5,0.6
		c-0.3,0.2-0.9,0.8-1.4,1.1c-0.5,0.5-1.4,1.3-2.2,2c-0.8,0.6-1.4,1.3-1.4,1.3c-0.2,0-0.9,0.8-1.9,1.7c-0.9,0.9-1.7,1.7-1.7,1.9
		c0,0-0.6,0.8-1.3,1.4c-0.6,0.6-1.6,1.6-1.7,2c-0.3,0.5-0.5,0.8-0.5,0.8s-0.5,0.8-1.1,1.6c-0.6,0.8-1.6,2.5-2.2,3.8
		c-0.6,1.3-1.3,2.7-1.4,3.2c-0.2,0.5-0.3,0.9-0.3,0.9c0,0.2-0.3,0.6-0.3,1.3c-0.2,0.5-0.3,1.3-0.5,1.6c-0.2,0.3-0.5,1.9-0.6,3.3
		c-0.3,2.4-0.5,3.3-0.3,6.6c0,2.2,0.2,4.4,0.3,5.2s0.3,1.9,0.5,2.5c0.2,0.8,0.3,1.4,0.5,1.4c0.2,0.2,0.2,0.3,0.2,0.5
		c0,0.2,0.3,1.1,0.6,2c0.3,0.9,0.8,2.2,1.1,2.7c0.2,0.5,0.6,1.3,0.8,1.7c0.2,0.5,0.9,1.7,1.6,2.8c0.6,1.1,1.4,2.2,1.7,2.5
		c0.3,0.3,0.6,0.6,0.6,0.8s0.8,0.9,1.6,1.9c0.9,0.9,2.2,2.2,3,2.8c0.8,0.6,1.7,1.4,2,1.7c0.3,0.3,0.8,0.6,0.9,0.6
		c0.2,0,0.3,0.2,0.5,0.3c0.2,0.2,0.6,0.6,1.4,0.9c0.6,0.3,1.3,0.8,1.4,0.9c0.2,0.2,0.8,0.5,1.4,0.6c0.6,0.3,1.4,0.6,1.7,0.8
		c0.3,0.2,0.8,0.3,1.1,0.5c0.3,0,1.3,0.3,2,0.5c0.8,0.2,2,0.5,2.8,0.5C445.1,561.9,446.4,562.1,447.1,561.9L447.1,561.9z
		 M449.7,552.6c-0.5,0-0.9,0-0.9,0c0-0.2-0.3-0.3-0.6-0.3c-0.3,0-0.9-0.5-1.4-0.8c-0.5-0.5-0.9-0.9-1.1-1.6
		c-0.3-0.6-0.3-1.3-0.3-2.2c0-1.1,0.2-1.4,0.6-2.2c0.3-0.5,0.8-0.9,1.1-1.1c0.3-0.2,0.5-0.3,0.5-0.3c0-0.2,0.2-0.2,0.5-0.2
		c0.3,0,0.5-0.2,0.6-0.2c0-0.2,0.5-0.2,0.9-0.2s0.9,0.2,0.9,0.2c0,0.2,0.3,0.2,0.6,0.2c0.3,0,0.8,0.3,1.4,0.9
		c0.6,0.6,1.1,1.3,1.1,1.7c0.2,0.5,0.2,1.1,0.2,1.6c0,0.3-0.2,1.1-0.3,1.7c-0.2,0.6-0.5,1.3-0.9,1.6c-0.5,0.3-1.1,0.8-1.4,0.8
		C450.7,552.4,450.1,552.4,449.7,552.6L449.7,552.6z M449.5,548.4c0.3,0,0.8-0.2,1.1-0.5c0.3-0.3,0.5-0.8,0.5-1.1s-0.2-0.8-0.5-1.1
		c-0.3-0.3-0.8-0.5-1.1-0.5c-0.3,0-0.8,0.2-1.1,0.5c-0.3,0.3-0.5,0.8-0.5,1.1s0.2,0.8,0.5,1.1C448.7,548.2,449.2,548.4,449.5,548.4z
		 M496.6,557.3C496.6,557.3,496.6,557.2,496.6,557.3c0.2-0.2,0-0.2,0-0.2S496.5,557.2,496.6,557.3
		C496.5,557.2,496.5,557.3,496.6,557.3z M531.5,530.6c0.2,0,0.5-0.2,0.6-0.5c0.3-0.3,0.6-1.3,0.8-2.2c0.2-0.9,0.5-2.2,0.8-2.8
		c0.3-0.6,0.5-1.6,0.8-2.2c0.3-0.5,0.6-1.4,0.9-2c0.3-0.6,0.6-1.3,0.8-1.4c0.2-0.2,0.6-0.9,0.9-1.4c0.3-0.6,0.9-1.4,1.1-1.9
		c0.3-0.5,0.5-0.9,0.5-1.1c0-0.2,0.2-0.6,0.3-0.9c0.2-0.3,0.6-1.9,1.1-3.3s0.8-2.8,0.8-3c0-0.2,0.2-0.5,0.3-0.8
		c0.2-0.2,0.3-1.1,0.5-2c0.2-0.9,0.3-1.7,0.5-1.9c0.2-0.2,0.3-0.8,0.3-1.4c0.2-0.6,0.3-1.7,0.5-2.4c0.2-0.6,0.5-2.4,0.6-3.9
		c0.2-1.4,0.5-2.8,0.5-3.2c0.2-0.2,0.3-1.4,0.3-2.5c0-1.1,0.2-2.7,0.2-3.3c0-0.6,0.2-2.5,0.2-4.1c0.2-2.4,0.2-4.1,0-8.5
		c-0.2-3.2-0.3-6.8-0.5-8c-0.2-1.3-0.3-3-0.5-3.6c-0.2-0.8-0.5-2.2-0.6-3.3c-0.2-1.1-0.5-2.7-0.6-3.3c-0.2-0.8-0.5-1.7-0.6-2.2
		c-0.2-0.5-0.5-1.6-0.8-2.5c-0.3-0.9-0.6-2.4-0.8-2.8c-0.2-0.5-0.6-1.9-1.1-2.7c-0.5-0.9-0.9-2-1.3-2.7c-0.3-0.6-0.6-1.4-0.9-1.7
		c-0.3-0.3-0.8-1.3-1.3-1.9c-0.5-0.6-1.4-1.9-1.9-2.5s-0.9-1.3-0.9-1.4c0-0.2-0.2-0.2-0.2-0.2s-0.8-0.6-1.6-1.4
		c-0.8-0.8-1.9-1.7-2.4-2.2c-0.5-0.5-1.1-0.9-1.4-1.1c-0.2-0.2-0.6-0.5-1.1-0.8c-0.5-0.2-0.9-0.6-1.3-0.8c-0.3-0.2-1.1-0.6-1.6-0.9
		c-0.5-0.3-1.1-0.6-1.1-0.6c0-0.2-0.3-0.2-0.6-0.3c-0.3-0.2-1.1-0.3-1.7-0.6c-0.6-0.3-1.6-0.6-2.2-0.9c-0.5-0.2-1.3-0.5-1.4-0.6
		c-0.3-0.2-0.6-0.2-0.8-0.2c-0.2,0-0.6-0.2-1.1-0.2c-0.5,0-0.8-0.3-0.9-0.3c0-0.2-1.3-0.3-2.5-0.6c-1.4-0.3-3-0.5-3.5-0.6
		c-0.5-0.2-1.3-0.2-1.7-0.2c-0.3,0-1.4,0.2-2.4,0.2c-0.9,0-2.2,0.2-2.7,0.2c-0.5,0-2,0.2-3.2,0.3c-1.3,0.2-2.8,0.3-3.6,0.6
		c-0.8,0.2-2,0.6-2.7,0.8c-0.8,0.3-1.6,0.6-2,0.8c-0.5,0.2-0.9,0.3-1.1,0.3c-0.2,0-0.3,0.2-0.3,0.2c0,0.2-0.3,0.3-0.5,0.3
		c-0.3,0-1.3,0.6-2.2,1.1s-2,1.3-2.5,1.7c-0.5,0.5-1.4,1.3-2,1.7c-0.6,0.6-1.1,1.1-1.1,1.1s-0.5,0.6-0.9,1.3
		c-0.5,0.6-1.1,1.4-1.4,1.9c-0.3,0.5-0.6,1.1-0.8,1.6c-0.2,0.5-0.3,0.9-0.5,1.3c-0.2,0.3-0.5,1.1-0.6,2c-0.2,0.8-0.5,2-0.8,2.8
		c-0.2,0.8-0.3,2.4-0.3,4.2c0,1.6,0.2,3.6,0.2,4.4c0.2,0.8,0.5,2.2,0.8,3c0.3,0.8,0.6,1.9,0.9,2.4c0.3,0.5,0.8,1.4,1.1,1.9
		c0.3,0.5,0.9,1.4,1.3,2c0.3,0.5,1.1,1.3,1.6,1.7c0.5,0.5,1.3,1.1,1.7,1.6c0.5,0.5,1.3,0.9,1.9,1.3c0.6,0.3,1.6,0.8,2,0.9
		c0.6,0.3,1.7,0.6,2.4,0.8c0.8,0.2,2.5,0.2,3.9,0.2s3.3-0.2,4.4-0.3c0.9-0.2,1.9-0.3,1.9-0.5c0.2-0.2,0.6-0.3,1.3-0.5
		c0.6-0.2,1.7-0.5,2.5-0.8c0.8-0.3,1.9-0.8,2.4-0.9c0.5-0.3,0.9-0.5,1.1-0.6c0.2-0.2,0.6-0.3,1.1-0.3c0.6-0.2,0.9,0,1.4,0.3
		c0.3,0.3,0.6,0.8,0.8,1.1c0.2,0.3,0.3,0.8,0.5,0.9c0.2,0.2,0.5,1.4,0.6,2.7c0.3,1.3,0.6,3.6,0.8,5.2c0.2,1.6,0.2,3.9,0.2,5.2
		s-0.3,3.2-0.5,4.1c-0.2,0.9-0.5,2.4-0.6,3c-0.2,0.6-0.3,1.4-0.5,1.6c-0.2,0.2-0.3,1.1-0.5,1.7c-0.2,0.8-0.6,2.2-0.9,3.2
		c-0.3,0.9-0.6,1.9-0.6,2s-0.2,0.6-0.3,0.9c-0.2,0.5-0.6,1.6-1.1,2.7c-0.5,0.9-0.9,2-1.1,2.5c-0.2,0.3-0.5,0.9-0.6,1.4
		c-0.2,0.5,0,1.1,0.2,1.9c0.2,0.6,0.3,1.3,0.5,1.3c0,0.2,0.3,0.6,0.5,0.9c0.2,0.5,0.5,1.3,0.8,1.9c0.3,0.6,0.6,1.4,0.8,1.7
		c0.2,0.3,0.5,0.9,0.8,1.4c0.3,0.5,0.8,1.4,1.1,1.9c0.3,0.6,0.6,1.1,0.6,1.3c0,0.2,0.2,0.2,0.2,0.2c0.2,0,0.3,0.2,0.3,0.5
		c0,0.3,0.3,0.6,0.5,0.9c0.2,0.3,0.8,1.1,1.4,1.9c0.6,0.8,1.4,1.9,1.9,2.5c0.5,0.6,1.3,1.4,1.7,1.9c0.5,0.5,1.1,1.1,1.4,1.4
		c0.3,0.3,0.9,0.8,1.4,1.1s0.8,0.6,0.8,0.6s0.5,0.3,0.9,0.6c0.5,0.3,0.9,0.6,1.1,0.6c0.2,0,0.3,0,0.3,0.2c0,0.2,0.3,0.3,0.6,0.5
		c0.3,0.2,1.4,0.8,2.4,1.1c0.9,0.3,2,0.9,2.4,1.1c0.3,0.2,1.4,0.6,2.4,0.8c0.9,0.3,1.9,0.5,2.2,0.6
		C531,530.6,531.3,530.6,531.5,530.6L531.5,530.6z M488.7,448.4c-0.5,0-1.1,0-1.4,0c-0.3,0-0.9-0.3-1.3-0.6
		c-0.5-0.3-0.9-0.6-1.1-0.9c-0.2-0.3-0.5-0.6-0.6-0.9c-0.2-0.3-0.3-0.8-0.3-1.3c0-0.5,0-1.4,0.2-1.9c0.2-0.6,0.5-1.3,0.9-1.7
		c0.3-0.3,0.8-0.8,1.1-0.9c0.3-0.2,1.1-0.3,1.6-0.5c0.8-0.2,1.4,0,2.2,0.2c0.6,0.2,1.3,0.6,1.6,0.8c0.3,0.3,0.6,0.9,0.9,1.4
		c0.3,0.8,0.3,1.1,0.3,2c0,0.6-0.2,1.4-0.3,1.7c-0.2,0.5-0.5,0.9-0.9,1.1c-0.3,0.3-0.6,0.5-0.6,0.6s-0.2,0.2-0.3,0.2
		c-0.2,0-0.8,0.5-0.9,0.6C489.5,448.2,489.1,448.4,488.7,448.4L488.7,448.4z M488.2,444.5c0.3,0,0.8-0.2,0.9-0.5
		c0.2-0.3,0.5-0.6,0.5-0.9s-0.2-0.8-0.5-0.9c-0.3-0.3-0.6-0.5-0.9-0.5c-0.3,0-0.8,0.2-0.9,0.5c-0.2,0.3-0.5,0.6-0.5,0.9
		s0.2,0.8,0.5,0.9C487.4,444.4,487.9,444.5,488.2,444.5z M565.9,499.9c0.6,0,1.3-0.2,1.3-0.3c0.2-0.2,0.8-0.3,1.3-0.5
		c0.6-0.2,1.7-0.6,2.4-0.9c0.6-0.3,1.4-0.6,1.6-0.6c0.2,0,0.5-0.2,0.6-0.2c0.2-0.2,1.1-0.5,2.2-0.9c0.9-0.5,1.9-0.8,2.2-0.8
		c0.2,0,0.3-0.2,0.3-0.2c0-0.2,0.3-0.3,0.8-0.5c0.5-0.2,1.3-0.6,1.9-1.1c0.6-0.5,1.3-0.8,1.4-0.8c0.2,0,0.2-0.2,0.2-0.2
		c0-0.2,0.2-0.2,0.2-0.2c0.2,0,0.6-0.3,1.3-0.6c0.6-0.3,1.3-0.8,1.4-0.9c0.2-0.2,0.6-0.5,0.9-0.6c0.3-0.2,0.8-0.5,0.8-0.6
		c0.2-0.2,0.3-0.5,0.5-0.5c0.2,0,0.9-0.8,2-1.6c0.9-0.8,2.4-2,3-2.7c0.6-0.6,1.7-1.7,2.2-2.4c0.6-0.6,1.6-1.7,2-2.5
		c0.6-0.8,1.6-2,2-3c0.5-0.9,1.1-1.6,1.1-1.7s0.2-0.3,0.3-0.5c0.2-0.2,0.6-0.9,1.1-1.7c0.5-0.8,0.9-1.7,1.1-2
		c0.2-0.3,0.6-1.4,1.1-2.7c0.5-1.1,0.9-2.5,1.1-3c0.2-0.5,0.5-1.4,0.8-2s0.6-1.9,0.9-3c0.3-1.1,0.5-1.9,0.6-2c0,0,0.2-0.9,0.3-2
		c0.2-1.1,0.3-3.2,0.6-4.7c0.2-1.6,0.5-4.4,0.5-6.6c0.2-2.5,0-4.7-0.2-6.3c-0.2-1.4-0.5-3.6-0.8-5c-0.3-1.4-0.6-3.2-0.8-3.9
		c-0.2-0.8-0.6-2-0.8-3c-0.3-0.9-0.8-2.5-1.1-3.6c-0.3-1.1-0.8-2.4-0.9-3.2c-0.2-0.6-0.5-1.4-0.6-1.6c-0.2-0.2-0.3-0.8-0.5-1.3
		c-0.2-0.5-0.5-1.1-0.6-1.6c-0.2-0.5-0.5-1.1-0.6-1.4c-0.2-0.3-0.9-1.9-1.7-3.3c-0.8-1.6-1.9-3.6-2.7-4.6c-0.6-0.9-1.3-1.9-1.3-2.2
		c-0.2-0.2-0.3-0.5-0.3-0.6c-0.2-0.2-0.8-0.9-1.4-1.9c-0.6-1-1.4-1.7-1.6-2c-0.2-0.2-0.3-0.5-0.5-0.6c0-0.2-0.8-0.9-1.4-1.7
		c-0.8-0.8-2.5-2.7-3.8-3.9s-2.5-2.5-2.7-2.5c-0.2,0-0.3-0.2-0.3-0.3s-0.3-0.5-0.6-0.6c-0.3-0.2-0.8-0.5-1.1-0.8
		c-0.3-0.3-0.8-0.6-1.3-0.9c-0.3-0.3-0.9-0.8-1.1-0.9c-0.3-0.2-0.5-0.5-0.6-0.5c-0.2,0-0.5-0.2-0.8-0.5c-0.3-0.3-0.9-0.8-1.4-1.1
		c-0.5-0.3-1.3-0.8-1.6-0.9c-0.5-0.2-0.9-0.5-1.1-0.6c-0.2-0.2-0.6-0.5-0.8-0.6c-0.2-0.2-0.9-0.6-1.4-0.9c-0.5-0.3-1.3-0.6-1.4-0.8
		c-0.3-0.2-0.6-0.5-0.9-0.6c-0.3-0.2-0.6-0.5-1.1-0.6c-0.3-0.2-0.6-0.3-0.6-0.5c0-0.2-0.2-0.2-0.3-0.2s-1.6-0.6-3-1.4
		c-1.6-0.8-2.8-1.4-3-1.6c-0.2-0.2-0.3-0.2-0.5-0.2c-0.2,0-0.8-0.3-1.6-0.6c-0.8-0.3-1.7-0.8-2.2-0.9c-0.5-0.2-1.3-0.5-1.9-0.6
		c-0.6-0.2-1.4-0.5-1.7-0.6c-0.3-0.2-0.8-0.3-0.9-0.3s-0.5-0.2-0.5-0.2c-0.2-0.2-0.9-0.5-1.7-0.6c-0.9-0.3-1.7-0.6-2-0.8
		c-0.2-0.2-0.9-0.5-1.7-0.6c-0.8-0.3-2-0.8-2.8-0.9c-0.9-0.3-1.7-0.5-1.9-0.5c-0.2,0-0.6-0.2-0.9-0.3c-0.3-0.2-0.8-0.3-1.1-0.3
		s-1.3-0.3-2-0.6c-0.9-0.3-1.7-0.5-1.9-0.5c-0.2,0-0.5,0-0.8-0.3c-0.3-0.2-1.7-0.6-3.2-0.9c-1.4-0.3-3.2-0.6-3.8-0.6
		c-0.6,0-1.3-0.2-1.4-0.3c-0.2-0.2-0.3-0.2-0.6,0.3h-0.6c-0.2-0.5-1.4-0.6-2.7-0.8c-1.4-0.2-2.7-0.5-3-0.5c-0.3-0.2-1.7-0.3-3.2-0.5
		c-1.4-0.2-3-0.3-3.5-0.3c-0.5,0-0.9-0.2-1.1-0.2c-0.2,0-1.9-0.2-3.8-0.3c-1.9-0.2-9.8-0.6-9.8-0.6s-6.5,0-6.7,0
		c0,0-0.8,0.2-1.8,0.2s-2.4,0-3.2,0.2c-0.8,0-1.6,0.2-1.8,0.2c-0.2,0.2-1.3,0.3-2.7,0.3c-1.4,0.2-4.1,0.5-6.1,0.6
		c-1.9,0.3-3.8,0.6-4.1,0.6c-0.3,0.2-1.6,0.3-2.7,0.6c-1.1,0.2-3,0.6-4.1,0.8c-1.1,0.2-2.2,0.5-2.6,0.6c-0.3,0.2-1,0.3-1.6,0.5
		c-0.6,0-1.4,0.3-1.9,0.5c-0.5,0.2-1.1,0.5-1.4,0.5c-0.3,0.2-0.8,0.2-1,0.3c-0.2,0.2-0.3,0.2-0.5,0.2s-0.5,0-0.8,0.2
		c-0.3,0.2-0.8,0.3-1.1,0.3c-0.3,0.2-1.1,0.3-1.8,0.6c-0.6,0.3-1.6,0.5-2.1,0.6c-0.5,0.2-1.1,0.5-1.4,0.6c-0.3,0.2-1.1,0.5-1.8,0.6
		c-0.6,0.2-1.4,0.5-1.9,0.6c-0.5,0.2-1,0.5-1.1,0.5c-0.2,0-0.6,0.2-1.1,0.3c-0.3,0.2-1,0.5-1.4,0.6c-0.5,0.2-1,0.3-1.3,0.5
		c-0.2,0.2-1,0.5-1.4,0.6c-0.6,0.2-1.3,0.5-1.4,0.6c-0.2,0.2-0.5,0.3-0.6,0.3c-0.2,0-1.1,0.3-2.1,1c-1,0.5-2.6,1.3-3.5,1.9
		c-1,0.6-2.4,1.3-3,1.6c-0.6,0.3-1.3,0.6-1.3,0.8c0,0-0.6,0.3-1.3,0.6c-0.6,0.3-1.6,0.8-2.1,1.1c-0.6,0.3-1.8,1.1-2.9,1.6
		c-1,0.6-1.9,1.3-2.1,1.3c-0.2,0.2-0.5,0.3-0.6,0.3c-0.2,0-0.5,0.2-0.5,0.3s-0.3,0.3-0.8,0.5c-0.5,0.2-1,0.5-1.1,0.8
		c-0.2,0.2-0.3,0.3-0.5,0.3c-0.2,0-0.3,0.2-0.3,0.2c0,0.2-0.5,0.3-1,0.6c-0.5,0.2-1,0.6-1.1,0.8c-0.2,0.2-0.3,0.3-0.5,0.3
		c-0.2,0-0.5,0.3-1,0.6c-0.3,0.3-0.6,0.6-0.8,0.6c0,0-0.3,0.3-0.8,0.5c-0.3,0.3-1.8,1.4-3,2.4c-1.3,1-2.6,1.9-2.7,2.1
		c-0.2,0.2-1,0.8-1.6,1.4c-0.8,0.6-1.6,1.3-1.8,1.6c-0.2,0.3-0.8,0.8-1.3,1.1c-0.5,0.3-1.6,1.3-2.6,2.1s-2.6,2.2-3.5,3.4
		c-1,1-3.2,3.2-4.8,4.9c-1.6,1.8-3.4,3.5-3.8,4c-0.5,0.5-0.8,1-0.8,1s-0.3,0.6-0.8,1.1c-0.5,0.6-1.3,1.4-1.8,1.9
		c-0.5,0.5-0.6,0.6-0.6,0.8c0,0.2-0.5,1-1.3,1.8c-0.8,0.8-1.4,1.8-1.6,2.1c-0.2,0.3-0.8,1.1-1.4,1.9c-0.5,0.8-1.4,2.1-2.1,2.9
		c-0.6,0.8-1.3,1.8-1.4,2.2c-0.3,0.5-0.8,1.4-1.4,2.4c-0.5,1-1.1,1.9-1.4,2.4c-0.2,0.3-1,1.8-1.6,3c-0.6,1.3-1.1,2.4-1.1,2.4
		c0,0.2,0.5,0,0.8-0.2c0.5-0.2,1-0.5,1.1-0.6c0.2-0.2,0.5-0.3,0.5-0.3s0.8-0.3,1.6-0.8c0.8-0.5,1.6-1,1.6-1s0.5-0.3,1-0.5
		c0.5-0.2,0.8-0.5,1-0.5c0-0.2,1.3-0.8,2.9-1.6c1.4-0.8,3.2-1.6,3.7-1.8c0.5-0.2,1.3-0.6,1.4-0.8c0.3-0.2,1-0.5,1.6-0.6
		c0.5-0.2,1.1-0.5,1.4-0.6c0.2-0.2,1.3-0.5,2.2-1c1-0.3,2.1-0.6,2.4-0.8c0.3,0,0.6-0.2,0.6-0.2s0.6-0.3,1.6-0.5
		c0.8-0.2,1.8-0.5,1.9-0.5c0.2-0.2,1.1-0.3,1.9-0.5c0.8-0.2,1.6-0.3,1.8-0.5c0.2-0.2,1.1-0.3,2.2-0.5c1.1-0.2,3.2-0.5,4.8-0.8
		c1.6-0.3,3.4-0.5,4.1-0.5c0.8,0,1.6-0.2,1.6-0.3c0.2-0.2,1.8-0.2,6.2-0.2c5.1,0,6.6,0.2,9.7,0.5c2.1,0.3,4,0.6,4.1,0.6
		c0.2,0.2,1.8,0.5,3.4,1c1.6,0.5,3.2,0.8,3.2,1c0.2,0,0.6,0.3,1.3,0.5c0.6,0.2,2.1,0.8,3.2,1.3c1.1,0.5,2.2,1,2.4,1.1
		c0.2,0.2,0.8,0.5,1.4,0.6c0.6,0.3,1.8,1,2.4,1.4c0.6,0.5,1.4,1,1.6,1s0.6,0.3,1,0.5c0.3,0.2,0.8,0.5,1.1,0.6
		c0.3,0.2,0.5,0.3,0.6,0.3c0,0.2,0.6,0.5,1.3,1c0.6,0.5,1.8,1.3,2.6,1.9s1.6,1.3,1.8,1.4c0.2,0.2,1.4,1.3,2.7,2.6s2.4,2.4,2.4,2.6
		s0.5,0.6,1,1.1s1.1,0.8,1.4,0.8c0.3,0,0.6-0.2,0.8-0.5c0.2-0.3,0.5-1.3,0.5-2.1c0.2-0.8,0.3-2.4,0.5-3.5s0.5-2.6,0.8-3.2
		c0.3-0.8,1-2.2,1.6-3.4c0.6-1.1,1.1-2.2,1.3-2.4c0.2-0.2,0.5-0.5,0.6-0.8c0.2-0.3,0.5-0.8,0.8-1c0.3-0.2,0.5-0.6,0.5-0.6
		c0-0.2,0.3-0.5,0.6-0.8c0.3-0.3,0.8-0.8,0.8-0.8c0.2-0.2,0.8-0.6,1.4-1.3c0.6-0.6,1.9-1.6,2.6-2.2c0.8-0.6,1.8-1.3,2.1-1.3
		c0.3-0.2,0.6-0.3,0.6-0.3c0-0.2,0.2-0.2,0.5-0.3c0.3,0,1.1-0.5,1.9-0.8c0.8-0.3,1.8-0.8,1.9-1c0.2-0.2,1.1-0.3,1.8-0.6
		c0.8-0.2,2.1-0.5,2.7-0.6c0.8-0.2,1.4-0.3,1.4-0.5c0,0,1.4-0.3,3.2-0.6c2.6-0.3,4-0.5,8.1-0.5c2.7,0,5.9,0,7,0.2
		c1.1,0.2,2.7,0.3,3.5,0.5c0.8,0.2,2.2,0.5,3.2,0.8c1,0.2,1.9,0.5,2.2,0.5c0.3,0,0.5,0.2,0.5,0.3c0,0.2,0.3,0.2,0.6,0.3
		c0.3,0,1.1,0.3,1.6,0.5c0.5,0.2,1.4,0.6,2.1,1c0.6,0.3,1.8,1,2.4,1.3c0.6,0.3,1.6,1,2.2,1.3c0.5,0.3,1.3,0.6,1.4,1
		c0.3,0.2,0.8,0.6,1.3,1c0.5,0.3,1.3,1,1.9,1.6c0.6,0.5,1.4,1.3,1.8,1.6c0.3,0.3,1.4,1.8,2.6,3c1,1.3,2.2,2.7,2.6,3
		c0.3,0.5,0.8,0.8,0.8,0.8c0.2,0,0.5-0.2,0.8-0.5c0.3-0.3,0.8-0.8,1-1.1c0.2-0.3,0.5-1.4,0.6-2.2c0.3-1.3,0.3-2.4,0.3-4.9
		c0-1.8-0.2-4-0.3-4.8c-0.2-0.8-0.3-1.8-0.5-1.9c-0.2-0.3-0.3-0.6-0.3-0.8s-0.3-1.1-0.6-2.2c-0.3-1.1-0.8-2.2-1-2.6
		c-0.2-0.3-0.5-1-0.8-1.4c-0.2-0.5-0.6-1.1-0.8-1.6c-0.2-0.3-0.8-1.3-1.3-2.1c-0.5-0.8-1.3-1.8-1.8-2.2c-0.3-0.5-1.4-1.6-2.4-2.6
		c-1-1-2.1-2.1-2.7-2.6c-0.6-0.5-1.3-1-1.4-1.1c-0.2-0.2-0.8-0.5-1.3-0.8c-0.5-0.3-1.3-1-1.9-1.4s-1.1-0.8-1.3-0.8
		c-0.2,0-0.5-0.2-0.6-0.3c-0.2-0.2-0.3-0.3-0.5-0.3c-0.2,0-1-0.3-1.9-0.8c-1-0.5-2.4-1.1-3.4-1.4c-1-0.3-1.9-0.6-2.1-0.8
		c-0.2-0.2-1.4-0.5-2.7-0.8s-3.2-0.8-4.1-1c-1.1-0.2-2.2-0.5-2.6-0.5c-0.3-0.2-1.4-0.3-2.6-0.5c-1.1-0.2-2.2-0.2-2.6-0.2
		c-0.3,0-0.8,0-1,0c-0.2-0.2-1.3-0.3-2.6-0.3c-1.3,0-3.5-0.2-5.1-0.2s-3.7,0-4.6,0.2c-1,0-1.8,0.2-1.9,0.2s-0.8,0.2-1.4,0.3
		c-0.8,0-2.1,0.2-3.2,0.3c-1,0.2-2.1,0.3-2.2,0.5c-0.3,0.2-0.5,0.2-0.6,0.2c0,0-0.6,0-1.1,0.2c-0.6,0.2-1.3,0.3-1.6,0.3
		c-0.3,0-1,0.2-1.4,0.3c-0.5,0.2-1.4,0.3-1.9,0.5s-1.8,0.5-2.7,0.6c-1,0.3-2.2,0.6-2.6,0.8c-0.5,0.2-1.3,0.5-1.8,0.6
		c-0.5,0.2-1.8,0.6-2.6,1c-1,0.3-2.1,0.8-2.6,1c-0.5,0.2-1.1,0.3-1.6,0.3c-0.5,0-1,0-1.3-0.2c-0.3-0.2-0.6-0.3-0.8-0.5
		c-0.2-0.2-0.2-0.6-0.2-1c0-0.5,0.2-0.8,0.5-1.3c0.3-0.3,1-0.6,1.6-1c0.6-0.3,1.3-0.6,1.4-0.8c0.3-0.2,0.8-0.3,1.3-0.5
		c0.5-0.2,1-0.3,1-0.5c0.2-0.2,1-0.3,1.8-0.6c0.8-0.3,2.2-0.6,3-0.8c0.8-0.2,1.6-0.5,1.6-0.5s1.3-0.5,2.6-0.8
		c1.4-0.5,2.7-0.8,2.9-0.8s0.3,0,0.5-0.2c0-0.2,1.4-0.5,3.2-0.8c1.8-0.3,4.5-0.6,6.1-1c1.6-0.2,4-0.5,5.3-0.5s2.4-0.2,2.4-0.3
		c0-0.2,2.1-0.2,4.3-0.2c2.4,0,4.5,0.2,4.6,0.2c0.2,0,1,0.2,1.9,0.2c1,0,2.4,0.2,3.4,0.3c1,0.2,1.9,0.3,2.1,0.3
		c0.2,0.2,1.1,0.3,1.9,0.5c0.8,0.2,2.2,0.5,3.2,0.6c1,0.2,2.6,0.6,3.7,1.1c1.1,0.3,2.4,0.8,2.7,1c0.3,0.2,0.8,0.3,0.8,0.3
		s0.5,0.2,1,0.3c0.5,0.2,1.1,0.3,1.4,0.5c0.3,0.2,1.3,0.6,2.1,1c0.8,0.3,1.6,0.8,1.8,0.8s0.6,0.3,1.1,0.6c0.5,0.3,1.3,0.8,1.8,1
		c0.5,0.2,1.4,0.8,1.8,1.1c0.5,0.3,1.1,0.8,1.6,1c0.5,0.3,1.3,1,1.9,1.4c0.6,0.5,1.4,1.1,1.8,1.3c0.3,0.3,0.8,0.6,1.3,1
		c0.3,0.3,1,0.8,1.4,1.3c0.5,0.5,1.4,1.4,2.1,2.1c0.6,0.8,1.4,1.6,1.8,1.9c0.2,0.3,0.6,0.5,0.8,0.5c0.2,0,0.3,0.2,0.3,0.3
		c0,0.2,0.5,1,1.1,1.8c0.6,0.8,1.1,1.6,1.1,1.6c0,0.2,0.3,0.6,0.5,1c0.3,0.5,1.3,2.1,2.1,3.7c0.8,1.6,1.6,3.2,1.6,3.7
		c0,0.5,0.3,1.3,0.5,1.9c0.2,0.6,0.5,1.6,0.5,2.4c0,0.6,0.2,1.3,0.3,1.4c0.2,0.2,0.2,1.3,0.3,2.7c0,1.4,0,3.6,0,3.6
		s-0.8,2.8-1.1,3.9c-0.2,1.3-0.5,2.2-0.6,2.4c-0.2,0.2-0.2,0.3-0.2,0.5c0,0.2-0.2,0.6-0.5,1.3c-0.2,0.5-0.8,1.7-1.3,2.7
		c-0.5,0.9-0.9,1.9-1.1,1.9s-0.2,0.2-0.2,0.3c0,0.2-0.5,0.9-1.1,1.7c-0.6,0.8-1.3,1.7-1.6,2.2c-0.3,0.5-0.3,0.9-0.2,1.4
		c0,0.5,0.2,0.9,0.3,1.1c0.2,0.2,0.5,0.9,0.6,1.9c0.3,0.9,0.6,2.4,0.9,3.2c0.3,0.8,0.5,1.9,0.6,2.4c0.2,0.5,0.3,1.3,0.3,1.7
		s0.2,1.1,0.3,1.3c0.2,0.2,0.3,0.9,0.3,1.4c0.2,0.6,0.3,2.2,0.5,3.5c0.2,1.3,0.3,2.5,0.3,2.8c0.2,0.2,0.2,1.3,0.3,2.4
		c0,1.1,0.2,2.2,0.3,2.4c0.2,0.2,0.5,0.8,0.6,1.3c0.3,0.5,0.6,1.1,0.9,1.6c0.3,0.5,0.6,1.3,0.9,1.7c0.3,0.5,0.8,1.4,1.1,2
		s1.1,2,1.7,3.3c0.6,1.3,1.3,2.7,1.6,3.2c0.2,0.5,0.6,1.3,0.8,1.9c0.3,0.6,0.6,1.6,0.9,2c0.3,0.5,0.6,1.6,0.9,2.4
		c0.3,0.8,0.8,1.9,1.1,2.8c0.3,0.8,0.8,1.7,0.8,2c0,0.3,0.5,0.8,0.8,1.1C564.8,500.1,565,500.1,565.9,499.9L565.9,499.9z M546.4,408
		C546.5,408,546.5,408,546.4,408c0.2-0.2,0-0.2,0-0.2S546.4,407.8,546.4,408L546.4,408z"/>
</g>
</svg>
