<?xml version="1.0" encoding="utf-8"?>
<!-- Generator: Adobe Illustrator 26.0.1, SVG Export Plug-In . SVG Version: 6.00 Build 0)  -->
<svg version="1.1"
	 id="Layer_1" xmlns:inkscape="http://www.inkscape.org/namespaces/inkscape" xmlns:sodipodi="http://sodipodi.sourceforge.net/DTD/sodipodi-0.dtd"
	 xmlns="http://www.w3.org/2000/svg" xmlns:xlink="http://www.w3.org/1999/xlink" x="0px" y="0px" viewBox="0 0 1000 1000"
	 style="enable-background:new 0 0 1000 1000;" xml:space="preserve">
<style type="text/css">
	.st0{fill:none;stroke:#000000;stroke-width:35;stroke-linejoin:round;stroke-miterlimit:10;}
	.st1{fill:none;stroke:#000000;stroke-width:30;stroke-linecap:round;stroke-miterlimit:10;}
</style>
<rect x="192.3" y="55.6" class="st0" width="615.5" height="888.9"/>
<line class="st1" x1="260.2" y1="150.9" x2="739.7" y2="150.9"/>
<line class="st1" x1="260.2" y1="228.4" x2="739.7" y2="228.4"/>
<line class="st1" x1="260.2" y1="305.9" x2="739.7" y2="305.9"/>
<g>
	<line class="st1" x1="261.5" y1="383.5" x2="355.3" y2="383.5"/>
	<line class="st1" x1="261.5" y1="461.1" x2="314" y2="461.1"/>
	<line class="st1" x1="261.5" y1="538.8" x2="314" y2="538.8"/>
	<line class="st1" x1="261.5" y1="616.5" x2="346.7" y2="616.5"/>
	<line class="st1" x1="738.5" y1="383.5" x2="644.7" y2="383.5"/>
	<line class="st1" x1="738.5" y1="461.1" x2="686" y2="461.1"/>
	<line class="st1" x1="738.5" y1="538.8" x2="686" y2="538.8"/>
	<line class="st1" x1="738.5" y1="616.5" x2="653.3" y2="616.5"/>
</g>
<line class="st1" x1="262.4" y1="694.1" x2="738.5" y2="694.1"/>
<line class="st1" x1="260.9" y1="771.8" x2="739.7" y2="771.8"/>
<line class="st1" x1="260.2" y1="849.5" x2="738.5" y2="849.5"/>
<g>
	<defs>
		<inkscape:perspective  id="perspective4373"></inkscape:perspective>
	</defs>
	
		<sodipodi:namedview  bordercolor="#666666" borderopacity="1.0" fit-margin-bottom="0" fit-margin-left="0" fit-margin-right="0" fit-margin-top="0" id="base" pagecolor="#ffffff" showgrid="false">
		</sodipodi:namedview>
	<path id="path8431_00000058588509201312276020000013919042263626363530_" d="M495.5,661.4c-3.8,0-7.7,0-8.5-0.2
		c-0.8,0-2.4-0.2-3.5-0.2s-1.9-0.2-2-0.2c0,0-0.3-0.2-0.6-0.2c-0.3,0-2.4-0.3-4.4-0.5c-2.2-0.3-4.1-0.5-4.2-0.5s-0.3-0.2-0.5,0
		s-0.3,0-0.6-0.2c-0.3-0.2-1.3-0.3-2.2-0.5c-0.9-0.2-1.9-0.2-2-0.2s-0.5,0-0.6-0.2c-0.2-0.2-0.6-0.3-1.3-0.3c-0.5,0-1.3-0.2-1.4-0.2
		c-0.3,0-0.8-0.2-0.9-0.3c-0.3-0.2-1.1-0.3-2-0.5c-0.8-0.2-1.6-0.3-1.7-0.5c-0.2-0.2-0.9-0.3-1.7-0.5c-0.8-0.2-1.7-0.5-2.2-0.6
		c-0.3-0.2-0.9-0.3-1.3-0.3c-0.3,0-0.8-0.2-0.8-0.2c0-0.2-0.3-0.2-0.6-0.2s-0.8-0.2-1.1-0.3c-0.3-0.2-1.1-0.3-1.7-0.5
		s-1.3-0.3-1.4-0.3c-0.2-0.2-0.5-0.3-0.8-0.3c-0.3-0.2-0.6-0.2-0.8-0.2s-0.6-0.2-0.8-0.3c-0.3-0.2-1.3-0.5-2-0.8
		c-0.9-0.3-2.2-0.8-3.2-1.1c-0.9-0.3-2-0.8-2.8-0.9c-0.8-0.3-1.4-0.6-1.4-0.8c-0.2-0.2-0.3-0.3-0.5-0.3s-0.8-0.2-1.3-0.5
		s-1.1-0.5-1.1-0.5c-0.2,0-0.8-0.3-1.4-0.6s-1.9-0.8-2.5-1.1c-0.8-0.3-1.4-0.6-1.6-0.8s-0.6-0.3-1.1-0.5s-0.8-0.3-0.8-0.5
		s-0.3-0.2-0.5-0.2s-0.5-0.2-0.8-0.3c-0.3-0.2-1.4-0.8-2.5-1.4c-1.1-0.6-2-0.9-2.2-0.9s-0.5-0.2-0.8-0.5s-0.8-0.6-1.1-0.6
		c-0.3,0-0.5-0.2-0.5-0.3c0-0.2-0.3-0.3-0.8-0.5s-0.9-0.5-1.1-0.6c-0.2-0.2-0.5-0.3-0.5-0.3c-0.2,0-0.5-0.2-0.6-0.3
		c-0.2-0.2-0.6-0.5-0.8-0.6c-0.3-0.2-0.6-0.3-0.9-0.5s-0.6-0.5-0.8-0.6c-0.2-0.2-0.5-0.3-0.5-0.3s-0.6-0.3-1.3-0.6
		c-0.6-0.3-1.4-0.8-1.7-1.1c-0.5-0.2-1.4-0.9-2.2-1.6c-0.8-0.6-2.2-1.6-2.8-2c-0.8-0.5-2.4-1.7-3.6-2.7c-1.3-1-3.2-2.5-4.1-3.3
		s-2.4-2-3.2-2.7c-0.8-0.6-1.7-1.6-2.4-2.2c-0.6-0.5-1.1-0.9-1.3-0.9s-0.5-0.2-0.6-0.5c-0.3-0.3-0.9-0.9-1.6-1.4s-1.3-1.1-1.4-1.3
		c-0.2-0.2-1.1-1.3-2.2-2.2s-2.5-2.5-3.2-3.2c-0.8-0.8-2-2.2-3-3.3c-0.9-1.1-1.9-2-2-2.4c-0.3-0.3-0.9-1.1-1.6-1.9s-1.6-1.9-1.9-2.5
		c-0.5-0.6-0.9-1.3-1.1-1.4c-0.2-0.2-0.3-0.5-0.3-0.5c0-0.2-0.3-0.6-0.8-1.1s-1.1-1.3-1.4-1.7c-0.3-0.5-0.9-1.3-1.3-1.7
		c-0.3-0.5-1.1-1.6-1.7-2.5s-1.7-2.5-2.4-3.5s-1.3-1.9-1.4-1.9c-0.2,0-0.2-0.2-0.2-0.5s0-0.5-0.2-0.5s-0.5-0.6-0.9-1.3
		c-0.5-0.6-0.8-1.3-0.8-1.4c0-0.2-0.2-0.3-0.3-0.6c-0.2-0.2-0.8-1.1-1.3-2s-1.1-1.9-1.3-2.2c-0.2-0.3-0.3-0.6-0.5-0.6
		s-0.2-0.2-0.2-0.2c0-0.2-0.3-0.8-0.6-1.7c-0.3-0.8-1.1-2.2-1.7-3.2c-0.6-0.9-1.1-1.9-1.1-2.2s-0.3-0.8-0.5-1.3s-0.5-1.1-0.6-1.3
		c-0.2-0.2-0.6-1.3-1.1-2.4c-0.5-1.1-1.1-2.5-1.4-3.3s-0.8-2.4-1.3-3.8c-0.9-1.6-1.4-2.7-1.4-2.8c-0.2-0.2-0.3-0.8-0.5-1.4
		c-0.2-0.6-0.5-1.6-0.6-1.9s-0.3-0.9-0.5-1.3c0-0.3-0.3-0.9-0.5-1.4s-0.5-1.4-0.6-2c-0.2-0.6-0.5-2-0.9-3.2
		c-0.3-1.1-0.9-3.5-1.4-5.2c-0.3-1.7-0.8-3.3-0.8-3.5s-0.2-0.5-0.2-0.6c-0.2-0.2-0.3-1.3-0.6-2.5c-0.2-1.3-0.5-3.3-0.8-4.7
		c-0.2-1.4-0.5-2.7-0.5-2.8s-0.3-1.6-0.5-3.2c-0.2-1.6-0.3-3.6-0.5-4.6s-0.3-3.5-0.3-5.7c-0.2-2.2-0.2-6.5-0.2-9.4s0.2-6.3,0.2-7.5
		c0.2-1.1,0.2-2.5,0.3-2.8c0-0.5,0.2-1.6,0.3-2.5c0.2-0.9,0.5-3.2,0.6-5c0.2-1.9,0.5-3.8,0.6-4.2c0.2-0.5,0.2-1.1,0.2-1.6
		c0-0.3,0.2-0.8,0.2-0.9c0.3,0.2,0.6-0.9,0.8-2c0.2-1.1,0.5-2,0.5-2c0.2,0,0.2-0.3,0.2-0.6c0-0.3,0.2-0.9,0.2-1.6
		c0.2-0.5,0.3-1.1,0.5-1.3c0.2-0.2,0.3-0.8,0.3-1.4c0.2-0.5,0.3-1.4,0.3-2c0.2-0.6,0.3-1.4,0.3-1.7c0.2-0.3,0.5-1.6,0.8-2.7
		c0.6-1.3,0.9-2.5,1.1-2.8s0.3-0.6,0.3-0.8c0-0.2,0.3-1.4,0.8-2.8s0.9-2.8,1.1-3c0.2-0.3,0.3-0.8,0.5-1.3s0.5-1.1,0.6-1.6
		c0.2-0.5,0.3-0.9,0.3-1.1s0-0.3,0.2-0.3s0.3-0.8,0.6-1.4c0.3-0.8,0.6-1.7,0.8-2.2c0.2-0.5,0.5-0.9,0.5-1.1s0-0.3,0.2-0.3
		s0.3-0.3,0.5-0.8s0.3-0.9,0.5-1.1s0.3-0.3,0.3-0.5c0,0,0.2-0.6,0.5-1.1c0.3-0.6,0.6-1.4,0.8-1.9c0.2-0.5,0.5-0.9,0.5-0.9
		s0.6-1.1,1.3-2.4c0.6-1.3,1.1-2.2,1.1-2.4c0,0,0.3-0.6,0.6-1.3c0.3-0.6,0.9-1.9,1.4-2.7c0.5-0.9,0.9-1.7,0.9-1.9
		c0-0.2,0.2-0.3,0.3-0.3c0.2-0.2,0.5-0.5,0.6-0.8c0.2-0.3,0.6-1.1,0.8-1.4c0.2-0.5,0.5-0.9,0.6-0.9c0.2-0.2,0.8-0.9,1.4-1.9
		c0.6-0.9,1.3-1.9,1.6-2.2c0.3-0.3,0.5-0.8,0.6-0.9c0-0.2,0.6-0.9,1.1-1.7c0.5-0.8,1.4-1.9,1.9-2.7c0.5-0.8,1.1-1.4,1.1-1.6
		c0.2-0.2,0.8-0.9,1.4-1.7c0.6-0.8,1.3-1.6,1.3-1.7c0-0.2,0.2-0.3,0.5-0.5c0.2-0.2,0.5-0.3,0.5-0.5s0.2-0.3,0.5-0.6
		c0.3-0.2,0.5-0.5,0.5-0.6c0-0.2,0.2-0.3,0.3-0.5c0.2-0.2,0.8-0.8,1.4-1.4c0.6-0.8,1.3-1.6,1.6-1.9c0.3-0.3,2-2.2,3.9-4.2
		s3.5-3.6,3.5-3.8c0,0,0.5-0.6,1.1-1.1s1.1-1.1,1.1-1.1s0.8-0.6,1.6-1.4c0.8-0.8,2.2-2,3.3-2.8c0.9-0.8,2-1.7,2.2-1.9
		c0.2-0.2,0.5-0.5,0.6-0.5c0.2,0,0.5-0.3,0.8-0.6c0.3-0.3,0.8-0.8,0.9-0.8c0.2-0.2,0.5-0.3,0.8-0.6c0.3-0.2,0.9-0.6,1.3-1.1
		c0.5-0.3,0.9-0.8,1.1-0.9s0.6-0.5,0.9-0.6c0.3-0.2,0.9-0.6,1.3-0.9c0.3-0.3,0.6-0.6,0.8-0.6c0.2,0,0.5-0.3,0.9-0.6s0.8-0.6,0.9-0.6
		s0.3-0.2,0.3-0.3c0-0.2,0.2-0.3,0.3-0.3s0.5-0.2,0.6-0.3c0.2-0.2,0.8-0.6,1.3-0.9s0.9-0.6,1.1-0.6s0.3-0.2,0.3-0.3
		c0-0.2,0.5-0.5,0.8-0.6c0.3-0.2,0.6-0.5,0.6-0.5c0-0.2,0.2-0.2,0.2-0.2c0.2,0,0.8-0.3,1.4-0.8s1.6-0.9,1.9-1.3
		c0.3-0.2,0.9-0.5,1.3-0.6c0.3-0.2,0.8-0.3,0.8-0.5s0.5-0.3,0.8-0.5s1.1-0.5,1.4-0.8c0.5-0.2,0.9-0.5,1.3-0.8c0.2-0.2,1.1-0.8,2-1.3
		s1.7-0.9,1.9-0.9s0.8-0.3,1.4-0.6c0.6-0.3,1.6-0.9,2-1.3c0.5-0.3,0.8-0.5,0.9-0.5s0.9-0.3,1.9-0.8s2-0.9,2.5-1.1s0.9-0.5,1.1-0.5
		c0.2-0.2,0.3-0.3,0.5-0.3s0.8-0.3,1.4-0.6c0.6-0.3,1.4-0.6,1.7-0.8c0.5-0.5,0.8-0.6,0.8-0.6c0.2-0.2,1.1-0.5,2.2-0.9
		c1.1-0.5,2.4-0.8,3-0.9c0.5-0.2,1.1-0.3,1.3-0.5s0.6-0.3,1.1-0.5s1.3-0.5,1.7-0.6c0.5-0.2,0.9-0.3,1.1-0.3s0.5-0.2,0.8-0.3
		c0.2-0.2,1.4-0.5,2.5-0.8s2.8-0.6,3.6-0.9c0.8-0.2,3-0.8,4.9-1.3s3.9-0.9,4.4-1.1c0.6-0.2,2.2-0.5,3.6-0.6c1.4-0.3,2.7-0.5,2.8-0.6
		c0.2-0.2,1.7-0.3,3.3-0.6c1.6-0.2,3.6-0.5,4.6-0.6c0.9-0.2,2.4-0.3,3.3-0.3c0.9-0.2,3.2-0.3,4.7-0.5c1.6-0.2,3.5-0.3,3.9-0.3
		c0.5,0,3.9,0,7.4,0c3.6,0,8.8,0.2,11.8,0.3c3,0.2,5.5,0.3,5.5,0.5c0.2,0,0.5,0.2,0.8,0.2s1.4,0.2,2.4,0.3c1,0.2,3.5,0.5,5.5,0.8
		s3.9,0.6,4.1,0.6c0.2,0.2,0.8,0.3,1.7,0.3c0.8,0.2,2.2,0.5,3.2,0.6c0.9,0.2,2.7,0.6,3.9,0.9c1.3,0.3,2.4,0.6,2.5,0.6
		c0.2,0.2,1.6,0.5,3,0.9c1.4,0.3,2.8,0.8,3,0.9c0.2,0.2,1.1,0.3,1.9,0.6c0.9,0.3,2,0.6,2.7,0.8c0.6,0.2,1.6,0.5,2.2,0.8
		c0.6,0.2,1.4,0.5,1.7,0.6c0.3,0.2,1.3,0.5,1.9,0.8c0.6,0.2,1.9,0.6,2.8,0.9c0.9,0.3,1.9,0.8,2.4,0.9c0.5,0.2,0.9,0.3,1.1,0.3
		s0.6,0.2,1.1,0.5s1.7,0.8,2.5,1.3c0.9,0.3,2.2,1.1,3,1.4s1.4,0.6,1.6,0.6c0.2,0,0.3,0.2,0.5,0.3c0.2,0.2,0.8,0.6,1.4,0.9
		c0.8,0.3,1.6,0.9,2,1.1c0.3,0.3,0.8,0.5,1.1,0.5s0.3,0,0.5,0.2s0.3,0.3,0.8,0.5c0.3,0.2,0.9,0.5,1.3,0.6c0.3,0.2,0.6,0.3,0.6,0.5
		s0.5,0.3,0.9,0.5c0.5,0.2,1.6,0.8,2.2,1.3c0.8,0.5,1.4,0.9,1.6,0.9c0.2,0,0.6,0.3,1.3,0.8c0.6,0.5,1.1,0.8,1.3,0.8s0.6,0.3,1.3,0.8
		c0.6,0.5,1.3,0.8,1.4,0.8c0.2,0,0.3,0,0.3,0.2s0.5,0.5,1.1,0.9s1.3,0.9,1.4,0.9c0.2,0.2,0.6,0.3,0.9,0.6c0.3,0.2,1.1,0.8,1.7,1.4
		c0.6,0.5,1.3,0.9,1.4,0.9c0.2,0,0.5,0.3,0.9,0.6c0.5,0.3,0.9,0.9,1.3,1.1c0.2,0.2,0.5,0.5,0.6,0.5c0.2,0,0.3,0.2,0.5,0.5
		s0.5,0.5,0.6,0.5c0.2,0,0.3,0.2,0.5,0.3c0.2,0.2,0.5,0.5,0.6,0.8c0.3,0.3,0.6,0.5,0.6,0.2c0.2-0.2,0-0.2,0-0.2
		c-0.2,0.2-0.2,0-0.2,0s0.2-0.2,0.3-0.2c0.2,0,0.3,0.2,0.2,0.3c0,0.3,0.3,0.6,1.3,1.4c0.8,0.6,1.4,1.3,1.6,1.4
		c0.2,0.2,0.3,0.3,0.5,0.3s0.6,0.5,1.1,0.9c0.5,0.5,1.1,0.9,1.1,0.9s1.3,1.1,2.7,2.4c1.4,1.4,3.6,3.6,5,5s3,3.2,3.6,3.8
		c0.6,0.6,1.6,1.6,2,2.2c0.5,0.5,1.6,1.7,2.2,2.7c0.8,0.9,1.7,2,2.2,2.7c0.5,0.5,0.9,1.1,0.9,1.3c0.2,0.2,0.3,0.5,0.5,0.5
		c0.2,0.2,0.3,0.3,0.3,0.5s0,0.3,0.2,0.3s0.5,0.5,0.9,1.1c0.5,0.5,1.1,1.4,1.4,1.9c0.3,0.5,0.8,1.1,1.1,1.6c0.3,0.3,1.1,1.6,1.9,2.7
		c0.8,1.1,1.4,2,1.4,2.2c0,0,0.2,0.3,0.3,0.5c0.2,0.2,0.5,0.6,0.8,1.1c0.2,0.3,0.6,1.1,0.9,1.6c0.3,0.5,0.8,1.1,0.9,1.4
		c0.2,0.3,0.5,0.9,0.6,1.3c0.2,0.3,0.5,0.8,0.5,0.8c0.2,0,0.3,0.5,0.6,0.9c0.3,0.5,0.8,1.6,1.3,2.4c0.3,0.8,0.8,1.7,0.9,2
		c0.2,0.3,0.5,0.8,0.6,1.3c0.2,0.3,0.5,0.8,0.5,0.8c0.2,0,0.2,0.2,0.2,0.3s0.5,1.1,0.9,2c0.5,0.9,1.3,2.5,1.7,3.5s1.1,2.2,1.3,3
		c0.3,0.8,0.6,1.4,0.6,1.4c0.2,0.2,0.5,0.9,0.6,1.9c0.3,0.9,0.6,1.7,0.8,1.9c0.2,0.2,0.2,0.3,0.2,0.6c0,0.2,0.2,0.6,0.3,0.9
		c0.2,0.3,0.5,1.1,0.6,1.7c0.2,0.6,0.9,2.7,1.6,4.6c0.6,1.9,1.3,3.8,1.3,3.9c0,0.3,0.2,0.6,0.3,0.9c0.2,0.2,0.5,0.9,0.6,1.7
		c0.2,0.8,0.5,1.6,0.5,1.9c0.2,0.3,0.3,0.9,0.5,1.4s0.3,1.1,0.5,1.3c0.2,0.2,0.5,2.2,0.9,4.2c0.5,2,0.8,4.2,0.9,4.7
		c0.2,0.5,0.3,1.6,0.5,2.5s0.5,3.5,0.8,5.7s0.5,5,0.6,6.5c0,1.3,0.2,2.5,0.3,2.7c0.2,0.2,0.2,3.6,0.2,8.5c0,4.6,0,9.3-0.2,10.5
		c-0.2,1.3-0.2,3-0.3,3.9c-0.2,0.9-0.3,3.2-0.5,5c-0.2,1.9-0.5,3.5-0.5,3.6c-0.2,0.2-0.2,0.6-0.3,1.3c0,0.5-0.3,2.2-0.5,3.8
		s-0.5,3.5-0.6,4.1c-0.2,0.8-0.3,1.4-0.5,1.4s-0.2,0.2-0.2,0.5s-0.2,1.6-0.5,3s-0.6,2.5-0.6,2.7c0,0-0.3,0.9-0.6,2s-0.5,2.2-0.5,2.4
		s-0.2,0.6-0.3,0.9c-0.2,0.3-0.6,1.6-0.9,2.7c-0.3,1.1-0.8,2.5-0.9,3c-0.2,0.5-0.3,1.1-0.5,1.3s-0.5,1.4-0.9,2.5
		c-0.5,1.1-0.9,2.5-1.1,2.8c-0.2,0.5-0.3,0.8-0.3,0.9c0,0.2-0.2,0.5-0.3,0.9c-0.2,0.5-0.6,1.3-0.9,1.9c-0.3,0.6-0.8,1.9-1.1,2.8
		s-0.8,1.9-0.9,2.4c-0.2,0.5-0.5,0.9-0.5,1.1c0,0.2-0.2,0.3-0.2,0.3c-0.2,0-0.2,0.2-0.2,0.2c0,0.2-0.2,0.8-0.5,1.4
		c-0.3,0.6-0.6,1.4-0.9,1.9c-0.2,0.5-0.5,0.9-0.6,1.1c-0.2,0.2-0.5,1.1-0.9,2c-0.5,0.9-1.1,2.2-1.3,2.7c-0.3,0.5-0.6,1.1-0.8,1.3
		s-0.3,0.3-0.3,0.5s-0.2,0.3-0.3,0.5c-0.2,0.2-0.6,1.1-1.3,1.9c-0.5,0.9-1.1,1.9-1.3,2c-0.2,0.2-0.8,1.1-1.3,1.9
		c-0.6,0.8-1.1,1.6-1.1,1.7s-0.2,0.5-0.5,0.8s-0.5,0.6-0.5,0.8s-0.3,0.5-0.5,0.9c-0.3,0.5-0.8,1.3-1.3,1.7c-0.5,0.5-1.1,1.4-1.4,2
		c-0.5,0.5-0.9,1.1-1.1,1.4c-0.2,0.3-0.6,0.9-1.1,1.4c-0.5,0.6-1.3,1.6-1.6,2.2c-0.5,0.6-0.9,1.3-1.3,1.6c-0.3,0.2-0.6,0.6-0.9,1.1
		c-0.3,0.5-0.6,0.8-0.8,0.9c-0.2,0.2-0.3,0.5-0.3,0.6c0,0.2-0.2,0.3-0.3,0.5c-0.2,0.2-0.8,0.8-1.4,1.6c-0.6,0.8-1.3,1.6-1.6,1.9
		c-0.3,0.3-0.8,0.8-0.9,1.1c-0.2,0.3-1.7,1.9-3.3,3.5s-3.6,3.6-4.4,4.2c-0.8,0.8-2,1.7-2.7,2.4c-0.6,0.6-1.6,1.4-2.2,1.9
		c-0.6,0.5-1.7,1.6-2.7,2.2c-0.9,0.8-1.7,1.4-1.9,1.4s-0.5,0.3-0.8,0.5s-0.8,0.6-1.3,0.9c-0.5,0.3-0.9,0.8-1.1,0.9
		c-0.2,0.2-0.5,0.3-0.6,0.5c-0.2,0.2-0.9,0.6-1.6,1.1c-0.6,0.5-1.6,1.3-2,1.6c-0.5,0.3-0.9,0.6-0.9,0.6s-0.3,0.2-0.6,0.5
		c-0.3,0.2-1.4,1.1-2.7,1.9c-1.3,0.8-2.4,1.6-2.5,1.7c-0.2,0.2-1.3,0.8-2.4,1.6c-1.1,0.8-2.4,1.6-3,1.9c-0.5,0.3-1.4,0.8-2,1.1
		s-1.6,0.8-2,1.1c-0.5,0.3-1.4,0.8-1.9,1.1s-1.3,0.8-1.7,0.9c-0.3,0.2-1.1,0.5-1.6,0.8s-0.9,0.5-1.1,0.6c-0.2,0.2-0.5,0.3-0.6,0.3
		c-0.3,0-0.9,0.3-1.6,0.6c-0.6,0.3-1.1,0.6-1.1,0.6c0,0.2-0.3,0.2-0.5,0.2s-0.8,0.2-1.3,0.5s-1.1,0.5-1.3,0.5s-0.3,0.2-0.5,0.3
		c-0.2,0.2-0.6,0.3-0.9,0.5c-0.5,0.2-1.3,0.5-2,0.8s-1.4,0.6-1.4,0.6c-0.2,0-0.6,0.2-1.1,0.5s-0.9,0.5-1.1,0.5
		c-0.2,0-0.5,0.2-0.8,0.3c-0.3,0.2-1.1,0.5-1.9,0.6c-0.6,0.2-1.3,0.5-1.4,0.5c-0.2,0.2-0.8,0.3-1.6,0.6s-1.7,0.6-2,0.6
		c-0.3,0.2-0.9,0.3-1.4,0.5s-1.1,0.3-1.6,0.5s-1.3,0.3-1.7,0.5c-0.5,0.2-1.3,0.3-1.6,0.5c-0.5,0.2-0.9,0.3-1.1,0.3
		c-0.2,0-0.6,0.2-0.9,0.3c-0.3,0.2-0.9,0.3-1.3,0.3s-0.8,0.2-0.9,0.2c-0.2,0.2-0.9,0.3-1.9,0.5c-0.9,0.2-1.7,0.3-1.7,0.5
		s-1.4,0.5-3.2,0.8c-1.6,0.3-3.3,0.6-3.6,0.8c-0.3,0-1.4,0.2-2.5,0.3c-1.1,0.2-2.2,0.3-2.5,0.3c-0.3,0.2-1.4,0.3-2.4,0.3
		c-0.9,0.2-2.8,0.3-4.1,0.5s-2.5,0.3-2.8,0.5c-0.2,0.2-1.4,0.2-2.5,0.3c-1.1,0-3.3,0.2-4.7,0.2C503.7,661.3,499.3,661.4,495.5,661.4
		L495.5,661.4z M497,648.3c3.2,0,5.8-0.2,6.1-0.3l0.5-0.2l-0.6-0.3c-0.3-0.2-0.8-0.5-1.1-0.6c-0.3-0.2-1.4-0.8-2.4-1.3
		c-1.1-0.5-1.9-1.1-1.9-1.1c0-0.2-0.2-0.2-0.3-0.2c-0.2,0-0.5-0.2-0.6-0.3c-0.2-0.2-0.6-0.5-0.9-0.6c-0.3-0.2-1.4-0.8-2.5-1.4
		c-1.1-0.6-2.7-1.7-3.5-2.4c-0.8-0.6-2.7-2-3.8-3c-1.3-0.9-2.7-2.2-3.2-2.7s-1.4-1.3-1.7-1.7c-0.5-0.5-0.9-0.8-1.1-0.8
		s-0.5-0.3-0.6-0.6c-0.3-0.3-1.3-1.4-2.2-2.4c-0.9-0.9-2.2-2.4-2.8-3.2c-0.6-0.8-1.6-1.9-2-2.5c-0.5-0.6-1.1-1.4-1.3-1.7
		s-0.6-0.8-0.9-1.3c-0.3-0.3-0.8-1.1-1.3-1.7c-0.3-0.6-0.9-1.4-1.4-1.9c-0.3-0.5-0.9-1.4-1.3-2c-0.3-0.6-0.6-1.3-0.8-1.3
		c-0.2-0.2-0.5-0.6-0.8-1.3c-0.3-0.6-0.8-1.4-1.1-1.9c-0.3-0.5-0.5-0.9-0.5-0.9c0-0.2-0.3-0.8-0.6-1.7c-0.3-0.8-0.6-1.6-0.6-1.7
		c0-0.2-0.2-0.3-0.2-0.5c-0.2-0.2-0.5-0.8-0.6-1.6c-0.3-0.8-0.5-1.4-0.5-1.6c0-0.2-0.2-0.3-0.2-0.5c-0.2,0-0.2-0.3-0.2-0.5
		s-0.2-0.5-0.2-0.8c-0.2-0.2-0.3-0.8-0.5-1.4c-0.2-0.6-0.3-1.3-0.3-1.4s-0.2-0.6-0.3-0.9c-0.2-0.3-0.3-0.6-0.3-0.9
		c0-0.2-0.2-1.1-0.2-2c-0.2-0.9-0.3-1.7-0.5-1.9s-0.3-1.1-0.5-2.4c-0.2-1.1-0.3-4.2-0.3-6.9c0-2.8,0.2-5.8,0.3-7.4
		c0.2-1.4,0.3-2.7,0.5-2.7s0.2-0.3,0.2-0.6s0.2-1.4,0.5-2.4c0.3-1.1,0.6-2.4,0.8-3.2c0.2-0.6,0.3-1.3,0.5-1.4s0.2-0.6,0.3-0.9
		c0.2-0.6,0-0.8-0.3-1.1c-0.2-0.2-0.8-0.3-1.3-0.5c-0.6-0.2-0.9,0-0.9,0.2s-0.2,0.2-0.3,0.2c-0.2,0-0.8,0.2-1.3,0.5
		c-0.5,0.2-0.9,0.5-1.1,0.5s-0.8,0.3-1.4,0.6s-1.6,0.6-2,0.8c-0.5,0-1.6,0.3-2.4,0.3c-0.8,0.2-1.7,0.3-1.9,0.5
		c-0.3,0.2-1.4,0.2-2.8,0.2c-1.3,0-3.3-0.2-4.4-0.3c-1.1-0.2-2.4-0.3-2.5-0.3c-0.3-0.2-0.9-0.3-1.4-0.5s-0.9-0.3-0.9-0.3
		s-0.9-0.5-2-0.8s-2-0.8-2-0.8c-0.2-0.2-0.5-0.3-0.9-0.3c-0.5-0.2-0.9-0.5-1.1-0.6c-0.2-0.2-0.5-0.3-0.6-0.3c-0.2,0-1.1-0.6-2.2-1.4
		c-1.1-0.8-2-1.4-2-1.4s-0.3-0.3-0.8-0.5c-0.3-0.3-1.7-1.6-2.8-2.7c-1.3-1.3-2.2-2.4-2.2-2.4c0-0.2-0.3-0.5-0.6-0.8
		c-0.3-0.3-0.6-0.6-0.6-0.8s-0.5-0.8-0.9-1.4c-0.5-0.6-1.1-1.7-1.4-2.2c-0.3-0.6-0.8-1.6-1.1-2.4c-0.3-0.6-0.8-1.4-0.9-1.7
		c-0.2-0.3-0.5-0.9-0.8-1.4c-0.2-0.5-0.6-1.4-0.8-2c-0.2-0.6-0.3-1.3-0.5-1.4c-0.2-0.2-0.3-0.8-0.5-1.4c-0.2-0.6-0.5-1.9-0.8-2.8
		c-0.5-1.6-0.5-2-0.5-6.9c0-3.8,0.2-5.8,0.3-7.4c0.2-1.1,0.5-2.7,0.6-3.5c0.2-0.8,0.6-2.4,1.1-3.5c0.3-1.1,0.8-2.2,0.9-2.5
		c0.2-0.2,0.3-0.5,0.3-0.6s0.3-1.1,0.8-1.9c0.5-0.9,0.9-2,1.3-2.5c0.3-0.8,0.3-0.9,0.2-1.3c-0.2-0.2-0.6-0.3-1.4-0.5
		c-0.6-0.2-1.3-0.2-1.3,0s-0.5,0.2-0.8,0.2s-0.8,0.2-0.9,0.2c-0.2,0.2-0.6,0.3-1.1,0.3s-1.3,0.3-1.9,0.6c-0.6,0.3-1.4,0.6-1.9,0.8
		c-0.5,0.2-1.9,1.1-3,1.9s-2.2,1.6-2.5,1.7c-0.3,0.2-1.3,0.9-2,1.9c-0.8,0.9-2,2.2-2.5,2.8s-1.3,1.7-1.6,2.2
		c-0.3,0.5-0.8,1.3-1.1,1.7c-0.3,0.3-0.8,1.6-1.3,2.7c-0.5,1.1-0.9,2.2-0.9,2.5c-0.2,0.3-0.3,1.3-0.6,2.2c-0.2,0.9-0.3,1.7-0.5,1.9
		c0,0.2-0.2,0.6-0.2,1.3c0,0.6-0.2,1.3-0.2,1.7s-0.2,1.4-0.2,2s-0.2,2-0.2,3s0,2.5,0.2,3.5c0,0.9,0.2,2,0.3,2.4c0,0.5,0.3,1.4,0.5,2
		c0.2,0.8,0.5,2.2,0.6,3.2c0.2,1,0.6,2.5,0.8,3.3s0.6,1.9,0.8,2.2c0.2,0.5,0.3,0.9,0.3,0.9c0,0.2,0.2,0.5,0.3,0.8
		c0.2,0.3,0.3,0.9,0.5,1.3c0.2,0.5,0.3,0.9,0.5,1.1c0.2,0.2,0.3,0.5,0.3,0.6c0,0.2,0.3,1.1,0.8,2s0.9,1.7,0.9,1.9
		c0,0,0.2,0.5,0.3,0.8s0.3,0.8,0.5,0.9c0.2,0.2,0.3,0.5,0.3,0.5c0,0.2,0.5,1.1,1.3,2.2c0.6,1.1,1.3,2,1.3,2s0.2,0.3,0.5,0.8
		s0.6,0.8,0.6,0.8c0.2,0.2,0.3,0.3,0.3,0.3c0,0.2,0.5,0.8,0.9,1.4c0.5,0.6,1.3,1.6,1.6,2.2c0.3,0.5,0.8,1.1,1.1,1.4
		c0.2,0.3,0.6,0.8,1.1,1.3c0.3,0.5,0.9,1.1,1.3,1.6c0.3,0.5,2.4,2.4,4.4,4.4s4.1,4.1,4.7,4.7c0.6,0.5,1.1,0.9,1.1,0.9
		s0.8,0.5,1.6,1.1c0.8,0.6,1.6,1.3,1.7,1.4c0.2,0.2,0.5,0.5,0.6,0.8c0.2,0.3,0.3,0.8,0.3,0.9c0,0.3-0.2,0.6-0.5,0.8
		c-0.2,0.2-0.6,0.5-0.9,0.5s-0.8-0.2-1.1-0.5c-0.3-0.2-0.5-0.5-0.6-0.5c-0.2,0-0.5-0.2-0.8-0.5s-0.8-0.8-1.1-0.9
		c-0.3-0.3-0.6-0.5-0.8-0.5c-0.2,0-0.8-0.5-1.6-1.3c-0.8-0.6-1.4-1.3-1.4-1.3c-0.2,0-0.5-0.3-0.8-0.6s-1.3-1.3-1.9-1.9
		c-0.6-0.6-1.4-1.3-1.4-1.3c-0.2,0-0.5-0.3-0.9-0.8s-0.8-0.8-0.9-0.8c-0.2,0-1.4-1.3-2.8-2.8c-1.4-1.6-3-3.2-3.3-3.6
		c-0.3-0.5-0.9-1.4-1.6-2c-0.6-0.6-1.3-1.6-1.6-2c-0.3-0.5-0.9-1.3-1.3-1.7c-0.3-0.5-0.6-0.9-0.8-1.1c-0.2-0.2-0.5-0.8-0.9-1.4
		c-0.5-0.8-1.1-1.6-1.4-2c-0.3-0.5-0.6-0.9-0.8-1.3c0-0.3-0.3-0.8-0.5-1.1s-0.6-1.3-0.9-2c-0.3-0.8-0.9-1.9-1.1-2.5
		c-0.3-0.5-0.6-1.4-0.9-2s-0.6-1.6-0.8-2.2c-0.2-0.6-0.3-1.1-0.3-1.3c0,0-0.3-0.9-0.6-1.9c-0.3-0.9-0.6-2.4-0.8-2.8
		c-0.2-0.6-0.3-1.3-0.5-1.3c-0.2-0.2-0.3-0.9-0.5-1.9c-0.2-0.9-0.5-2.7-0.6-3.8c-0.2-1.1-0.5-3.5-0.5-5c-0.2-1.6-0.2-3.9-0.2-5
		s0.2-3.2,0.2-4.4c0.2-1.3,0.3-2.7,0.3-3.2s0.2-0.9,0.2-1.1c0-0.2,0.3-1.3,0.5-2.5c0.2-1.3,0.5-2.2,0.6-2.4c0.2-0.2,0.3-0.5,0.3-0.9
		c0.2-0.3,0.3-1.1,0.6-1.6c0.3-0.5,0.5-1.1,0.5-1.3s0.2-0.5,0.3-0.8c0.2-0.2,0.5-0.8,0.6-1.1c0.2-0.5,0.5-0.8,0.5-0.9
		s0.5-0.8,0.9-1.6c0.5-0.8,0.9-1.4,1.1-1.6s0.5-0.8,0.9-1.4c0.5-0.6,0.9-1.3,0.9-1.3c0.2,0,0.2-0.2,0.2-0.2c0-0.2,0.5-0.8,1.1-1.6
		c0.6-0.8,1.6-1.9,2-2.4s1.6-1.4,2.4-2.2c0.8-0.6,2.2-1.6,3-2s2-1.1,2.8-1.6s2.2-0.9,3-1.3c0.8-0.3,2.7-0.6,4.1-0.9
		c1.3-0.2,3-0.5,3.9-0.6c0.9-0.2,2-0.2,2.7-0.2c0.6,0,1.1,0.2,1.1,0.2c0,0.2,0.5,0.2,0.9,0.2s1.6,0.2,2.2,0.2c0.9,0.2,1.6,0.2,1.9,0
		s1.9-1.6,3.6-3.2s3.3-3.2,3.8-3.5c0.3-0.3,0.8-0.6,1.1-0.8c0.2-0.2,0.6-0.5,0.8-0.8c0.2-0.3,0.6-0.5,0.6-0.5c0.2,0,0.6-0.5,1.3-0.9
		c0.6-0.6,1.3-1.1,1.6-1.1c0.3,0,0.5-0.2,0.5-0.3c0-0.2,0.2-0.3,0.3-0.3s0.9-0.6,1.7-1.1c0.8-0.6,1.6-1.1,1.9-1.3
		c0.3-0.2,1.1-0.6,1.7-1.1s1.6-1.1,1.9-1.4s0.8-0.8,0.8-0.9c0.2-0.2,0.3-0.6,0.5-0.9s0.6-1.1,0.9-1.7c0.3-0.8,0.8-1.4,0.8-1.6
		c0.2-0.2,0.3-0.5,0.3-0.6c0.2-0.2,0.3-0.6,0.6-0.9c0.2-0.3,0.6-1.1,0.9-1.7s0.8-1.6,1.1-1.9c0.3-0.3,0.6-0.9,0.8-1.3
		c0.2-0.3,0.5-0.8,0.8-1.3s0.6-0.8,0.6-0.8s0.6-0.9,1.3-1.7c0.6-0.9,1.4-1.9,1.6-2c0.2-0.3,0.6-0.8,0.9-1.3s0.9-1.4,1.4-2
		c0.6-0.9,0.8-1.4,0.8-1.7c0-0.3-0.9-1.4-2-2.4c-1.1-1.1-1.9-1.9-2-1.9c-0.2,0-0.5-0.3-0.9-0.6c-0.5-0.3-0.9-0.9-1.3-1.3
		c-0.3-0.3-0.6-0.5-0.6-0.5c-0.2,0-0.9-0.5-1.9-1.1c-0.9-0.6-2.2-1.4-2.7-1.7c-0.5-0.3-1.1-0.6-1.3-0.8s-0.6-0.5-1.3-0.6
		c-0.5-0.3-2-0.9-3.5-1.6c-1.4-0.6-2.7-1.3-2.8-1.3c-0.2,0-0.5-0.2-0.8-0.3c-0.3-0.2-0.8-0.3-1.3-0.5c-0.3,0-0.9-0.3-1.3-0.5
		c-0.3-0.2-0.9-0.3-1.4-0.5s-1.1-0.3-1.4-0.5s-0.6-0.2-0.9-0.2s-0.9-0.2-1.6-0.3c-0.6-0.2-1.6-0.5-2.2-0.5c-0.5-0.2-1.6-0.2-2.4-0.3
		c-0.8,0-3.2-0.2-5.2-0.2c-2.7,0-4.7,0-6.8,0.2c-1.6,0.2-3.2,0.5-3.3,0.5c-0.2,0.2-0.5,0.2-0.6,0.2c-0.2,0-0.8,0-1.6,0.2
		c-0.6,0.2-1.7,0.3-2.4,0.5c-0.6,0.2-1.4,0.3-1.6,0.5c-0.3,0.2-0.6,0.3-0.8,0.3c-0.2,0-0.3,0-0.5,0.2c-0.2,0-1.1,0.3-1.9,0.6
		c-0.9,0.3-1.7,0.5-1.9,0.5s-0.6,0.2-1.3,0.5c-0.6,0.3-1.3,0.5-1.6,0.6c-0.3,0.2-0.9,0.3-1.4,0.6c-0.5,0.3-0.9,0.5-1.1,0.5
		s-1.1,0.5-2,0.9c-0.9,0.6-2.2,1.3-2.8,1.6c-0.6,0.3-1.1,0.6-1.3,0.8c0,0-0.5,0.3-0.8,0.5s-1.1,0.6-1.7,1.1
		c-0.6,0.3-1.1,0.8-1.3,0.9c-0.2,0.2-0.3,0.3-0.5,0.3s-0.5,0.2-0.8,0.5s-1.3,0.9-1.9,1.4c-0.8,0.5-1.6,1.1-1.7,1.4
		c-0.3,0.3-1.1,0.9-1.7,1.4s-2.4,2.2-3.9,3.6c-1.4,1.4-3.2,3.3-3.8,3.9c-0.6,0.6-1.3,1.4-1.4,1.7c-0.2,0.3-0.8,0.9-1.3,1.6
		c-0.5,0.6-1.3,1.7-1.9,2.5c-0.5,0.8-1.1,1.6-1.3,1.6s-0.3,0.2-0.3,0.3c0,0.2-0.5,0.9-1.1,1.9c-0.6,0.9-1.4,2.4-1.9,3.2
		c-0.5,0.8-0.9,1.7-1.1,2s-0.8,1.7-1.6,3.2c-0.6,1.4-1.4,3.2-1.6,3.9c-0.3,0.8-0.5,1.6-0.6,1.7c-0.2,0.2-0.5,1.3-0.6,2.2
		c-0.3,0.9-0.6,2.5-0.9,3.5c-0.2,0.9-0.6,3-0.9,4.7c-0.3,1.6-0.6,4.1-0.8,5.3c-0.5,0.6-0.5,1.9-0.5,2.2s0,1.4-0.2,2.4
		c-0.2,1.1-0.2,3.9,0,7.2c0.2,3,0.3,6,0.5,6.8s0.3,2.2,0.5,3.3s0.3,2.5,0.5,3.2c0.2,0.6,0.3,1.6,0.3,2.4c0.2,0.6,0.3,2.2,0.5,3.3
		s0.3,2.2,0.3,2.4c0.2,0.2,0.3,0.9,0.5,1.9c0.2,0.9,0.5,2.7,0.8,3.9c0.3,1.3,0.8,3,0.9,3.9c0.3,0.9,0.6,2.4,0.8,3
		c0.2,0.6,0.3,1.4,0.5,1.7c0,0.3,0.2,0.6,0.3,0.6c0.2,0.2,0.5,1.3,0.9,2.4c0.5,1.3,0.8,2.4,0.9,2.5c0.2,0.2,0.3,0.9,0.6,1.6
		c0.3,0.6,0.5,1.6,0.8,2c0.2,0.5,0.5,1.4,0.8,2s0.6,1.4,0.8,1.7c0.2,0.3,0.3,0.8,0.3,0.9s0.2,0.3,0.2,0.5c0.2,0,0.2,0.3,0.2,0.5
		s0.2,0.5,0.3,0.6c0.2,0.2,0.6,1.1,1.1,2s1.3,2.5,1.7,3.5c0.5,0.9,0.9,1.7,0.9,1.9c0,0,0.5,0.9,1.1,1.9c0.6,0.9,1.4,2.4,1.7,3.2
		c0.5,0.8,0.9,1.6,1.1,1.9c0.2,0.3,0.5,0.6,0.5,0.6c0,0.2,0.3,0.6,0.6,0.9c0.3,0.5,1.1,1.6,1.6,2.4c0.5,0.8,1.1,1.6,1.1,1.7
		c0,0,0.3,0.5,0.6,0.9c0.3,0.5,0.6,0.9,0.6,0.9s0.3,0.5,0.6,0.9c0.3,0.5,0.9,1.3,1.1,1.6c0.3,0.3,0.9,1.3,1.4,1.9
		c0.5,0.6,1.1,1.4,1.4,1.9c0.3,0.3,1.4,1.7,2.5,3.2c1.1,1.3,2.5,3.2,3.3,3.9c0.8,0.8,1.4,1.6,1.4,1.6s2.2,2.4,5,5.2s6.1,6,7.4,6.9
		c1.3,1.1,2.8,2.4,3.3,2.8c0.5,0.5,1.1,0.9,1.4,1.3c0.3,0.2,1.4,1.1,2.4,1.7c0.9,0.8,1.9,1.4,2,1.6c0.2,0.2,0.5,0.3,0.6,0.5
		c0.2,0.2,1.3,0.9,2.2,1.6c1.1,0.8,2,1.4,2,1.4s0.2,0.2,0.3,0.3c0.2,0.2,1.3,0.9,2.5,1.7c1.3,0.8,2.7,1.6,2.8,1.7
		c0.3,0.2,1.4,0.8,2.4,1.4c0.9,0.6,3.5,2,5.3,3s3.8,1.9,4.2,2c0.5,0.2,1.7,0.8,3,1.4c1.3,0.5,2.7,1.3,3.3,1.6
		c0.6,0.3,1.3,0.6,1.4,0.6c0.2,0,0.8,0.3,1.4,0.6s2,0.8,3.3,1.3c1.3,0.3,2.4,0.8,2.5,0.9c0.2,0.2,0.8,0.3,1.3,0.5s0.9,0.3,1.3,0.5
		c0.2,0.2,1.1,0.5,1.7,0.6c0.8,0.3,2,0.6,2.7,0.8c0.8,0.2,1.4,0.3,1.4,0.5c0.2,0.2,1.9,0.5,3.8,0.9c2,0.5,3.8,0.9,4.1,1.1
		c0.3,0.2,0.6,0.2,0.9,0.2s0.5,0.2,0.6,0.2c0.2,0.2,1.1,0.3,2.4,0.6c1.1,0.2,2.2,0.5,2.4,0.5c0.2,0,0.8,0.2,1.4,0.2s1.7,0.2,2.2,0.3
		c0.5,0.2,1.3,0.3,1.7,0.3c0.5,0.2,1.9,0.3,3,0.5s2.2,0.3,2.4,0.5c0.2,0.2,1.6,0.3,3.3,0.5c1.7,0.2,4.4,0.3,6,0.5
		C490,648.3,493.8,648.3,497,648.3L497,648.3z M537.2,637.2c2.7,0,4.6-0.2,4.7-0.3c0.2-0.2,2-0.5,4.2-0.6c2-0.3,3.9-0.5,3.9-0.6
		c0.2-0.2,0.6-0.2,1.1-0.3c0.5,0,1.3-0.2,1.7-0.2s0.8-0.2,0.9-0.3c0,0,0.8-0.3,1.7-0.6s2-0.6,2.7-0.8c0.6-0.2,1.4-0.5,1.7-0.6
		c0.3-0.2,1.3-0.6,2-0.9c0.8-0.3,1.4-0.6,1.6-0.6c0.2,0,0.3-0.2,0.5-0.2c0-0.2,0.6-0.5,1.4-0.8c0.6-0.3,1.6-0.6,1.9-0.8
		s1.6-0.6,2.8-1.4c1.3-0.6,2.8-1.4,3.5-1.9c0.6-0.3,1.4-0.8,1.9-0.9c0.3-0.2,0.6-0.3,0.6-0.5s0.3-0.3,0.6-0.5s0.6-0.3,0.8-0.5
		c0,0,0.6-0.5,1.4-1.1c0.6-0.5,1.4-0.9,1.6-0.9c0.2,0,0.3-0.2,0.5-0.3c0.2-0.2,0.5-0.5,0.8-0.6c0.3-0.2,0.6-0.5,0.8-0.5
		c0.2-0.2,0.8-0.6,1.3-0.9c0.5-0.3,0.9-0.6,1.1-0.6c0.2,0,0.3-0.2,0.5-0.5c0.2-0.2,0.3-0.5,0.5-0.5s0.8-0.5,1.6-1.1s1.9-1.6,2.7-2
		c0.6-0.5,1.3-0.9,1.4-1.1c0.2,0,0.8-0.6,1.4-1.3c0.6-0.6,1.4-1.3,1.7-1.4c0.3-0.2,1.6-1.3,2.7-2.4c1.1-1.1,2.4-2.2,2.5-2.5
		c0.2-0.3,0.6-0.6,0.9-0.9c0.3-0.2,0.9-0.9,1.7-1.7c0.6-0.6,1.9-1.9,2.7-2.7s2-2,2.7-2.8c0.8-0.8,1.7-1.9,2-2.4
		c0.5-0.5,0.9-1.3,1.3-1.6c0.3-0.3,0.6-0.9,0.9-1.1c0.2-0.3,1.1-1.4,2-2.7c0.8-1.1,1.9-2.5,2.4-3.2c0.5-0.6,1.3-1.7,1.9-2.5
		c0.5-0.8,0.9-1.6,0.9-1.6s0.3-0.5,0.6-1.1s0.6-0.9,0.8-1.1c0-0.2,0.5-0.8,0.8-1.4c0.5-0.6,1.1-1.7,1.6-2.4c0.3-0.6,0.9-1.6,1.3-2
		c0.3-0.5,0.6-1.3,0.9-1.4c0.3-0.3,0.5-0.6,0.5-0.8s0.2-0.6,0.5-1.1c0.2-0.5,0.5-0.9,0.5-1.1c0-0.2,0.2-0.2,0.2-0.2
		c0.2,0,0.6-0.8,0.9-1.7c0.5-0.9,0.8-1.9,0.8-2c0-0.2,0-0.3,0.2-0.3s0.3-0.5,0.6-1.1s0.8-1.7,1.3-2.7c0.5-0.9,0.9-2,1.1-2.5
		c0.2-0.5,0.5-0.9,0.5-1.1c0,0,0.2-0.6,0.5-1.3c0.3-0.6,0.5-1.1,0.5-1.3c0,0,0.2-0.5,0.3-0.8c0.2-0.3,0.6-1.6,0.9-2.7
		c0.3-1.1,0.9-2.5,1.1-3.2c0.2-0.6,0.5-1.3,0.6-1.4c0.2-0.2,0.3-0.8,0.3-1.3c0.2-0.5,0.3-1.3,0.5-1.6s0.5-1.6,0.8-2.7s0.6-2,0.6-2.2
		c0.2-0.2,0.2-0.5,0.3-0.8c0-0.3,0.3-1.1,0.5-1.9c0.2-0.8,0.5-2,0.6-2.8c0.2-0.8,0.5-1.7,0.5-1.7c0.2-0.2,0.3-0.8,0.3-1.4
		c0.2-0.8,0.3-2,0.5-3c0.2-0.9,0.3-2.4,0.5-3.3c0.2-0.9,0.3-2.2,0.3-3s0.2-1.4,0.3-1.7c0.2-0.2,0.3-1.4,0.3-2.8
		c0-1.4,0.3-3.5,0.3-4.7c0-1.3,0.2-2.5,0.3-2.7c0.2-0.2,0.2-3.2,0.2-7.5c0-4.6,0-7.4-0.2-7.5c-0.2-0.2-0.3-1.4-0.3-2.8
		s-0.3-3.8-0.5-5c-0.2-1.4-0.5-3.3-0.6-4.4c-0.2-1.1-0.5-2.5-0.5-3.2c-0.2-0.6-0.3-1.7-0.5-2.4c-0.2-0.6-0.3-1.6-0.3-2
		c-0.2-0.5-0.3-1.7-0.6-2.8c-0.3-1.1-0.5-2.2-0.6-2.4c-0.2-0.2-0.5-1.3-0.6-2.4c-0.3-1.1-0.6-2.5-0.8-3.3s-0.3-1.6-0.5-1.7
		c-0.2-0.2-0.3-0.9-0.6-1.6c-0.3-0.6-0.5-1.6-0.6-2.2c-0.2-0.5-0.6-2.2-1.3-3.8c-0.6-1.6-1.3-3.2-1.4-3.5c-0.2-0.3-0.5-1.1-0.6-1.7
		c-0.3-0.6-0.6-1.4-0.8-1.9s-0.6-1.3-0.8-1.9c-0.3-0.6-0.8-1.7-1.3-2.5s-0.8-1.6-0.8-1.7c0-0.2-0.5-1.3-1.3-2.7
		c-0.6-1.3-1.4-2.7-1.6-3c-0.2-0.3-0.5-0.9-0.8-1.3c-0.2-0.3-0.6-1.3-0.9-1.9c-0.3-0.6-0.8-1.3-0.9-1.6c-0.2-0.2-0.3-0.3-0.3-0.5
		s-0.2-0.3-0.3-0.6c-0.2-0.3-0.6-0.9-0.9-1.6c-0.3-0.6-0.8-1.1-0.9-1.1s-0.3,0-0.3,0.2s-0.2,3.2-0.2,6.6c0,3.8,0,6.5-0.2,6.6
		c-0.2,0.2-0.3,1.3-0.3,2.5c0,1.3-0.2,3-0.3,3.8c-0.2,0.8-0.3,2-0.5,2.7c-0.2,0.6-0.3,1.7-0.5,2.5s-0.3,1.6-0.3,1.7
		c-0.2,0.2-0.3,1.3-0.6,2.5c-0.2,1.3-0.5,2.4-0.6,2.8c-0.2,0.3-0.6,1.6-0.9,2.7c-0.3,1.1-0.8,2.2-0.8,2.2c-0.2,0.2-0.2,0.3-0.2,0.5
		s-0.3,0.9-0.6,1.9c-0.3,0.9-0.8,1.9-0.9,2.2c-0.2,0.3-0.3,0.6-0.3,0.8c0,0.2-0.6,1.4-1.4,3c-0.8,1.6-1.9,3.6-2.4,4.4
		s-1.1,1.9-1.3,2c-0.2,0.3-0.5,0.6-0.6,0.8c-0.2,0.2-0.3,0.5-0.3,0.6c0,0.2-0.6,1.1-1.4,2c-0.8,0.9-1.7,2-1.9,2.5
		c-0.3,0.3-2,2.2-3.9,4.1s-3.8,3.6-4.2,3.9c-0.5,0.3-0.9,0.6-1.3,0.8c-0.3,0.2-0.6,0.6-0.9,0.8c-0.3,0.2-0.6,0.5-0.6,0.5
		s-0.6,0.3-1.1,0.6c-0.5,0.3-1.1,0.6-1.1,0.6c-0.2,0-0.2,0-0.2,0.2s-0.2,0.3-0.3,0.3c-0.2,0.2-1.1,0.6-2,1.3
		c-0.9,0.6-1.9,1.3-2.4,1.4c-0.3,0.2-0.8,0.3-0.9,0.5c-0.2,0.2-0.8,0.5-1.4,0.6c-0.6,0.3-1.3,0.6-1.4,0.8c-0.2,0.2-0.6,0.3-1.1,0.5
		s-1.1,0.5-1.6,0.6c-0.5,0.2-0.9,0.3-1.1,0.3c-0.2,0-0.9,0.3-1.6,0.6c-0.6,0.3-1.4,0.6-1.6,0.5c-0.2,0-0.8,0-1.3,0.2s-1.4,0.5-2,0.5
		c-0.6,0.2-1.3,0.3-1.3,0.3c-0.2,0.2-0.8,0.3-1.4,0.5c-0.6,0.2-1.6,0.3-2,0.5c-0.5,0-0.9,0.3-1.1,0.5c-0.3,0.3-0.3,0.5,0,0.9
		c0.2,0.3,0.8,0.8,1.3,1.1c0.5,0.3,1.1,0.8,1.3,0.8c0.2,0.2,0.9,0.6,1.6,1.1c0.8,0.5,2,1.7,3.2,2.7c1.1,0.9,1.9,2.2,2.2,2.5
		c0.2,0.5,0.5,0.8,0.5,0.8c0.2,0,0.3,0.5,0.6,0.9c0.2,0.5,0.5,1.1,0.6,1.3c0.2,0.2,0.5,0.6,0.6,0.9c0.2,0.3,0.8,2,1.4,3.8
		c0.6,1.7,1.1,3.6,1.3,4.2c0,0.5,0.2,2.2,0.3,3.6c0.2,2,0.2,3.3-0.2,5.8c-0.2,1.7-0.3,3.5-0.5,3.9c0,0.3-0.2,0.9-0.3,1.1
		c-0.2,0.2-0.3,1.1-0.5,1.9c-0.2,0.8-0.6,2-0.8,2.8c-0.3,0.8-0.6,1.7-0.9,2.4c-0.3,0.6-0.5,1.1-0.5,1.3s-0.2,0.3-0.2,0.3
		c-0.2,0.2-0.5,0.9-0.9,1.7c-0.5,0.8-0.9,1.9-1.3,2.2s-0.5,0.8-0.5,0.8s-0.2,0.5-0.5,0.8s-1.1,1.4-1.7,2.4c-0.8,0.9-1.7,2-2,2.5
		s-1.3,1.3-1.9,1.7c-0.6,0.5-1.9,1.6-2.8,2.4c-0.9,0.8-1.9,1.6-2.2,1.6c-0.3,0.2-0.5,0.3-0.5,0.3s-1.3,0.8-3,1.4
		c-1.7,0.6-3,1.4-3,1.6c0,0-1.1,0.5-2.2,0.9c-1.1,0.5-2.2,0.8-2.4,0.8s-0.5,0.2-0.8,0.3c-0.3,0.2-2,0.6-3.8,1.1
		c-2.7,0.6-3.5,0.8-5.7,0.9c-1.4,0-2.7,0.2-2.8,0.3c-0.2,0.2-0.5,0.2-0.8,0.2s-0.6,0.2-0.9,0.3c-0.2,0.2-0.3,0.5-0.2,0.8
		c0,0.3,0.9,1.3,1.7,2.2c0.9,0.9,2,1.9,2.4,2c0.5,0.2,0.8,0.5,0.8,0.5c0,0.2,0.2,0.2,0.3,0.2c0.2,0,0.3,0.2,0.5,0.3
		c0.2,0.2,0.6,0.5,0.9,0.6c0.3,0.2,0.8,0.5,0.9,0.6c0.2,0.2,0.6,0.5,1.1,0.8s0.9,0.6,0.9,0.8c0,0,0.5,0.2,0.8,0.3
		c0.3,0.2,1.6,0.5,2.5,0.8c1.1,0.3,2.2,0.5,2.5,0.6c0.3,0,2.2,0.2,4.2,0.2c3.2,0,4.1,0,6.6-0.5c1.6-0.3,3.6-0.8,4.4-0.9
		c0.8-0.3,2.4-0.8,3.3-1.3c1.1-0.5,2.4-0.9,2.8-1.1c0.5-0.2,1.1-0.5,1.3-0.5s1.1-0.6,2-1.3c0.9-0.6,2-1.3,2.4-1.4
		c0.3-0.2,0.6-0.5,0.8-0.6c0-0.2,0.2-0.3,0.3-0.3c0.2,0,0.6-0.3,1.1-0.6s0.9-0.8,1.3-0.8c0.2-0.2,0.8-0.5,1.4-0.9
		c0.6-0.5,1.1-0.8,1.1-0.9c0-0.2,0.2-0.2,0.2-0.2c0.2,0,1.1-0.9,2-2c1.1-1.1,2-2.2,2.2-2.4s0.5-0.6,0.8-0.9c0.3-0.3,0.8-0.8,1.1-1.3
		s0.9-0.9,1.1-1.3c0.2-0.3,0.5-0.8,0.6-0.9c0.2-0.2,0.5-0.6,0.8-0.8s0.5-0.5,0.5-0.6c0-0.2,0.2-0.5,0.5-0.8s0.9-1.3,1.6-2.2
		c0.6-0.9,1.1-1.7,1.1-1.9s0.2-0.2,0.2-0.2c0.2,0,0.3-0.3,0.5-0.6s0.5-0.9,0.6-1.3c0.3-0.3,0.6-0.9,0.8-1.3c0.2-0.3,0.8-1.4,1.4-2.5
		c0.6-1.1,1.1-2,1.3-2.4c0-0.2,0.3-0.8,0.6-1.4c0.3-0.6,0.6-1.6,0.9-2c0.2-0.5,0.5-1.3,0.6-1.6c0.2-0.3,0.3-1.3,0.6-1.9
		c0.2-0.6,0.5-1.3,0.6-1.4c0.2-0.2,0.3-0.8,0.5-1.3s0.3-1.4,0.5-1.9s0.5-1.9,0.8-3s0.8-3.2,1.1-4.4c0.3-1.4,0.6-3.2,0.6-3.8
		c0.2-0.8,0.5-1.7,0.6-2.4l0.5-1.1h1.1c0.9,0,1.1,0,1.4,0.6c0.2,0.3,0.3,0.9,0.3,1.7c0,0.6-0.2,1.4-0.2,1.6
		c-0.2,0.2-0.3,1.3-0.5,2.4c-0.2,1.1-0.5,3-0.8,3.9s-0.5,2.2-0.6,2.5c-0.2,0.3-0.3,1.1-0.5,1.7c-0.2,0.6-0.5,1.9-0.8,2.7
		s-0.6,1.7-0.6,1.9c-0.2,0.2-0.5,1.4-0.9,2.7c-0.5,1.3-1.1,3-1.4,3.8c-0.5,0.8-0.9,1.9-1.1,2.4c-0.2,0.5-0.6,1.3-0.8,1.7
		s-0.6,1.3-0.8,1.7c-0.2,0.5-0.5,1.1-0.6,1.3c-0.2,0.2-0.3,0.6-0.5,0.9c-0.2,0.3-0.3,0.8-0.5,0.9c-0.2,0.2-0.5,0.6-0.6,0.9
		c-0.3,0.3-0.6,1.1-0.8,1.4c-0.2,0.5-0.5,0.8-0.5,0.8c-0.2,0-0.2,0.2-0.2,0.2c0,0.2-0.3,0.8-0.8,1.4c-0.5,0.6-1.3,1.7-1.6,2.5
		s-0.8,1.3-0.9,1.3s-0.3,0.3-0.5,0.8s-0.8,1.1-1.3,1.7c-0.5,0.5-0.8,0.9-0.8,1.1c0,0.2-0.2,0.3-0.5,0.6c-0.3,0.2-0.8,0.8-1.1,1.3
		s-1.1,1.3-1.7,1.9c-0.5,0.5-1.4,1.4-1.9,1.9s-1.6,1.4-2.5,2.2c-0.8,0.8-2,1.7-2.5,2.2s-0.9,0.9-0.9,1.1c0,0.2-0.2,0.2-0.3,0.2
		c-0.2,0-0.5,0.2-0.8,0.3c-0.3,0.2-0.6,0.5-0.8,0.5c-0.2,0.2-0.8,0.6-1.6,1.1s-1.4,0.9-1.4,0.9s-0.6,0.3-1.3,0.8
		c-0.6,0.5-1.6,0.9-2,1.3c-0.5,0.2-0.9,0.5-1.1,0.6c-0.2,0.2-0.8,0.5-1.3,0.6c-0.6,0.3-1.1,0.5-1.3,0.5s-0.6,0.2-1.1,0.5
		c-0.5,0.2-1.1,0.5-1.4,0.6c-0.2,0.2-0.9,0.3-1.6,0.6c-0.6,0.2-1.3,0.5-1.4,0.5c-0.2,0-0.6,0.2-0.9,0.3c-0.3,0.2-1.1,0.3-1.6,0.5
		s-0.9,0.2-1.1,0.2c0,0-0.3,0-0.5,0.2s-0.8,0.2-1.4,0.3c-0.6,0.2-1.1,0.2-1.3,0.2s-1.1,0.3-2.2,0.5c-1.3,0.2-3.2,0.3-4.9,0.3
		c-1.6,0-3.2,0-3.6-0.2c-0.3,0-1.3-0.3-1.7-0.5c-0.6-0.2-1.3-0.3-1.4-0.3c-0.2,0-0.6-0.2-0.8-0.3c-0.2-0.2-0.5-0.2-0.6-0.2
		c-0.2,0-0.6,0-1.1-0.3c-0.5-0.2-0.9-0.5-1.1-0.6c-0.2-0.2-0.3-0.3-0.5-0.3s-0.8-0.2-1.4-0.5c-0.6-0.3-2-0.9-3.2-1.6
		c-1.1-0.5-2-1.1-2-1.1c0-0.2-0.3-0.3-0.6-0.5s-0.6-0.5-0.6-0.5c0-0.2-0.2-0.2-0.3-0.2c-0.2,0-0.5-0.2-0.6-0.5
		c-0.2-0.3-0.5-0.5-0.6-0.5c-0.2,0-1.1-0.8-2-1.9c-0.9-0.9-1.9-2-2-2.4c-0.2-0.3-0.5-0.8-0.9-1.3c-0.3-0.5-0.8-1.1-1.1-1.4
		c-0.2-0.3-0.9-1.7-1.6-3.2c-0.9-1.9-1.4-2.5-1.9-2.8c-0.3-0.2-1.1-0.5-1.4-0.5c-0.5,0-0.8-0.2-0.9-0.2c-0.2,0-0.8-0.3-1.4-0.5
		c-0.6-0.2-1.3-0.3-1.6-0.5c-0.2-0.2-0.9-0.3-1.6-0.5c-0.6-0.2-1.4-0.3-1.6-0.3c-0.2,0-0.5,0-0.5-0.2s-0.6-0.3-1.3-0.5
		c-0.6-0.2-1.6-0.5-1.9-0.8c-0.3-0.3-0.8-0.3-1.1-0.3c-0.2,0-0.6-0.2-1.1-0.3c-0.5-0.2-0.9-0.5-1.3-0.5c-0.3-0.2-0.8-0.3-1.3-0.6
		c-0.3-0.2-0.9-0.5-1.3-0.5c-0.3,0-1.3-0.5-2.2-0.9l-1.7-0.8l-5.8-0.2c-3.3-0.2-6.6-0.2-7.4-0.3c-0.9,0-1.9-0.2-2.4-0.2
		c-0.3,0-0.9-0.2-1.3-0.2c-0.3,0-0.8-0.2-0.9-0.2s-1.3-0.2-2.5-0.3c-1.3-0.2-2.8-0.3-3.6-0.5c-0.8-0.2-2.5-0.5-3.8-0.6
		c-1.7-0.3-2.4-0.3-2.7-0.2c-0.2,0.2-0.6,0.6-0.8,1.1c-0.2,0.5-0.6,1.7-0.8,2.8c-0.2,1.1-0.5,3.2-0.6,4.4c-0.2,1.4-0.2,4.2-0.2,6.3
		s0.2,4.7,0.2,5.8s0.5,3.2,0.6,4.2c0.2,1.3,0.5,2.4,0.6,2.5c0.2,0.2,0.5,1.4,0.9,2.8s0.9,2.8,1.3,3.5c0.3,0.6,0.5,1.1,0.5,1.3
		s0.6,1.6,1.6,3.3c0.8,1.7,2.2,3.9,3,5.2c0.8,1.1,1.6,2.2,1.6,2.4c0.2,0.2,0.5,0.6,0.9,1.3c0.5,0.5,0.9,1.3,1.1,1.4
		c0.2,0.3,0.9,0.9,1.4,1.7c0.6,0.6,1.9,2,3,3c0.9,0.9,2.5,2.4,3.2,3c0.8,0.6,1.9,1.7,2.7,2.4c0.8,0.6,1.4,1.3,1.6,1.4
		c0.2,0.2,0.3,0.3,0.3,0.3s0.9,0.5,1.9,1.1c0.9,0.6,2.2,1.4,2.7,1.7s1.3,0.6,1.6,0.8c0.3,0.2,1.4,0.6,2.4,1.1
		c0.9,0.5,1.7,0.9,1.7,0.9s0.6,0.3,1.3,0.5c0.6,0.2,1.6,0.6,2,0.8c0.5,0.2,1.1,0.5,1.3,0.5c0.2,0.2,1.1,0.5,2.2,0.8
		c1.1,0.3,2.7,0.8,3.5,1.1s2.2,0.6,3,0.6c0.8,0.2,1.6,0.3,1.6,0.3c0,0.2,0.5,0.2,1.1,0.3c0.6,0,1.6,0.2,2,0.3
		c0.5,0.2,2.2,0.5,3.8,0.6c1.6,0.2,3.3,0.5,3.9,0.5c0.6,0,1.1,0.2,1.3,0.2c0.2,0.2,0.9,0.2,1.9,0.3
		C533.2,636.3,534.9,637.2,537.2,637.2L537.2,637.2z M537.6,570.2c1.4,0,3-0.2,3.3-0.2s0.8-0.2,0.9-0.2c0.2-0.2,0.8-0.2,1.4-0.3
		c0.6,0,1.9-0.3,2.7-0.5s1.7-0.5,2-0.6c0.3-0.2,0.9-0.3,1.4-0.3s1.3-0.3,1.6-0.5s0.9-0.3,0.9-0.3s1.4-0.6,2.7-1.3
		c1.4-0.8,2.7-1.4,2.8-1.6c0.2-0.2,0.5-0.3,0.5-0.3c0.2,0,0.3-0.2,0.6-0.3c0.2-0.2,0.5-0.5,0.8-0.5c0.2,0,1.1-0.6,2-1.4
		c0.9-0.8,2.7-2.4,4.1-3.8c1.4-1.4,2.5-2.5,2.5-2.7s0.2-0.3,0.3-0.6c0.2-0.3,0.8-1.1,1.4-1.9c0.5-0.8,1.3-1.9,1.6-2.4
		s0.9-1.7,1.6-2.8c0.5-1.1,1.1-2.4,1.3-2.8c0.2-0.5,0.3-1.1,0.5-1.4c0.2-0.3,0.5-1.6,0.6-2.8c0.3-1.3,0.5-3.2,0.5-4.2
		c0-1.1,0-2.4-0.2-2.8c-0.2-0.5-0.3-1.9-0.5-3.2s-0.5-3-0.8-3.8s-0.6-1.6-0.6-1.6c-0.2-0.2-0.3-0.6-0.5-0.9
		c-0.2-0.5-0.5-1.1-0.6-1.4c-0.2-0.3-0.9-1.3-1.6-2c-0.6-0.8-1.7-1.9-2.5-2.7s-1.9-1.6-2.5-2c-0.6-0.5-1.6-0.9-2-1.3
		c-0.5-0.3-0.9-0.5-1.1-0.5c-0.2,0-0.3-0.2-0.5-0.3c-0.2-0.2-0.6-0.3-0.9-0.5c-0.5,0-0.9-0.2-1.3-0.3c-0.3-0.2-0.6-0.3-0.8-0.3
		c-0.2-0.2-0.6-0.2-0.8-0.2c-0.3,0-0.5-0.2-0.6-0.2c-0.2-0.2-1.1-0.3-2-0.5c-1.1-0.2-2.8-0.3-3.9-0.3c-1.1,0-2.5,0.2-3.3,0.3
		c-0.8,0.1-1.7,0.3-2.2,0.5s-1.3,0.5-1.6,0.6c-0.3,0.3-1.1,0.6-1.6,0.9c-0.5,0.3-1.1,0.8-1.6,1.1s-1.1,0.9-1.4,1.3
		c-0.3,0.3-0.8,0.8-0.9,1.1s-0.6,0.8-0.8,1.3c-0.3,0.5-0.6,1.1-0.8,1.4c-0.2,0.3-0.5,0.9-0.5,1.1c-0.2,0.2-0.3,0.9-0.6,1.7
		c-0.2,0.8-0.5,1.7-0.6,2.4c-0.2,0.6-0.3,2.4-0.5,4.7c-0.2,2-0.3,3.9-0.3,4.1c-0.2,0.2-0.5,0.5-0.9,0.6c-0.3,0.2-1.3,0.2-2,0.2
		c-0.8,0-2-0.2-2.8-0.3c-0.8-0.2-2.2-0.5-3-0.6c-0.9-0.2-1.9-0.6-2.2-0.8s-0.8-0.3-0.9-0.3s-0.5,0-0.5-0.2s-0.5-0.3-0.9-0.5
		c-0.5-0.2-1.6-0.6-2.4-1.1c-0.8-0.5-1.9-1.1-2.4-1.3s-1.4-0.9-2-1.4s-1.1-0.8-1.3-0.8s-0.2-0.2-0.2-0.3c0-0.2-0.2-0.3-0.3-0.5
		c-0.2-0.2-1.4-1.1-2.5-2.2c-1.3-1.1-2.4-2.4-2.8-2.7s-1.4-1.7-2.5-2.8s-2-2.5-2.2-2.8s-0.9-1.4-1.6-2.2s-1.6-2-1.9-2.5
		c-0.3-0.5-0.9-1.1-1.4-1.4c-0.6-0.3-1.1-0.5-3.2-0.5c-1.3,0-3.9,0-5.8,0s-4.2,0-5,0.2c-0.9,0-2.4,0.3-3.3,0.5s-2.5,0.5-3.6,0.8
		s-2,0.6-2,0.6c-0.2,0.2-0.8,0.3-1.6,0.6c-0.8,0.3-1.7,0.6-2.4,0.9c-0.5,0.3-1.4,0.8-2.2,1.3c-0.6,0.5-1.4,0.8-1.7,0.9
		c-0.3,0-1.1,0.6-2,1.4c-0.9,0.6-2,1.6-2.5,2c-0.5,0.5-0.9,0.9-0.9,1.1c0,0.2-0.2,0.3-0.3,0.5c-0.3,0.3-0.2,0.5,2,2.7
		c1.3,1.3,2.5,2.7,2.8,3s0.6,0.8,0.8,1.1c0.2,0.3,0.5,0.5,0.5,0.5c0.2,0,0.2,0.2,0.2,0.3c0,0.2,0.3,0.8,0.8,1.4
		c0.5,0.6,1.1,1.7,1.6,2.7c0.5,0.8,0.9,1.7,0.9,1.9s0.5,1.1,0.9,1.9c0.5,0.8,0.9,1.6,0.9,1.7c0.2,0,0.3,0.2,0.3,0.3
		c0,0.2,1.1,1.3,2.4,2.5c1.4,1.3,3,2.8,3.5,3.3c0.6,0.5,1.6,1.3,2,1.7c0.5,0.3,0.9,0.8,1.1,0.8s0.3,0.2,0.5,0.3
		c0.2,0.2,0.8,0.8,1.3,1.1c0.6,0.5,1.3,0.9,1.4,1.1c0.2,0.2,0.6,0.5,0.9,0.6c0.3,0.2,0.6,0.5,0.6,0.5c0,0.2,0.2,0.3,0.5,0.5
		s1.1,0.6,1.9,1.3c0.8,0.5,1.6,1.1,1.9,1.3s0.5,0.5,0.6,0.5c0,0.2,0.2,0.2,0.3,0.2c0.2,0,0.6,0.3,1.1,0.6s1.1,0.6,1.3,0.6
		c0.2,0,0.3,0,0.3,0.2s0.3,0.5,0.6,0.8s0.9,0.6,1.4,0.8s0.9,0.5,1.4,0.8s1.1,0.6,1.6,0.9c0.5,0.3,0.9,0.5,0.9,0.5
		c0.2,0,0.3,0.2,0.6,0.3c0.3,0.2,1.4,0.8,2.5,1.4c1.1,0.6,2.7,1.3,3.3,1.6c0.8,0.3,1.4,0.6,1.6,0.6s0.6,0.2,1.1,0.5s1.3,0.6,1.6,0.8
		s0.9,0.3,1.3,0.5c0.3,0.2,1.6,0.6,2.8,0.9c1.3,0.5,2.8,0.9,3.5,1.3c0.6,0.3,2,0.6,3.2,0.9c1.1,0.3,2,0.5,2.4,0.5
		c0.3,0,0.5,0.2,0.5,0.2c0,0.2,1.1,0.3,2.2,0.5c1.3,0.2,2.7,0.3,3.5,0.5c0.6,0,1.3,0.2,1.3,0.3c0,0.2,0.3,0.2,0.6,0
		c0.3,0,0.9,0,1.3,0.2C534.4,570.1,536.2,570.2,537.6,570.2L537.6,570.2z M558.2,531.2c-0.6,0-1.3-0.2-1.7-0.5
		c-0.5-0.2-1.1-0.8-1.6-1.1s-0.8-1.1-0.9-1.4c-0.2-0.5-0.2-1.1-0.2-1.4c0-0.3,0.2-0.9,0.2-1.4c0.2-0.3,0.3-0.8,0.3-0.8
		s0.3-0.3,0.5-0.6s0.8-0.6,1.6-0.9c0.6-0.3,1.6-0.5,1.9-0.5c0.5,0,1.3,0.2,1.7,0.5c0.5,0.3,1.3,0.8,1.4,1.1c0.2,0.3,0.5,0.9,0.6,1.4
		c0.2,0.5,0.2,1.1,0.2,1.7c0,0.5-0.3,1.4-0.5,1.9c-0.3,0.6-0.6,0.9-1.4,1.4C559.4,531.1,559,531.2,558.2,531.2L558.2,531.2z
		 M558,528.4c0.5,0,0.8-0.2,1.1-0.5c0.2-0.3,0.5-0.8,0.5-0.9c0-0.3-0.2-0.6-0.5-0.9c-0.3-0.3-0.6-0.5-1.1-0.5s-0.8,0.2-1.1,0.5
		c-0.2,0.3-0.5,0.8-0.5,0.9c0,0.3,0.2,0.6,0.5,0.9S557.5,528.4,558,528.4z M445,559.7c0.8,0,2.4-0.3,3.5-0.5s2.4-0.5,2.7-0.6
		c0.3-0.2,0.6-0.3,0.8-0.3s0.9-0.3,1.9-0.6c0.8-0.3,1.7-0.8,2.2-1.1s0.9-0.6,1.6-0.8c0.5-0.2,1.4-0.8,2-1.4c0.6-0.5,1.7-1.6,2.5-2.4
		c0.8-0.8,1.7-1.9,2-2.4s0.6-1.3,0.9-1.4c0.2-0.3,0.5-0.8,0.6-1.3c0.2-0.5,0.5-1.1,0.6-1.4c0.2-0.3,0.3-0.9,0.3-1.1
		c0-0.3,0.2-0.6,0.2-0.9c0.2-0.3,0.2-1.4,0.2-2.7c0-1.4-0.2-2.7-0.3-3.8c-0.2-0.9-0.6-2.2-0.9-2.8s-0.9-1.9-1.6-2.7
		c-0.5-0.8-1.7-2.2-2.5-3.2c-0.8-0.9-2-2-2.7-2.5c-0.6-0.5-1.7-1.1-2.5-1.6s-1.9-0.9-2.2-1.3c-0.5-0.3-0.9-0.6-0.9-0.8
		c-0.2-0.2-0.2-0.6-0.2-1.1c0-0.6,0.3-1.1,0.8-1.9c0.5-0.5,0.8-1.1,0.9-1.3c0.2-0.2,0.2-0.3,0.2-0.3s0.8-0.9,1.9-2s1.9-1.9,2-1.9
		s0.5-0.3,0.6-0.5c0.3-0.3,0.6-0.6,0.9-0.8c0.2-0.2,0.5-0.3,0.6-0.5c0.2-0.2,0.8-0.6,1.4-0.9c0.6-0.5,1.6-0.9,2-1.3
		c0.5-0.3,1.3-0.6,1.6-0.8c0.3-0.2,1.3-0.6,2-0.8c0.8-0.3,1.7-0.6,2-0.8c0.3-0.2,0.9-0.3,1.1-0.5s0.8-0.3,1.1-0.5
		c0.3-0.2,1.4-0.5,2.4-0.6c0.9-0.2,2.5-0.5,3.5-0.8c0.9-0.2,1.9-0.3,2-0.5c0.2-0.2,1.1-0.3,2-0.5s2.2-0.3,2.7-0.3s1.3-0.2,1.7-0.3
		c0.5-0.2,1.4-0.3,2.2-0.3c1.3-0.2,1.4-0.2,2.7-1.4c0.8-0.8,1.7-1.7,2-2.4c0.3-0.6,0.8-1.1,0.8-1.1l0.2-0.3c0.2-0.2,0.5-0.5,0.6-0.8
		c0.3-0.3,0.8-1.1,1.1-1.7c0.3-0.6,0.8-1.4,0.9-1.7c0.2-0.3,0.9-1.7,1.7-3.2c0.8-1.4,1.3-2.7,1.3-2.8c0-0.2,0.2-0.5,0.3-0.8
		c0.2-0.3,0.5-1.1,0.8-1.9s0.5-1.9,0.6-2.5c0-0.6,0.2-1.3,0.3-1.4c0.2-0.2,0.3-1.1,0.5-2s0.2-2.4,0.2-3.3s-0.2-2.4-0.2-3.3
		c-0.2-0.9-0.3-2-0.5-2.4c-0.2-0.3-0.5-0.9-0.5-1.3c-0.2-0.5-0.3-0.5-1.1-0.5c-0.5,0-1.3,0.2-1.7,0.3c-0.5,0.2-1.1,0.5-1.4,0.5
		s-1.4,0.3-2.4,0.5c-1.4,0.3-2.5,0.3-5.3,0.3c-2.2,0-4.1-0.2-5-0.3c-0.9-0.2-2-0.3-2.5-0.3s-1.7,0-2.5,0.2c-0.8,0-2.7,0.3-4.1,0.6
		c-1.4,0.3-2.7,0.6-2.7,0.6c0,0.2-0.6,0.2-1.1,0.3c-0.6,0-1.1,0.3-1.3,0.5c-0.2,0.2-0.3,0.3-0.5,0.3s-1.4,0.5-3,0.9
		c-1.4,0.5-2.8,0.9-3.2,1.1c-0.3,0.2-0.6,0.3-0.9,0.5s-1.1,0.3-1.7,0.6c-0.6,0.3-1.6,0.6-1.9,0.8c-0.3,0.2-1.3,0.5-2,0.8
		c-0.8,0.3-2,0.9-3.2,1.4c-0.9,0.5-2,0.9-2.4,0.9c-0.3,0-0.5,0.2-0.5,0.3c0,0.2-0.5,0.3-0.9,0.6c-0.5,0.3-1.3,0.6-1.7,0.8
		c-0.5,0.2-1.1,0.5-1.4,0.8c-0.3,0.2-0.9,0.6-1.4,0.9s-0.9,0.5-0.9,0.5s-0.6,0.3-1.1,0.6c-0.6,0.3-1.1,0.8-1.4,0.8
		c-0.2,0.2-0.9,0.6-1.7,1.1c-0.8,0.5-1.6,0.9-1.6,1.1c-0.2,0.2-0.3,0.3-0.5,0.3s-0.3,0.2-0.5,0.3c-0.2,0.2-0.8,0.6-1.4,1.1
		s-1.3,0.8-1.3,0.8s-0.3,0.2-0.3,0.5c-0.2,0.2-0.5,0.5-0.6,0.5c-0.2,0-0.6-0.2-0.6,0s-0.3,0.5-0.5,0.6c-0.3,0.2-0.9,0.8-1.4,1.1
		c-0.5,0.5-1.4,1.3-2.2,2c-0.8,0.6-1.4,1.3-1.4,1.3c-0.2,0-0.9,0.8-1.9,1.7c-0.9,0.9-1.7,1.7-1.7,1.9c0,0-0.6,0.8-1.3,1.4
		c-0.6,0.6-1.6,1.6-1.7,2c-0.3,0.5-0.5,0.8-0.5,0.8s-0.5,0.8-1.1,1.6c-0.6,0.8-1.6,2.5-2.2,3.8s-1.3,2.7-1.4,3.2
		c-0.2,0.5-0.3,0.9-0.3,0.9c0,0.2-0.3,0.6-0.3,1.3c-0.2,0.5-0.3,1.3-0.5,1.6s-0.5,1.9-0.6,3.3c-0.3,2.4-0.5,3.3-0.3,6.6
		c0,2.2,0.2,4.4,0.3,5.2s0.3,1.9,0.5,2.5c0.2,0.8,0.3,1.4,0.5,1.4c0.2,0.2,0.2,0.3,0.2,0.5s0.3,1.1,0.6,2c0.3,0.9,0.8,2.2,1.1,2.7
		c0.2,0.5,0.6,1.3,0.8,1.7c0.2,0.5,0.9,1.7,1.6,2.8c0.6,1.1,1.4,2.2,1.7,2.5c0.3,0.3,0.6,0.6,0.6,0.8s0.8,0.9,1.6,1.9
		c0.9,0.9,2.2,2.2,3,2.8s1.7,1.4,2,1.7s0.8,0.6,0.9,0.6c0.2,0,0.3,0.2,0.5,0.3c0.2,0.2,0.6,0.6,1.4,0.9c0.6,0.3,1.3,0.8,1.4,0.9
		c0.2,0.2,0.8,0.5,1.4,0.6c0.6,0.3,1.4,0.6,1.7,0.8c0.3,0.2,0.8,0.3,1.1,0.5c0.3,0,1.3,0.3,2,0.5c0.8,0.2,2,0.5,2.8,0.5
		C443,559.7,444.3,559.9,445,559.7L445,559.7z M447.6,550.4c-0.5,0-0.9,0-0.9,0c0-0.2-0.3-0.3-0.6-0.3c-0.3,0-0.9-0.5-1.4-0.8
		c-0.5-0.5-0.9-0.9-1.1-1.6c-0.3-0.6-0.3-1.3-0.3-2.2c0-1.1,0.2-1.4,0.6-2.2c0.3-0.5,0.8-0.9,1.1-1.1c0.3-0.2,0.5-0.3,0.5-0.3
		c0-0.2,0.2-0.2,0.5-0.2s0.5-0.2,0.6-0.2c0-0.2,0.5-0.2,0.9-0.2s0.9,0.2,0.9,0.2c0,0.2,0.3,0.2,0.6,0.2c0.3,0,0.8,0.3,1.4,0.9
		c0.6,0.6,1.1,1.3,1.1,1.7c0.2,0.5,0.2,1.1,0.2,1.6c0,0.3-0.2,1.1-0.3,1.7c-0.2,0.6-0.5,1.3-0.9,1.6c-0.5,0.3-1.1,0.8-1.4,0.8
		C448.6,550.2,448,550.2,447.6,550.4L447.6,550.4z M447.4,546.2c0.3,0,0.8-0.2,1.1-0.5c0.3-0.3,0.5-0.8,0.5-1.1s-0.2-0.8-0.5-1.1
		s-0.8-0.5-1.1-0.5c-0.3,0-0.8,0.2-1.1,0.5c-0.3,0.3-0.5,0.8-0.5,1.1s0.2,0.8,0.5,1.1C446.6,546,447.1,546.2,447.4,546.2z
		 M494.5,555.1C494.5,555.1,494.5,555,494.5,555.1c0.2-0.2,0-0.2,0-0.2S494.4,555,494.5,555.1C494.4,555,494.4,555.1,494.5,555.1z
		 M529.4,528.4c0.2,0,0.5-0.2,0.6-0.5c0.3-0.3,0.6-1.3,0.8-2.2s0.5-2.2,0.8-2.8s0.5-1.6,0.8-2.2c0.3-0.5,0.6-1.4,0.9-2
		c0.3-0.6,0.6-1.3,0.8-1.4c0.2-0.2,0.6-0.9,0.9-1.4c0.3-0.6,0.9-1.4,1.1-1.9c0.3-0.5,0.5-0.9,0.5-1.1c0-0.2,0.2-0.6,0.3-0.9
		c0.2-0.3,0.6-1.9,1.1-3.3s0.8-2.8,0.8-3s0.2-0.5,0.3-0.8c0.2-0.2,0.3-1.1,0.5-2s0.3-1.7,0.5-1.9c0.2-0.2,0.3-0.8,0.3-1.4
		c0.2-0.6,0.3-1.7,0.5-2.4c0.2-0.6,0.5-2.4,0.6-3.9c0.2-1.4,0.5-2.8,0.5-3.2c0.2-0.2,0.3-1.4,0.3-2.5s0.2-2.7,0.2-3.3
		c0-0.6,0.2-2.5,0.2-4.1c0.2-2.4,0.2-4.1,0-8.5c-0.2-3.2-0.3-6.8-0.5-8c-0.2-1.3-0.3-3-0.5-3.6c-0.2-0.8-0.5-2.2-0.6-3.3
		c-0.2-1.1-0.5-2.7-0.6-3.3c-0.2-0.8-0.5-1.7-0.6-2.2c-0.2-0.5-0.5-1.6-0.8-2.5s-0.6-2.4-0.8-2.8c-0.2-0.5-0.6-1.9-1.1-2.7
		c-0.5-0.9-0.9-2-1.3-2.7c-0.3-0.6-0.6-1.4-0.9-1.7c-0.3-0.3-0.8-1.3-1.3-1.9s-1.4-1.9-1.9-2.5s-0.9-1.3-0.9-1.4
		c0-0.2-0.2-0.2-0.2-0.2s-0.8-0.6-1.6-1.4s-1.9-1.7-2.4-2.2s-1.1-0.9-1.4-1.1c-0.2-0.2-0.6-0.5-1.1-0.8c-0.5-0.2-0.9-0.6-1.3-0.8
		c-0.3-0.2-1.1-0.6-1.6-0.9s-1.1-0.6-1.1-0.6c0-0.2-0.3-0.2-0.6-0.3c-0.3-0.2-1.1-0.3-1.7-0.6c-0.6-0.3-1.6-0.6-2.2-0.9
		c-0.5-0.2-1.3-0.5-1.4-0.6c-0.3-0.2-0.6-0.2-0.8-0.2s-0.6-0.2-1.1-0.2s-0.8-0.3-0.9-0.3c0-0.2-1.3-0.3-2.5-0.6
		c-1.4-0.3-3-0.5-3.5-0.6c-0.5-0.2-1.3-0.2-1.7-0.2c-0.3,0-1.4,0.2-2.4,0.2c-0.9,0-2.2,0.2-2.7,0.2s-2,0.2-3.2,0.3
		c-1.3,0.2-2.8,0.3-3.6,0.6c-0.8,0.2-2,0.6-2.7,0.8c-0.8,0.3-1.6,0.6-2,0.8c-0.5,0.2-0.9,0.3-1.1,0.3s-0.3,0.2-0.3,0.2
		c0,0.2-0.3,0.3-0.5,0.3c-0.3,0-1.3,0.6-2.2,1.1s-2,1.3-2.5,1.7c-0.5,0.5-1.4,1.3-2,1.7c-0.6,0.6-1.1,1.1-1.1,1.1s-0.5,0.6-0.9,1.3
		c-0.5,0.6-1.1,1.4-1.4,1.9s-0.6,1.1-0.8,1.6c-0.2,0.5-0.3,0.9-0.5,1.3c-0.2,0.3-0.5,1.1-0.6,2c-0.2,0.8-0.5,2-0.8,2.8
		c-0.2,0.8-0.3,2.4-0.3,4.2c0,1.6,0.2,3.6,0.2,4.4c0.2,0.8,0.5,2.2,0.8,3s0.6,1.9,0.9,2.4s0.8,1.4,1.1,1.9c0.3,0.5,0.9,1.4,1.3,2
		c0.3,0.5,1.1,1.3,1.6,1.7c0.5,0.5,1.3,1.1,1.7,1.6c0.5,0.5,1.3,0.9,1.9,1.3c0.6,0.3,1.6,0.8,2,0.9c0.6,0.3,1.7,0.6,2.4,0.8
		c0.8,0.2,2.5,0.2,3.9,0.2s3.3-0.2,4.4-0.3c0.9-0.2,1.9-0.3,1.9-0.5c0.2-0.2,0.6-0.3,1.3-0.5c0.6-0.2,1.7-0.5,2.5-0.8
		s1.9-0.8,2.4-0.9c0.5-0.3,0.9-0.5,1.1-0.6c0.2-0.2,0.6-0.3,1.1-0.3c0.6-0.2,0.9,0,1.4,0.3c0.3,0.3,0.6,0.8,0.8,1.1
		c0.2,0.3,0.3,0.8,0.5,0.9c0.2,0.2,0.5,1.4,0.6,2.7c0.3,1.3,0.6,3.6,0.8,5.2c0.2,1.6,0.2,3.9,0.2,5.2s-0.3,3.2-0.5,4.1
		s-0.5,2.4-0.6,3c-0.2,0.6-0.3,1.4-0.5,1.6s-0.3,1.1-0.5,1.7c-0.2,0.8-0.6,2.2-0.9,3.2c-0.3,0.9-0.6,1.9-0.6,2s-0.2,0.6-0.3,0.9
		c-0.2,0.5-0.6,1.6-1.1,2.7c-0.5,0.9-0.9,2-1.1,2.5c-0.2,0.3-0.5,0.9-0.6,1.4c-0.2,0.5,0,1.1,0.2,1.9c0.2,0.6,0.3,1.3,0.5,1.3
		c0,0.2,0.3,0.6,0.5,0.9c0.2,0.5,0.5,1.3,0.8,1.9s0.6,1.4,0.8,1.7c0.2,0.3,0.5,0.9,0.8,1.4s0.8,1.4,1.1,1.9c0.3,0.6,0.6,1.1,0.6,1.3
		c0,0.2,0.2,0.2,0.2,0.2c0.2,0,0.3,0.2,0.3,0.5s0.3,0.6,0.5,0.9c0.2,0.3,0.8,1.1,1.4,1.9c0.6,0.8,1.4,1.9,1.9,2.5s1.3,1.4,1.7,1.9
		c0.5,0.5,1.1,1.1,1.4,1.4c0.3,0.3,0.9,0.8,1.4,1.1s0.8,0.6,0.8,0.6s0.5,0.3,0.9,0.6c0.5,0.3,0.9,0.6,1.1,0.6c0.2,0,0.3,0,0.3,0.2
		s0.3,0.3,0.6,0.5s1.4,0.8,2.4,1.1c0.9,0.3,2,0.9,2.4,1.1c0.3,0.2,1.4,0.6,2.4,0.8c0.9,0.3,1.9,0.5,2.2,0.6
		C528.9,528.4,529.2,528.4,529.4,528.4L529.4,528.4z M486.6,446.2c-0.5,0-1.1,0-1.4,0s-0.9-0.3-1.3-0.6c-0.5-0.3-0.9-0.6-1.1-0.9
		s-0.5-0.6-0.6-0.9c-0.2-0.3-0.3-0.8-0.3-1.3s0-1.4,0.2-1.9c0.2-0.6,0.5-1.3,0.9-1.7c0.3-0.3,0.8-0.8,1.1-0.9
		c0.3-0.2,1.1-0.3,1.6-0.5c0.8-0.2,1.4,0,2.2,0.2c0.6,0.2,1.3,0.6,1.6,0.8c0.3,0.3,0.6,0.9,0.9,1.4c0.3,0.8,0.3,1.1,0.3,2
		c0,0.6-0.2,1.4-0.3,1.7c-0.2,0.5-0.5,0.9-0.9,1.1c-0.3,0.3-0.6,0.5-0.6,0.6s-0.2,0.2-0.3,0.2c-0.2,0-0.8,0.5-0.9,0.6
		C487.4,446,487,446.2,486.6,446.2L486.6,446.2z M486.1,442.3c0.3,0,0.8-0.2,0.9-0.5c0.2-0.3,0.5-0.6,0.5-0.9s-0.2-0.8-0.5-0.9
		c-0.3-0.3-0.6-0.5-0.9-0.5s-0.8,0.2-0.9,0.5c-0.2,0.3-0.5,0.6-0.5,0.9s0.2,0.8,0.5,0.9C485.3,442.2,485.8,442.3,486.1,442.3z
		 M563.8,497.7c0.6,0,1.3-0.2,1.3-0.3c0.2-0.2,0.8-0.3,1.3-0.5c0.6-0.2,1.7-0.6,2.4-0.9c0.6-0.3,1.4-0.6,1.6-0.6
		c0.2,0,0.5-0.2,0.6-0.2c0.2-0.2,1.1-0.5,2.2-0.9c0.9-0.5,1.9-0.8,2.2-0.8c0.2,0,0.3-0.2,0.3-0.2c0-0.2,0.3-0.3,0.8-0.5
		s1.3-0.6,1.9-1.1c0.6-0.5,1.3-0.8,1.4-0.8c0.2,0,0.2-0.2,0.2-0.2c0-0.2,0.2-0.2,0.2-0.2c0.2,0,0.6-0.3,1.3-0.6
		c0.6-0.3,1.3-0.8,1.4-0.9c0.2-0.2,0.6-0.5,0.9-0.6c0.3-0.2,0.8-0.5,0.8-0.6c0.2-0.2,0.3-0.5,0.5-0.5s0.9-0.8,2-1.6
		c0.9-0.8,2.4-2,3-2.7c0.6-0.6,1.7-1.7,2.2-2.4c0.6-0.6,1.6-1.7,2-2.5c0.6-0.8,1.6-2,2-3c0.5-0.9,1.1-1.6,1.1-1.7s0.2-0.3,0.3-0.5
		c0.2-0.2,0.6-0.9,1.1-1.7c0.5-0.8,0.9-1.7,1.1-2c0.2-0.3,0.6-1.4,1.1-2.7c0.5-1.1,0.9-2.5,1.1-3c0.2-0.5,0.5-1.4,0.8-2
		s0.6-1.9,0.9-3c0.3-1.1,0.5-1.9,0.6-2c0,0,0.2-0.9,0.3-2c0.2-1.1,0.3-3.2,0.6-4.7c0.2-1.6,0.5-4.4,0.5-6.6c0.2-2.5,0-4.7-0.2-6.3
		c-0.2-1.4-0.5-3.6-0.8-5s-0.6-3.2-0.8-3.9c-0.2-0.8-0.6-2-0.8-3c-0.3-0.9-0.8-2.5-1.1-3.6s-0.8-2.4-0.9-3.2
		c-0.2-0.6-0.5-1.4-0.6-1.6c-0.2-0.2-0.3-0.8-0.5-1.3s-0.5-1.1-0.6-1.6c-0.2-0.5-0.5-1.1-0.6-1.4c-0.2-0.3-0.9-1.9-1.7-3.3
		c-0.8-1.6-1.9-3.6-2.7-4.6c-0.6-0.9-1.3-1.9-1.3-2.2c-0.2-0.2-0.3-0.5-0.3-0.6c-0.2-0.2-0.8-0.9-1.4-1.9c-0.6-1-1.4-1.7-1.6-2
		c-0.2-0.2-0.3-0.5-0.5-0.6c0-0.2-0.8-0.9-1.4-1.7c-0.8-0.8-2.5-2.7-3.8-3.9s-2.5-2.5-2.7-2.5s-0.3-0.2-0.3-0.3s-0.3-0.5-0.6-0.6
		c-0.3-0.2-0.8-0.5-1.1-0.8s-0.8-0.6-1.3-0.9c-0.3-0.3-0.9-0.8-1.1-0.9c-0.3-0.2-0.5-0.5-0.6-0.5c-0.2,0-0.5-0.2-0.8-0.5
		s-0.9-0.8-1.4-1.1c-0.5-0.3-1.3-0.8-1.6-0.9c-0.5-0.2-0.9-0.5-1.1-0.6c-0.2-0.2-0.6-0.5-0.8-0.6c-0.2-0.2-0.9-0.6-1.4-0.9
		s-1.3-0.6-1.4-0.8c-0.3-0.2-0.6-0.5-0.9-0.6c-0.3-0.2-0.6-0.5-1.1-0.6c-0.3-0.2-0.6-0.3-0.6-0.5s-0.2-0.2-0.3-0.2s-1.6-0.6-3-1.4
		c-1.6-0.8-2.8-1.4-3-1.6s-0.3-0.2-0.5-0.2s-0.8-0.3-1.6-0.6c-0.8-0.3-1.7-0.8-2.2-0.9c-0.5-0.2-1.3-0.5-1.9-0.6
		c-0.6-0.2-1.4-0.5-1.7-0.6c-0.3-0.2-0.8-0.3-0.9-0.3s-0.5-0.2-0.5-0.2c-0.2-0.2-0.9-0.5-1.7-0.6c-0.9-0.3-1.7-0.6-2-0.8
		c-0.2-0.2-0.9-0.5-1.7-0.6c-0.8-0.3-2-0.8-2.8-0.9c-0.9-0.3-1.7-0.5-1.9-0.5s-0.6-0.2-0.9-0.3c-0.3-0.2-0.8-0.3-1.1-0.3
		s-1.3-0.3-2-0.6c-0.9-0.3-1.7-0.5-1.9-0.5s-0.5,0-0.8-0.3c-0.3-0.2-1.7-0.6-3.2-0.9c-1.4-0.3-3.2-0.6-3.8-0.6s-1.3-0.2-1.4-0.3
		c-0.2-0.2-0.3-0.2-0.6,0.3h-0.6c-0.2-0.5-1.4-0.6-2.7-0.8c-1.4-0.2-2.7-0.5-3-0.5c-0.3-0.2-1.7-0.3-3.2-0.5c-1.4-0.2-3-0.3-3.5-0.3
		s-0.9-0.2-1.1-0.2c-0.2,0-1.9-0.2-3.8-0.3c-1.9-0.2-9.8-0.6-9.8-0.6s-6.5,0-6.7,0c0,0-0.8,0.2-1.8,0.2s-2.4,0-3.2,0.2
		c-0.8,0-1.6,0.2-1.8,0.2c-0.2,0.2-1.3,0.3-2.7,0.3c-1.4,0.2-4.1,0.5-6.1,0.6c-1.9,0.3-3.8,0.6-4.1,0.6c-0.3,0.2-1.6,0.3-2.7,0.6
		c-1.1,0.2-3,0.6-4.1,0.8c-1.1,0.2-2.2,0.5-2.6,0.6c-0.3,0.2-1,0.3-1.6,0.5c-0.6,0-1.4,0.3-1.9,0.5s-1.1,0.5-1.4,0.5
		c-0.3,0.2-0.8,0.2-1,0.3c-0.2,0.2-0.3,0.2-0.5,0.2s-0.5,0-0.8,0.2s-0.8,0.3-1.1,0.3c-0.3,0.2-1.1,0.3-1.8,0.6
		c-0.6,0.3-1.6,0.5-2.1,0.6c-0.5,0.2-1.1,0.5-1.4,0.6c-0.3,0.2-1.1,0.5-1.8,0.6c-0.6,0.2-1.4,0.5-1.9,0.6c-0.5,0.2-1,0.5-1.1,0.5
		c-0.2,0-0.6,0.2-1.1,0.3c-0.3,0.2-1,0.5-1.4,0.6c-0.5,0.2-1,0.3-1.3,0.5c-0.2,0.2-1,0.5-1.4,0.6c-0.6,0.2-1.3,0.5-1.4,0.6
		c-0.2,0.2-0.5,0.3-0.6,0.3c-0.2,0-1.1,0.3-2.1,1c-1,0.5-2.6,1.3-3.5,1.9c-1,0.6-2.4,1.3-3,1.6c-0.6,0.3-1.3,0.6-1.3,0.8
		c0,0-0.6,0.3-1.3,0.6c-0.6,0.3-1.6,0.8-2.1,1.1c-0.6,0.3-1.8,1.1-2.9,1.6c-1,0.6-1.9,1.3-2.1,1.3c-0.2,0.2-0.5,0.3-0.6,0.3
		c-0.2,0-0.5,0.2-0.5,0.3s-0.3,0.3-0.8,0.5s-1,0.5-1.1,0.8c-0.2,0.2-0.3,0.3-0.5,0.3s-0.3,0.2-0.3,0.2c0,0.2-0.5,0.3-1,0.6
		c-0.5,0.2-1,0.6-1.1,0.8c-0.2,0.2-0.3,0.3-0.5,0.3s-0.5,0.3-1,0.6c-0.3,0.3-0.6,0.6-0.8,0.6c0,0-0.3,0.3-0.8,0.5
		c-0.3,0.3-1.8,1.4-3,2.4c-1.3,1-2.6,1.9-2.7,2.1c-0.2,0.2-1,0.8-1.6,1.4c-0.8,0.6-1.6,1.3-1.8,1.6c-0.2,0.3-0.8,0.8-1.3,1.1
		c-0.5,0.3-1.6,1.3-2.6,2.1s-2.6,2.2-3.5,3.4c-1,1-3.2,3.2-4.8,4.9c-1.6,1.8-3.4,3.5-3.8,4c-0.5,0.5-0.8,1-0.8,1s-0.3,0.6-0.8,1.1
		c-0.5,0.6-1.3,1.4-1.8,1.9s-0.6,0.6-0.6,0.8c0,0.2-0.5,1-1.3,1.8s-1.4,1.8-1.6,2.1c-0.2,0.3-0.8,1.1-1.4,1.9
		c-0.5,0.8-1.4,2.1-2.1,2.9c-0.6,0.8-1.3,1.8-1.4,2.2c-0.3,0.5-0.8,1.4-1.4,2.4c-0.5,1-1.1,1.9-1.4,2.4c-0.2,0.3-1,1.8-1.6,3
		c-0.6,1.3-1.1,2.4-1.1,2.4c0,0.2,0.5,0,0.8-0.2c0.5-0.2,1-0.5,1.1-0.6c0.2-0.2,0.5-0.3,0.5-0.3s0.8-0.3,1.6-0.8
		c0.8-0.5,1.6-1,1.6-1s0.5-0.3,1-0.5s0.8-0.5,1-0.5c0-0.2,1.3-0.8,2.9-1.6c1.4-0.8,3.2-1.6,3.7-1.8c0.5-0.2,1.3-0.6,1.4-0.8
		c0.3-0.2,1-0.5,1.6-0.6c0.5-0.2,1.1-0.5,1.4-0.6c0.2-0.2,1.3-0.5,2.2-1c1-0.3,2.1-0.6,2.4-0.8c0.3,0,0.6-0.2,0.6-0.2
		s0.6-0.3,1.6-0.5c0.8-0.2,1.8-0.5,1.9-0.5c0.2-0.2,1.1-0.3,1.9-0.5s1.6-0.3,1.8-0.5c0.2-0.2,1.1-0.3,2.2-0.5s3.2-0.5,4.8-0.8
		c1.6-0.3,3.4-0.5,4.1-0.5c0.8,0,1.6-0.2,1.6-0.3c0.2-0.2,1.8-0.2,6.2-0.2c5.1,0,6.6,0.2,9.7,0.5c2.1,0.3,4,0.6,4.1,0.6
		c0.2,0.2,1.8,0.5,3.4,1s3.2,0.8,3.2,1c0.2,0,0.6,0.3,1.3,0.5c0.6,0.2,2.1,0.8,3.2,1.3s2.2,1,2.4,1.1c0.2,0.2,0.8,0.5,1.4,0.6
		c0.6,0.3,1.8,1,2.4,1.4c0.6,0.5,1.4,1,1.6,1s0.6,0.3,1,0.5c0.3,0.2,0.8,0.5,1.1,0.6c0.3,0.2,0.5,0.3,0.6,0.3c0,0.2,0.6,0.5,1.3,1
		c0.6,0.5,1.8,1.3,2.6,1.9s1.6,1.3,1.8,1.4c0.2,0.2,1.4,1.3,2.7,2.6s2.4,2.4,2.4,2.6s0.5,0.6,1,1.1s1.1,0.8,1.4,0.8s0.6-0.2,0.8-0.5
		c0.2-0.3,0.5-1.3,0.5-2.1c0.2-0.8,0.3-2.4,0.5-3.5s0.5-2.6,0.8-3.2c0.3-0.8,1-2.2,1.6-3.4c0.6-1.1,1.1-2.2,1.3-2.4
		c0.2-0.2,0.5-0.5,0.6-0.8c0.2-0.3,0.5-0.8,0.8-1s0.5-0.6,0.5-0.6c0-0.2,0.3-0.5,0.6-0.8c0.3-0.3,0.8-0.8,0.8-0.8
		c0.2-0.2,0.8-0.6,1.4-1.3c0.6-0.6,1.9-1.6,2.6-2.2c0.8-0.6,1.8-1.3,2.1-1.3c0.3-0.2,0.6-0.3,0.6-0.3c0-0.2,0.2-0.2,0.5-0.3
		c0.3,0,1.1-0.5,1.9-0.8s1.8-0.8,1.9-1c0.2-0.2,1.1-0.3,1.8-0.6c0.8-0.2,2.1-0.5,2.7-0.6c0.8-0.2,1.4-0.3,1.4-0.5
		c0,0,1.4-0.3,3.2-0.6c2.6-0.3,4-0.5,8.1-0.5c2.7,0,5.9,0,7,0.2s2.7,0.3,3.5,0.5s2.2,0.5,3.2,0.8c1,0.2,1.9,0.5,2.2,0.5
		s0.5,0.2,0.5,0.3c0,0.2,0.3,0.2,0.6,0.3c0.3,0,1.1,0.3,1.6,0.5s1.4,0.6,2.1,1c0.6,0.3,1.8,1,2.4,1.3c0.6,0.3,1.6,1,2.2,1.3
		c0.5,0.3,1.3,0.6,1.4,1c0.3,0.2,0.8,0.6,1.3,1c0.5,0.3,1.3,1,1.9,1.6c0.6,0.5,1.4,1.3,1.8,1.6c0.3,0.3,1.4,1.8,2.6,3
		c1,1.3,2.2,2.7,2.6,3c0.3,0.5,0.8,0.8,0.8,0.8c0.2,0,0.5-0.2,0.8-0.5s0.8-0.8,1-1.1c0.2-0.3,0.5-1.4,0.6-2.2
		c0.3-1.3,0.3-2.4,0.3-4.9c0-1.8-0.2-4-0.3-4.8c-0.2-0.8-0.3-1.8-0.5-1.9c-0.2-0.3-0.3-0.6-0.3-0.8s-0.3-1.1-0.6-2.2s-0.8-2.2-1-2.6
		c-0.2-0.3-0.5-1-0.8-1.4c-0.2-0.5-0.6-1.1-0.8-1.6c-0.2-0.3-0.8-1.3-1.3-2.1c-0.5-0.8-1.3-1.8-1.8-2.2c-0.3-0.5-1.4-1.6-2.4-2.6
		s-2.1-2.1-2.7-2.6c-0.6-0.5-1.3-1-1.4-1.1c-0.2-0.2-0.8-0.5-1.3-0.8s-1.3-1-1.9-1.4s-1.1-0.8-1.3-0.8s-0.5-0.2-0.6-0.3
		c-0.2-0.2-0.3-0.3-0.5-0.3s-1-0.3-1.9-0.8c-1-0.5-2.4-1.1-3.4-1.4s-1.9-0.6-2.1-0.8c-0.2-0.2-1.4-0.5-2.7-0.8s-3.2-0.8-4.1-1
		c-1.1-0.2-2.2-0.5-2.6-0.5c-0.3-0.2-1.4-0.3-2.6-0.5c-1.1-0.2-2.2-0.2-2.6-0.2c-0.3,0-0.8,0-1,0c-0.2-0.2-1.3-0.3-2.6-0.3
		c-1.3,0-3.5-0.2-5.1-0.2s-3.7,0-4.6,0.2c-1,0-1.8,0.2-1.9,0.2s-0.8,0.2-1.4,0.3c-0.8,0-2.1,0.2-3.2,0.3c-1,0.2-2.1,0.3-2.2,0.5
		c-0.3,0.2-0.5,0.2-0.6,0.2c0,0-0.6,0-1.1,0.2c-0.6,0.2-1.3,0.3-1.6,0.3c-0.3,0-1,0.2-1.4,0.3c-0.5,0.2-1.4,0.3-1.9,0.5
		s-1.8,0.5-2.7,0.6c-1,0.3-2.2,0.6-2.6,0.8c-0.5,0.2-1.3,0.5-1.8,0.6c-0.5,0.2-1.8,0.6-2.6,1c-1,0.3-2.1,0.8-2.6,1s-1.1,0.3-1.6,0.3
		s-1,0-1.3-0.2s-0.6-0.3-0.8-0.5c-0.2-0.2-0.2-0.6-0.2-1c0-0.5,0.2-0.8,0.5-1.3c0.3-0.3,1-0.6,1.6-1c0.6-0.3,1.3-0.6,1.4-0.8
		c0.3-0.2,0.8-0.3,1.3-0.5s1-0.3,1-0.5c0.2-0.2,1-0.3,1.8-0.6c0.8-0.3,2.2-0.6,3-0.8c0.8-0.2,1.6-0.5,1.6-0.5s1.3-0.5,2.6-0.8
		c1.4-0.5,2.7-0.8,2.9-0.8s0.3,0,0.5-0.2c0-0.2,1.4-0.5,3.2-0.8c1.8-0.3,4.5-0.6,6.1-1c1.6-0.2,4-0.5,5.3-0.5s2.4-0.2,2.4-0.3
		c0-0.2,2.1-0.2,4.3-0.2c2.4,0,4.5,0.2,4.6,0.2c0.2,0,1,0.2,1.9,0.2c1,0,2.4,0.2,3.4,0.3c1,0.2,1.9,0.3,2.1,0.3
		c0.2,0.2,1.1,0.3,1.9,0.5s2.2,0.5,3.2,0.6c1,0.2,2.6,0.6,3.7,1.1c1.1,0.3,2.4,0.8,2.7,1s0.8,0.3,0.8,0.3s0.5,0.2,1,0.3
		c0.5,0.2,1.1,0.3,1.4,0.5c0.3,0.2,1.3,0.6,2.1,1c0.8,0.3,1.6,0.8,1.8,0.8s0.6,0.3,1.1,0.6c0.5,0.3,1.3,0.8,1.8,1s1.4,0.8,1.8,1.1
		c0.5,0.3,1.1,0.8,1.6,1c0.5,0.3,1.3,1,1.9,1.4c0.6,0.5,1.4,1.1,1.8,1.3c0.3,0.3,0.8,0.6,1.3,1c0.3,0.3,1,0.8,1.4,1.3
		c0.5,0.5,1.4,1.4,2.1,2.1c0.6,0.8,1.4,1.6,1.8,1.9c0.2,0.3,0.6,0.5,0.8,0.5s0.3,0.2,0.3,0.3c0,0.2,0.5,1,1.1,1.8s1.1,1.6,1.1,1.6
		c0,0.2,0.3,0.6,0.5,1c0.3,0.5,1.3,2.1,2.1,3.7s1.6,3.2,1.6,3.7s0.3,1.3,0.5,1.9s0.5,1.6,0.5,2.4c0,0.6,0.2,1.3,0.3,1.4
		c0.2,0.2,0.2,1.3,0.3,2.7c0,1.4,0,3.6,0,3.6s-0.8,2.8-1.1,3.9c-0.2,1.3-0.5,2.2-0.6,2.4c-0.2,0.2-0.2,0.3-0.2,0.5s-0.2,0.6-0.5,1.3
		c-0.2,0.5-0.8,1.7-1.3,2.7c-0.5,0.9-0.9,1.9-1.1,1.9s-0.2,0.2-0.2,0.3c0,0.2-0.5,0.9-1.1,1.7c-0.6,0.8-1.3,1.7-1.6,2.2
		s-0.3,0.9-0.2,1.4c0,0.5,0.2,0.9,0.3,1.1c0.2,0.2,0.5,0.9,0.6,1.9c0.3,0.9,0.6,2.4,0.9,3.2c0.3,0.8,0.5,1.9,0.6,2.4
		c0.2,0.5,0.3,1.3,0.3,1.7s0.2,1.1,0.3,1.3c0.2,0.2,0.3,0.9,0.3,1.4c0.2,0.6,0.3,2.2,0.5,3.5s0.3,2.5,0.3,2.8
		c0.2,0.2,0.2,1.3,0.3,2.4c0,1.1,0.2,2.2,0.3,2.4c0.2,0.2,0.5,0.8,0.6,1.3c0.3,0.5,0.6,1.1,0.9,1.6c0.3,0.5,0.6,1.3,0.9,1.7
		c0.3,0.5,0.8,1.4,1.1,2s1.1,2,1.7,3.3c0.6,1.3,1.3,2.7,1.6,3.2c0.2,0.5,0.6,1.3,0.8,1.9c0.3,0.6,0.6,1.6,0.9,2
		c0.3,0.5,0.6,1.6,0.9,2.4c0.3,0.8,0.8,1.9,1.1,2.8c0.3,0.8,0.8,1.7,0.8,2s0.5,0.8,0.8,1.1C562.7,497.9,562.9,497.9,563.8,497.7
		L563.8,497.7z M544.3,405.8C544.4,405.8,544.4,405.8,544.3,405.8c0.2-0.2,0-0.2,0-0.2S544.3,405.6,544.3,405.8L544.3,405.8z"/>
</g>
</svg>
