<?xml version="1.0" encoding="utf-8"?>
<!-- Generator: Adobe Illustrator 26.0.1, SVG Export Plug-In . SVG Version: 6.00 Build 0)  -->
<svg version="1.1"
	 id="Layer_1" xmlns:inkscape="http://www.inkscape.org/namespaces/inkscape" xmlns:sodipodi="http://sodipodi.sourceforge.net/DTD/sodipodi-0.dtd"
	 xmlns="http://www.w3.org/2000/svg" xmlns:xlink="http://www.w3.org/1999/xlink" x="0px" y="0px" viewBox="0 0 1000 1000"
	 style="enable-background:new 0 0 1000 1000;" xml:space="preserve">
<style type="text/css">
	.st0{fill:none;stroke:#000000;stroke-width:35;stroke-linejoin:round;stroke-miterlimit:10;}
</style>
<g>
	<defs>
		<inkscape:perspective  id="perspective4373"></inkscape:perspective>
	</defs>
	
		<sodipodi:namedview  bordercolor="#666666" borderopacity="1.0" fit-margin-bottom="0" fit-margin-left="0" fit-margin-right="0" fit-margin-top="0" id="base" pagecolor="#ffffff" showgrid="false">
		</sodipodi:namedview>
	<path id="path8431_00000105386506409336793200000017428704295420535740_" d="M181.3,444.5c-2.8,0-5.7,0-6.3-0.1
		c-0.6,0-1.8-0.1-2.6-0.1c-0.8,0-1.4-0.1-1.5-0.1c0,0-0.2-0.1-0.4-0.1c-0.2,0-1.8-0.2-3.3-0.4c-1.6-0.2-3.1-0.4-3.1-0.4
		s-0.2-0.1-0.4,0s-0.2,0-0.4-0.1c-0.2-0.1-1-0.2-1.6-0.4c-0.7-0.1-1.4-0.1-1.5-0.1s-0.4,0-0.4-0.1c-0.1-0.1-0.4-0.2-1-0.2
		c-0.4,0-1-0.1-1-0.1c-0.2,0-0.6-0.1-0.7-0.2c-0.2-0.1-0.8-0.2-1.5-0.4c-0.6-0.1-1.2-0.2-1.3-0.4c-0.1-0.1-0.7-0.2-1.3-0.4
		c-0.6-0.1-1.3-0.4-1.6-0.4c-0.2-0.1-0.7-0.2-1-0.2c-0.2,0-0.6-0.1-0.6-0.1c0-0.1-0.2-0.1-0.4-0.1s-0.6-0.1-0.8-0.2
		c-0.2-0.1-0.8-0.2-1.3-0.4s-1-0.2-1-0.2c-0.1-0.1-0.4-0.2-0.6-0.2c-0.2-0.1-0.4-0.1-0.6-0.1c-0.1,0-0.4-0.1-0.6-0.2
		c-0.2-0.1-1-0.4-1.5-0.6c-0.7-0.2-1.6-0.6-2.4-0.8c-0.7-0.2-1.5-0.6-2.1-0.7c-0.6-0.2-1-0.4-1-0.6c-0.1-0.1-0.2-0.2-0.4-0.2
		c-0.1,0-0.6-0.1-1-0.4s-0.8-0.4-0.8-0.4c-0.1,0-0.6-0.2-1-0.4s-1.4-0.6-1.9-0.8c-0.6-0.2-1-0.4-1.2-0.6c-0.1-0.1-0.4-0.2-0.8-0.4
		s-0.6-0.2-0.6-0.4s-0.2-0.1-0.4-0.1s-0.4-0.1-0.6-0.2c-0.2-0.1-1-0.6-1.9-1c-0.8-0.4-1.5-0.7-1.6-0.7c-0.1,0-0.4-0.1-0.6-0.4
		c-0.2-0.2-0.6-0.4-0.8-0.4c-0.2,0-0.4-0.1-0.4-0.2c0-0.1-0.2-0.2-0.6-0.4s-0.7-0.4-0.8-0.4c-0.1-0.1-0.4-0.2-0.4-0.2
		c-0.1,0-0.4-0.1-0.4-0.2c-0.1-0.1-0.4-0.4-0.6-0.4c-0.2-0.1-0.4-0.2-0.7-0.4s-0.4-0.4-0.6-0.4c-0.1-0.1-0.4-0.2-0.4-0.2
		s-0.4-0.2-1-0.4c-0.4-0.2-1-0.6-1.3-0.8c-0.4-0.1-1-0.7-1.6-1.2c-0.6-0.4-1.6-1.2-2.1-1.5c-0.6-0.4-1.8-1.3-2.7-2
		c-1-0.7-2.4-1.9-3.1-2.5s-1.8-1.5-2.4-2c-0.6-0.4-1.3-1.2-1.8-1.6c-0.4-0.4-0.8-0.7-1-0.7c-0.1,0-0.4-0.1-0.4-0.4
		c-0.2-0.2-0.7-0.7-1.2-1c-0.5-0.4-1-0.8-1-1c-0.1-0.1-0.8-1-1.6-1.6c-0.8-0.7-1.9-1.9-2.4-2.4c-0.6-0.6-1.5-1.6-2.2-2.5
		c-0.7-0.8-1.4-1.5-1.5-1.8c-0.2-0.2-0.7-0.8-1.2-1.4c-0.5-0.6-1.2-1.4-1.4-1.9c-0.4-0.4-0.7-1-0.8-1c-0.1-0.1-0.2-0.4-0.2-0.4
		c0-0.1-0.2-0.4-0.6-0.8s-0.8-1-1-1.3c-0.2-0.4-0.7-1-1-1.3c-0.2-0.4-0.8-1.2-1.3-1.9c-0.4-0.7-1.3-1.9-1.8-2.6
		c-0.5-0.7-1-1.4-1-1.4c-0.1,0-0.1-0.1-0.1-0.4s0-0.4-0.1-0.4c-0.1,0-0.4-0.4-0.7-1c-0.4-0.4-0.6-1-0.6-1c0-0.1-0.1-0.2-0.2-0.4
		c-0.1-0.1-0.6-0.8-1-1.5c-0.4-0.7-0.8-1.4-1-1.6c-0.1-0.2-0.2-0.4-0.4-0.4c-0.1,0-0.1-0.1-0.1-0.1c0-0.1-0.2-0.6-0.4-1.3
		c-0.2-0.6-0.8-1.6-1.3-2.4c-0.4-0.7-0.8-1.4-0.8-1.6s-0.2-0.6-0.4-1s-0.4-0.8-0.4-1c-0.1-0.1-0.4-1-0.8-1.8c-0.4-0.8-0.8-1.9-1-2.5
		s-0.6-1.8-1-2.8c-0.7-1.2-1-2-1-2.1c-0.1-0.1-0.2-0.6-0.4-1c-0.1-0.4-0.4-1.2-0.4-1.4c-0.1-0.2-0.2-0.7-0.4-1c0-0.2-0.2-0.7-0.4-1
		c-0.1-0.4-0.4-1-0.4-1.5c-0.1-0.4-0.4-1.5-0.7-2.4c-0.2-0.8-0.7-2.6-1-3.9c-0.2-1.3-0.6-2.5-0.6-2.6c0-0.1-0.1-0.4-0.1-0.4
		c-0.1-0.1-0.2-1-0.4-1.9c-0.1-1-0.4-2.5-0.6-3.5c-0.1-1-0.4-2-0.4-2.1s-0.2-1.2-0.4-2.4c-0.1-1.2-0.2-2.7-0.4-3.4
		c-0.1-0.7-0.2-2.6-0.2-4.3c-0.1-1.6-0.1-4.8-0.1-7c0-2.2,0.1-4.7,0.1-5.6c0.1-0.8,0.1-1.9,0.2-2.1c0-0.4,0.1-1.2,0.2-1.9
		c0.1-0.7,0.4-2.4,0.4-3.7c0.1-1.4,0.4-2.8,0.4-3.1c0.1-0.4,0.1-0.8,0.1-1.2c0-0.2,0.1-0.6,0.1-0.7c0.2,0.1,0.4-0.7,0.6-1.5
		c0.1-0.8,0.4-1.5,0.4-1.5c0.1,0,0.1-0.2,0.1-0.4c0-0.2,0.1-0.7,0.1-1.2c0.1-0.4,0.2-0.8,0.4-1c0.1-0.1,0.2-0.6,0.2-1
		c0.1-0.4,0.2-1,0.2-1.5c0.1-0.4,0.2-1,0.2-1.3c0.1-0.2,0.4-1.2,0.6-2c0.4-1,0.7-1.9,0.8-2.1c0.1-0.2,0.2-0.4,0.2-0.6
		c0-0.1,0.2-1,0.6-2.1s0.7-2.1,0.8-2.2c0.1-0.2,0.2-0.6,0.4-1c0.1-0.4,0.4-0.8,0.4-1.2c0.1-0.4,0.2-0.7,0.2-0.8s0-0.2,0.1-0.2
		s0.2-0.6,0.4-1c0.2-0.6,0.4-1.3,0.6-1.6c0.1-0.4,0.4-0.7,0.4-0.8s0-0.2,0.1-0.2c0.1,0,0.2-0.2,0.4-0.6c0.1-0.4,0.2-0.7,0.4-0.8
		s0.2-0.2,0.2-0.4c0,0,0.1-0.4,0.4-0.8c0.2-0.4,0.4-1,0.6-1.4c0.1-0.4,0.4-0.7,0.4-0.7s0.4-0.8,1-1.8c0.4-1,0.8-1.6,0.8-1.8
		c0,0,0.2-0.4,0.4-1c0.2-0.4,0.7-1.4,1-2c0.4-0.7,0.7-1.3,0.7-1.4c0-0.1,0.1-0.2,0.2-0.2c0.1-0.1,0.4-0.4,0.4-0.6
		c0.1-0.2,0.4-0.8,0.6-1c0.1-0.4,0.4-0.7,0.4-0.7c0.1-0.1,0.6-0.7,1-1.4c0.4-0.7,1-1.4,1.2-1.6c0.2-0.2,0.4-0.6,0.4-0.7
		c0-0.1,0.4-0.7,0.8-1.3c0.4-0.6,1-1.4,1.4-2s0.8-1,0.8-1.2c0.1-0.1,0.6-0.7,1-1.3c0.4-0.6,1-1.2,1-1.3c0-0.1,0.1-0.2,0.4-0.4
		c0.1-0.1,0.4-0.2,0.4-0.4c0-0.1,0.1-0.2,0.4-0.4c0.2-0.1,0.4-0.4,0.4-0.4c0-0.1,0.1-0.2,0.2-0.4c0.1-0.1,0.6-0.6,1-1
		c0.4-0.6,1-1.2,1.2-1.4c0.2-0.2,1.5-1.6,2.9-3.1c1.4-1.5,2.6-2.7,2.6-2.8c0,0,0.4-0.4,0.8-0.8c0.4-0.4,0.8-0.8,0.8-0.8
		s0.6-0.4,1.2-1c0.6-0.6,1.6-1.5,2.5-2.1c0.7-0.6,1.5-1.3,1.6-1.4c0.1-0.1,0.4-0.4,0.4-0.4c0.1,0,0.4-0.2,0.6-0.4
		c0.2-0.2,0.6-0.6,0.7-0.6c0.1-0.1,0.4-0.2,0.6-0.4c0.2-0.1,0.7-0.4,1-0.8c0.4-0.2,0.7-0.6,0.8-0.7c0.1-0.1,0.4-0.4,0.7-0.4
		c0.2-0.1,0.7-0.4,1-0.7c0.2-0.2,0.4-0.4,0.6-0.4c0.1,0,0.4-0.2,0.7-0.4c0.3-0.2,0.6-0.4,0.7-0.4c0.1,0,0.2-0.1,0.2-0.2
		c0-0.1,0.1-0.2,0.2-0.2s0.4-0.1,0.4-0.2c0.1-0.1,0.6-0.4,1-0.7s0.7-0.4,0.8-0.4c0.1,0,0.2-0.1,0.2-0.2c0-0.1,0.4-0.4,0.6-0.4
		c0.2-0.1,0.4-0.4,0.4-0.4c0-0.1,0.1-0.1,0.1-0.1c0.1,0,0.6-0.2,1-0.6s1.2-0.7,1.4-1c0.2-0.1,0.7-0.4,1-0.4c0.2-0.1,0.6-0.2,0.6-0.4
		c0-0.1,0.4-0.2,0.6-0.4c0.2-0.1,0.8-0.4,1-0.6c0.4-0.1,0.7-0.4,1-0.6c0.1-0.1,0.8-0.6,1.5-1c0.7-0.4,1.3-0.7,1.4-0.7
		c0.1,0,0.6-0.2,1-0.4s1.2-0.7,1.5-1c0.4-0.2,0.6-0.4,0.7-0.4s0.7-0.2,1.4-0.6s1.5-0.7,1.9-0.8s0.7-0.4,0.8-0.4
		c0.1-0.1,0.2-0.2,0.4-0.2c0.1,0,0.6-0.2,1-0.4c0.4-0.2,1-0.4,1.3-0.6c0.4-0.4,0.6-0.4,0.6-0.4c0.1-0.1,0.8-0.4,1.6-0.7
		c0.8-0.4,1.8-0.6,2.2-0.7c0.4-0.1,0.8-0.2,1-0.4s0.4-0.2,0.8-0.4s1-0.4,1.3-0.4c0.4-0.1,0.7-0.2,0.8-0.2c0.1,0,0.4-0.1,0.6-0.2
		c0.1-0.1,1-0.4,1.9-0.6s2.1-0.4,2.7-0.7c0.6-0.1,2.2-0.6,3.7-1s2.9-0.7,3.3-0.8c0.4-0.1,1.6-0.4,2.7-0.4c1-0.2,2-0.4,2.1-0.4
		c0.1-0.1,1.3-0.2,2.5-0.4c1.2-0.1,2.7-0.4,3.4-0.4c0.7-0.1,1.8-0.2,2.5-0.2c0.7-0.1,2.4-0.2,3.5-0.4c1.2-0.1,2.6-0.2,2.9-0.2
		c0.4,0,2.9,0,5.5,0c2.7,0,6.6,0.1,8.8,0.2c2.2,0.1,4.1,0.2,4.1,0.4c0.1,0,0.4,0.1,0.6,0.1c0.2,0,1,0.1,1.8,0.2
		c0.7,0.1,2.6,0.4,4.1,0.6s2.9,0.4,3.1,0.4c0.1,0.1,0.6,0.2,1.3,0.2c0.6,0.1,1.6,0.4,2.4,0.4c0.7,0.1,2,0.4,2.9,0.7
		c1,0.2,1.8,0.4,1.9,0.4c0.1,0.1,1.2,0.4,2.2,0.7c1,0.2,2.1,0.6,2.2,0.7c0.1,0.1,0.8,0.2,1.4,0.4c0.7,0.2,1.5,0.4,2,0.6
		c0.4,0.1,1.2,0.4,1.6,0.6c0.4,0.1,1,0.4,1.3,0.4c0.2,0.1,1,0.4,1.4,0.6c0.4,0.1,1.4,0.4,2.1,0.7c0.7,0.2,1.4,0.6,1.8,0.7
		c0.4,0.1,0.7,0.2,0.8,0.2c0.1,0,0.4,0.1,0.8,0.4s1.3,0.6,1.9,1c0.7,0.2,1.6,0.8,2.2,1s1,0.4,1.2,0.4c0.1,0,0.2,0.1,0.4,0.2
		c0.1,0.1,0.6,0.4,1,0.7c0.6,0.2,1.2,0.7,1.5,0.8c0.2,0.2,0.6,0.4,0.8,0.4c0.2,0,0.2,0,0.4,0.1c0.1,0.1,0.2,0.2,0.6,0.4
		c0.2,0.1,0.7,0.4,1,0.4c0.2,0.1,0.4,0.2,0.4,0.4c0,0.1,0.4,0.2,0.7,0.4c0.4,0.1,1.2,0.6,1.6,1c0.6,0.4,1,0.7,1.2,0.7
		c0.1,0,0.4,0.2,1,0.6c0.4,0.4,0.8,0.6,1,0.6s0.4,0.2,1,0.6c0.4,0.4,1,0.6,1,0.6c0.1,0,0.2,0,0.2,0.1c0,0.1,0.4,0.4,0.8,0.7
		c0.4,0.3,1,0.7,1,0.7c0.1,0.1,0.4,0.2,0.7,0.4c0.2,0.1,0.8,0.6,1.3,1c0.4,0.4,1,0.7,1,0.7c0.1,0,0.4,0.2,0.7,0.4
		c0.4,0.2,0.7,0.7,1,0.8c0.1,0.1,0.4,0.4,0.4,0.4c0.1,0,0.2,0.1,0.4,0.4c0.1,0.2,0.4,0.4,0.4,0.4c0.1,0,0.2,0.1,0.4,0.2
		c0.1,0.1,0.4,0.4,0.4,0.6c0.2,0.2,0.4,0.4,0.4,0.1c0.1-0.1,0-0.1,0-0.1c-0.1,0.1-0.1,0-0.1,0s0.1-0.1,0.2-0.1
		c0.1,0,0.2,0.1,0.1,0.2c0,0.2,0.2,0.4,1,1c0.6,0.4,1,1,1.2,1c0.1,0.1,0.2,0.2,0.4,0.2c0.1,0,0.4,0.4,0.8,0.7
		c0.4,0.4,0.8,0.7,0.8,0.7s1,0.8,2,1.8c1,1,2.7,2.7,3.7,3.7s2.2,2.4,2.7,2.8c0.4,0.4,1.2,1.2,1.5,1.6c0.4,0.4,1.2,1.3,1.6,2
		c0.6,0.7,1.3,1.5,1.6,2c0.4,0.4,0.7,0.8,0.7,1c0.1,0.1,0.2,0.4,0.4,0.4c0.1,0.1,0.2,0.2,0.2,0.4s0,0.2,0.1,0.2s0.4,0.4,0.7,0.8
		c0.4,0.4,0.8,1,1,1.4c0.2,0.4,0.6,0.8,0.8,1.2c0.2,0.2,0.8,1.2,1.4,2c0.6,0.8,1,1.5,1,1.6c0,0,0.1,0.2,0.2,0.4
		c0.1,0.1,0.4,0.4,0.6,0.8c0.1,0.2,0.4,0.8,0.7,1.2c0.2,0.4,0.6,0.8,0.7,1c0.1,0.2,0.4,0.7,0.4,1c0.1,0.2,0.4,0.6,0.4,0.6
		c0.1,0,0.2,0.4,0.4,0.7c0.2,0.4,0.6,1.2,1,1.8c0.2,0.6,0.6,1.3,0.7,1.5c0.1,0.2,0.4,0.6,0.4,1c0.1,0.2,0.4,0.6,0.4,0.6
		c0.1,0,0.1,0.1,0.1,0.2c0,0.1,0.4,0.8,0.7,1.5c0.4,0.7,1,1.9,1.3,2.6c0.3,0.7,0.8,1.6,1,2.2c0.2,0.6,0.4,1,0.4,1
		c0.1,0.1,0.4,0.7,0.4,1.4c0.2,0.7,0.4,1.3,0.6,1.4c0.1,0.1,0.1,0.2,0.1,0.4c0,0.1,0.1,0.4,0.2,0.7c0.1,0.2,0.4,0.8,0.4,1.3
		c0.1,0.4,0.7,2,1.2,3.4c0.4,1.4,1,2.8,1,2.9c0,0.2,0.1,0.4,0.2,0.7c0.1,0.1,0.4,0.7,0.4,1.3c0.1,0.6,0.4,1.2,0.4,1.4
		c0.1,0.2,0.2,0.7,0.4,1s0.2,0.8,0.4,1c0.1,0.1,0.4,1.6,0.7,3.1c0.4,1.5,0.6,3.1,0.7,3.5c0.1,0.4,0.2,1.2,0.4,1.9
		c0.1,0.7,0.4,2.6,0.6,4.3s0.4,3.7,0.4,4.8c0,1,0.1,1.9,0.2,2c0.1,0.1,0.1,2.7,0.1,6.3c0,3.4,0,6.9-0.1,7.8c-0.1,1-0.1,2.2-0.2,2.9
		c-0.1,0.7-0.2,2.4-0.4,3.7c-0.1,1.4-0.4,2.6-0.4,2.7c-0.1,0.1-0.1,0.4-0.2,1c0,0.4-0.2,1.6-0.4,2.8c-0.1,1.2-0.4,2.6-0.4,3.1
		c-0.1,0.6-0.2,1-0.4,1s-0.1,0.1-0.1,0.4s-0.1,1.2-0.4,2.2s-0.4,1.9-0.4,2c0,0-0.2,0.7-0.4,1.5c-0.2,0.8-0.4,1.6-0.4,1.8
		s-0.1,0.4-0.2,0.7c-0.1,0.2-0.4,1.2-0.7,2c-0.2,0.8-0.6,1.9-0.7,2.2c-0.1,0.4-0.2,0.8-0.4,1c-0.1,0.1-0.4,1-0.7,1.9
		c-0.4,0.8-0.7,1.9-0.8,2.1c-0.1,0.4-0.2,0.6-0.2,0.7c0,0.1-0.1,0.4-0.2,0.7c-0.1,0.4-0.4,1-0.7,1.4c-0.2,0.4-0.6,1.4-0.8,2.1
		s-0.6,1.4-0.7,1.8c-0.1,0.4-0.4,0.7-0.4,0.8c0,0.1-0.1,0.2-0.1,0.2c-0.1,0-0.1,0.1-0.1,0.1c0,0.1-0.1,0.6-0.4,1
		c-0.2,0.4-0.4,1-0.7,1.4c-0.1,0.4-0.4,0.7-0.4,0.8c-0.1,0.1-0.4,0.8-0.7,1.5c-0.4,0.7-0.8,1.6-1,2c-0.2,0.4-0.4,0.8-0.6,1
		s-0.2,0.2-0.2,0.4s-0.1,0.2-0.2,0.4c-0.1,0.1-0.4,0.8-1,1.4c-0.4,0.7-0.8,1.4-1,1.5c-0.1,0.1-0.6,0.8-1,1.4
		c-0.4,0.6-0.8,1.2-0.8,1.3s-0.1,0.4-0.4,0.6s-0.4,0.4-0.4,0.6s-0.2,0.4-0.4,0.7c-0.2,0.4-0.6,1-1,1.3c-0.4,0.4-0.8,1-1,1.5
		c-0.4,0.4-0.7,0.8-0.8,1c-0.1,0.2-0.4,0.7-0.8,1c-0.4,0.4-1,1.2-1.2,1.6c-0.4,0.4-0.7,1-1,1.2c-0.2,0.1-0.4,0.4-0.7,0.8
		c-0.2,0.4-0.4,0.6-0.6,0.7c-0.1,0.1-0.2,0.4-0.2,0.4c0,0.1-0.1,0.2-0.2,0.4c-0.1,0.1-0.6,0.6-1,1.2c-0.4,0.6-1,1.2-1.2,1.4
		c-0.2,0.2-0.6,0.6-0.7,0.8c-0.1,0.2-1.3,1.4-2.5,2.6c-1.2,1.2-2.7,2.7-3.3,3.1c-0.6,0.6-1.5,1.3-2,1.8c-0.4,0.4-1.2,1-1.6,1.4
		c-0.4,0.4-1.3,1.2-2,1.6c-0.7,0.6-1.3,1-1.4,1s-0.4,0.2-0.6,0.4s-0.6,0.4-1,0.7c-0.4,0.2-0.7,0.6-0.8,0.7c-0.1,0.1-0.4,0.2-0.4,0.4
		c-0.1,0.1-0.7,0.4-1.2,0.8c-0.4,0.4-1.2,1-1.5,1.2c-0.4,0.2-0.7,0.4-0.7,0.4s-0.2,0.1-0.4,0.4c-0.2,0.1-1,0.8-2,1.4
		c-1,0.6-1.8,1.2-1.9,1.3c-0.1,0.1-1,0.6-1.8,1.2c-0.8,0.6-1.8,1.2-2.2,1.4c-0.4,0.2-1,0.6-1.5,0.8c-0.4,0.2-1.2,0.6-1.5,0.8
		c-0.4,0.2-1,0.6-1.4,0.8s-1,0.6-1.3,0.7c-0.2,0.1-0.8,0.4-1.2,0.6s-0.7,0.4-0.8,0.4c-0.1,0.1-0.4,0.2-0.4,0.2
		c-0.2,0-0.7,0.2-1.2,0.4c-0.4,0.2-0.8,0.4-0.8,0.4c0,0.1-0.2,0.1-0.4,0.1c-0.1,0-0.6,0.1-1,0.4c-0.4,0.2-0.8,0.4-1,0.4
		c-0.1,0-0.2,0.1-0.4,0.2c-0.1,0.1-0.4,0.2-0.7,0.4c-0.4,0.1-1,0.4-1.5,0.6c-0.5,0.2-1,0.4-1,0.4c-0.1,0-0.4,0.1-0.8,0.4
		s-0.7,0.4-0.8,0.4c-0.1,0-0.4,0.1-0.6,0.2c-0.2,0.1-0.8,0.4-1.4,0.4c-0.4,0.1-1,0.4-1,0.4c-0.1,0.1-0.6,0.2-1.2,0.4
		s-1.3,0.4-1.5,0.4c-0.2,0.1-0.7,0.2-1,0.4s-0.8,0.2-1.2,0.4s-1,0.2-1.3,0.4c-0.4,0.1-1,0.2-1.2,0.4c-0.4,0.1-0.7,0.2-0.8,0.2
		c-0.1,0-0.4,0.1-0.7,0.2c-0.2,0.1-0.7,0.2-1,0.2c-0.3,0-0.6,0.1-0.7,0.1c-0.1,0.1-0.7,0.2-1.4,0.4c-0.7,0.1-1.3,0.2-1.3,0.4
		s-1,0.4-2.4,0.6c-1.2,0.2-2.5,0.4-2.7,0.6c-0.2,0-1,0.1-1.9,0.2c-0.8,0.1-1.6,0.2-1.9,0.2c-0.2,0.1-1,0.2-1.8,0.2
		c-0.7,0.1-2.1,0.2-3.1,0.4c-1,0.1-1.9,0.2-2.1,0.4c-0.1,0.1-1,0.1-1.9,0.2c-0.8,0-2.5,0.1-3.5,0.1
		C187.5,444.4,184.2,444.5,181.3,444.5L181.3,444.5z M182.5,434.7c2.4,0,4.3-0.1,4.6-0.2l0.4-0.1l-0.4-0.2c-0.2-0.1-0.6-0.4-0.8-0.4
		c-0.2-0.1-1-0.6-1.8-1c-0.8-0.4-1.4-0.8-1.4-0.8c0-0.1-0.1-0.1-0.2-0.1c-0.1,0-0.4-0.1-0.4-0.2c-0.1-0.1-0.4-0.4-0.7-0.4
		c-0.2-0.1-1-0.6-1.9-1c-0.8-0.4-2-1.3-2.6-1.8c-0.6-0.4-2-1.5-2.8-2.2c-1-0.7-2-1.6-2.4-2s-1-1-1.3-1.3c-0.4-0.4-0.7-0.6-0.8-0.6
		s-0.4-0.2-0.4-0.4c-0.2-0.2-1-1-1.6-1.8c-0.7-0.7-1.6-1.8-2.1-2.4c-0.4-0.6-1.2-1.4-1.5-1.9c-0.4-0.4-0.8-1-1-1.3s-0.4-0.6-0.7-1
		c-0.2-0.2-0.6-0.8-1-1.3c-0.2-0.4-0.7-1-1-1.4c-0.2-0.4-0.7-1-1-1.5c-0.2-0.4-0.4-1-0.6-1c-0.1-0.1-0.4-0.4-0.6-1
		c-0.2-0.4-0.6-1-0.8-1.4c-0.2-0.4-0.4-0.7-0.4-0.7c0-0.1-0.2-0.6-0.4-1.3c-0.2-0.6-0.4-1.2-0.4-1.3c0-0.1-0.1-0.2-0.1-0.4
		c-0.1-0.1-0.4-0.6-0.4-1.2c-0.2-0.6-0.4-1-0.4-1.2c0-0.1-0.1-0.2-0.1-0.4c-0.1,0-0.1-0.2-0.1-0.4s-0.1-0.4-0.1-0.6
		c-0.1-0.1-0.2-0.6-0.4-1c-0.1-0.4-0.2-1-0.2-1c0-0.1-0.1-0.4-0.2-0.7c-0.1-0.2-0.2-0.4-0.2-0.7c0-0.1-0.1-0.8-0.1-1.5
		c-0.1-0.7-0.2-1.3-0.4-1.4c-0.1-0.1-0.2-0.8-0.4-1.8c-0.1-0.8-0.2-3.1-0.2-5.1c0-2.1,0.1-4.3,0.2-5.5c0.1-1,0.2-2,0.4-2
		c0.1,0,0.1-0.2,0.1-0.4s0.1-1,0.4-1.8c0.2-0.8,0.4-1.8,0.6-2.4c0.1-0.4,0.2-1,0.4-1s0.1-0.4,0.2-0.7c0.1-0.4,0-0.6-0.2-0.8
		c-0.1-0.1-0.6-0.2-1-0.4c-0.4-0.1-0.7,0-0.7,0.1s-0.1,0.1-0.2,0.1c-0.1,0-0.6,0.1-1,0.4c-0.4,0.1-0.7,0.4-0.8,0.4
		c-0.1,0-0.6,0.2-1,0.4c-0.4,0.2-1.2,0.4-1.5,0.6c-0.4,0-1.2,0.2-1.8,0.2c-0.6,0.1-1.3,0.2-1.4,0.4c-0.2,0.1-1,0.1-2.1,0.1
		c-1,0-2.5-0.1-3.3-0.2c-0.8-0.1-1.8-0.2-1.9-0.2c-0.2-0.1-0.7-0.2-1-0.4s-0.7-0.2-0.7-0.2s-0.7-0.4-1.5-0.6
		c-0.8-0.2-1.5-0.6-1.5-0.6c-0.1-0.1-0.4-0.2-0.7-0.2c-0.4-0.1-0.7-0.4-0.8-0.4c-0.1-0.1-0.4-0.2-0.4-0.2c-0.1,0-0.8-0.4-1.6-1
		c-0.8-0.6-1.5-1-1.5-1s-0.2-0.2-0.6-0.4c-0.2-0.2-1.3-1.2-2.1-2c-1-1-1.6-1.8-1.6-1.8c0-0.1-0.2-0.4-0.4-0.6
		c-0.2-0.2-0.4-0.4-0.4-0.6c0-0.1-0.4-0.6-0.7-1c-0.4-0.4-0.8-1.3-1-1.6c-0.2-0.4-0.6-1.2-0.8-1.8c-0.2-0.4-0.6-1-0.7-1.3
		c-0.1-0.2-0.4-0.7-0.6-1c-0.1-0.4-0.4-1-0.6-1.5c-0.1-0.4-0.2-1-0.4-1c-0.1-0.1-0.2-0.6-0.4-1c-0.1-0.4-0.4-1.4-0.6-2.1
		c-0.4-1.2-0.4-1.5-0.4-5.1c0-2.8,0.1-4.3,0.2-5.5c0.1-0.8,0.4-2,0.4-2.6c0.1-0.6,0.4-1.8,0.8-2.6c0.2-0.8,0.6-1.6,0.7-1.9
		c0.1-0.1,0.2-0.4,0.2-0.4s0.2-0.8,0.6-1.4c0.4-0.7,0.7-1.5,1-1.9c0.2-0.6,0.2-0.7,0.1-1c-0.1-0.1-0.4-0.2-1-0.4c-0.4-0.1-1-0.1-1,0
		s-0.4,0.1-0.6,0.1c-0.2,0-0.6,0.1-0.7,0.1c-0.1,0.1-0.4,0.2-0.8,0.2s-1,0.2-1.4,0.4c-0.4,0.2-1,0.4-1.4,0.6
		c-0.4,0.1-1.4,0.8-2.2,1.4c-0.8,0.6-1.6,1.2-1.9,1.3c-0.2,0.1-1,0.7-1.5,1.4c-0.6,0.7-1.5,1.6-1.9,2.1c-0.4,0.4-1,1.3-1.2,1.6
		c-0.2,0.4-0.6,1-0.8,1.3c-0.2,0.2-0.6,1.2-1,2s-0.7,1.6-0.7,1.9c-0.1,0.2-0.2,1-0.4,1.6c-0.1,0.7-0.2,1.3-0.4,1.4
		c0,0.1-0.1,0.4-0.1,1c0,0.4-0.1,1-0.1,1.3c0,0.3-0.1,1-0.1,1.5c0,0.4-0.1,1.5-0.1,2.2s0,1.9,0.1,2.6c0,0.7,0.1,1.5,0.2,1.8
		c0,0.4,0.2,1,0.4,1.5c0.1,0.6,0.4,1.6,0.4,2.4c0.1,0.7,0.4,1.9,0.6,2.5c0.1,0.6,0.4,1.4,0.6,1.6c0.1,0.4,0.2,0.7,0.2,0.7
		c0,0.1,0.1,0.4,0.2,0.6c0.1,0.2,0.2,0.7,0.4,1c0.1,0.4,0.2,0.7,0.4,0.8c0.1,0.1,0.2,0.4,0.2,0.4c0,0.1,0.2,0.8,0.6,1.5
		c0.4,0.7,0.7,1.3,0.7,1.4c0,0,0.1,0.4,0.2,0.6c0.1,0.2,0.2,0.6,0.4,0.7c0.1,0.1,0.2,0.4,0.2,0.4c0,0.1,0.4,0.8,1,1.6
		c0.4,0.8,1,1.5,1,1.5s0.1,0.2,0.4,0.6c0.2,0.4,0.4,0.6,0.4,0.6c0.1,0.1,0.2,0.2,0.2,0.2c0,0.1,0.4,0.6,0.7,1c0.4,0.4,1,1.2,1.2,1.6
		c0.2,0.4,0.6,0.8,0.8,1c0.1,0.2,0.4,0.6,0.8,1c0.2,0.4,0.7,0.8,1,1.2c0.2,0.4,1.8,1.8,3.3,3.3c1.5,1.5,3.1,3.1,3.5,3.5
		c0.4,0.4,0.8,0.7,0.8,0.7s0.6,0.4,1.2,0.8c0.6,0.4,1.2,1,1.3,1c0.1,0.1,0.4,0.4,0.4,0.6c0.1,0.2,0.2,0.6,0.2,0.7
		c0,0.2-0.1,0.4-0.4,0.6c-0.1,0.1-0.4,0.4-0.7,0.4c-0.2,0-0.6-0.1-0.8-0.4c-0.2-0.1-0.4-0.4-0.4-0.4c-0.1,0-0.4-0.1-0.6-0.4
		c-0.2-0.2-0.6-0.6-0.8-0.7c-0.2-0.2-0.4-0.4-0.6-0.4c-0.1,0-0.6-0.4-1.2-1c-0.6-0.4-1-1-1-1c-0.1,0-0.4-0.2-0.6-0.4
		c-0.2-0.2-1-1-1.4-1.4c-0.4-0.4-1-1-1-1c-0.1,0-0.4-0.2-0.7-0.6s-0.6-0.6-0.7-0.6c-0.1,0-1-1-2.1-2.1c-1-1.2-2.2-2.4-2.5-2.7
		c-0.2-0.4-0.7-1-1.2-1.5c-0.4-0.4-1-1.2-1.2-1.5c-0.2-0.4-0.7-1-1-1.3c-0.2-0.4-0.4-0.7-0.6-0.8c-0.1-0.1-0.4-0.6-0.7-1
		c-0.4-0.6-0.8-1.2-1-1.5c-0.2-0.4-0.4-0.7-0.6-1c0-0.2-0.2-0.6-0.4-0.8c-0.1-0.2-0.4-1-0.7-1.5c-0.2-0.6-0.7-1.4-0.8-1.9
		c-0.2-0.4-0.4-1-0.7-1.5s-0.4-1.2-0.6-1.6c-0.1-0.4-0.2-0.8-0.2-1c0,0-0.2-0.7-0.4-1.4c-0.2-0.7-0.4-1.8-0.6-2.1
		c-0.1-0.4-0.2-1-0.4-1c-0.1-0.1-0.2-0.7-0.4-1.4c-0.1-0.7-0.4-2-0.4-2.8c-0.1-0.8-0.4-2.6-0.4-3.7c-0.1-1.2-0.1-2.9-0.1-3.7
		s0.1-2.4,0.1-3.3c0.1-1,0.2-2,0.2-2.4s0.1-0.7,0.1-0.8c0-0.1,0.2-1,0.4-1.9c0.1-1,0.4-1.6,0.4-1.8c0.1-0.1,0.2-0.4,0.2-0.7
		c0.1-0.2,0.2-0.8,0.4-1.2c0.2-0.4,0.4-0.8,0.4-1c0-0.1,0.1-0.4,0.2-0.6c0.1-0.1,0.4-0.6,0.4-0.8c0.1-0.4,0.4-0.6,0.4-0.7
		c0-0.1,0.4-0.6,0.7-1.2c0.4-0.6,0.7-1,0.8-1.2c0.1-0.1,0.4-0.6,0.7-1c0.4-0.4,0.7-1,0.7-1c0.1,0,0.1-0.1,0.1-0.1
		c0-0.1,0.4-0.6,0.8-1.2c0.4-0.6,1.2-1.4,1.5-1.8c0.3-0.4,1.2-1,1.8-1.6c0.6-0.4,1.6-1.2,2.2-1.5c0.6-0.3,1.5-0.8,2.1-1.2
		s1.6-0.7,2.2-1c0.6-0.2,2-0.4,3.1-0.7c1-0.1,2.2-0.4,2.9-0.4c0.7-0.1,1.5-0.1,2-0.1c0.4,0,0.8,0.1,0.8,0.1c0,0.1,0.4,0.1,0.7,0.1
		c0.3,0,1.2,0.1,1.6,0.1c0.7,0.1,1.2,0.1,1.4,0c0.2-0.1,1.4-1.2,2.7-2.4c1.3-1.2,2.5-2.4,2.8-2.6c0.2-0.2,0.6-0.4,0.8-0.6
		c0.1-0.1,0.4-0.4,0.6-0.6c0.1-0.2,0.4-0.4,0.4-0.4c0.1,0,0.4-0.4,1-0.7c0.4-0.4,1-0.8,1.2-0.8c0.2,0,0.4-0.1,0.4-0.2
		c0-0.1,0.1-0.2,0.2-0.2c0.1,0,0.7-0.4,1.3-0.8c0.6-0.4,1.2-0.8,1.4-1c0.2-0.1,0.8-0.4,1.3-0.8s1.2-0.8,1.4-1
		c0.2-0.2,0.6-0.6,0.6-0.7c0.1-0.1,0.2-0.4,0.4-0.7c0.1-0.2,0.4-0.8,0.7-1.3c0.2-0.6,0.6-1,0.6-1.2c0.1-0.1,0.2-0.4,0.2-0.4
		c0.1-0.1,0.2-0.4,0.4-0.7c0.1-0.2,0.4-0.8,0.7-1.3s0.6-1.2,0.8-1.4s0.4-0.7,0.6-1c0.1-0.2,0.4-0.6,0.6-1c0.2-0.4,0.4-0.6,0.4-0.6
		s0.4-0.7,1-1.3c0.4-0.7,1-1.4,1.2-1.5c0.1-0.2,0.4-0.6,0.7-1s0.7-1,1-1.5c0.4-0.7,0.6-1,0.6-1.3s-0.7-1-1.5-1.8
		c-0.8-0.8-1.4-1.4-1.5-1.4c-0.1,0-0.4-0.2-0.7-0.4c-0.4-0.2-0.7-0.7-1-1c-0.2-0.2-0.4-0.4-0.4-0.4c-0.1,0-0.7-0.4-1.4-0.8
		c-0.7-0.4-1.6-1-2-1.3c-0.4-0.2-0.8-0.4-1-0.6c-0.1-0.1-0.4-0.4-1-0.4c-0.4-0.2-1.5-0.7-2.6-1.2c-1-0.4-2-1-2.1-1
		c-0.1,0-0.4-0.1-0.6-0.2c-0.2-0.1-0.6-0.2-1-0.4c-0.2,0-0.7-0.2-1-0.4c-0.2-0.1-0.7-0.2-1-0.4c-0.4-0.1-0.8-0.2-1-0.4
		c-0.2-0.1-0.4-0.1-0.7-0.1s-0.7-0.1-1.2-0.2c-0.4-0.1-1.2-0.4-1.6-0.4c-0.4-0.1-1.2-0.1-1.8-0.2c-0.6,0-2.4-0.1-3.9-0.1
		c-2,0-3.5,0-5.1,0.1c-1.2,0.1-2.4,0.4-2.5,0.4c-0.1,0.1-0.4,0.1-0.4,0.1c-0.1,0-0.6,0-1.2,0.1c-0.4,0.1-1.3,0.2-1.8,0.4
		c-0.4,0.1-1,0.2-1.2,0.4c-0.2,0.1-0.4,0.2-0.6,0.2c-0.1,0-0.2,0-0.4,0.1c-0.1,0-0.8,0.2-1.4,0.4c-0.7,0.2-1.3,0.4-1.4,0.4
		c-0.1,0-0.4,0.1-1,0.4c-0.4,0.2-1,0.4-1.2,0.4c-0.2,0.1-0.7,0.2-1,0.4c-0.4,0.2-0.7,0.4-0.8,0.4c-0.1,0-0.8,0.4-1.5,0.7
		c-0.7,0.4-1.6,1-2.1,1.2c-0.4,0.2-0.8,0.4-1,0.6c0,0-0.4,0.2-0.6,0.4c-0.2,0.1-0.8,0.4-1.3,0.8c-0.4,0.2-0.8,0.6-1,0.7
		c-0.1,0.1-0.2,0.2-0.4,0.2c-0.1,0-0.4,0.1-0.6,0.4c-0.2,0.2-1,0.7-1.4,1c-0.6,0.4-1.2,0.8-1.3,1c-0.2,0.2-0.8,0.7-1.3,1
		s-1.8,1.6-2.9,2.7c-1,1-2.4,2.5-2.8,2.9c-0.4,0.4-1,1-1,1.3c-0.1,0.2-0.6,0.7-1,1.2c-0.4,0.4-1,1.3-1.4,1.9c-0.4,0.6-0.8,1.2-1,1.2
		c-0.1,0-0.2,0.1-0.2,0.2c0,0.1-0.4,0.7-0.8,1.4c-0.4,0.7-1,1.8-1.4,2.4c-0.4,0.6-0.7,1.3-0.8,1.5c-0.1,0.2-0.6,1.3-1.2,2.4
		c-0.4,1-1,2.4-1.2,2.9c-0.2,0.6-0.4,1.2-0.4,1.3c-0.1,0.1-0.4,1-0.4,1.6c-0.2,0.7-0.4,1.9-0.7,2.6c-0.1,0.7-0.4,2.2-0.7,3.5
		c-0.2,1.2-0.4,3.1-0.6,4c-0.4,0.4-0.4,1.4-0.4,1.6s0,1-0.1,1.8c-0.1,0.8-0.1,2.9,0,5.4c0.1,2.2,0.2,4.5,0.4,5.1
		c0.1,0.6,0.2,1.6,0.4,2.5c0.1,0.8,0.2,1.9,0.4,2.4c0.1,0.4,0.2,1.2,0.2,1.8c0.1,0.4,0.2,1.6,0.4,2.5c0.1,0.8,0.2,1.6,0.2,1.8
		c0.1,0.1,0.2,0.7,0.4,1.4c0.1,0.7,0.4,2,0.6,2.9c0.2,1,0.6,2.2,0.7,2.9c0.2,0.7,0.4,1.8,0.6,2.2c0.1,0.4,0.2,1,0.4,1.3
		c0,0.2,0.1,0.4,0.2,0.4c0.1,0.1,0.4,1,0.7,1.8c0.4,1,0.6,1.8,0.7,1.9c0.1,0.1,0.2,0.7,0.4,1.2c0.2,0.4,0.4,1.2,0.6,1.5
		c0.1,0.4,0.4,1,0.6,1.5c0.2,0.4,0.4,1,0.6,1.3c0.1,0.2,0.2,0.6,0.2,0.7c0,0.1,0.1,0.2,0.1,0.4c0.1,0,0.1,0.2,0.1,0.4
		s0.1,0.4,0.2,0.4c0.1,0.1,0.4,0.8,0.8,1.5c0.4,0.7,1,1.9,1.3,2.6c0.4,0.7,0.7,1.3,0.7,1.4c0,0,0.4,0.7,0.8,1.4
		c0.4,0.7,1,1.8,1.3,2.4c0.4,0.6,0.7,1.2,0.8,1.4c0.1,0.2,0.4,0.4,0.4,0.4c0,0.1,0.2,0.4,0.4,0.7c0.2,0.4,0.8,1.2,1.2,1.8
		c0.4,0.6,0.8,1.2,0.8,1.3c0,0,0.2,0.4,0.4,0.7c0.2,0.4,0.4,0.7,0.4,0.7s0.2,0.4,0.4,0.7c0.2,0.4,0.7,1,0.8,1.2c0.2,0.2,0.7,1,1,1.4
		c0.4,0.4,0.8,1,1,1.4c0.2,0.2,1,1.3,1.9,2.4c0.8,1,1.9,2.4,2.5,2.9c0.6,0.6,1,1.2,1,1.2s1.6,1.8,3.7,3.9c2.1,2.1,4.6,4.5,5.5,5.1
		c1,0.8,2.1,1.8,2.5,2.1c0.4,0.4,0.8,0.7,1,1c0.2,0.1,1,0.8,1.8,1.3c0.7,0.6,1.4,1,1.5,1.2c0.1,0.1,0.4,0.2,0.4,0.4
		c0.1,0.1,1,0.7,1.6,1.2c0.8,0.6,1.5,1,1.5,1s0.1,0.1,0.2,0.2c0.1,0.1,1,0.7,1.9,1.3c1,0.6,2,1.2,2.1,1.3c0.2,0.1,1,0.6,1.8,1
		c0.7,0.4,2.6,1.5,4,2.2s2.8,1.4,3.1,1.5c0.4,0.1,1.3,0.6,2.2,1c1,0.4,2,1,2.5,1.2s1,0.4,1,0.4c0.1,0,0.6,0.2,1,0.4
		c0.4,0.2,1.5,0.6,2.5,1c1,0.2,1.8,0.6,1.9,0.7c0.1,0.1,0.6,0.2,1,0.4s0.7,0.2,1,0.4c0.1,0.1,0.8,0.4,1.3,0.4c0.6,0.2,1.5,0.4,2,0.6
		c0.6,0.1,1,0.2,1,0.4c0.1,0.1,1.4,0.4,2.8,0.7c1.5,0.4,2.8,0.7,3.1,0.8c0.2,0.1,0.4,0.1,0.7,0.1s0.4,0.1,0.4,0.1
		c0.1,0.1,0.8,0.2,1.8,0.4c0.8,0.1,1.6,0.4,1.8,0.4c0.1,0,0.6,0.1,1,0.1s1.3,0.1,1.6,0.2c0.4,0.1,1,0.2,1.3,0.2
		c0.4,0.1,1.4,0.2,2.2,0.4s1.6,0.2,1.8,0.4c0.1,0.1,1.2,0.2,2.5,0.4s3.3,0.2,4.5,0.4C177.2,434.7,180.1,434.7,182.5,434.7
		L182.5,434.7z M212.5,426.5c2,0,3.4-0.1,3.5-0.2c0.1-0.1,1.5-0.4,3.1-0.4c1.5-0.2,2.9-0.4,2.9-0.4c0.1-0.1,0.4-0.1,0.8-0.2
		c0.4,0,1-0.1,1.3-0.1c0.3,0,0.6-0.1,0.7-0.2c0,0,0.6-0.2,1.3-0.4c0.7-0.2,1.5-0.4,2-0.6c0.4-0.1,1-0.4,1.3-0.4
		c0.2-0.1,1-0.4,1.5-0.7c0.6-0.2,1-0.4,1.2-0.4c0.1,0,0.2-0.1,0.4-0.1c0-0.1,0.4-0.4,1-0.6c0.4-0.2,1.2-0.4,1.4-0.6s1.2-0.4,2.1-1
		c1-0.4,2.1-1,2.6-1.4c0.4-0.2,1-0.6,1.4-0.7c0.2-0.1,0.4-0.2,0.4-0.4s0.2-0.2,0.4-0.4s0.4-0.2,0.6-0.4c0,0,0.4-0.4,1-0.8
		c0.4-0.4,1-0.7,1.2-0.7c0.1,0,0.2-0.1,0.4-0.2c0.1-0.1,0.4-0.4,0.6-0.4c0.2-0.1,0.4-0.4,0.6-0.4c0.1-0.1,0.6-0.4,1-0.7
		c0.4-0.2,0.7-0.4,0.8-0.4c0.1,0,0.2-0.1,0.4-0.4c0.1-0.1,0.2-0.4,0.4-0.4c0.1,0,0.6-0.4,1.2-0.8s1.4-1.2,2-1.5c0.4-0.4,1-0.7,1-0.8
		c0.1,0,0.6-0.4,1-1c0.4-0.4,1-1,1.3-1c0.2-0.1,1.2-1,2-1.8c0.8-0.8,1.8-1.6,1.9-1.9c0.1-0.2,0.4-0.4,0.7-0.7
		c0.2-0.1,0.7-0.7,1.3-1.3c0.4-0.4,1.4-1.4,2-2s1.5-1.5,2-2.1c0.6-0.6,1.3-1.4,1.5-1.8c0.4-0.4,0.7-1,1-1.2c0.2-0.2,0.4-0.7,0.7-0.8
		c0.1-0.2,0.8-1,1.5-2c0.6-0.8,1.4-1.9,1.8-2.4c0.4-0.4,1-1.3,1.4-1.9c0.4-0.6,0.7-1.2,0.7-1.2s0.2-0.4,0.4-0.8
		c0.2-0.4,0.4-0.7,0.6-0.8c0-0.1,0.4-0.6,0.6-1c0.4-0.4,0.8-1.3,1.2-1.8c0.2-0.4,0.7-1.2,1-1.5c0.2-0.4,0.4-1,0.7-1
		c0.2-0.2,0.4-0.4,0.4-0.6c0-0.1,0.1-0.4,0.4-0.8c0.1-0.4,0.4-0.7,0.4-0.8c0-0.1,0.1-0.1,0.1-0.1c0.1,0,0.4-0.6,0.7-1.3
		c0.4-0.7,0.6-1.4,0.6-1.5c0-0.1,0-0.2,0.1-0.2c0.1,0,0.2-0.4,0.4-0.8c0.2-0.4,0.6-1.3,1-2c0.4-0.7,0.7-1.5,0.8-1.9
		c0.1-0.4,0.4-0.7,0.4-0.8c0,0,0.1-0.4,0.4-1c0.2-0.4,0.4-0.8,0.4-1c0,0,0.1-0.4,0.2-0.6c0.1-0.2,0.4-1.2,0.7-2
		c0.2-0.8,0.7-1.9,0.8-2.4c0.1-0.4,0.4-1,0.4-1c0.1-0.1,0.2-0.6,0.2-1c0.1-0.4,0.2-1,0.4-1.2s0.4-1.2,0.6-2c0.2-0.8,0.4-1.5,0.4-1.6
		c0.1-0.1,0.1-0.4,0.2-0.6c0-0.2,0.2-0.8,0.4-1.4c0.1-0.6,0.4-1.5,0.4-2.1c0.1-0.6,0.4-1.3,0.4-1.3c0.1-0.1,0.2-0.6,0.2-1
		c0.1-0.6,0.2-1.5,0.4-2.2c0.1-0.7,0.2-1.8,0.4-2.5c0.1-0.7,0.2-1.6,0.2-2.2s0.1-1,0.2-1.3c0.1-0.1,0.2-1,0.2-2.1
		c0-1,0.2-2.6,0.2-3.5c0-1,0.1-1.9,0.2-2c0.1-0.1,0.1-2.4,0.1-5.6c0-3.4,0-5.5-0.1-5.6c-0.1-0.1-0.2-1-0.2-2.1s-0.2-2.8-0.4-3.7
		c-0.1-1-0.4-2.5-0.4-3.3c-0.1-0.8-0.4-1.9-0.4-2.4c-0.1-0.4-0.2-1.3-0.4-1.8c-0.1-0.4-0.2-1.2-0.2-1.5c-0.1-0.4-0.2-1.3-0.4-2.1
		c-0.2-0.8-0.4-1.6-0.4-1.8c-0.1-0.1-0.4-1-0.4-1.8c-0.2-0.8-0.4-1.9-0.6-2.5s-0.2-1.2-0.4-1.3c-0.1-0.1-0.2-0.7-0.4-1.2
		c-0.2-0.4-0.4-1.2-0.4-1.6c-0.1-0.4-0.4-1.6-1-2.8c-0.4-1.2-1-2.4-1-2.6c-0.1-0.2-0.4-0.8-0.4-1.3c-0.2-0.4-0.4-1-0.6-1.4
		s-0.4-1-0.6-1.4c-0.2-0.4-0.6-1.3-1-1.9s-0.6-1.2-0.6-1.3c0-0.1-0.4-1-1-2c-0.4-1-1-2-1.2-2.2s-0.4-0.7-0.6-1
		c-0.1-0.2-0.4-1-0.7-1.4c-0.2-0.4-0.6-1-0.7-1.2c-0.1-0.1-0.2-0.2-0.2-0.4s-0.1-0.2-0.2-0.4c-0.1-0.2-0.4-0.7-0.7-1.2
		c-0.2-0.4-0.6-0.8-0.7-0.8c-0.1,0-0.2,0-0.2,0.1c0,0.1-0.1,2.4-0.1,4.9c0,2.8,0,4.8-0.1,4.9c-0.1,0.1-0.2,1-0.2,1.9
		c0,1-0.1,2.2-0.2,2.8c-0.1,0.6-0.2,1.5-0.4,2c-0.1,0.4-0.2,1.3-0.4,1.9s-0.2,1.2-0.2,1.3c-0.1,0.1-0.2,1-0.4,1.9
		c-0.1,1-0.4,1.8-0.4,2.1c-0.1,0.2-0.4,1.2-0.7,2c-0.2,0.8-0.6,1.6-0.6,1.6c-0.1,0.1-0.1,0.2-0.1,0.4s-0.2,0.7-0.4,1.4
		c-0.2,0.7-0.6,1.4-0.7,1.6c-0.1,0.2-0.2,0.4-0.2,0.6c0,0.1-0.4,1-1,2.2c-0.6,1.2-1.4,2.7-1.8,3.3s-0.8,1.4-1,1.5
		c-0.1,0.2-0.4,0.4-0.4,0.6c-0.1,0.1-0.2,0.4-0.2,0.4c0,0.1-0.4,0.8-1,1.5c-0.6,0.7-1.3,1.5-1.4,1.9c-0.2,0.2-1.5,1.6-2.9,3.1
		c-1.4,1.4-2.8,2.7-3.1,2.9c-0.4,0.2-0.7,0.4-1,0.6c-0.2,0.1-0.4,0.4-0.7,0.6c-0.2,0.1-0.4,0.4-0.4,0.4s-0.4,0.2-0.8,0.4
		c-0.4,0.2-0.8,0.4-0.8,0.4c-0.1,0-0.1,0-0.1,0.1s-0.1,0.2-0.2,0.2c-0.1,0.1-0.8,0.4-1.5,1c-0.7,0.4-1.4,1-1.8,1
		c-0.2,0.1-0.6,0.2-0.7,0.4c-0.1,0.1-0.6,0.4-1,0.4c-0.4,0.2-1,0.4-1,0.6c-0.1,0.1-0.4,0.2-0.8,0.4s-0.8,0.4-1.2,0.4
		c-0.4,0.1-0.7,0.2-0.8,0.2c-0.1,0-0.7,0.2-1.2,0.4c-0.4,0.2-1,0.4-1.2,0.4c-0.1,0-0.6,0-1,0.1c-0.4,0.1-1,0.4-1.5,0.4
		c-0.4,0.1-1,0.2-1,0.2c-0.1,0.1-0.6,0.2-1,0.4c-0.4,0.1-1.2,0.2-1.5,0.4c-0.4,0-0.7,0.2-0.8,0.4c-0.2,0.2-0.2,0.4,0,0.7
		c0.1,0.2,0.6,0.6,1,0.8s0.8,0.6,1,0.6c0.1,0.1,0.7,0.4,1.2,0.8c0.6,0.4,1.5,1.3,2.4,2c0.8,0.7,1.4,1.6,1.6,1.9
		c0.1,0.4,0.4,0.6,0.4,0.6c0.1,0,0.2,0.4,0.4,0.7c0.1,0.4,0.4,0.8,0.4,1c0.1,0.1,0.4,0.4,0.4,0.7c0.1,0.2,0.6,1.5,1,2.8
		c0.4,1.3,0.8,2.7,1,3.1c0,0.4,0.1,1.6,0.2,2.7c0.1,1.5,0.1,2.5-0.1,4.3c-0.1,1.3-0.2,2.6-0.4,2.9c0,0.2-0.1,0.7-0.2,0.8
		c-0.1,0.1-0.2,0.8-0.4,1.4c-0.1,0.6-0.4,1.5-0.6,2.1c-0.2,0.6-0.4,1.3-0.7,1.8c-0.2,0.4-0.4,0.8-0.4,1c0,0.1-0.1,0.2-0.1,0.2
		c-0.1,0.1-0.4,0.7-0.7,1.3c-0.4,0.6-0.7,1.4-1,1.6c-0.3,0.2-0.4,0.6-0.4,0.6s-0.1,0.4-0.4,0.6c-0.2,0.2-0.8,1-1.3,1.8
		c-0.6,0.7-1.3,1.5-1.5,1.9s-1,1-1.4,1.3c-0.4,0.4-1.4,1.2-2.1,1.8c-0.7,0.6-1.4,1.2-1.6,1.2c-0.2,0.1-0.4,0.2-0.4,0.2s-1,0.6-2.2,1
		c-1.3,0.4-2.2,1-2.2,1.2c0,0-0.8,0.4-1.6,0.7c-0.8,0.4-1.6,0.6-1.8,0.6c-0.1,0-0.4,0.1-0.6,0.2c-0.2,0.1-1.5,0.4-2.8,0.8
		c-2,0.4-2.6,0.6-4.3,0.7c-1,0-2,0.1-2.1,0.2c-0.1,0.1-0.4,0.1-0.6,0.1s-0.4,0.1-0.7,0.2c-0.1,0.1-0.2,0.4-0.1,0.6
		c0,0.2,0.7,1,1.3,1.6c0.7,0.7,1.5,1.4,1.8,1.5c0.4,0.1,0.6,0.4,0.6,0.4c0,0.1,0.1,0.1,0.2,0.1c0.1,0,0.2,0.1,0.4,0.2
		c0.1,0.1,0.4,0.4,0.7,0.4c0.2,0.1,0.6,0.4,0.7,0.4c0.1,0.1,0.4,0.4,0.8,0.6s0.7,0.4,0.7,0.6c0,0,0.4,0.1,0.6,0.2
		c0.2,0.1,1.2,0.4,1.9,0.6c0.8,0.2,1.6,0.4,1.9,0.4c0.2,0,1.6,0.1,3.1,0.1c2.4,0,3.1,0,4.9-0.4c1.2-0.2,2.7-0.6,3.3-0.7
		c0.6-0.2,1.8-0.6,2.5-1c0.8-0.4,1.8-0.7,2.1-0.8c0.4-0.1,0.8-0.4,1-0.4s0.8-0.4,1.5-1c0.7-0.4,1.5-1,1.8-1c0.2-0.1,0.4-0.4,0.6-0.4
		c0-0.1,0.1-0.2,0.2-0.2c0.1,0,0.4-0.2,0.8-0.4s0.7-0.6,1-0.6c0.1-0.1,0.6-0.4,1-0.7c0.4-0.4,0.8-0.6,0.8-0.7c0-0.1,0.1-0.1,0.1-0.1
		c0.1,0,0.8-0.7,1.5-1.5c0.8-0.8,1.5-1.6,1.6-1.8c0.1-0.1,0.4-0.4,0.6-0.7c0.2-0.2,0.6-0.6,0.8-1c0.2-0.4,0.7-0.7,0.8-1
		c0.1-0.2,0.4-0.6,0.4-0.7c0.1-0.1,0.4-0.4,0.6-0.6c0.2-0.1,0.4-0.4,0.4-0.4c0-0.1,0.1-0.4,0.4-0.6c0.2-0.2,0.7-1,1.2-1.6
		c0.4-0.7,0.8-1.3,0.8-1.4s0.1-0.1,0.1-0.1c0.1,0,0.2-0.2,0.4-0.4s0.4-0.7,0.4-1c0.2-0.2,0.4-0.7,0.6-1c0.1-0.2,0.6-1,1-1.9
		c0.4-0.8,0.8-1.5,1-1.8c0-0.1,0.2-0.6,0.4-1c0.2-0.4,0.4-1.2,0.7-1.5c0.1-0.4,0.4-1,0.4-1.2c0.1-0.2,0.2-1,0.4-1.4
		c0.1-0.4,0.4-1,0.4-1c0.1-0.1,0.2-0.6,0.4-1s0.2-1,0.4-1.4s0.4-1.4,0.6-2.2s0.6-2.4,0.8-3.3c0.2-1,0.4-2.4,0.4-2.8
		c0.1-0.6,0.4-1.3,0.4-1.8l0.4-0.8h0.8c0.7,0,0.8,0,1,0.4c0.1,0.2,0.2,0.7,0.2,1.3c0,0.4-0.1,1-0.1,1.2c-0.1,0.1-0.2,1-0.4,1.8
		c-0.1,0.8-0.4,2.2-0.6,2.9c-0.2,0.7-0.4,1.6-0.4,1.9c-0.1,0.2-0.2,0.8-0.4,1.3c-0.1,0.4-0.4,1.4-0.6,2s-0.4,1.3-0.4,1.4
		c-0.1,0.1-0.4,1-0.7,2c-0.4,1-0.8,2.2-1,2.8c-0.4,0.6-0.7,1.4-0.8,1.8c-0.1,0.4-0.4,1-0.6,1.3c-0.1,0.3-0.4,1-0.6,1.3
		c-0.1,0.4-0.4,0.8-0.4,1c-0.1,0.1-0.2,0.4-0.4,0.7c-0.1,0.2-0.2,0.6-0.4,0.7c-0.1,0.1-0.4,0.4-0.4,0.7c-0.2,0.2-0.4,0.8-0.6,1
		c-0.1,0.4-0.4,0.6-0.4,0.6c-0.1,0-0.1,0.1-0.1,0.1c0,0.1-0.2,0.6-0.6,1s-1,1.3-1.2,1.9s-0.6,1-0.7,1c-0.1,0-0.2,0.2-0.4,0.6
		c-0.1,0.4-0.6,0.8-1,1.3c-0.4,0.4-0.6,0.7-0.6,0.8c0,0.1-0.1,0.2-0.4,0.4c-0.2,0.1-0.6,0.6-0.8,1c-0.2,0.4-0.8,1-1.3,1.4
		c-0.4,0.4-1,1-1.4,1.4s-1.2,1-1.9,1.6c-0.6,0.6-1.5,1.3-1.9,1.6s-0.7,0.7-0.7,0.8c0,0.1-0.1,0.1-0.2,0.1c-0.1,0-0.4,0.1-0.6,0.2
		c-0.2,0.1-0.4,0.4-0.6,0.4c-0.1,0.1-0.6,0.4-1.2,0.8c-0.6,0.4-1,0.7-1,0.7s-0.4,0.2-1,0.6c-0.4,0.4-1.2,0.7-1.5,1
		c-0.4,0.1-0.7,0.4-0.8,0.4c-0.1,0.1-0.6,0.4-1,0.4c-0.4,0.2-0.8,0.4-1,0.4s-0.4,0.1-0.8,0.4c-0.4,0.1-0.8,0.4-1,0.4
		c-0.1,0.1-0.7,0.2-1.2,0.4c-0.4,0.1-1,0.4-1,0.4c-0.1,0-0.4,0.1-0.7,0.2c-0.2,0.1-0.8,0.2-1.2,0.4s-0.7,0.1-0.8,0.1
		c0,0-0.2,0-0.4,0.1c-0.1,0.1-0.6,0.1-1,0.2c-0.4,0.1-0.8,0.1-1,0.1s-0.8,0.2-1.6,0.4c-1,0.1-2.4,0.2-3.7,0.2c-1.2,0-2.4,0-2.7-0.1
		c-0.2,0-1-0.2-1.3-0.4c-0.4-0.1-1-0.2-1-0.2c-0.1,0-0.4-0.1-0.6-0.2c-0.1-0.1-0.4-0.1-0.4-0.1c-0.1,0-0.4,0-0.8-0.2
		c-0.4-0.1-0.7-0.4-0.8-0.4c-0.1-0.1-0.2-0.2-0.4-0.2s-0.6-0.1-1-0.4c-0.4-0.2-1.5-0.7-2.4-1.2c-0.8-0.4-1.5-0.8-1.5-0.8
		c0-0.1-0.2-0.2-0.4-0.4s-0.4-0.4-0.4-0.4c0-0.1-0.1-0.1-0.2-0.1c-0.1,0-0.4-0.1-0.4-0.4c-0.1-0.2-0.4-0.4-0.4-0.4
		c-0.1,0-0.8-0.6-1.5-1.4c-0.7-0.7-1.4-1.5-1.5-1.8c-0.1-0.2-0.4-0.6-0.7-1c-0.2-0.4-0.6-0.8-0.8-1c-0.1-0.2-0.7-1.3-1.2-2.4
		c-0.7-1.4-1-1.9-1.4-2.1c-0.2-0.1-0.8-0.4-1-0.4c-0.4,0-0.6-0.1-0.7-0.1c-0.1,0-0.6-0.2-1-0.4c-0.4-0.1-1-0.2-1.2-0.4
		c-0.1-0.1-0.7-0.2-1.2-0.4c-0.4-0.1-1-0.2-1.2-0.2c-0.1,0-0.4,0-0.4-0.1s-0.4-0.2-1-0.4c-0.4-0.1-1.2-0.4-1.4-0.6
		c-0.2-0.2-0.6-0.2-0.8-0.2c-0.1,0-0.4-0.1-0.8-0.2c-0.4-0.1-0.7-0.4-1-0.4c-0.2-0.1-0.6-0.2-1-0.4c-0.2-0.1-0.7-0.4-1-0.4
		c-0.2,0-1-0.4-1.6-0.7l-1.3-0.6l-4.3-0.1c-2.5-0.1-4.9-0.1-5.5-0.2c-0.7,0-1.4-0.1-1.8-0.1c-0.2,0-0.7-0.1-1-0.1
		c-0.2,0-0.6-0.1-0.7-0.1c-0.1,0-1-0.1-1.9-0.2c-1-0.1-2.1-0.2-2.7-0.4c-0.6-0.1-1.9-0.4-2.8-0.4c-1.3-0.2-1.8-0.2-2-0.1
		c-0.1,0.1-0.4,0.4-0.6,0.8c-0.1,0.4-0.4,1.3-0.6,2.1c-0.1,0.8-0.4,2.4-0.4,3.3c-0.1,1-0.1,3.1-0.1,4.7s0.1,3.5,0.1,4.3
		s0.4,2.4,0.4,3.1c0.1,1,0.4,1.8,0.4,1.9c0.1,0.1,0.4,1,0.7,2.1s0.7,2.1,1,2.6c0.2,0.4,0.4,0.8,0.4,1c0,0.1,0.4,1.2,1.2,2.5
		c0.6,1.3,1.6,2.9,2.2,3.9c0.6,0.8,1.2,1.6,1.2,1.8c0.1,0.1,0.4,0.4,0.7,1c0.4,0.4,0.7,1,0.8,1c0.1,0.2,0.7,0.7,1,1.3
		c0.4,0.4,1.4,1.5,2.2,2.2c0.7,0.7,1.9,1.8,2.4,2.2c0.6,0.4,1.4,1.3,2,1.8c0.6,0.4,1,1,1.2,1c0.1,0.1,0.2,0.2,0.2,0.2
		s0.7,0.4,1.4,0.8c0.7,0.4,1.6,1,2,1.3s1,0.4,1.2,0.6c0.2,0.1,1,0.4,1.8,0.8c0.7,0.4,1.3,0.7,1.3,0.7s0.4,0.2,1,0.4
		c0.4,0.1,1.2,0.4,1.5,0.6c0.4,0.1,0.8,0.4,1,0.4c0.1,0.1,0.8,0.4,1.6,0.6c0.8,0.2,2,0.6,2.6,0.8s1.6,0.4,2.2,0.4
		c0.6,0.1,1.2,0.2,1.2,0.2c0,0.1,0.4,0.1,0.8,0.2c0.4,0,1.2,0.1,1.5,0.2c0.4,0.1,1.6,0.4,2.8,0.4c1.2,0.1,2.5,0.4,2.9,0.4
		c0.4,0,0.8,0.1,1,0.1c0.1,0.1,0.7,0.1,1.4,0.2C209.5,425.8,210.7,426.5,212.5,426.5L212.5,426.5z M212.8,376.5c1,0,2.2-0.1,2.5-0.1
		c0.2,0,0.6-0.1,0.7-0.1c0.1-0.1,0.6-0.1,1-0.2c0.4,0,1.4-0.2,2-0.4c0.6-0.1,1.3-0.4,1.5-0.4c0.2-0.1,0.7-0.2,1-0.2s1-0.2,1.2-0.4
		s0.7-0.2,0.7-0.2s1-0.4,2-1c1-0.6,2-1,2.1-1.2c0.1-0.1,0.4-0.2,0.4-0.2c0.1,0,0.2-0.1,0.4-0.2c0.1-0.1,0.4-0.4,0.6-0.4
		c0.1,0,0.8-0.4,1.5-1c0.7-0.6,2-1.8,3.1-2.8c1-1,1.9-1.9,1.9-2s0.1-0.2,0.2-0.4c0.1-0.2,0.6-0.8,1-1.4c0.4-0.6,1-1.4,1.2-1.8
		c0.2-0.4,0.7-1.3,1.2-2.1c0.4-0.8,0.8-1.8,1-2.1c0.1-0.4,0.2-0.8,0.4-1c0.1-0.2,0.4-1.2,0.4-2.1c0.2-1,0.4-2.4,0.4-3.1
		c0-0.8,0-1.8-0.1-2.1c-0.1-0.4-0.2-1.4-0.4-2.4s-0.4-2.2-0.6-2.8s-0.4-1.2-0.4-1.2c-0.1-0.1-0.2-0.4-0.4-0.7
		c-0.1-0.4-0.4-0.8-0.4-1c-0.1-0.2-0.7-1-1.2-1.5c-0.4-0.6-1.3-1.4-1.9-2c-0.6-0.6-1.4-1.2-1.9-1.5c-0.4-0.4-1.2-0.7-1.5-1
		c-0.4-0.2-0.7-0.4-0.8-0.4c-0.1,0-0.2-0.1-0.4-0.2c-0.1-0.1-0.4-0.2-0.7-0.4c-0.4,0-0.7-0.1-1-0.2c-0.2-0.1-0.4-0.2-0.6-0.2
		c-0.1-0.1-0.4-0.1-0.6-0.1c-0.2,0-0.4-0.1-0.4-0.1c-0.1-0.1-0.8-0.2-1.5-0.4c-0.8-0.1-2.1-0.2-2.9-0.2c-0.8,0-1.9,0.1-2.5,0.2
		s-1.3,0.2-1.6,0.4s-1,0.4-1.2,0.4c-0.2,0.2-0.8,0.4-1.2,0.7c-0.4,0.2-0.8,0.6-1.2,0.8s-0.8,0.7-1,1c-0.2,0.2-0.6,0.6-0.7,0.8
		c-0.1,0.2-0.4,0.6-0.6,1c-0.2,0.4-0.4,0.8-0.6,1c-0.1,0.2-0.4,0.7-0.4,0.8c-0.1,0.1-0.2,0.7-0.4,1.3c-0.1,0.6-0.4,1.3-0.4,1.8
		c-0.1,0.4-0.2,1.8-0.4,3.5c-0.1,1.5-0.2,2.9-0.2,3.1c-0.1,0.1-0.4,0.4-0.7,0.4c-0.2,0.1-1,0.1-1.5,0.1c-0.6,0-1.5-0.1-2.1-0.2
		c-0.6-0.1-1.6-0.4-2.2-0.4c-0.7-0.1-1.4-0.4-1.6-0.6c-0.2-0.1-0.6-0.2-0.7-0.2c-0.1,0-0.4,0-0.4-0.1c0-0.1-0.4-0.2-0.7-0.4
		c-0.4-0.1-1.2-0.4-1.8-0.8c-0.6-0.4-1.4-0.8-1.8-1c-0.4-0.1-1-0.7-1.5-1s-0.8-0.6-1-0.6s-0.1-0.1-0.1-0.2c0-0.1-0.1-0.2-0.2-0.4
		c-0.1-0.1-1-0.8-1.9-1.6c-1-0.8-1.8-1.8-2.1-2s-1-1.3-1.9-2.1s-1.5-1.9-1.6-2.1c-0.1-0.2-0.7-1-1.2-1.6c-0.5-0.6-1.2-1.5-1.4-1.9
		s-0.7-0.8-1-1c-0.4-0.2-0.8-0.4-2.4-0.4c-1,0-2.9,0-4.3,0s-3.1,0-3.7,0.1c-0.7,0-1.8,0.2-2.5,0.4s-1.9,0.4-2.7,0.6
		c-0.8,0.2-1.5,0.4-1.5,0.4c-0.1,0.1-0.6,0.2-1.2,0.4c-0.6,0.2-1.3,0.4-1.8,0.7c-0.4,0.2-1,0.6-1.6,1c-0.4,0.4-1,0.6-1.3,0.7
		c-0.2,0-0.8,0.4-1.5,1c-0.7,0.4-1.5,1.2-1.9,1.5c-0.4,0.4-0.7,0.7-0.7,0.8c0,0.1-0.1,0.2-0.2,0.4c-0.2,0.2-0.1,0.4,1.5,2
		c1,1,1.9,2,2.1,2.2c0.2,0.2,0.4,0.6,0.6,0.8c0.1,0.2,0.4,0.4,0.4,0.4c0.1,0,0.1,0.1,0.1,0.2c0,0.1,0.2,0.6,0.6,1
		c0.4,0.4,0.8,1.3,1.2,2c0.4,0.6,0.7,1.3,0.7,1.4s0.4,0.8,0.7,1.4c0.4,0.6,0.7,1.2,0.7,1.3c0.1,0,0.2,0.1,0.2,0.2
		c0,0.1,0.8,1,1.8,1.9c1,1,2.2,2.1,2.6,2.5c0.4,0.4,1.2,1,1.5,1.3c0.4,0.2,0.7,0.6,0.8,0.6s0.2,0.1,0.4,0.2c0.1,0.1,0.6,0.6,1,0.8
		c0.4,0.4,1,0.7,1,0.8c0.1,0.1,0.4,0.4,0.7,0.4c0.2,0.1,0.4,0.4,0.4,0.4c0,0.1,0.1,0.2,0.4,0.4c0.2,0.1,0.8,0.4,1.4,1
		c0.6,0.4,1.2,0.8,1.4,1s0.4,0.4,0.4,0.4c0,0.1,0.1,0.1,0.2,0.1c0.1,0,0.4,0.2,0.8,0.4s0.8,0.4,1,0.4c0.1,0,0.2,0,0.2,0.1
		s0.2,0.4,0.4,0.6s0.7,0.4,1,0.6c0.4,0.1,0.7,0.4,1,0.6c0.4,0.2,0.8,0.4,1.2,0.7c0.4,0.2,0.7,0.4,0.7,0.4c0.1,0,0.2,0.1,0.4,0.2
		c0.2,0.1,1,0.6,1.9,1c0.8,0.4,2,1,2.5,1.2c0.6,0.2,1,0.4,1.2,0.4c0.1,0,0.4,0.1,0.8,0.4s1,0.4,1.2,0.6s0.7,0.2,1,0.4
		c0.2,0.1,1.2,0.4,2.1,0.7c1,0.4,2.1,0.7,2.6,1c0.4,0.2,1.5,0.4,2.4,0.7c0.8,0.2,1.5,0.4,1.8,0.4c0.2,0,0.4,0.1,0.4,0.1
		c0,0.1,0.8,0.2,1.6,0.4c1,0.1,2,0.2,2.6,0.4c0.4,0,1,0.1,1,0.2c0,0.1,0.2,0.1,0.4,0c0.2,0,0.7,0,1,0.1
		C210.4,376.4,211.7,376.5,212.8,376.5L212.8,376.5z M228.1,347.4c-0.4,0-1-0.1-1.3-0.4c-0.4-0.1-0.8-0.6-1.2-0.8s-0.6-0.8-0.7-1
		c-0.1-0.4-0.1-0.8-0.1-1c0-0.2,0.1-0.7,0.1-1c0.1-0.2,0.2-0.6,0.2-0.6s0.2-0.2,0.4-0.4c0.1-0.2,0.6-0.4,1.2-0.7
		c0.4-0.2,1.2-0.4,1.4-0.4c0.4,0,1,0.1,1.3,0.4c0.4,0.2,1,0.6,1,0.8c0.1,0.2,0.4,0.7,0.4,1c0.1,0.4,0.1,0.8,0.1,1.3
		c0,0.4-0.2,1-0.4,1.4c-0.2,0.4-0.4,0.7-1,1C229,347.3,228.7,347.4,228.1,347.4L228.1,347.4z M228,345.3c0.4,0,0.6-0.1,0.8-0.4
		c0.1-0.2,0.4-0.6,0.4-0.7c0-0.2-0.1-0.4-0.4-0.7s-0.4-0.4-0.8-0.4s-0.6,0.1-0.8,0.4c-0.1,0.2-0.4,0.6-0.4,0.7
		c0,0.2,0.1,0.4,0.4,0.7C227.4,345.1,227.6,345.3,228,345.3z M143.7,368.6c0.6,0,1.8-0.2,2.6-0.4s1.8-0.4,2-0.4
		c0.2-0.1,0.4-0.2,0.6-0.2c0.1,0,0.7-0.2,1.4-0.4c0.6-0.2,1.3-0.6,1.6-0.8c0.4-0.2,0.7-0.4,1.2-0.6c0.4-0.1,1-0.6,1.5-1
		c0.4-0.4,1.3-1.2,1.9-1.8c0.6-0.6,1.3-1.4,1.5-1.8c0.2-0.4,0.4-1,0.7-1c0.1-0.2,0.4-0.6,0.4-1c0.1-0.4,0.4-0.8,0.4-1
		c0.1-0.2,0.2-0.7,0.2-0.8c0-0.2,0.1-0.4,0.1-0.7c0.1-0.2,0.1-1,0.1-2c0-1-0.1-2-0.2-2.8c-0.1-0.7-0.4-1.6-0.7-2.1s-0.7-1.4-1.2-2
		c-0.4-0.6-1.3-1.6-1.9-2.4c-0.6-0.7-1.5-1.5-2-1.9c-0.4-0.4-1.3-0.8-1.9-1.2c-0.6-0.4-1.4-0.7-1.6-1c-0.4-0.2-0.7-0.4-0.7-0.6
		c-0.1-0.1-0.1-0.4-0.1-0.8c0-0.4,0.2-0.8,0.6-1.4c0.4-0.4,0.6-0.8,0.7-1c0.1-0.1,0.1-0.2,0.1-0.2s0.6-0.7,1.4-1.5
		c0.8-0.8,1.4-1.4,1.5-1.4s0.4-0.2,0.4-0.4c0.2-0.2,0.4-0.4,0.7-0.6c0.1-0.1,0.4-0.2,0.4-0.4c0.1-0.1,0.6-0.4,1-0.7
		c0.4-0.4,1.2-0.7,1.5-1c0.4-0.2,1-0.4,1.2-0.6c0.2-0.1,1-0.4,1.5-0.6c0.6-0.2,1.3-0.4,1.5-0.6c0.2-0.1,0.7-0.2,0.8-0.4
		s0.6-0.2,0.8-0.4c0.2-0.1,1-0.4,1.8-0.4c0.7-0.1,1.9-0.4,2.6-0.6c0.7-0.1,1.4-0.2,1.5-0.4c0.1-0.1,0.8-0.2,1.5-0.4s1.6-0.2,2-0.2
		s1-0.1,1.3-0.2c0.4-0.1,1-0.2,1.6-0.2c1-0.1,1-0.1,2-1c0.6-0.6,1.3-1.3,1.5-1.8c0.2-0.4,0.6-0.8,0.6-0.8l0.1-0.2
		c0.1-0.1,0.4-0.4,0.4-0.6c0.2-0.2,0.6-0.8,0.8-1.3c0.2-0.4,0.6-1,0.7-1.3c0.1-0.2,0.7-1.3,1.3-2.4c0.6-1,1-2,1-2.1
		c0-0.1,0.1-0.4,0.2-0.6c0.1-0.2,0.4-0.8,0.6-1.4c0.2-0.6,0.4-1.4,0.4-1.9c0-0.4,0.1-1,0.2-1c0.1-0.1,0.2-0.8,0.4-1.5
		c0.1-0.7,0.1-1.8,0.1-2.5s-0.1-1.8-0.1-2.5c-0.1-0.7-0.2-1.5-0.4-1.8c-0.1-0.2-0.4-0.7-0.4-1c-0.1-0.4-0.2-0.4-0.8-0.4
		c-0.4,0-1,0.1-1.3,0.2c-0.4,0.1-0.8,0.4-1,0.4s-1,0.2-1.8,0.4c-1,0.2-1.9,0.2-4,0.2c-1.6,0-3.1-0.1-3.7-0.2
		c-0.7-0.1-1.5-0.2-1.9-0.2s-1.3,0-1.9,0.1c-0.6,0-2,0.2-3.1,0.4c-1,0.2-2,0.4-2,0.4c0,0.1-0.4,0.1-0.8,0.2c-0.4,0-0.8,0.2-1,0.4
		c-0.1,0.1-0.2,0.2-0.4,0.2c-0.1,0-1,0.4-2.2,0.7c-1,0.4-2.1,0.7-2.4,0.8c-0.2,0.1-0.4,0.2-0.7,0.4s-0.8,0.2-1.3,0.4
		c-0.4,0.2-1.2,0.4-1.4,0.6c-0.2,0.1-1,0.4-1.5,0.6c-0.6,0.2-1.5,0.7-2.4,1c-0.7,0.4-1.5,0.7-1.8,0.7c-0.2,0-0.4,0.1-0.4,0.2
		c0,0.1-0.4,0.2-0.7,0.4c-0.4,0.2-1,0.4-1.3,0.6c-0.4,0.1-0.8,0.4-1,0.6c-0.2,0.1-0.7,0.4-1,0.7s-0.7,0.4-0.7,0.4s-0.4,0.2-0.8,0.4
		c-0.4,0.2-0.8,0.6-1,0.6c-0.1,0.1-0.7,0.4-1.3,0.8c-0.6,0.4-1.2,0.7-1.2,0.8c-0.1,0.1-0.2,0.2-0.4,0.2s-0.2,0.1-0.4,0.2
		c-0.1,0.1-0.6,0.4-1,0.8c-0.4,0.4-1,0.6-1,0.6s-0.2,0.1-0.2,0.4c-0.1,0.1-0.4,0.4-0.4,0.4c-0.1,0-0.4-0.1-0.4,0s-0.2,0.4-0.4,0.4
		c-0.2,0.1-0.7,0.6-1,0.8c-0.4,0.4-1,1-1.6,1.5c-0.6,0.4-1,1-1,1c-0.1,0-0.7,0.6-1.4,1.3c-0.7,0.7-1.3,1.3-1.3,1.4c0,0-0.4,0.6-1,1
		c-0.4,0.4-1.2,1.2-1.3,1.5c-0.2,0.4-0.4,0.6-0.4,0.6s-0.4,0.6-0.8,1.2c-0.4,0.6-1.2,1.9-1.6,2.8s-1,2-1,2.4
		c-0.1,0.4-0.2,0.7-0.2,0.7c0,0.1-0.2,0.4-0.2,1c-0.1,0.4-0.2,1-0.4,1.2c-0.1,0.2-0.4,1.4-0.4,2.5c-0.2,1.8-0.4,2.5-0.2,4.9
		c0,1.6,0.1,3.3,0.2,3.9s0.2,1.4,0.4,1.9c0.1,0.6,0.2,1,0.4,1c0.1,0.1,0.1,0.2,0.1,0.4s0.2,0.8,0.4,1.5c0.2,0.7,0.6,1.6,0.8,2
		c0.1,0.4,0.4,1,0.6,1.3c0.1,0.4,0.7,1.3,1.2,2.1c0.4,0.8,1,1.6,1.3,1.9c0.2,0.2,0.4,0.4,0.4,0.6s0.6,0.7,1.2,1.4
		c0.7,0.7,1.6,1.6,2.2,2.1s1.3,1,1.5,1.3c0.2,0.2,0.6,0.4,0.7,0.4c0.1,0,0.2,0.1,0.4,0.2c0.1,0.1,0.4,0.4,1,0.7c0.4,0.2,1,0.6,1,0.7
		c0.1,0.1,0.6,0.4,1,0.4c0.4,0.2,1,0.4,1.3,0.6c0.2,0.1,0.6,0.2,0.8,0.4c0.2,0,1,0.2,1.5,0.4c0.6,0.1,1.5,0.4,2.1,0.4
		C142.2,368.6,143.1,368.8,143.7,368.6L143.7,368.6z M145.6,361.7c-0.4,0-0.7,0-0.7,0c0-0.1-0.2-0.2-0.4-0.2c-0.2,0-0.7-0.4-1-0.6
		c-0.4-0.4-0.7-0.7-0.8-1.2c-0.2-0.4-0.2-1-0.2-1.6c0-0.8,0.1-1,0.4-1.6c0.2-0.4,0.6-0.7,0.8-0.8c0.2-0.1,0.4-0.2,0.4-0.2
		c0-0.1,0.1-0.1,0.4-0.1s0.4-0.1,0.4-0.1c0-0.1,0.4-0.1,0.7-0.1s0.7,0.1,0.7,0.1c0,0.1,0.2,0.1,0.4,0.1s0.6,0.2,1,0.7
		c0.4,0.4,0.8,1,0.8,1.3c0.1,0.4,0.1,0.8,0.1,1.2c0,0.2-0.1,0.8-0.2,1.3c-0.1,0.4-0.4,1-0.7,1.2c-0.4,0.2-0.8,0.6-1,0.6
		C146.3,361.5,145.9,361.5,145.6,361.7L145.6,361.7z M145.5,358.6c0.2,0,0.6-0.1,0.8-0.4c0.2-0.2,0.4-0.6,0.4-0.8s-0.1-0.6-0.4-0.8
		s-0.6-0.4-0.8-0.4c-0.2,0-0.6,0.1-0.8,0.4s-0.4,0.6-0.4,0.8s0.1,0.6,0.4,0.8S145.2,358.6,145.5,358.6z M180.6,365.2
		C180.6,365.2,180.6,365.1,180.6,365.2c0.1-0.1,0-0.1,0-0.1S180.5,365.1,180.6,365.2C180.5,365.1,180.5,365.2,180.6,365.2z
		 M206.6,345.3c0.1,0,0.4-0.1,0.4-0.4c0.2-0.2,0.4-1,0.6-1.6c0.1-0.7,0.4-1.6,0.6-2.1c0.2-0.4,0.4-1.2,0.6-1.6
		c0.2-0.4,0.4-1,0.7-1.5c0.2-0.4,0.4-1,0.6-1c0.1-0.1,0.4-0.7,0.7-1c0.2-0.4,0.7-1,0.8-1.4c0.2-0.4,0.4-0.7,0.4-0.8
		c0-0.1,0.1-0.4,0.2-0.7c0.1-0.2,0.4-1.4,0.8-2.5s0.6-2.1,0.6-2.2s0.1-0.4,0.2-0.6c0.1-0.1,0.2-0.8,0.4-1.5c0.1-0.7,0.2-1.3,0.4-1.4
		c0.1-0.1,0.2-0.6,0.2-1c0.1-0.4,0.2-1.3,0.4-1.8c0.1-0.4,0.4-1.8,0.4-2.9c0.1-1,0.4-2.1,0.4-2.4c0.1-0.1,0.2-1,0.2-1.9
		s0.1-2,0.1-2.5c0-0.4,0.1-1.9,0.1-3.1c0.1-1.8,0.1-3.1,0-6.3c-0.1-2.4-0.2-5.1-0.4-6c-0.1-1-0.2-2.2-0.4-2.7
		c-0.1-0.6-0.4-1.6-0.4-2.5c-0.1-0.8-0.4-2-0.4-2.5c-0.1-0.6-0.4-1.3-0.4-1.6c-0.1-0.4-0.4-1.2-0.6-1.9c-0.2-0.7-0.4-1.8-0.6-2.1
		c-0.1-0.4-0.4-1.4-0.8-2c-0.4-0.7-0.7-1.5-1-2c-0.2-0.4-0.4-1-0.7-1.3c-0.2-0.2-0.6-1-1-1.4s-1-1.4-1.4-1.9s-0.7-1-0.7-1
		c0-0.1-0.1-0.1-0.1-0.1s-0.6-0.4-1.2-1c-0.6-0.6-1.4-1.3-1.8-1.6s-0.8-0.7-1-0.8c-0.1-0.1-0.4-0.4-0.8-0.6c-0.4-0.1-0.7-0.4-1-0.6
		c-0.2-0.1-0.8-0.4-1.2-0.7s-0.8-0.4-0.8-0.4c0-0.1-0.2-0.1-0.4-0.2c-0.2-0.1-0.8-0.2-1.3-0.4c-0.4-0.2-1.2-0.4-1.6-0.7
		c-0.4-0.1-1-0.4-1-0.4c-0.2-0.1-0.4-0.1-0.6-0.1c-0.1,0-0.4-0.1-0.8-0.1s-0.6-0.2-0.7-0.2c0-0.1-1-0.2-1.9-0.4
		c-1-0.2-2.2-0.4-2.6-0.4c-0.4-0.1-1-0.1-1.3-0.1c-0.2,0-1,0.1-1.8,0.1c-0.7,0-1.6,0.1-2,0.1s-1.5,0.1-2.4,0.2
		c-1,0.1-2.1,0.2-2.7,0.4c-0.6,0.1-1.5,0.4-2,0.6c-0.6,0.2-1.2,0.4-1.5,0.6c-0.4,0.1-0.7,0.2-0.8,0.2c-0.1,0-0.2,0.1-0.2,0.1
		c0,0.1-0.2,0.2-0.4,0.2c-0.2,0-1,0.4-1.6,0.8c-0.7,0.4-1.5,1-1.9,1.3c-0.4,0.4-1,1-1.5,1.3c-0.4,0.4-0.8,0.8-0.8,0.8
		s-0.4,0.4-0.7,1c-0.4,0.4-0.8,1-1,1.4s-0.4,0.8-0.6,1.2c-0.1,0.4-0.2,0.7-0.4,1c-0.1,0.2-0.4,0.8-0.4,1.5c-0.1,0.6-0.4,1.5-0.6,2.1
		c-0.1,0.6-0.2,1.8-0.2,3.1c0,1.2,0.1,2.7,0.1,3.3c0.1,0.6,0.4,1.6,0.6,2.2c0.2,0.6,0.4,1.4,0.7,1.8c0.2,0.4,0.6,1,0.8,1.4
		s0.7,1,1,1.5c0.2,0.4,0.8,1,1.2,1.3c0.4,0.4,1,0.8,1.3,1.2c0.4,0.4,1,0.7,1.4,1c0.4,0.2,1.2,0.6,1.5,0.7c0.4,0.2,1.3,0.4,1.8,0.6
		c0.6,0.1,1.9,0.1,2.9,0.1s2.5-0.1,3.3-0.2c0.7-0.1,1.4-0.2,1.4-0.4c0.1-0.1,0.4-0.2,1-0.4c0.4-0.1,1.3-0.4,1.9-0.6s1.4-0.6,1.8-0.7
		c0.4-0.2,0.7-0.4,0.8-0.4c0.1-0.1,0.4-0.2,0.8-0.2c0.4-0.1,0.7,0,1,0.2c0.2,0.2,0.4,0.6,0.6,0.8c0.1,0.2,0.2,0.6,0.4,0.7
		c0.1,0.1,0.4,1,0.4,2c0.2,1,0.4,2.7,0.6,3.9c0.1,1.2,0.1,2.9,0.1,3.9c0,1-0.2,2.4-0.4,3.1c-0.1,0.7-0.4,1.8-0.4,2.2
		c-0.1,0.4-0.2,1-0.4,1.2s-0.2,0.8-0.4,1.3c-0.1,0.6-0.4,1.6-0.7,2.4c-0.2,0.7-0.4,1.4-0.4,1.5s-0.1,0.4-0.2,0.7
		c-0.1,0.4-0.4,1.2-0.8,2c-0.4,0.7-0.7,1.5-0.8,1.9c-0.1,0.2-0.4,0.7-0.4,1c-0.1,0.4,0,0.8,0.1,1.4c0.1,0.4,0.2,1,0.4,1
		c0,0.1,0.2,0.4,0.4,0.7c0.1,0.4,0.4,1,0.6,1.4c0.2,0.4,0.4,1,0.6,1.3c0.1,0.2,0.4,0.7,0.6,1c0.2,0.4,0.6,1,0.8,1.4
		c0.2,0.4,0.4,0.8,0.4,1s0.1,0.1,0.1,0.1c0.1,0,0.2,0.1,0.2,0.4s0.2,0.4,0.4,0.7c0.1,0.2,0.6,0.8,1,1.4c0.4,0.6,1,1.4,1.4,1.9
		c0.4,0.4,1,1,1.3,1.4c0.4,0.4,0.8,0.8,1,1c0.2,0.2,0.7,0.6,1,0.8s0.6,0.4,0.6,0.4s0.4,0.2,0.7,0.4c0.4,0.2,0.7,0.4,0.8,0.4
		c0.1,0,0.2,0,0.2,0.1s0.2,0.2,0.4,0.4s1,0.6,1.8,0.8c0.7,0.2,1.5,0.7,1.8,0.8c0.2,0.1,1,0.4,1.8,0.6c0.7,0.2,1.4,0.4,1.6,0.4
		C206.3,345.3,206.5,345.3,206.6,345.3L206.6,345.3z M174.7,283.9c-0.4,0-0.8,0-1,0s-0.7-0.2-1-0.4c-0.4-0.2-0.7-0.4-0.8-0.7
		s-0.4-0.4-0.4-0.7c-0.1-0.2-0.2-0.6-0.2-1s0-1,0.1-1.4c0.1-0.4,0.4-1,0.7-1.3c0.2-0.2,0.6-0.6,0.8-0.7c0.2-0.1,0.8-0.2,1.2-0.4
		c0.6-0.1,1,0,1.6,0.1c0.4,0.1,1,0.4,1.2,0.6c0.2,0.2,0.4,0.7,0.7,1c0.2,0.6,0.2,0.8,0.2,1.5c0,0.4-0.1,1-0.2,1.3
		c-0.1,0.4-0.4,0.7-0.7,0.8c-0.2,0.2-0.4,0.4-0.4,0.4s-0.1,0.1-0.2,0.1c-0.1,0-0.6,0.4-0.7,0.4C175.3,283.8,175,283.9,174.7,283.9
		L174.7,283.9z M174.3,281c0.2,0,0.6-0.1,0.7-0.4c0.1-0.2,0.4-0.4,0.4-0.7s-0.1-0.6-0.4-0.7c-0.2-0.2-0.4-0.4-0.7-0.4
		s-0.6,0.1-0.7,0.4c-0.1,0.2-0.4,0.4-0.4,0.7s0.1,0.6,0.4,0.7C173.7,281,174.1,281,174.3,281z M232.3,322.4c0.4,0,1-0.1,1-0.2
		c0.1-0.1,0.6-0.2,1-0.4c0.4-0.1,1.3-0.4,1.8-0.7c0.4-0.2,1-0.4,1.2-0.4c0.1,0,0.4-0.1,0.4-0.1c0.1-0.1,0.8-0.4,1.6-0.7
		c0.7-0.4,1.4-0.6,1.6-0.6c0.1,0,0.2-0.1,0.2-0.1c0-0.1,0.2-0.2,0.6-0.4c0.4-0.1,1-0.4,1.4-0.8c0.4-0.4,1-0.6,1-0.6
		c0.1,0,0.1-0.1,0.1-0.1c0-0.1,0.1-0.1,0.1-0.1c0.1,0,0.4-0.2,1-0.4c0.4-0.2,1-0.6,1-0.7c0.1-0.1,0.4-0.4,0.7-0.4
		c0.2-0.1,0.6-0.4,0.6-0.4c0.1-0.1,0.2-0.4,0.4-0.4c0.1,0,0.7-0.6,1.5-1.2c0.7-0.6,1.8-1.5,2.2-2c0.4-0.4,1.3-1.3,1.6-1.8
		c0.4-0.4,1.2-1.3,1.5-1.9c0.4-0.6,1.2-1.5,1.5-2.2c0.4-0.7,0.8-1.2,0.8-1.3s0.1-0.2,0.2-0.4c0.1-0.1,0.4-0.7,0.8-1.3
		c0.4-0.6,0.7-1.3,0.8-1.5c0.1-0.2,0.4-1,0.8-2c0.4-0.8,0.7-1.9,0.8-2.2c0.1-0.4,0.4-1,0.6-1.5s0.4-1.4,0.7-2.2s0.4-1.4,0.4-1.5
		c0,0,0.1-0.7,0.2-1.5c0.1-0.8,0.2-2.4,0.4-3.5c0.1-1.2,0.4-3.3,0.4-4.9c0.1-1.9,0-3.5-0.1-4.7c-0.1-1-0.4-2.7-0.6-3.7
		s-0.4-2.4-0.6-2.9c-0.1-0.6-0.4-1.5-0.6-2.2c-0.2-0.7-0.6-1.9-0.8-2.7s-0.6-1.8-0.7-2.4c-0.1-0.4-0.4-1-0.4-1.2
		c-0.1-0.1-0.2-0.6-0.4-1s-0.4-0.8-0.4-1.2c-0.1-0.4-0.4-0.8-0.4-1c-0.1-0.2-0.7-1.4-1.3-2.5c-0.6-1.2-1.4-2.7-2-3.4
		c-0.4-0.7-1-1.4-1-1.6c-0.1-0.1-0.2-0.4-0.2-0.4c-0.1-0.1-0.6-0.7-1-1.4c-0.4-0.7-1-1.3-1.2-1.5c-0.1-0.1-0.2-0.4-0.4-0.4
		c0-0.1-0.6-0.7-1-1.3c-0.6-0.6-1.9-2-2.8-2.9s-1.9-1.9-2-1.9c-0.1,0-0.2-0.1-0.2-0.2s-0.2-0.4-0.4-0.4c-0.2-0.1-0.6-0.4-0.8-0.6
		s-0.6-0.4-1-0.7c-0.2-0.2-0.7-0.6-0.8-0.7c-0.2-0.1-0.4-0.4-0.4-0.4c-0.1,0-0.4-0.1-0.6-0.4s-0.7-0.6-1-0.8s-1-0.6-1.2-0.7
		c-0.4-0.1-0.7-0.4-0.8-0.4c-0.1-0.1-0.4-0.4-0.6-0.4c-0.1-0.1-0.7-0.4-1-0.7s-1-0.4-1-0.6c-0.2-0.1-0.4-0.4-0.7-0.4
		c-0.2-0.1-0.4-0.4-0.8-0.4c-0.2-0.1-0.4-0.2-0.4-0.4s-0.1-0.1-0.2-0.1c-0.1,0-1.2-0.4-2.2-1c-1.2-0.6-2.1-1-2.2-1.2
		s-0.2-0.1-0.4-0.1s-0.6-0.2-1.2-0.4c-0.6-0.2-1.3-0.6-1.6-0.7c-0.4-0.1-1-0.4-1.4-0.4c-0.4-0.1-1-0.4-1.3-0.4
		c-0.2-0.1-0.6-0.2-0.7-0.2s-0.4-0.1-0.4-0.1c-0.1-0.1-0.7-0.4-1.3-0.4c-0.7-0.2-1.3-0.4-1.5-0.6c-0.1-0.1-0.7-0.4-1.3-0.4
		c-0.6-0.2-1.5-0.6-2.1-0.7c-0.7-0.2-1.3-0.4-1.4-0.4s-0.4-0.1-0.7-0.2c-0.2-0.1-0.6-0.2-0.8-0.2s-1-0.2-1.5-0.4
		c-0.7-0.2-1.3-0.4-1.4-0.4s-0.4,0-0.6-0.2c-0.2-0.1-1.3-0.4-2.4-0.7c-1-0.2-2.4-0.4-2.8-0.4s-1-0.1-1-0.2c-0.1-0.1-0.2-0.1-0.4,0.2
		h-0.4c-0.1-0.4-1-0.4-2-0.6c-1-0.1-2-0.4-2.2-0.4c-0.2-0.1-1.3-0.2-2.4-0.4c-1-0.1-2.2-0.2-2.6-0.2s-0.7-0.1-0.8-0.1
		s-1.4-0.1-2.8-0.2c-1.4-0.1-7.3-0.4-7.3-0.4s-4.8,0-5,0c0,0-0.6,0.1-1.3,0.1c-0.7,0-1.8,0-2.4,0.1c-0.6,0-1.2,0.1-1.3,0.1
		c-0.1,0.1-1,0.2-2,0.2c-1,0.1-3.1,0.4-4.6,0.4c-1.4,0.2-2.8,0.4-3.1,0.4c-0.2,0.1-1.2,0.2-2,0.4c-0.8,0.1-2.2,0.4-3.1,0.6
		c-0.8,0.1-1.6,0.4-1.9,0.4c-0.2,0.1-0.7,0.2-1.2,0.4c-0.4,0-1,0.2-1.4,0.4s-0.8,0.4-1,0.4c-0.2,0.1-0.6,0.1-0.7,0.2
		c-0.1,0.1-0.2,0.1-0.4,0.1c-0.1,0-0.4,0-0.6,0.1c-0.2,0.1-0.6,0.2-0.8,0.2c-0.2,0.1-0.8,0.2-1.3,0.4c-0.4,0.2-1.2,0.4-1.6,0.4
		c-0.4,0.1-0.8,0.4-1,0.4c-0.2,0.1-0.8,0.4-1.3,0.4c-0.4,0.1-1,0.4-1.4,0.4c-0.4,0.1-0.7,0.4-0.8,0.4c-0.1,0-0.4,0.1-0.8,0.2
		c-0.2,0.1-0.7,0.4-1,0.4c-0.4,0.1-0.7,0.2-1,0.4c-0.1,0.1-0.7,0.4-1,0.4c-0.4,0.1-1,0.4-1,0.4c-0.1,0.1-0.4,0.2-0.4,0.2
		c-0.1,0-0.8,0.2-1.6,0.7c-0.7,0.4-1.9,1-2.6,1.4c-0.7,0.4-1.8,1-2.2,1.2c-0.4,0.2-1,0.4-1,0.6c0,0-0.4,0.2-1,0.4
		c-0.4,0.2-1.2,0.6-1.6,0.8c-0.4,0.2-1.3,0.8-2.2,1.2c-0.7,0.4-1.4,1-1.6,1c-0.1,0.1-0.4,0.2-0.4,0.2c-0.1,0-0.4,0.1-0.4,0.2
		c0,0.1-0.2,0.2-0.6,0.4c-0.4,0.1-0.7,0.4-0.8,0.6c-0.1,0.1-0.2,0.2-0.4,0.2c-0.1,0-0.2,0.1-0.2,0.1c0,0.1-0.4,0.2-0.7,0.4
		c-0.4,0.1-0.7,0.4-0.8,0.6c-0.1,0.1-0.2,0.2-0.4,0.2c-0.1,0-0.4,0.2-0.7,0.4c-0.2,0.2-0.4,0.4-0.6,0.4c0,0-0.2,0.2-0.6,0.4
		c-0.2,0.2-1.3,1-2.2,1.8c-1,0.7-1.9,1.4-2,1.6c-0.1,0.1-0.7,0.6-1.2,1c-0.6,0.4-1.2,1-1.3,1.2c-0.1,0.2-0.6,0.6-1,0.8
		c-0.4,0.2-1.2,1-1.9,1.6c-0.7,0.6-1.9,1.6-2.6,2.5c-0.7,0.7-2.4,2.4-3.6,3.7c-1.2,1.3-2.5,2.6-2.8,3c-0.4,0.4-0.6,0.7-0.6,0.7
		s-0.2,0.4-0.6,0.8c-0.4,0.4-1,1-1.3,1.4s-0.4,0.4-0.4,0.6c0,0.1-0.4,0.7-1,1.3s-1,1.3-1.2,1.6c-0.1,0.2-0.6,0.8-1,1.4
		c-0.4,0.6-1,1.6-1.6,2.2c-0.4,0.6-1,1.3-1,1.6c-0.2,0.4-0.6,1-1,1.8c-0.4,0.7-0.8,1.4-1,1.8c-0.1,0.2-0.7,1.3-1.2,2.2
		c-0.4,1-0.8,1.8-0.8,1.8c0,0.1,0.4,0,0.6-0.1c0.4-0.1,0.7-0.4,0.8-0.4c0.1-0.1,0.4-0.2,0.4-0.2s0.6-0.2,1.2-0.6
		c0.6-0.4,1.2-0.7,1.2-0.7s0.4-0.2,0.7-0.4c0.4-0.1,0.6-0.4,0.7-0.4c0-0.1,1-0.6,2.2-1.2c1-0.6,2.4-1.2,2.8-1.3c0.4-0.1,1-0.4,1-0.6
		c0.2-0.1,0.7-0.4,1.2-0.4c0.4-0.1,0.8-0.4,1-0.4c0.1-0.1,1-0.4,1.6-0.7c0.7-0.2,1.6-0.4,1.8-0.6c0.2,0,0.4-0.1,0.4-0.1
		s0.4-0.2,1.2-0.4c0.6-0.1,1.3-0.4,1.4-0.4c0.1-0.1,0.8-0.2,1.4-0.4c0.6-0.1,1.2-0.2,1.3-0.4c0.1-0.1,0.8-0.2,1.6-0.4
		c0.8-0.1,2.4-0.4,3.6-0.6c1.2-0.2,2.5-0.4,3.1-0.4c0.6,0,1.2-0.1,1.2-0.2c0.1-0.1,1.3-0.1,4.6-0.1c3.8,0,4.9,0.1,7.2,0.4
		c1.6,0.2,3,0.4,3.1,0.4c0.1,0.1,1.3,0.4,2.5,0.7c1.2,0.4,2.4,0.6,2.4,0.7c0.1,0,0.4,0.2,1,0.4c0.4,0.1,1.6,0.6,2.4,1
		s1.6,0.7,1.8,0.8c0.1,0.1,0.6,0.4,1,0.4c0.4,0.2,1.3,0.7,1.8,1c0.4,0.4,1,0.7,1.2,0.7c0.1,0,0.4,0.2,0.7,0.4
		c0.2,0.1,0.6,0.4,0.8,0.4c0.2,0.1,0.4,0.2,0.4,0.2c0,0.1,0.4,0.4,1,0.7c0.4,0.4,1.3,1,1.9,1.4c0.6,0.4,1.2,1,1.3,1
		c0.1,0.1,1,1,2,1.9c1,1,1.8,1.8,1.8,1.9s0.4,0.4,0.7,0.8s0.8,0.6,1,0.6s0.4-0.1,0.6-0.4c0.1-0.2,0.4-1,0.4-1.6
		c0.1-0.6,0.2-1.8,0.4-2.6c0.1-0.8,0.4-1.9,0.6-2.4c0.2-0.6,0.7-1.6,1.2-2.5c0.4-0.8,0.8-1.6,1-1.8c0.1-0.1,0.4-0.4,0.4-0.6
		c0.1-0.2,0.4-0.6,0.6-0.7s0.4-0.4,0.4-0.4c0-0.1,0.2-0.4,0.4-0.6c0.2-0.2,0.6-0.6,0.6-0.6c0.1-0.1,0.6-0.4,1-1
		c0.4-0.4,1.4-1.2,1.9-1.6c0.6-0.4,1.3-1,1.6-1c0.2-0.1,0.4-0.2,0.4-0.2c0-0.1,0.1-0.1,0.4-0.2c0.2,0,0.8-0.4,1.4-0.6
		c0.6-0.2,1.3-0.6,1.4-0.7c0.1-0.1,0.8-0.2,1.3-0.4c0.6-0.1,1.6-0.4,2-0.4c0.6-0.1,1-0.2,1-0.4c0,0,1-0.2,2.4-0.4
		c1.9-0.2,3-0.4,6-0.4c2,0,4.4,0,5.2,0.1c0.8,0.1,2,0.2,2.6,0.4c0.6,0.1,1.6,0.4,2.4,0.6c0.7,0.1,1.4,0.4,1.6,0.4
		c0.2,0,0.4,0.1,0.4,0.2c0,0.1,0.2,0.1,0.4,0.2c0.2,0,0.8,0.2,1.2,0.4s1,0.4,1.6,0.7c0.4,0.2,1.3,0.7,1.8,1c0.4,0.2,1.2,0.7,1.6,1
		c0.4,0.2,1,0.4,1,0.7c0.2,0.1,0.6,0.4,1,0.7c0.4,0.2,1,0.7,1.4,1.2c0.4,0.4,1,1,1.3,1.2c0.2,0.2,1,1.3,1.9,2.2c0.7,1,1.6,2,1.9,2.2
		c0.2,0.4,0.6,0.6,0.6,0.6c0.1,0,0.4-0.1,0.6-0.4s0.6-0.6,0.7-0.8c0.1-0.2,0.4-1,0.4-1.6c0.2-1,0.2-1.8,0.2-3.7c0-1.3-0.1-3-0.2-3.6
		c-0.1-0.6-0.2-1.3-0.4-1.4c-0.1-0.2-0.2-0.4-0.2-0.6s-0.2-0.8-0.4-1.6s-0.6-1.6-0.7-1.9c-0.1-0.2-0.4-0.7-0.6-1
		c-0.1-0.4-0.4-0.8-0.6-1.2c-0.1-0.2-0.6-1-1-1.6c-0.4-0.6-1-1.3-1.3-1.6c-0.2-0.4-1-1.2-1.8-1.9c-0.7-0.7-1.6-1.6-2-1.9
		c-0.4-0.4-1-0.7-1-0.8c-0.1-0.1-0.6-0.4-1-0.6c-0.4-0.2-1-0.7-1.4-1s-0.8-0.6-1-0.6s-0.4-0.1-0.4-0.2c-0.1-0.1-0.2-0.2-0.4-0.2
		s-0.7-0.2-1.4-0.6c-0.7-0.4-1.8-0.8-2.5-1s-1.4-0.4-1.6-0.6c-0.1-0.1-1-0.4-2-0.6s-2.4-0.6-3.1-0.7c-0.8-0.1-1.6-0.4-1.9-0.4
		c-0.2-0.1-1-0.2-1.9-0.4c-0.8-0.1-1.6-0.1-1.9-0.1c-0.2,0-0.6,0-0.7,0c-0.1-0.1-1-0.2-1.9-0.2c-1,0-2.6-0.1-3.8-0.1s-2.8,0-3.4,0.1
		c-0.7,0-1.3,0.1-1.4,0.1s-0.6,0.1-1,0.2c-0.6,0-1.6,0.1-2.4,0.2c-0.7,0.1-1.6,0.2-1.6,0.4c-0.2,0.1-0.4,0.1-0.4,0.1
		c0,0-0.4,0-0.8,0.1c-0.4,0.1-1,0.2-1.2,0.2c-0.2,0-0.7,0.1-1,0.2c-0.4,0.1-1,0.2-1.4,0.4s-1.3,0.4-2,0.4c-0.7,0.2-1.6,0.4-1.9,0.6
		c-0.4,0.1-1,0.4-1.3,0.4c-0.4,0.1-1.3,0.4-1.9,0.7c-0.7,0.2-1.6,0.6-1.9,0.7c-0.4,0.1-0.8,0.2-1.2,0.2s-0.7,0-1-0.1
		s-0.4-0.2-0.6-0.4c-0.1-0.1-0.1-0.4-0.1-0.7c0-0.4,0.1-0.6,0.4-1c0.2-0.2,0.7-0.4,1.2-0.7c0.4-0.2,1-0.4,1-0.6
		c0.2-0.1,0.6-0.2,1-0.4c0.4-0.1,0.7-0.2,0.7-0.4c0.1-0.1,0.7-0.2,1.3-0.4s1.6-0.4,2.2-0.6c0.6-0.1,1.2-0.4,1.2-0.4s1-0.4,1.9-0.6
		c1-0.4,2-0.6,2.2-0.6c0.1,0,0.2,0,0.4-0.1c0-0.1,1-0.4,2.4-0.6c1.3-0.2,3.4-0.4,4.6-0.7c1.2-0.1,3-0.4,4-0.4s1.8-0.1,1.8-0.2
		c0-0.1,1.6-0.1,3.2-0.1c1.8,0,3.4,0.1,3.4,0.1c0.1,0,0.7,0.1,1.4,0.1c0.7,0,1.8,0.1,2.5,0.2c0.7,0.1,1.4,0.2,1.6,0.2
		c0.1,0.1,0.8,0.2,1.4,0.4c0.6,0.1,1.6,0.4,2.4,0.4c0.7,0.1,1.9,0.4,2.8,0.8c0.8,0.2,1.8,0.6,2,0.7s0.6,0.2,0.6,0.2s0.4,0.1,0.7,0.2
		c0.4,0.1,0.8,0.2,1,0.4c0.2,0.1,1,0.4,1.6,0.7c0.6,0.2,1.2,0.6,1.3,0.6c0.1,0,0.4,0.2,0.8,0.4c0.4,0.2,1,0.6,1.3,0.7s1,0.6,1.3,0.8
		c0.4,0.2,0.8,0.6,1.2,0.7c0.4,0.2,1,0.7,1.4,1c0.4,0.4,1,0.8,1.3,1c0.2,0.2,0.6,0.4,1,0.7c0.2,0.2,0.7,0.6,1,1c0.4,0.4,1,1,1.6,1.6
		c0.4,0.6,1,1.2,1.3,1.4c0.1,0.2,0.4,0.4,0.6,0.4s0.2,0.1,0.2,0.2c0,0.1,0.4,0.7,0.8,1.3c0.4,0.6,0.8,1.2,0.8,1.2
		c0,0.1,0.2,0.4,0.4,0.7c0.2,0.4,1,1.6,1.6,2.8s1.2,2.4,1.2,2.8s0.2,1,0.4,1.4c0.1,0.4,0.4,1.2,0.4,1.8c0,0.4,0.1,1,0.2,1
		c0.1,0.1,0.1,1,0.2,2c0,1,0,2.7,0,2.7s-0.6,2.1-0.8,2.9c-0.1,1-0.4,1.6-0.4,1.8c-0.1,0.1-0.1,0.2-0.1,0.4c0,0.1-0.1,0.4-0.4,1
		c-0.1,0.4-0.6,1.3-1,2c-0.4,0.7-0.7,1.4-0.8,1.4c-0.1,0-0.1,0.1-0.1,0.2c0,0.1-0.4,0.7-0.8,1.3c-0.4,0.6-1,1.3-1.2,1.6
		s-0.2,0.7-0.1,1c0,0.4,0.1,0.7,0.2,0.8c0.1,0.1,0.4,0.7,0.4,1.4c0.2,0.7,0.4,1.8,0.7,2.4c0.2,0.6,0.4,1.4,0.4,1.8
		c0.1,0.4,0.2,1,0.2,1.3s0.1,0.8,0.2,1c0.1,0.1,0.2,0.7,0.2,1c0.1,0.4,0.2,1.6,0.4,2.6c0.1,1,0.2,1.9,0.2,2.1c0.1,0.1,0.1,1,0.2,1.8
		c0,0.8,0.1,1.6,0.2,1.8c0.1,0.1,0.4,0.6,0.4,1c0.2,0.4,0.4,0.8,0.7,1.2c0.2,0.4,0.4,1,0.7,1.3c0.2,0.4,0.6,1,0.8,1.5
		s0.8,1.5,1.3,2.5c0.4,1,1,2,1.2,2.4c0.1,0.4,0.4,1,0.6,1.4c0.2,0.4,0.4,1.2,0.7,1.5c0.2,0.4,0.4,1.2,0.7,1.8
		c0.2,0.6,0.6,1.4,0.8,2.1c0.2,0.6,0.6,1.3,0.6,1.5s0.4,0.6,0.6,0.8C231.5,322.5,231.6,322.5,232.3,322.4L232.3,322.4z M217.7,253.8
		C217.8,253.8,217.8,253.8,217.7,253.8c0.1-0.1,0-0.1,0-0.1S217.7,253.7,217.7,253.8L217.7,253.8z"/>
</g>
<g>
	<path class="st0" d="M960.1,268.8c-11.1-41.3-43.6-73.8-84.9-84.9C800.4,163.8,500,163.8,500,163.8s-300.4,0-375.2,20.1
		c-41.3,11.1-73.8,43.6-84.9,84.9C19.8,343.7,19.8,500,19.8,500s0,156.3,20.1,231.2c11.1,41.3,43.6,73.8,84.9,84.9
		c74.9,20.1,375.2,20.1,375.2,20.1s300.4,0,375.2-20.1c41.3-11.1,73.8-43.6,84.9-84.9c20.1-74.9,20.1-231.2,20.1-231.2
		S980.1,343.7,960.1,268.8z"/>
	<path class="st0" d="M403.9,644.1l249.5-144L403.9,356V644.1z"/>
</g>
</svg>
