<?xml version="1.0" encoding="utf-8"?>
<!-- Generator: Adobe Illustrator 26.0.1, SVG Export Plug-In . SVG Version: 6.00 Build 0)  -->
<svg version="1.1"
	 id="svg3712" xmlns:cc="http://creativecommons.org/ns#" xmlns:dc="http://purl.org/dc/elements/1.1/" xmlns:inkscape="http://www.inkscape.org/namespaces/inkscape" xmlns:rdf="http://www.w3.org/1999/02/22-rdf-syntax-ns#" xmlns:sodipodi="http://sodipodi.sourceforge.net/DTD/sodipodi-0.dtd" xmlns:svg="http://www.w3.org/2000/svg"
	 xmlns="http://www.w3.org/2000/svg" xmlns:xlink="http://www.w3.org/1999/xlink" x="0px" y="0px" viewBox="0 0 205.9 200.1"
	 style="enable-background:new 0 0 205.9 200.1;" xml:space="preserve">
<g>
	<path d="M10.1,149.1v-2.4h8.2v3.2h-0.6L10.1,149.1z M18.3,182.3v3.2h-8.2v-2.4l7.6-0.9H18.3z M15.5,164.7c0-6,0-12-0.2-18h5.8
		c-0.2,5.9-0.2,11.9-0.2,18v2.2c0,6.6,0,12.7,0.2,18.6h-5.8c0.2-5.9,0.2-11.9,0.2-18V164.7z M34.2,146.7l2.7,2.9H18.3v-2.9H39
		l0.4,10.3H36L34.2,146.7z M31.4,167.1H18.3v-2.7h13.1V167.1z M40.5,175.2l-0.4,10.3H18.3v-2.9h19.8l-2.7,2.9l1.8-10.3H40.5z
		 M29.5,165l0.9-6.1H33v13.7h-2.7l-0.9-6.4V165z"/>
	<path d="M49,185.5c0.1-2.6,0.2-8.6,0.2-12.2v-2.8c0-3.2-0.1-5-0.2-7.3l-4.6-0.5v-2l8.1-3.5l0.9,0.6l0.7,6.7v8.8
		c0,3.6,0.1,9.6,0.2,12.2H49z M58.3,183.5v2.1H44.8v-2.1l6.3-1.2h1.3L58.3,183.5z M71.7,167.9v5.4c0,3.7,0.1,9.6,0.2,12.2h-5.2
		c0.1-2.6,0.2-8.5,0.2-12.2v-4.9c0-5.3-1.4-7-4.8-7c-2.9,0-5.3,1.2-8.5,4h-1.3v-2.7h3l-2.5,1.1c2.8-3.8,7.4-6.6,11.5-6.6
		C69.3,157.2,71.7,160.3,71.7,167.9z M70.1,182.3l5.8,1.2v2.1H62.5v-2.1l6.3-1.2H70.1z"/>
	<path d="M101.7,190.9c0-2.6-1.6-4.5-5.8-4.5h-6.8c-1.1,0-2.2-0.1-3.1-0.2V186c-3-0.7-4.4-2.2-4.4-4.6c0-2.1,1.4-4.3,5.3-7.7
		l1.3,0.9c-1.7,1.8-2.4,3.1-2.4,4.8c0,1.6,0.7,2.6,3.4,2.6h7.6c6.4,0,9.3,2.8,9.3,7.5c0,5-4.8,10-14.3,10c-8.4,0-12-2.9-12-7.1
		c0-2.8,1.8-5,7.6-7.4l0.3,0.4c-2.3,2.2-3.2,3.9-3.2,6.2c0,3.8,2.9,5.3,7.5,5.3C98.3,196.8,101.7,194.1,101.7,190.9z M91.6,157.2
		c6,0,10.4,3.2,10.4,9.5c0,6.1-4.5,9.5-10.5,9.5c-6.1,0-10.5-3.2-10.5-9.5C81,160.6,85.5,157.2,91.6,157.2z M85.8,166.8
		c0,4.2,2,7.1,5.6,7.1c3.7,0,5.9-3,5.9-7.3c0-4.1-2-7-5.6-7C88,159.6,85.8,162.6,85.8,166.8z M105.5,157.2l0.9,0.6v3.6h-8.5v-1.6
		L105.5,157.2z"/>
	<path d="M117.6,142.7l0.8,0.5l-0.2,8.2v22c0,4.1,0.1,8.1,0.2,12.2h-5.2c0.1-4.1,0.2-8.1,0.2-12.2v-25.5l-4.7-0.6v-2.1L117.6,142.7z
		 M122.9,183.5v2.1h-14.4v-2.1l6.5-1.2h1.3L122.9,183.5z"/>
	<path d="M130.7,185.5c0.1-2.6,0.2-8.6,0.2-12.2v-2.7c0-3.2-0.1-5-0.2-7.3l-4.7-0.5v-2l9-3.5l0.9,0.6l-0.2,7.9v7.7
		c0,3.6,0.1,9.6,0.2,12.2H130.7z M139.9,183.5v2.1h-13.5v-2.1l6.3-1.2h1.3L139.9,183.5z M129.3,147.1c0-2.2,1.7-3.7,3.9-3.7
		s3.9,1.5,3.9,3.7c0,2.2-1.7,3.7-3.9,3.7S129.3,149.3,129.3,147.1z"/>
	<path d="M144.6,184.1l-0.2-6.4h3.2l1.6,6.9l-2.9-1.3v-2c2.1,1.6,4.3,2.4,7.1,2.4c4.4,0,6.5-1.8,6.5-4.4c0-2.5-1.7-3.7-5.4-5l-2.7-1
		c-4.2-1.6-7-3.9-7-7.8c0-4.2,3.6-8.1,10.1-8.1c3.1,0,5.6,0.9,8.1,2.4l-0.2,5.9h-3l-1.2-5.9l2.2,1v1.5c-1.9-1.4-3.8-2.2-5.9-2.2
		c-3.5,0-5.4,1.5-5.4,4c0,2.6,1.4,3.5,5.4,5l1.8,0.6c5.8,2.1,8,4.9,8,8.5c0,4.4-3.8,8.3-11.3,8.3C150,186.3,147.5,185.5,144.6,184.1
		z"/>
	<path d="M172.4,147.9l-4.7-0.6v-2.1l8.9-2.6l0.8,0.5l-0.2,8.2v12.2l0.2,0.8v9c0,3.6,0.1,9.6,0.2,12.2h-5.2
		c0.1-2.6,0.2-8.6,0.2-12.2V147.9z M181.4,183.5v2.1H168v-2.1l6.3-1.2h1.3L181.4,183.5z M195.2,167.9v5.4c0,3.7,0.1,9.6,0.2,12.2
		h-5.2c0.1-2.6,0.2-8.5,0.2-12.2v-4.9c0-5.3-1.4-7-4.8-7c-2.9,0-5.2,1.1-8.5,4h-1.3v-2.7h3l-2.6,1.1c2.8-3.8,7.5-6.6,11.6-6.6
		C192.8,157.2,195.2,160.3,195.2,167.9z M193.6,182.3l5.8,1.2v2.1h-13.5v-2.1l6.3-1.2H193.6z"/>
</g>
<defs>
	
		<inkscape:perspective  id="perspective4373" inkscape:persp3d-origin="214.375 : 142.91667 : 1" inkscape:vp_x="0 : 214.375 : 1" inkscape:vp_y="0 : 1000 : 0" inkscape:vp_z="428.75 : 214.375 : 1" sodipodi:type="inkscape:persp3d">
		</inkscape:perspective>
</defs>
<sodipodi:namedview  bordercolor="#666666" borderopacity="1.0" fit-margin-bottom="0" fit-margin-left="0" fit-margin-right="0" fit-margin-top="0" id="base" inkscape:current-layer="layer1" inkscape:cx="124.82445" inkscape:cy="133.99094" inkscape:document-units="px" inkscape:pageopacity="0.0" inkscape:pageshadow="2" inkscape:window-height="721" inkscape:window-maximized="1" inkscape:window-width="1024" inkscape:window-x="-4" inkscape:window-y="-4" inkscape:zoom="1.4142136" pagecolor="#ffffff" showgrid="false">
	</sodipodi:namedview>
<path id="path8431" inkscape:connector-curvature="0" d="M103.2,129.1c-1.6,0-3.2,0-3.5-0.1c-0.3,0-1-0.1-1.4-0.1s-0.8-0.1-0.8-0.1
	c0,0-0.1-0.1-0.3-0.1s-1-0.1-1.8-0.2c-0.9-0.1-1.7-0.2-1.7-0.2s-0.1-0.1-0.2,0c-0.1,0.1-0.1,0-0.3-0.1c-0.1-0.1-0.5-0.1-0.9-0.2
	c-0.4-0.1-0.8-0.1-0.8-0.1s-0.2,0-0.3-0.1s-0.3-0.1-0.5-0.1c-0.2,0-0.5-0.1-0.6-0.1c-0.1,0-0.3-0.1-0.4-0.1
	c-0.1-0.1-0.5-0.1-0.8-0.2c-0.3-0.1-0.6-0.1-0.7-0.2c-0.1-0.1-0.4-0.1-0.7-0.2c-0.3-0.1-0.7-0.2-0.9-0.3c-0.1-0.1-0.4-0.1-0.5-0.1
	s-0.3-0.1-0.3-0.1c0-0.1-0.1-0.1-0.3-0.1c-0.1,0-0.3-0.1-0.5-0.1s-0.5-0.1-0.7-0.2c-0.3-0.1-0.5-0.1-0.6-0.1
	c-0.1-0.1-0.2-0.1-0.3-0.1c-0.1-0.1-0.3-0.1-0.3-0.1s-0.3-0.1-0.3-0.1c-0.1-0.1-0.5-0.2-0.8-0.3c-0.4-0.1-0.9-0.3-1.3-0.5
	s-0.8-0.3-1.2-0.4c-0.3-0.1-0.6-0.3-0.6-0.3c-0.1-0.1-0.1-0.1-0.2-0.1s-0.3-0.1-0.5-0.2s-0.5-0.2-0.5-0.2c-0.1,0-0.3-0.1-0.6-0.3
	c-0.3-0.1-0.8-0.3-1-0.5c-0.3-0.1-0.6-0.3-0.6-0.3c-0.1-0.1-0.3-0.1-0.5-0.2c-0.2-0.1-0.3-0.1-0.3-0.2c0-0.1-0.1-0.1-0.2-0.1
	s-0.2-0.1-0.3-0.1c-0.1-0.1-0.6-0.3-1-0.6c-0.5-0.3-0.8-0.4-0.9-0.4s-0.2-0.1-0.3-0.2c-0.1-0.1-0.3-0.3-0.5-0.3s-0.2-0.1-0.2-0.1
	c0-0.1-0.1-0.1-0.3-0.2c-0.2-0.1-0.4-0.2-0.5-0.3c-0.1-0.1-0.2-0.1-0.2-0.1c-0.1,0-0.2-0.1-0.3-0.1c-0.1-0.1-0.3-0.2-0.3-0.3
	c-0.1-0.1-0.3-0.1-0.4-0.2c-0.1-0.1-0.3-0.2-0.3-0.3c-0.1-0.1-0.2-0.1-0.2-0.1s-0.3-0.1-0.5-0.3c-0.3-0.1-0.6-0.3-0.7-0.5
	c-0.2-0.1-0.6-0.4-0.9-0.6c-0.3-0.3-0.9-0.6-1.2-0.8c-0.3-0.2-1-0.7-1.5-1.1c-0.5-0.4-1.3-1-1.7-1.4c-0.4-0.3-1-0.8-1.3-1.1
	c-0.3-0.3-0.7-0.6-1-0.9c-0.3-0.2-0.5-0.4-0.5-0.4s-0.2-0.1-0.3-0.2c-0.1-0.1-0.4-0.4-0.6-0.6c-0.3-0.2-0.5-0.5-0.6-0.5
	c-0.1-0.1-0.5-0.5-0.9-0.9c-0.5-0.4-1-1-1.3-1.3c-0.3-0.3-0.8-0.9-1.2-1.4c-0.4-0.5-0.8-0.8-0.8-1c-0.1-0.1-0.4-0.5-0.6-0.8
	c-0.3-0.3-0.6-0.8-0.8-1c-0.2-0.3-0.4-0.5-0.5-0.6c-0.1-0.1-0.1-0.2-0.1-0.2c0-0.1-0.1-0.3-0.3-0.5s-0.5-0.5-0.6-0.7
	s-0.4-0.5-0.5-0.7c-0.1-0.2-0.5-0.6-0.7-1s-0.7-1-1-1.4c-0.3-0.4-0.5-0.8-0.6-0.8S48,98.6,48,98.4s0-0.2-0.1-0.2s-0.2-0.3-0.4-0.5
	c-0.2-0.3-0.3-0.5-0.3-0.6c0-0.1-0.1-0.1-0.1-0.3c-0.1-0.1-0.3-0.5-0.5-0.8c-0.2-0.4-0.5-0.8-0.5-0.9c-0.1-0.1-0.1-0.3-0.2-0.3
	s-0.1-0.1-0.1-0.1c0-0.1-0.1-0.3-0.3-0.7c-0.1-0.3-0.5-0.9-0.7-1.3c-0.3-0.4-0.5-0.8-0.5-0.9c0-0.1-0.1-0.3-0.2-0.5
	s-0.2-0.5-0.3-0.5c-0.1-0.1-0.3-0.5-0.5-1c-0.2-0.5-0.5-1-0.6-1.4c-0.1-0.3-0.3-1-0.5-1.6c-0.4-0.6-0.6-1.1-0.6-1.2
	c-0.1-0.1-0.1-0.3-0.2-0.6c-0.1-0.3-0.2-0.6-0.3-0.8s-0.1-0.4-0.2-0.5c0-0.1-0.1-0.4-0.2-0.6c-0.1-0.2-0.2-0.6-0.3-0.8
	c-0.1-0.3-0.2-0.8-0.4-1.3c-0.1-0.5-0.4-1.4-0.6-2.1c-0.1-0.7-0.3-1.4-0.3-1.4s-0.1-0.2-0.1-0.3c-0.1-0.1-0.1-0.5-0.3-1
	c-0.1-0.5-0.2-1.4-0.3-1.9c-0.1-0.6-0.2-1.1-0.2-1.2s-0.1-0.6-0.2-1.3c-0.1-0.6-0.1-1.5-0.2-1.9s-0.1-1.4-0.1-2.3
	C38,66.9,38,65.2,38,63.9c0-1.2,0.1-2.6,0.1-3.1c0.1-0.5,0.1-1,0.1-1.2c0-0.2,0.1-0.6,0.1-1c0.1-0.4,0.2-1.3,0.3-2.1
	c0.1-0.8,0.2-1.6,0.3-1.7c0.1-0.2,0.1-0.5,0.1-0.6c0-0.1,0.1-0.3,0.1-0.4c0.1,0.1,0.3-0.4,0.3-0.8c0.1-0.5,0.2-0.8,0.2-0.8
	c0.1,0,0.1-0.1,0.1-0.3c0-0.1,0.1-0.4,0.1-0.6c0.1-0.2,0.1-0.5,0.2-0.5c0.1-0.1,0.1-0.3,0.1-0.6c0.1-0.2,0.1-0.6,0.1-0.8
	c0.1-0.3,0.1-0.6,0.1-0.7c0.1-0.1,0.2-0.6,0.3-1.1c0.3-0.5,0.4-1,0.5-1.2c0.1-0.1,0.1-0.3,0.1-0.3c0-0.1,0.1-0.6,0.3-1.2
	s0.4-1.2,0.5-1.2c0.1-0.1,0.1-0.3,0.2-0.5s0.2-0.5,0.3-0.6s0.1-0.4,0.1-0.5s0-0.1,0.1-0.1s0.1-0.3,0.3-0.6c0.1-0.3,0.3-0.7,0.3-0.9
	c0.1-0.2,0.2-0.4,0.2-0.5c0-0.1,0-0.1,0.1-0.1s0.1-0.1,0.2-0.3c0.1-0.2,0.1-0.4,0.2-0.5c0.1-0.1,0.1-0.1,0.1-0.2
	c0,0,0.1-0.3,0.2-0.5c0.1-0.3,0.3-0.6,0.3-0.8c0.1-0.2,0.2-0.4,0.2-0.4s0.3-0.5,0.5-1c0.3-0.5,0.5-0.9,0.5-1c0,0,0.1-0.3,0.3-0.5
	s0.4-0.8,0.6-1.1c0.2-0.4,0.4-0.7,0.4-0.8s0.1-0.1,0.1-0.1c0.1-0.1,0.2-0.2,0.3-0.3s0.3-0.5,0.3-0.6c0.1-0.2,0.2-0.4,0.3-0.4
	c0.1-0.1,0.3-0.4,0.6-0.8c0.3-0.4,0.5-0.8,0.6-0.9c0.1-0.1,0.2-0.3,0.3-0.4c0-0.1,0.3-0.4,0.5-0.7c0.2-0.3,0.6-0.8,0.8-1.1
	c0.2-0.3,0.5-0.6,0.5-0.6c0.1-0.1,0.3-0.4,0.6-0.7c0.3-0.3,0.5-0.6,0.5-0.7c0-0.1,0.1-0.1,0.2-0.2c0.1-0.1,0.2-0.1,0.2-0.2
	s0.1-0.1,0.2-0.3c0.1-0.1,0.2-0.2,0.2-0.3c0-0.1,0.1-0.1,0.1-0.2c0.1-0.1,0.3-0.3,0.6-0.6c0.3-0.3,0.5-0.6,0.6-0.8
	c0.1-0.1,0.8-0.9,1.6-1.7s1.4-1.5,1.4-1.6c0,0,0.2-0.3,0.5-0.5c0.3-0.2,0.5-0.5,0.5-0.5s0.3-0.3,0.6-0.6c0.3-0.3,0.9-0.8,1.4-1.2
	c0.4-0.3,0.8-0.7,0.9-0.8c0.1-0.1,0.2-0.2,0.3-0.2c0.1,0,0.2-0.1,0.3-0.3c0.1-0.1,0.3-0.3,0.4-0.3c0.1-0.1,0.2-0.1,0.3-0.3
	c0.1-0.1,0.4-0.3,0.5-0.5c0.2-0.1,0.4-0.3,0.5-0.4c0.1-0.1,0.3-0.2,0.4-0.3c0.1-0.1,0.4-0.3,0.5-0.4c0.1-0.1,0.3-0.3,0.3-0.3
	s0.2-0.1,0.4-0.3c0.2-0.1,0.3-0.3,0.4-0.3s0.1-0.1,0.1-0.1c0-0.1,0.1-0.1,0.1-0.1s0.2-0.1,0.3-0.1s0.3-0.3,0.5-0.4s0.4-0.3,0.5-0.3
	s0.1-0.1,0.1-0.1c0-0.1,0.2-0.2,0.3-0.3c0.1-0.1,0.3-0.2,0.3-0.2c0-0.1,0.1-0.1,0.1-0.1c0.1,0,0.3-0.1,0.6-0.3
	c0.3-0.2,0.6-0.4,0.8-0.5c0.1-0.1,0.4-0.2,0.5-0.3c0.1-0.1,0.3-0.1,0.3-0.2c0-0.1,0.2-0.1,0.3-0.2c0.1-0.1,0.5-0.2,0.6-0.3
	c0.2-0.1,0.4-0.2,0.5-0.3c0.1-0.1,0.5-0.3,0.8-0.5s0.7-0.4,0.8-0.4s0.3-0.1,0.6-0.3c0.3-0.1,0.6-0.4,0.8-0.5s0.3-0.2,0.4-0.2
	s0.4-0.1,0.8-0.3c0.4-0.2,0.8-0.4,1-0.5c0.2-0.1,0.4-0.2,0.5-0.2c0.1-0.1,0.1-0.1,0.2-0.1s0.3-0.1,0.6-0.3s0.6-0.3,0.7-0.3
	c0.2-0.2,0.3-0.3,0.3-0.3c0.1-0.1,0.5-0.2,0.9-0.4c0.5-0.2,1-0.3,1.2-0.4c0.2-0.1,0.5-0.1,0.5-0.2s0.3-0.1,0.5-0.2
	C81.9,4.2,82.2,4,82.4,4c0.2-0.1,0.4-0.1,0.5-0.1s0.2-0.1,0.3-0.1c0.1-0.1,0.6-0.2,1-0.3c0.5-0.1,1.2-0.3,1.5-0.4
	c0.3-0.1,1.2-0.3,2-0.5c0.8-0.2,1.6-0.4,1.8-0.5C89.8,2,90.4,1.9,91,1.8c0.6-0.1,1.1-0.2,1.2-0.3c0.1-0.1,0.7-0.1,1.4-0.3
	C94.2,1.2,95,1.1,95.4,1s1-0.1,1.4-0.1c0.4-0.1,1.3-0.1,1.9-0.2c0.6-0.1,1.4-0.1,1.6-0.1c0.2,0,1.6,0,3,0c1.5,0,3.6,0.1,4.8,0.1
	s2.3,0.1,2.3,0.2c0.1,0,0.2,0.1,0.3,0.1c0.1,0,0.6,0.1,1,0.1c0.4,0.1,1.4,0.2,2.3,0.3c0.8,0.1,1.6,0.3,1.7,0.3
	c0.1,0.1,0.3,0.1,0.7,0.1c0.3,0.1,0.9,0.2,1.3,0.3c0.4,0.1,1.1,0.3,1.6,0.4c0.5,0.1,1,0.3,1,0.3c0.1,0.1,0.6,0.2,1.2,0.4
	c0.6,0.1,1.2,0.3,1.2,0.4c0.1,0.1,0.5,0.1,0.8,0.3c0.4,0.1,0.8,0.3,1.1,0.3c0.3,0.1,0.6,0.2,0.9,0.3c0.3,0.1,0.6,0.2,0.7,0.3
	c0.1,0.1,0.5,0.2,0.8,0.3c0.3,0.1,0.8,0.3,1.2,0.4c0.4,0.1,0.8,0.3,1,0.4s0.4,0.1,0.5,0.1c0.1,0,0.3,0.1,0.5,0.2s0.7,0.3,1,0.5
	c0.4,0.1,0.9,0.5,1.2,0.6s0.6,0.3,0.6,0.3c0.1,0,0.1,0.1,0.2,0.1c0.1,0.1,0.3,0.3,0.6,0.4c0.3,0.1,0.6,0.4,0.8,0.5
	c0.1,0.1,0.3,0.2,0.5,0.2s0.1,0,0.2,0.1c0.1,0.1,0.1,0.1,0.3,0.2c0.1,0.1,0.4,0.2,0.5,0.3c0.1,0.1,0.3,0.1,0.3,0.2
	c0,0.1,0.2,0.1,0.4,0.2c0.2,0.1,0.6,0.3,0.9,0.5c0.3,0.2,0.6,0.4,0.6,0.4s0.3,0.1,0.5,0.3c0.3,0.2,0.5,0.3,0.5,0.3
	c0.1,0,0.3,0.1,0.5,0.3c0.3,0.2,0.5,0.3,0.6,0.3s0.1,0,0.1,0.1c0,0.1,0.2,0.2,0.5,0.4c0.3,0.2,0.5,0.4,0.6,0.4
	c0.1,0.1,0.3,0.1,0.4,0.3c0.1,0.1,0.5,0.3,0.7,0.6c0.3,0.2,0.5,0.4,0.6,0.4c0.1,0,0.2,0.1,0.4,0.3c0.2,0.1,0.4,0.4,0.5,0.5
	c0.1,0.1,0.2,0.2,0.3,0.2s0.1,0.1,0.2,0.2c0.1,0.1,0.2,0.2,0.3,0.2s0.1,0.1,0.2,0.1c0.1,0.1,0.2,0.2,0.3,0.3
	c0.1,0.1,0.3,0.2,0.3,0.1c0.1-0.1,0-0.1,0-0.1c-0.1,0.1-0.1,0-0.1,0s0.1-0.1,0.1-0.1c0.1,0,0.1,0.1,0.1,0.1c0,0.1,0.1,0.3,0.5,0.6
	c0.3,0.3,0.6,0.5,0.6,0.6s0.1,0.1,0.2,0.1c0.1,0,0.3,0.2,0.5,0.4c0.2,0.2,0.5,0.4,0.5,0.4s0.5,0.5,1.1,1c0.6,0.6,1.5,1.5,2.1,2.1
	s1.2,1.3,1.5,1.6c0.3,0.3,0.6,0.6,0.8,0.9c0.2,0.2,0.6,0.7,0.9,1.1c0.3,0.4,0.7,0.8,0.9,1.1c0.2,0.2,0.4,0.5,0.4,0.5
	c0.1,0.1,0.1,0.2,0.2,0.2c0.1,0.1,0.1,0.1,0.1,0.2c0,0.1,0,0.1,0.1,0.1c0.1,0,0.2,0.2,0.4,0.5c0.2,0.2,0.5,0.6,0.6,0.8
	c0.1,0.2,0.3,0.5,0.5,0.6c0.1,0.1,0.5,0.6,0.8,1.1s0.6,0.8,0.6,0.9c0,0,0.1,0.1,0.1,0.2c0.1,0.1,0.2,0.3,0.3,0.5
	c0.1,0.1,0.3,0.5,0.4,0.6c0.1,0.2,0.3,0.5,0.4,0.6c0.1,0.1,0.2,0.4,0.3,0.5c0.1,0.1,0.2,0.3,0.2,0.3c0.1,0,0.1,0.2,0.3,0.4
	s0.3,0.6,0.5,1c0.1,0.3,0.3,0.7,0.4,0.8c0.1,0.1,0.2,0.3,0.3,0.5c0.1,0.1,0.2,0.3,0.2,0.3c0.1,0,0.1,0.1,0.1,0.1
	c0,0.1,0.2,0.5,0.4,0.8s0.5,1,0.7,1.4c0.2,0.4,0.5,0.9,0.5,1.2c0.1,0.3,0.3,0.6,0.3,0.6c0.1,0.1,0.2,0.4,0.3,0.8
	c0.1,0.4,0.3,0.7,0.3,0.8c0.1,0.1,0.1,0.1,0.1,0.3c0,0.1,0.1,0.3,0.1,0.4c0.1,0.1,0.2,0.5,0.3,0.7c0.1,0.3,0.4,1.1,0.6,1.9
	c0.3,0.8,0.5,1.6,0.5,1.6c0,0.1,0.1,0.3,0.1,0.4c0.1,0.1,0.2,0.4,0.3,0.7c0.1,0.3,0.2,0.6,0.2,0.8c0.1,0.1,0.1,0.4,0.2,0.6
	s0.1,0.5,0.2,0.5c0.1,0.1,0.2,0.9,0.4,1.7c0.2,0.8,0.3,1.7,0.4,1.9s0.1,0.6,0.2,1s0.2,1.4,0.3,2.3c0.1,0.9,0.2,2.1,0.3,2.6
	c0,0.5,0.1,1,0.1,1.1c0.1,0.1,0.1,1.5,0.1,3.5c0,1.9,0,3.8-0.1,4.3s-0.1,1.2-0.1,1.6s-0.1,1.3-0.2,2.1s-0.2,1.4-0.2,1.5
	c-0.1,0.1-0.1,0.3-0.1,0.5c0,0.2-0.1,0.9-0.2,1.6c-0.1,0.6-0.2,1.4-0.3,1.7c-0.1,0.3-0.1,0.6-0.2,0.6c-0.1,0-0.1,0.1-0.1,0.2
	c0,0.1-0.1,0.6-0.2,1.2c-0.1,0.6-0.3,1-0.3,1.1c0,0-0.1,0.4-0.3,0.8c-0.1,0.5-0.2,0.9-0.2,1s-0.1,0.3-0.1,0.4
	c-0.1,0.1-0.3,0.6-0.4,1.1c-0.1,0.5-0.3,1-0.4,1.2c-0.1,0.2-0.1,0.5-0.2,0.5c-0.1,0.1-0.2,0.6-0.4,1c-0.2,0.5-0.4,1-0.5,1.2
	c-0.1,0.2-0.1,0.3-0.1,0.4c0,0.1-0.1,0.2-0.1,0.4c-0.1,0.2-0.3,0.5-0.4,0.8c-0.1,0.3-0.3,0.8-0.5,1.2c-0.1,0.4-0.3,0.8-0.4,1
	c-0.1,0.2-0.2,0.4-0.2,0.5c0,0.1-0.1,0.1-0.1,0.1c-0.1,0-0.1,0.1-0.1,0.1c0,0.1-0.1,0.3-0.2,0.6c-0.1,0.3-0.3,0.6-0.4,0.8
	c-0.1,0.2-0.2,0.4-0.3,0.5c-0.1,0.1-0.2,0.5-0.4,0.8s-0.5,0.9-0.5,1.1c-0.1,0.2-0.3,0.5-0.3,0.5c-0.1,0.1-0.1,0.1-0.1,0.2
	c0,0.1-0.1,0.1-0.1,0.2c-0.1,0.1-0.3,0.5-0.5,0.8c-0.2,0.4-0.5,0.8-0.5,0.8c-0.1,0.1-0.3,0.5-0.5,0.8c-0.3,0.3-0.5,0.6-0.5,0.7
	c0,0.1-0.1,0.2-0.2,0.3s-0.2,0.3-0.2,0.3c0,0.1-0.1,0.2-0.2,0.4c-0.1,0.2-0.3,0.5-0.5,0.7c-0.2,0.2-0.5,0.6-0.6,0.8
	c-0.2,0.2-0.4,0.5-0.5,0.6c-0.1,0.1-0.3,0.4-0.5,0.6c-0.2,0.3-0.5,0.6-0.6,0.9c-0.2,0.3-0.4,0.5-0.5,0.6c-0.1,0.1-0.3,0.3-0.4,0.5
	c-0.1,0.2-0.3,0.3-0.3,0.4c-0.1,0.1-0.1,0.2-0.1,0.3c0,0.1-0.1,0.1-0.1,0.2c-0.1,0.1-0.3,0.3-0.6,0.6c-0.3,0.3-0.5,0.6-0.6,0.8
	c-0.1,0.1-0.3,0.3-0.4,0.5c-0.1,0.1-0.7,0.8-1.4,1.4s-1.5,1.5-1.8,1.7c-0.3,0.3-0.8,0.7-1.1,1c-0.3,0.3-0.6,0.6-0.9,0.8
	c-0.3,0.2-0.7,0.6-1.1,0.9c-0.4,0.3-0.7,0.6-0.8,0.6s-0.2,0.1-0.3,0.2c-0.1,0.1-0.3,0.3-0.5,0.4c-0.2,0.1-0.4,0.3-0.5,0.4
	c-0.1,0.1-0.2,0.1-0.3,0.2c-0.1,0.1-0.4,0.3-0.6,0.5c-0.3,0.2-0.6,0.5-0.8,0.6s-0.4,0.3-0.4,0.3s-0.1,0.1-0.3,0.2
	c-0.1,0.1-0.6,0.5-1.1,0.8c-0.5,0.3-1,0.6-1,0.7c-0.1,0.1-0.5,0.3-1,0.6c-0.5,0.3-1,0.6-1.2,0.8c-0.2,0.1-0.6,0.3-0.8,0.5
	s-0.6,0.3-0.8,0.5s-0.6,0.3-0.8,0.5s-0.5,0.3-0.7,0.4c-0.1,0.1-0.5,0.2-0.6,0.3c-0.2,0.1-0.4,0.2-0.5,0.3s-0.2,0.1-0.3,0.1
	c-0.1,0-0.4,0.1-0.6,0.3c-0.3,0.1-0.5,0.3-0.5,0.3c0,0.1-0.1,0.1-0.2,0.1s-0.3,0.1-0.5,0.2c-0.2,0.1-0.5,0.2-0.5,0.2
	c-0.1,0-0.1,0.1-0.2,0.1c-0.1,0.1-0.3,0.1-0.4,0.2c-0.2,0.1-0.5,0.2-0.8,0.3s-0.6,0.3-0.6,0.3c-0.1,0-0.3,0.1-0.5,0.2
	c-0.2,0.1-0.4,0.2-0.5,0.2s-0.2,0.1-0.3,0.1s-0.5,0.2-0.8,0.3c-0.3,0.1-0.5,0.2-0.6,0.2c-0.1,0.1-0.3,0.1-0.6,0.3s-0.7,0.3-0.8,0.3
	c-0.1,0.1-0.4,0.1-0.6,0.2c-0.2,0.1-0.5,0.1-0.6,0.2c-0.2,0.1-0.5,0.1-0.7,0.2c-0.2,0.1-0.5,0.1-0.6,0.2c-0.2,0.1-0.4,0.1-0.5,0.1
	s-0.3,0.1-0.4,0.1c-0.1,0.1-0.4,0.1-0.5,0.1S120,127,120,127c-0.1,0.1-0.4,0.1-0.8,0.2c-0.4,0.1-0.7,0.1-0.7,0.2
	c0,0.1-0.6,0.2-1.3,0.3c-0.6,0.1-1.4,0.3-1.5,0.3c-0.1,0-0.6,0.1-1,0.1s-0.9,0.1-1,0.1c-0.1,0.1-0.6,0.1-1,0.1
	c-0.4,0.1-1.2,0.1-1.7,0.2c-0.5,0.1-1,0.1-1.2,0.2c-0.1,0.1-0.6,0.1-1,0.1c-0.5,0-1.4,0.1-1.9,0.1
	C106.5,129.1,104.7,129.1,103.2,129.1L103.2,129.1z M103.8,123.8c1.3,0,2.4-0.1,2.5-0.1l0.2-0.1l-0.3-0.1c-0.1-0.1-0.3-0.2-0.5-0.3
	c-0.1-0.1-0.6-0.3-1-0.5c-0.5-0.2-0.8-0.5-0.8-0.5c0-0.1-0.1-0.1-0.1-0.1s-0.2-0.1-0.3-0.1c-0.1-0.1-0.3-0.2-0.4-0.3
	c-0.1-0.1-0.6-0.3-1-0.6c-0.5-0.3-1.1-0.7-1.4-1c-0.3-0.3-1.1-0.8-1.6-1.2c-0.5-0.4-1.1-0.9-1.3-1.1c-0.2-0.2-0.6-0.5-0.7-0.7
	c-0.2-0.2-0.4-0.3-0.5-0.3s-0.2-0.1-0.3-0.3c-0.1-0.1-0.5-0.6-0.9-1s-0.9-1-1.2-1.3c-0.3-0.3-0.6-0.8-0.8-1s-0.5-0.6-0.5-0.7
	c-0.1-0.1-0.3-0.3-0.4-0.5c-0.1-0.1-0.3-0.5-0.5-0.7c-0.1-0.3-0.4-0.6-0.6-0.8c-0.1-0.2-0.4-0.6-0.5-0.8c-0.1-0.3-0.3-0.5-0.3-0.5
	c-0.1-0.1-0.2-0.3-0.3-0.5c-0.1-0.3-0.3-0.6-0.5-0.8s-0.2-0.4-0.2-0.4c0-0.1-0.1-0.3-0.3-0.7c-0.1-0.3-0.3-0.6-0.3-0.7
	c0-0.1-0.1-0.1-0.1-0.2c-0.1-0.1-0.2-0.3-0.3-0.6c-0.1-0.3-0.2-0.6-0.2-0.6c0-0.1-0.1-0.1-0.1-0.2c-0.1,0-0.1-0.1-0.1-0.2
	c0-0.1-0.1-0.2-0.1-0.3c-0.1-0.1-0.1-0.3-0.2-0.6c-0.1-0.3-0.1-0.5-0.1-0.6c0-0.1-0.1-0.3-0.1-0.4c-0.1-0.1-0.1-0.3-0.1-0.4
	c0-0.1-0.1-0.5-0.1-0.8c-0.1-0.4-0.1-0.7-0.2-0.8c-0.1-0.1-0.1-0.5-0.2-1c-0.1-0.5-0.1-1.7-0.1-2.8c0-1.2,0.1-2.4,0.1-3
	c0.1-0.6,0.1-1.1,0.2-1.1c0.1,0,0.1-0.1,0.1-0.3s0.1-0.6,0.2-1c0.1-0.5,0.3-1,0.3-1.3c0.1-0.3,0.1-0.5,0.2-0.6
	c0.1-0.1,0.1-0.3,0.1-0.4c0.1-0.3,0-0.3-0.1-0.5c-0.1-0.1-0.3-0.1-0.5-0.2c-0.3-0.1-0.4,0-0.4,0.1c0,0.1-0.1,0.1-0.1,0.1
	s-0.3,0.1-0.5,0.2c-0.2,0.1-0.4,0.2-0.5,0.2s-0.3,0.1-0.6,0.3c-0.3,0.1-0.6,0.3-0.8,0.3c-0.2,0-0.6,0.1-1,0.1
	c-0.3,0.1-0.7,0.1-0.8,0.2c-0.1,0.1-0.6,0.1-1.2,0.1c-0.5,0-1.4-0.1-1.8-0.1c-0.5-0.1-1-0.1-1-0.1c-0.1-0.1-0.4-0.1-0.6-0.2
	c-0.2-0.1-0.4-0.1-0.4-0.1S78,89,77.5,88.9s-0.8-0.3-0.8-0.3c-0.1-0.1-0.2-0.1-0.4-0.1c-0.2-0.1-0.4-0.2-0.5-0.3S75.7,88,75.6,88
	s-0.5-0.3-0.9-0.6c-0.5-0.3-0.8-0.6-0.8-0.6s-0.1-0.1-0.3-0.2c-0.1-0.1-0.7-0.6-1.2-1.1c-0.5-0.5-0.9-1-0.9-1c0-0.1-0.1-0.2-0.3-0.3
	S70.9,84,70.9,84s-0.2-0.3-0.4-0.6c-0.2-0.3-0.5-0.7-0.6-0.9c-0.1-0.3-0.3-0.6-0.5-1c-0.1-0.3-0.3-0.6-0.4-0.7
	c-0.1-0.1-0.2-0.4-0.3-0.6c-0.1-0.2-0.3-0.6-0.3-0.8s-0.1-0.5-0.2-0.6c-0.1-0.1-0.1-0.3-0.2-0.6s-0.2-0.8-0.3-1.2
	c-0.2-0.6-0.2-0.8-0.2-2.8c0-1.6,0.1-2.4,0.1-3c0.1-0.5,0.2-1.1,0.3-1.4s0.3-1,0.5-1.4c0.1-0.5,0.3-0.9,0.4-1
	c0.1-0.1,0.1-0.2,0.1-0.3s0.1-0.5,0.3-0.8c0.2-0.4,0.4-0.8,0.5-1c0.1-0.3,0.1-0.4,0.1-0.5c-0.1-0.1-0.3-0.1-0.6-0.2
	c-0.3-0.1-0.5-0.1-0.5,0s-0.2,0.1-0.3,0.1s-0.3,0.1-0.4,0.1c-0.1,0.1-0.3,0.1-0.5,0.1s-0.5,0.1-0.8,0.3s-0.6,0.3-0.8,0.3
	s-0.8,0.5-1.2,0.8c-0.5,0.3-0.9,0.6-1,0.7c-0.1,0.1-0.5,0.4-0.8,0.8c-0.3,0.4-0.8,0.9-1,1.2s-0.5,0.7-0.6,0.9
	c-0.1,0.2-0.3,0.5-0.5,0.7c-0.1,0.1-0.3,0.6-0.5,1.1s-0.4,0.9-0.4,1c-0.1,0.1-0.1,0.5-0.3,0.9c-0.1,0.4-0.1,0.7-0.2,0.8
	c0,0.1-0.1,0.3-0.1,0.5s-0.1,0.5-0.1,0.7s-0.1,0.6-0.1,0.8c0,0.3-0.1,0.8-0.1,1.2s0,1,0.1,1.4c0,0.4,0.1,0.8,0.1,1
	c0,0.2,0.1,0.6,0.2,0.8c0.1,0.3,0.2,0.9,0.3,1.3s0.3,1,0.3,1.4s0.3,0.8,0.3,0.9c0.1,0.2,0.1,0.4,0.1,0.4c0,0.1,0.1,0.2,0.1,0.3
	c0.1,0.1,0.1,0.4,0.2,0.5c0.1,0.2,0.1,0.4,0.2,0.5s0.1,0.2,0.1,0.3c0,0.1,0.1,0.5,0.3,0.8s0.4,0.7,0.4,0.8c0,0,0.1,0.2,0.1,0.3
	c0.1,0.1,0.1,0.3,0.2,0.4c0.1,0.1,0.1,0.2,0.1,0.2c0,0.1,0.2,0.5,0.5,0.9c0.3,0.5,0.5,0.8,0.5,0.8s0.1,0.1,0.2,0.3
	c0.1,0.2,0.3,0.3,0.3,0.3c0.1,0.1,0.1,0.1,0.1,0.1c0,0.1,0.2,0.3,0.4,0.6c0.2,0.3,0.5,0.6,0.6,0.9c0.1,0.2,0.3,0.5,0.5,0.6
	c0.1,0.1,0.3,0.3,0.5,0.5c0.1,0.2,0.4,0.5,0.5,0.6c0.1,0.2,1,1,1.8,1.8c0.8,0.8,1.7,1.7,1.9,1.9c0.3,0.2,0.5,0.4,0.5,0.4
	s0.3,0.2,0.6,0.5c0.3,0.3,0.6,0.5,0.7,0.6c0.1,0.1,0.2,0.2,0.3,0.3c0.1,0.1,0.1,0.3,0.1,0.4c0,0.1-0.1,0.3-0.2,0.3
	c-0.1,0.1-0.3,0.2-0.4,0.2s-0.3-0.1-0.5-0.2c-0.1-0.1-0.2-0.2-0.3-0.2s-0.2-0.1-0.3-0.2s-0.3-0.3-0.5-0.4c-0.1-0.1-0.3-0.2-0.3-0.2
	s-0.3-0.2-0.6-0.5c-0.3-0.3-0.6-0.5-0.6-0.5c-0.1,0-0.2-0.1-0.3-0.3s-0.5-0.5-0.8-0.8c-0.3-0.3-0.6-0.5-0.6-0.5
	c-0.1,0-0.2-0.1-0.4-0.3s-0.3-0.3-0.4-0.3c-0.1,0-0.6-0.5-1.2-1.2c-0.6-0.6-1.2-1.3-1.4-1.5c-0.1-0.2-0.4-0.6-0.6-0.8
	c-0.3-0.3-0.5-0.6-0.6-0.8c-0.1-0.2-0.4-0.5-0.5-0.7c-0.1-0.2-0.3-0.4-0.3-0.5c-0.1-0.1-0.2-0.3-0.4-0.6c-0.2-0.3-0.5-0.6-0.6-0.8
	c-0.1-0.2-0.3-0.4-0.3-0.5c0-0.1-0.1-0.3-0.2-0.5s-0.3-0.5-0.4-0.8s-0.4-0.8-0.5-1c-0.1-0.2-0.3-0.6-0.4-0.8
	c-0.1-0.3-0.3-0.6-0.3-0.9c-0.1-0.3-0.1-0.5-0.1-0.5c0,0-0.1-0.4-0.3-0.8c-0.1-0.4-0.3-1-0.3-1.2c-0.1-0.3-0.1-0.5-0.2-0.5
	c-0.1-0.1-0.1-0.4-0.2-0.8s-0.2-1.1-0.3-1.6s-0.2-1.4-0.2-2.1C57,77,57,76,57,75.6s0.1-1.3,0.1-1.8c0.1-0.5,0.1-1.1,0.1-1.3
	c0-0.2,0.1-0.4,0.1-0.5s0.1-0.5,0.2-1s0.2-0.9,0.3-1c0.1-0.1,0.1-0.2,0.1-0.4c0.1-0.1,0.1-0.5,0.3-0.6c0.1-0.2,0.2-0.5,0.2-0.5
	c0-0.1,0.1-0.2,0.1-0.3c0.1-0.1,0.2-0.3,0.3-0.5c0.1-0.2,0.2-0.3,0.2-0.4s0.2-0.3,0.4-0.6c0.2-0.3,0.4-0.6,0.5-0.6s0.2-0.3,0.4-0.6
	c0.2-0.3,0.4-0.5,0.4-0.5c0.1,0,0.1-0.1,0.1-0.1c0-0.1,0.2-0.3,0.5-0.6c0.3-0.3,0.6-0.8,0.8-1s0.6-0.6,1-0.9
	c0.3-0.3,0.9-0.6,1.2-0.8c0.3-0.2,0.8-0.5,1.2-0.6s0.9-0.4,1.2-0.5s1.1-0.3,1.7-0.4c0.5-0.1,1.2-0.2,1.6-0.3s0.8-0.1,1.1-0.1
	c0.3,0,0.5,0.1,0.5,0.1c0,0.1,0.2,0.1,0.4,0.1s0.6,0.1,0.9,0.1c0.4,0.1,0.6,0.1,0.8,0s0.8-0.6,1.5-1.3c0.7-0.6,1.4-1.3,1.6-1.4
	c0.1-0.1,0.3-0.3,0.5-0.3c0.1-0.1,0.3-0.2,0.3-0.3c0.1-0.1,0.3-0.2,0.3-0.2c0.1,0,0.3-0.2,0.5-0.4c0.3-0.3,0.5-0.5,0.6-0.5
	s0.2-0.1,0.2-0.1s0.1-0.1,0.1-0.1c0.1,0,0.4-0.3,0.7-0.5c0.3-0.3,0.6-0.5,0.8-0.5c0.1-0.1,0.5-0.3,0.7-0.5c0.3-0.2,0.6-0.5,0.8-0.6
	c0.1-0.1,0.3-0.3,0.3-0.4c0.1-0.1,0.1-0.3,0.2-0.4c0.1-0.1,0.3-0.5,0.4-0.7c0.1-0.3,0.3-0.6,0.3-0.6c0.1-0.1,0.1-0.2,0.1-0.3
	c0.1-0.1,0.1-0.3,0.3-0.4c0.1-0.1,0.3-0.5,0.4-0.7c0.1-0.3,0.3-0.6,0.5-0.8c0.1-0.1,0.3-0.4,0.3-0.5c0.1-0.1,0.2-0.3,0.3-0.5
	s0.3-0.3,0.3-0.3s0.3-0.4,0.5-0.7c0.3-0.4,0.6-0.8,0.6-0.8c0.1-0.1,0.3-0.3,0.4-0.5c0.1-0.2,0.4-0.6,0.6-0.8
	c0.3-0.4,0.3-0.6,0.3-0.7c0-0.1-0.4-0.6-0.8-1c-0.5-0.5-0.8-0.8-0.8-0.8c-0.1,0-0.2-0.1-0.4-0.3c-0.2-0.1-0.4-0.4-0.5-0.5
	c-0.1-0.1-0.3-0.2-0.3-0.2c-0.1,0-0.4-0.2-0.8-0.5c-0.4-0.3-0.9-0.6-1.1-0.7c-0.2-0.1-0.5-0.3-0.5-0.3c-0.1-0.1-0.3-0.2-0.5-0.3
	c-0.2-0.1-0.8-0.4-1.4-0.6c-0.6-0.3-1.1-0.5-1.2-0.5c-0.1,0-0.2-0.1-0.3-0.1S78.8,38,78.6,38c-0.1,0-0.4-0.1-0.5-0.2
	c-0.1-0.1-0.4-0.1-0.6-0.2s-0.5-0.1-0.6-0.2c-0.1-0.1-0.3-0.1-0.4-0.1c-0.1,0-0.4-0.1-0.6-0.1S75.2,37,74.9,37
	c-0.2-0.1-0.6-0.1-1-0.1c-0.3,0-1.3-0.1-2.1-0.1c-1.1,0-1.9,0-2.8,0.1c-0.6,0.1-1.3,0.2-1.4,0.2c-0.1,0.1-0.2,0.1-0.3,0.1
	s-0.3,0-0.6,0.1c-0.3,0.1-0.7,0.1-1,0.2c-0.3,0.1-0.6,0.1-0.6,0.2c-0.1,0.1-0.3,0.1-0.3,0.1s-0.1,0-0.2,0.1c-0.1,0-0.5,0.1-0.8,0.3
	c-0.4,0.1-0.7,0.2-0.8,0.2c-0.1,0-0.3,0.1-0.5,0.2c-0.3,0.1-0.5,0.2-0.6,0.3c-0.1,0.1-0.4,0.1-0.6,0.3c-0.2,0.1-0.4,0.2-0.5,0.2
	s-0.5,0.2-0.8,0.4c-0.4,0.3-0.9,0.5-1.2,0.6c-0.3,0.1-0.5,0.3-0.5,0.3c0,0-0.2,0.1-0.3,0.2c-0.1,0.1-0.5,0.3-0.7,0.5
	c-0.3,0.1-0.5,0.3-0.5,0.4c-0.1,0.1-0.1,0.1-0.2,0.1s-0.2,0.1-0.3,0.2c-0.1,0.1-0.5,0.4-0.8,0.6c-0.3,0.2-0.6,0.5-0.7,0.6
	c-0.1,0.1-0.5,0.4-0.7,0.6s-1,0.9-1.6,1.5c-0.6,0.6-1.3,1.4-1.6,1.6c-0.3,0.3-0.5,0.6-0.6,0.7c-0.1,0.1-0.3,0.4-0.5,0.6
	c-0.2,0.3-0.5,0.7-0.8,1c-0.2,0.3-0.5,0.6-0.5,0.6s-0.1,0.1-0.1,0.1s-0.2,0.4-0.5,0.8c-0.3,0.4-0.6,1-0.8,1.3
	c-0.2,0.3-0.4,0.7-0.5,0.8s-0.3,0.7-0.6,1.3c-0.3,0.6-0.6,1.3-0.6,1.6c-0.1,0.3-0.2,0.6-0.3,0.7c-0.1,0.1-0.2,0.5-0.3,0.9
	c-0.1,0.4-0.3,1-0.4,1.4c-0.1,0.4-0.3,1.2-0.4,1.9c-0.1,0.6-0.3,1.7-0.3,2.2c-0.2,0.3-0.2,0.8-0.2,0.9s0,0.6-0.1,1
	c-0.1,0.5-0.1,1.6,0,3c0.1,1.2,0.1,2.5,0.2,2.8s0.1,0.9,0.2,1.4s0.1,1,0.2,1.3c0.1,0.3,0.1,0.6,0.1,1c0.1,0.3,0.1,0.9,0.2,1.4
	s0.1,0.9,0.1,1c0.1,0.1,0.1,0.4,0.2,0.8s0.2,1.1,0.3,1.6c0.1,0.5,0.3,1.2,0.4,1.6c0.1,0.4,0.3,1,0.3,1.2c0.1,0.3,0.1,0.6,0.2,0.7
	c0,0.1,0.1,0.3,0.1,0.3c0.1,0.1,0.2,0.5,0.4,1c0.2,0.5,0.3,1,0.4,1c0.1,0.1,0.1,0.4,0.3,0.6c0.1,0.3,0.2,0.6,0.3,0.8
	c0.1,0.2,0.2,0.6,0.3,0.8c0.1,0.3,0.3,0.6,0.3,0.7c0.1,0.1,0.1,0.3,0.1,0.4c0,0.1,0.1,0.1,0.1,0.2c0.1,0,0.1,0.1,0.1,0.2
	c0,0.1,0.1,0.2,0.1,0.3c0.1,0.1,0.3,0.5,0.5,0.8c0.2,0.4,0.5,1,0.7,1.4c0.2,0.4,0.4,0.7,0.4,0.8c0,0,0.2,0.4,0.5,0.8
	c0.3,0.4,0.6,1,0.7,1.3c0.2,0.3,0.4,0.6,0.5,0.8c0.1,0.1,0.2,0.3,0.2,0.3c0,0.1,0.1,0.3,0.3,0.4c0.1,0.2,0.5,0.6,0.6,1
	c0.2,0.3,0.5,0.6,0.5,0.7c0,0,0.1,0.2,0.3,0.4c0.1,0.2,0.3,0.4,0.3,0.4s0.1,0.2,0.3,0.4c0.1,0.2,0.4,0.5,0.5,0.6
	c0.1,0.1,0.4,0.5,0.6,0.8c0.2,0.3,0.5,0.6,0.6,0.8c0.1,0.1,0.6,0.7,1,1.3c0.5,0.5,1,1.3,1.4,1.6c0.3,0.3,0.6,0.6,0.6,0.6
	s0.9,1,2.1,2.1c1.2,1.2,2.5,2.5,3,2.8c0.5,0.5,1.2,1,1.4,1.2c0.2,0.2,0.5,0.4,0.6,0.5c0.1,0.1,0.6,0.5,1,0.7
	c0.4,0.3,0.8,0.6,0.8,0.6c0.1,0.1,0.2,0.1,0.3,0.2c0.1,0.1,0.5,0.4,0.9,0.6c0.5,0.3,0.8,0.6,0.8,0.6s0.1,0.1,0.1,0.1s0.5,0.4,1,0.7
	c0.5,0.3,1.1,0.6,1.2,0.7c0.1,0.1,0.6,0.3,1,0.6c0.4,0.3,1.4,0.8,2.2,1.2c0.8,0.4,1.6,0.8,1.7,0.8c0.2,0.1,0.7,0.3,1.2,0.6
	c0.5,0.2,1.1,0.5,1.4,0.6c0.3,0.1,0.5,0.3,0.6,0.3s0.3,0.1,0.6,0.3c0.3,0.1,0.8,0.3,1.4,0.5c0.5,0.1,1,0.3,1,0.4
	c0.1,0.1,0.3,0.1,0.5,0.2c0.2,0.1,0.4,0.1,0.5,0.2c0.1,0.1,0.5,0.2,0.7,0.3c0.3,0.1,0.8,0.3,1.1,0.3c0.3,0.1,0.6,0.1,0.6,0.2
	c0.1,0.1,0.8,0.2,1.6,0.4c0.8,0.2,1.6,0.4,1.7,0.5c0.1,0.1,0.3,0.1,0.4,0.1s0.2,0.1,0.3,0.1c0.1,0.1,0.5,0.1,1,0.3
	c0.5,0.1,0.9,0.2,1,0.2c0.1,0,0.3,0.1,0.6,0.1s0.7,0.1,0.9,0.1c0.2,0.1,0.5,0.1,0.7,0.1c0.2,0.1,0.8,0.1,1.2,0.2
	c0.5,0.1,0.9,0.1,1,0.2c0.1,0.1,0.6,0.1,1.4,0.2c0.7,0.1,1.8,0.1,2.5,0.2C100.9,123.8,102.5,123.8,103.8,123.8L103.8,123.8z
	 M120.3,119.2c1.1,0,1.9-0.1,1.9-0.1c0.1-0.1,0.8-0.2,1.7-0.3c0.8-0.1,1.6-0.2,1.6-0.3c0.1-0.1,0.3-0.1,0.5-0.1
	c0.2,0,0.5-0.1,0.7-0.1s0.3-0.1,0.4-0.1c0,0,0.3-0.1,0.7-0.3s0.8-0.3,1.1-0.3c0.3-0.1,0.6-0.2,0.7-0.3c0.1-0.1,0.5-0.3,0.8-0.4
	c0.3-0.1,0.6-0.3,0.6-0.3c0.1,0,0.1-0.1,0.2-0.1c0-0.1,0.3-0.2,0.6-0.3c0.3-0.1,0.6-0.3,0.8-0.3c0.1-0.1,0.6-0.3,1.2-0.6
	c0.5-0.3,1.2-0.6,1.4-0.8c0.3-0.1,0.6-0.3,0.8-0.4c0.1-0.1,0.3-0.1,0.3-0.2c0-0.1,0.1-0.1,0.3-0.2c0.1-0.1,0.3-0.1,0.3-0.2
	c0,0,0.3-0.2,0.6-0.5c0.3-0.2,0.6-0.4,0.6-0.4c0.1,0,0.1-0.1,0.2-0.1c0.1-0.1,0.2-0.2,0.3-0.3c0.1-0.1,0.3-0.2,0.3-0.2
	c0.1-0.1,0.3-0.3,0.5-0.4c0.2-0.1,0.4-0.3,0.5-0.3c0.1,0,0.1-0.1,0.2-0.2c0.1-0.1,0.1-0.2,0.2-0.2c0.1,0,0.3-0.2,0.6-0.5
	c0.3-0.3,0.8-0.6,1.1-0.8c0.3-0.2,0.5-0.4,0.6-0.5c0.1,0,0.3-0.3,0.6-0.5c0.3-0.3,0.6-0.5,0.7-0.6c0.1-0.1,0.6-0.5,1.1-1s1-0.9,1-1
	c0.1-0.1,0.3-0.3,0.4-0.4c0.1-0.1,0.4-0.4,0.7-0.7c0.3-0.3,0.8-0.8,1.1-1.1s0.8-0.8,1.1-1.2c0.3-0.3,0.7-0.8,0.8-1
	c0.2-0.2,0.4-0.5,0.5-0.6s0.3-0.4,0.4-0.5c0.1-0.1,0.5-0.6,0.8-1.1c0.3-0.5,0.8-1,1-1.3s0.5-0.7,0.8-1c0.2-0.3,0.4-0.6,0.4-0.6
	s0.1-0.2,0.3-0.5c0.1-0.3,0.3-0.4,0.3-0.5c0-0.1,0.2-0.3,0.3-0.6c0.2-0.3,0.5-0.7,0.6-1c0.1-0.3,0.4-0.6,0.5-0.8
	c0.1-0.2,0.3-0.5,0.4-0.6c0.1-0.1,0.2-0.3,0.2-0.3c0-0.1,0.1-0.3,0.2-0.5c0.1-0.2,0.2-0.4,0.2-0.5c0-0.1,0.1-0.1,0.1-0.1
	c0.1,0,0.3-0.3,0.4-0.7c0.2-0.4,0.3-0.8,0.3-0.8s0-0.1,0.1-0.1s0.1-0.2,0.3-0.5s0.3-0.7,0.5-1.1c0.2-0.4,0.4-0.8,0.5-1
	c0.1-0.2,0.2-0.4,0.2-0.5c0,0,0.1-0.3,0.2-0.5c0.1-0.3,0.2-0.5,0.2-0.5c0,0,0.1-0.2,0.1-0.3s0.3-0.6,0.4-1.1c0.1-0.5,0.4-1,0.5-1.3
	s0.2-0.5,0.3-0.6c0.1-0.1,0.1-0.3,0.1-0.5c0.1-0.2,0.1-0.5,0.2-0.6s0.2-0.6,0.3-1.1s0.3-0.8,0.3-0.9c0.1-0.1,0.1-0.2,0.1-0.3
	c0-0.1,0.1-0.5,0.2-0.8s0.2-0.8,0.3-1.2c0.1-0.3,0.2-0.7,0.2-0.7c0.1-0.1,0.1-0.3,0.1-0.6c0.1-0.3,0.1-0.8,0.2-1.2s0.1-1,0.2-1.4
	c0.1-0.4,0.1-0.9,0.1-1.2c0-0.3,0.1-0.6,0.1-0.7c0.1-0.1,0.1-0.6,0.1-1.2c0-0.6,0.1-1.4,0.1-1.9c0-0.5,0.1-1,0.1-1.1
	s0.1-1.3,0.1-3.1c0-1.9,0-3-0.1-3.1c-0.1-0.1-0.1-0.6-0.1-1.2s-0.1-1.6-0.2-2.1c-0.1-0.6-0.2-1.4-0.3-1.8c-0.1-0.5-0.2-1-0.2-1.3
	c-0.1-0.3-0.1-0.7-0.2-1c-0.1-0.3-0.1-0.6-0.1-0.8c-0.1-0.2-0.1-0.7-0.3-1.2c-0.1-0.5-0.2-0.9-0.3-1c-0.1-0.1-0.2-0.5-0.3-1
	c-0.1-0.5-0.3-1-0.3-1.4c-0.1-0.3-0.1-0.6-0.2-0.7c-0.1-0.1-0.1-0.4-0.3-0.6c-0.1-0.3-0.2-0.6-0.3-0.9c-0.1-0.2-0.3-0.9-0.5-1.6
	s-0.5-1.3-0.6-1.4c-0.1-0.1-0.2-0.5-0.3-0.7c-0.1-0.3-0.3-0.6-0.3-0.8c-0.1-0.2-0.3-0.5-0.3-0.8c-0.1-0.3-0.3-0.7-0.5-1
	c-0.2-0.3-0.3-0.6-0.3-0.7s-0.2-0.5-0.5-1.1c-0.3-0.5-0.6-1.1-0.6-1.2c-0.1-0.1-0.2-0.4-0.3-0.5c-0.1-0.1-0.3-0.5-0.4-0.8
	c-0.1-0.3-0.3-0.5-0.4-0.6c-0.1-0.1-0.1-0.1-0.1-0.2s-0.1-0.1-0.1-0.3c-0.1-0.1-0.3-0.4-0.4-0.6c-0.1-0.3-0.3-0.5-0.4-0.5
	c-0.1,0-0.1,0-0.1,0.1s-0.1,1.3-0.1,2.7c0,1.6,0,2.6-0.1,2.7c-0.1,0.1-0.1,0.5-0.1,1c0,0.5-0.1,1.2-0.1,1.6s-0.1,0.8-0.2,1.1
	c-0.1,0.3-0.1,0.7-0.2,1c-0.1,0.3-0.1,0.6-0.1,0.7c-0.1,0.1-0.1,0.5-0.3,1c-0.1,0.5-0.2,1-0.3,1.2c-0.1,0.1-0.3,0.6-0.4,1.1
	c-0.1,0.5-0.3,0.9-0.3,0.9c-0.1,0.1-0.1,0.1-0.1,0.2c0,0.1-0.1,0.4-0.3,0.8c-0.1,0.4-0.3,0.8-0.4,0.9c-0.1,0.1-0.1,0.3-0.1,0.3
	c0,0.1-0.3,0.6-0.6,1.2s-0.8,1.5-1,1.8c-0.2,0.3-0.5,0.8-0.5,0.8c-0.1,0.1-0.2,0.3-0.3,0.3c-0.1,0.1-0.1,0.2-0.1,0.3
	s-0.3,0.5-0.6,0.8c-0.3,0.4-0.7,0.8-0.8,1c-0.1,0.1-0.8,0.9-1.6,1.7c-0.8,0.8-1.6,1.5-1.7,1.6c-0.2,0.1-0.4,0.3-0.5,0.3
	s-0.3,0.3-0.4,0.3c-0.1,0.1-0.3,0.2-0.3,0.2s-0.3,0.1-0.5,0.3c-0.2,0.1-0.5,0.3-0.5,0.3c-0.1,0-0.1,0-0.1,0.1s-0.1,0.1-0.1,0.1
	c-0.1,0.1-0.5,0.3-0.8,0.5c-0.4,0.3-0.8,0.5-1,0.6c-0.1,0.1-0.3,0.1-0.4,0.2c-0.1,0.1-0.3,0.2-0.6,0.3c-0.3,0.1-0.5,0.3-0.6,0.3
	c-0.1,0.1-0.3,0.1-0.5,0.2c-0.2,0.1-0.5,0.2-0.6,0.3c-0.2,0.1-0.4,0.1-0.5,0.1c-0.1,0-0.4,0.1-0.6,0.3c-0.3,0.1-0.6,0.3-0.6,0.2
	c-0.1,0-0.3,0-0.5,0.1s-0.6,0.2-0.8,0.2c-0.3,0.1-0.5,0.1-0.5,0.1c-0.1,0.1-0.3,0.1-0.6,0.2c-0.3,0.1-0.6,0.1-0.8,0.2
	c-0.2,0-0.4,0.1-0.5,0.2c-0.1,0.1-0.1,0.2,0,0.4c0.1,0.1,0.3,0.3,0.5,0.5s0.5,0.3,0.5,0.3c0.1,0.1,0.4,0.3,0.6,0.5
	c0.3,0.2,0.8,0.7,1.3,1.1s0.8,0.9,0.9,1c0.1,0.2,0.2,0.3,0.2,0.3c0.1,0,0.1,0.2,0.3,0.4c0.1,0.2,0.2,0.5,0.3,0.5
	c0.1,0.1,0.2,0.3,0.3,0.4s0.3,0.8,0.6,1.6s0.5,1.5,0.5,1.7c0,0.2,0.1,0.9,0.1,1.5c0.1,0.8,0.1,1.4-0.1,2.4c-0.1,0.7-0.1,1.4-0.2,1.6
	c0,0.1-0.1,0.4-0.1,0.5c-0.1,0.1-0.1,0.5-0.2,0.8c-0.1,0.3-0.3,0.8-0.3,1.2c-0.1,0.3-0.3,0.7-0.4,1c-0.1,0.3-0.2,0.5-0.2,0.5
	c0,0.1-0.1,0.1-0.1,0.1c-0.1,0.1-0.2,0.4-0.4,0.7c-0.2,0.3-0.4,0.8-0.5,0.9s-0.2,0.3-0.2,0.3s-0.1,0.2-0.2,0.3s-0.5,0.6-0.7,1
	c-0.3,0.4-0.7,0.8-0.8,1c-0.1,0.2-0.5,0.5-0.8,0.7c-0.3,0.2-0.8,0.6-1.2,1c-0.4,0.3-0.8,0.6-0.9,0.6c-0.1,0.1-0.2,0.1-0.2,0.1
	s-0.5,0.3-1.2,0.6c-0.7,0.3-1.2,0.6-1.2,0.6c0,0-0.5,0.2-0.9,0.4c-0.5,0.2-0.9,0.3-1,0.3c-0.1,0-0.2,0.1-0.3,0.1s-0.8,0.3-1.6,0.5
	c-1.1,0.3-1.4,0.3-2.3,0.4c-0.6,0-1.1,0.1-1.2,0.1c-0.1,0.1-0.2,0.1-0.3,0.1s-0.3,0.1-0.4,0.1c-0.1,0.1-0.1,0.2-0.1,0.3
	c0,0.1,0.4,0.5,0.7,0.9c0.4,0.4,0.8,0.8,1,0.8c0.2,0.1,0.3,0.2,0.3,0.2c0,0.1,0.1,0.1,0.1,0.1c0.1,0,0.1,0.1,0.2,0.1
	c0.1,0.1,0.3,0.2,0.4,0.3s0.3,0.2,0.4,0.3c0.1,0.1,0.3,0.2,0.5,0.3c0.2,0.1,0.4,0.3,0.4,0.3c0,0,0.2,0.1,0.3,0.1s0.6,0.2,1,0.3
	c0.5,0.1,0.9,0.2,1,0.3c0.1,0,0.9,0.1,1.7,0.1c1.3,0,1.7,0,2.7-0.2c0.6-0.1,1.5-0.3,1.8-0.4c0.3-0.1,1-0.3,1.4-0.5
	c0.5-0.2,1-0.4,1.2-0.5s0.5-0.2,0.5-0.2c0.1,0,0.5-0.3,0.8-0.5c0.4-0.3,0.8-0.5,1-0.6c0.1-0.1,0.3-0.2,0.3-0.3
	c0-0.1,0.1-0.1,0.1-0.1s0.3-0.1,0.5-0.3c0.2-0.1,0.4-0.3,0.5-0.3c0.1-0.1,0.3-0.2,0.6-0.4c0.3-0.2,0.5-0.3,0.5-0.4
	c0-0.1,0.1-0.1,0.1-0.1c0.1,0,0.5-0.4,0.8-0.8c0.5-0.5,0.8-0.9,0.9-1c0.1-0.1,0.2-0.3,0.3-0.4c0.1-0.1,0.3-0.3,0.5-0.5
	c0.1-0.2,0.4-0.4,0.5-0.5s0.2-0.3,0.3-0.4c0.1-0.1,0.2-0.3,0.3-0.3c0.1-0.1,0.2-0.2,0.2-0.3s0.1-0.2,0.2-0.3s0.4-0.5,0.6-0.9
	c0.3-0.4,0.5-0.7,0.5-0.8c0-0.1,0.1-0.1,0.1-0.1c0.1,0,0.1-0.1,0.2-0.3s0.2-0.4,0.3-0.5c0.1-0.1,0.3-0.4,0.3-0.5s0.3-0.6,0.6-1
	c0.3-0.5,0.5-0.8,0.5-1c0-0.1,0.1-0.3,0.3-0.6c0.1-0.3,0.3-0.6,0.4-0.8c0.1-0.2,0.2-0.5,0.3-0.6s0.1-0.5,0.3-0.8
	c0.1-0.3,0.2-0.5,0.3-0.6s0.1-0.3,0.2-0.5c0.1-0.2,0.1-0.6,0.2-0.8c0.1-0.2,0.2-0.8,0.3-1.2s0.3-1.3,0.5-1.8
	c0.1-0.6,0.3-1.3,0.3-1.6c0.1-0.3,0.2-0.7,0.3-1l0.2-0.5h0.5c0.4,0,0.5,0,0.6,0.3c0.1,0.1,0.1,0.4,0.1,0.7c0,0.3-0.1,0.6-0.1,0.6
	c-0.1,0.1-0.1,0.5-0.2,1c-0.1,0.5-0.2,1.2-0.3,1.6s-0.2,0.9-0.3,1c-0.1,0.1-0.1,0.5-0.2,0.7s-0.2,0.8-0.3,1.1
	c-0.1,0.3-0.3,0.7-0.3,0.8c-0.1,0.1-0.2,0.6-0.4,1.1s-0.5,1.2-0.6,1.6c-0.2,0.3-0.4,0.8-0.5,1c-0.1,0.2-0.3,0.5-0.3,0.7
	c-0.1,0.2-0.3,0.5-0.3,0.7c-0.1,0.2-0.2,0.5-0.3,0.5c-0.1,0.1-0.1,0.3-0.2,0.4c-0.1,0.1-0.1,0.3-0.2,0.4c-0.1,0.1-0.2,0.3-0.3,0.4
	c-0.1,0.1-0.3,0.5-0.3,0.6c-0.1,0.2-0.2,0.3-0.2,0.3c-0.1,0-0.1,0.1-0.1,0.1c0,0.1-0.1,0.3-0.3,0.6c-0.2,0.3-0.5,0.7-0.6,1
	s-0.3,0.5-0.4,0.5c-0.1,0-0.1,0.1-0.2,0.3c-0.1,0.2-0.3,0.5-0.5,0.7c-0.2,0.2-0.3,0.4-0.3,0.5s-0.1,0.1-0.2,0.3
	c-0.1,0.1-0.3,0.3-0.5,0.5c-0.1,0.2-0.5,0.5-0.7,0.8c-0.2,0.2-0.6,0.6-0.8,0.8c-0.2,0.2-0.6,0.6-1,0.9c-0.3,0.3-0.8,0.7-1,0.9
	c-0.2,0.2-0.4,0.4-0.4,0.5c0,0.1-0.1,0.1-0.1,0.1c-0.1,0-0.2,0.1-0.3,0.1s-0.3,0.2-0.3,0.2c-0.1,0.1-0.3,0.3-0.6,0.5
	c-0.3,0.2-0.6,0.4-0.6,0.4s-0.3,0.1-0.5,0.3c-0.3,0.2-0.6,0.4-0.8,0.5c-0.2,0.1-0.4,0.2-0.5,0.3c-0.1,0.1-0.3,0.2-0.5,0.3
	c-0.3,0.1-0.5,0.2-0.5,0.2c-0.1,0-0.3,0.1-0.5,0.2c-0.2,0.1-0.5,0.2-0.6,0.3c-0.1,0.1-0.4,0.1-0.6,0.3c-0.3,0.1-0.5,0.2-0.6,0.2
	s-0.3,0.1-0.4,0.1c-0.1,0.1-0.5,0.1-0.6,0.2c-0.2,0.1-0.4,0.1-0.5,0.1c0,0-0.1,0-0.2,0.1c-0.1,0.1-0.3,0.1-0.6,0.1
	c-0.3,0.1-0.5,0.1-0.5,0.1c-0.1,0-0.5,0.1-0.9,0.2c-0.5,0.1-1.3,0.1-2,0.1c-0.6,0-1.3,0-1.5-0.1c-0.1,0-0.5-0.1-0.7-0.2
	c-0.3-0.1-0.5-0.1-0.6-0.1c-0.1,0-0.3-0.1-0.3-0.1c-0.1-0.1-0.2-0.1-0.3-0.1c-0.1,0-0.3,0-0.5-0.1c-0.2-0.1-0.4-0.2-0.5-0.3
	c-0.1-0.1-0.1-0.1-0.2-0.1c-0.1,0-0.3-0.1-0.6-0.2c-0.3-0.1-0.8-0.4-1.3-0.6c-0.5-0.2-0.8-0.5-0.8-0.5c0-0.1-0.1-0.1-0.3-0.2
	c-0.1-0.1-0.3-0.2-0.3-0.2c0-0.1-0.1-0.1-0.1-0.1s-0.2-0.1-0.3-0.2c-0.1-0.1-0.2-0.2-0.3-0.2s-0.5-0.3-0.8-0.8
	c-0.4-0.4-0.8-0.8-0.8-1s-0.2-0.3-0.4-0.5c-0.1-0.2-0.3-0.5-0.5-0.6c-0.1-0.1-0.4-0.7-0.6-1.3c-0.4-0.8-0.6-1-0.8-1.2
	c-0.1-0.1-0.5-0.2-0.6-0.2c-0.2,0-0.3-0.1-0.4-0.1s-0.3-0.1-0.6-0.2c-0.3-0.1-0.5-0.1-0.6-0.2c-0.1-0.1-0.4-0.1-0.6-0.2
	c-0.3-0.1-0.6-0.1-0.6-0.1s-0.2,0-0.2-0.1c0-0.1-0.3-0.1-0.5-0.2c-0.3-0.1-0.6-0.2-0.8-0.3c-0.1-0.1-0.3-0.1-0.5-0.1
	c-0.1,0-0.3-0.1-0.5-0.1c-0.2-0.1-0.4-0.2-0.5-0.2c-0.1-0.1-0.3-0.1-0.5-0.3c-0.1-0.1-0.4-0.2-0.5-0.2s-0.5-0.2-0.9-0.4l-0.7-0.3
	l-2.4-0.1c-1.4-0.1-2.7-0.1-3-0.1c-0.4,0-0.8-0.1-1-0.1c-0.1,0-0.4-0.1-0.5-0.1s-0.3-0.1-0.4-0.1s-0.5-0.1-1-0.1
	c-0.5-0.1-1.2-0.1-1.5-0.2c-0.3-0.1-1-0.2-1.6-0.3c-0.7-0.1-1-0.1-1.1-0.1c-0.1,0.1-0.3,0.3-0.3,0.5c-0.1,0.2-0.3,0.7-0.3,1.2
	s-0.2,1.3-0.3,1.8c-0.1,0.6-0.1,1.7-0.1,2.6c0,0.8,0.1,1.9,0.1,2.4s0.2,1.3,0.3,1.7c0.1,0.5,0.2,1,0.3,1c0.1,0.1,0.2,0.6,0.4,1.2
	c0.2,0.6,0.4,1.2,0.5,1.4c0.1,0.3,0.2,0.5,0.2,0.5c0,0.1,0.3,0.6,0.6,1.4c0.3,0.7,0.9,1.6,1.2,2.1c0.3,0.5,0.6,0.9,0.6,1
	c0.1,0.1,0.2,0.3,0.4,0.5c0.2,0.2,0.4,0.5,0.5,0.6c0.1,0.1,0.4,0.4,0.6,0.7c0.3,0.3,0.8,0.8,1.2,1.2c0.4,0.4,1,1,1.3,1.2
	c0.3,0.3,0.8,0.7,1.1,1c0.3,0.3,0.6,0.5,0.6,0.6c0.1,0.1,0.1,0.1,0.1,0.1s0.4,0.2,0.8,0.5c0.4,0.3,0.9,0.6,1.1,0.7
	c0.2,0.1,0.5,0.3,0.6,0.3c0.1,0.1,0.6,0.3,1,0.5c0.4,0.2,0.7,0.4,0.7,0.4s0.3,0.1,0.5,0.2c0.3,0.1,0.6,0.3,0.8,0.3
	c0.2,0.1,0.5,0.2,0.5,0.2c0.1,0.1,0.5,0.2,0.9,0.3c0.5,0.1,1.1,0.3,1.4,0.5s0.9,0.3,1.2,0.3c0.3,0.1,0.6,0.1,0.6,0.1
	c0,0.1,0.2,0.1,0.5,0.1c0.3,0,0.6,0.1,0.8,0.1c0.2,0.1,0.9,0.2,1.6,0.3c0.6,0.1,1.4,0.2,1.6,0.2c0.3,0,0.5,0.1,0.5,0.1
	c0.1,0.1,0.4,0.1,0.8,0.1C118.6,118.9,119.3,119.2,120.3,119.2L120.3,119.2z M120.4,91.7c0.6,0,1.2-0.1,1.4-0.1
	c0.1,0,0.3-0.1,0.4-0.1c0.1-0.1,0.3-0.1,0.6-0.1c0.3,0,0.8-0.1,1.1-0.2c0.3-0.1,0.7-0.2,0.8-0.3c0.1-0.1,0.4-0.1,0.6-0.1
	s0.5-0.1,0.6-0.2s0.4-0.1,0.4-0.1s0.6-0.3,1.1-0.5c0.6-0.3,1.1-0.6,1.2-0.6c0.1-0.1,0.2-0.1,0.2-0.1c0.1,0,0.1-0.1,0.3-0.1
	c0.1-0.1,0.2-0.2,0.3-0.2c0.1,0,0.5-0.3,0.8-0.6c0.4-0.3,1.1-1,1.7-1.6s1-1,1-1.1c0-0.1,0.1-0.1,0.1-0.3s0.3-0.5,0.6-0.8
	c0.2-0.3,0.5-0.8,0.6-1s0.4-0.7,0.6-1.2c0.2-0.5,0.5-1,0.5-1.2c0.1-0.2,0.1-0.5,0.2-0.6c0.1-0.1,0.2-0.6,0.3-1.2
	c0.1-0.5,0.2-1.3,0.2-1.7s0-1-0.1-1.2c-0.1-0.2-0.1-0.8-0.2-1.3c-0.1-0.5-0.2-1.2-0.3-1.6s-0.3-0.6-0.3-0.6
	c-0.1-0.1-0.1-0.3-0.2-0.4c-0.1-0.2-0.2-0.5-0.3-0.6c-0.1-0.1-0.4-0.5-0.6-0.8c-0.3-0.3-0.7-0.8-1-1.1c-0.3-0.3-0.8-0.6-1-0.8
	c-0.3-0.2-0.6-0.4-0.8-0.5c-0.2-0.1-0.4-0.2-0.5-0.2c-0.1,0-0.1-0.1-0.2-0.1c-0.1-0.1-0.3-0.1-0.4-0.2c-0.2,0-0.4-0.1-0.5-0.1
	s-0.3-0.1-0.3-0.1c-0.1-0.1-0.3-0.1-0.3-0.1c-0.1,0-0.2-0.1-0.3-0.1c-0.1-0.1-0.5-0.1-0.8-0.2c-0.5-0.1-1.2-0.1-1.6-0.1
	s-1,0.1-1.4,0.1c-0.3,0.1-0.7,0.1-0.9,0.2c-0.2,0.1-0.5,0.2-0.6,0.3c-0.1,0.1-0.5,0.3-0.6,0.4c-0.2,0.1-0.5,0.3-0.6,0.5
	s-0.5,0.4-0.6,0.5c-0.1,0.1-0.3,0.3-0.4,0.5c-0.1,0.1-0.3,0.3-0.3,0.5c-0.1,0.2-0.3,0.5-0.3,0.6c-0.1,0.1-0.2,0.4-0.2,0.5
	c-0.1,0.1-0.1,0.4-0.3,0.7c-0.1,0.3-0.2,0.7-0.3,1c-0.1,0.3-0.1,1-0.2,1.9c-0.1,0.8-0.1,1.6-0.1,1.7c-0.1,0.1-0.2,0.2-0.4,0.3
	c-0.1,0.1-0.5,0.1-0.8,0.1s-0.8-0.1-1.2-0.1s-0.9-0.2-1.2-0.3c-0.4-0.1-0.8-0.3-0.9-0.3c-0.1-0.1-0.3-0.1-0.4-0.1s-0.2,0-0.2-0.1
	s-0.2-0.1-0.4-0.2c-0.2-0.1-0.6-0.3-1-0.5s-0.8-0.5-1-0.5c-0.2-0.1-0.6-0.4-0.8-0.6c-0.3-0.2-0.5-0.3-0.5-0.3
	c-0.1,0-0.1-0.1-0.1-0.1s-0.1-0.1-0.1-0.2c-0.1-0.1-0.6-0.5-1-0.9c-0.5-0.5-1-1-1.2-1.1s-0.6-0.7-1-1.2c-0.5-0.5-0.8-1-0.9-1.2
	s-0.4-0.6-0.6-0.9c-0.3-0.3-0.6-0.8-0.8-1s-0.4-0.5-0.6-0.6c-0.3-0.1-0.5-0.2-1.3-0.2c-0.5,0-1.6,0-2.4,0s-1.7,0-2.1,0.1
	c-0.4,0-1,0.1-1.4,0.2c-0.4,0.1-1,0.2-1.5,0.3c-0.5,0.1-0.8,0.3-0.8,0.3c-0.1,0.1-0.3,0.1-0.6,0.3s-0.7,0.3-1,0.4
	c-0.2,0.1-0.6,0.3-0.9,0.5c-0.3,0.2-0.6,0.3-0.7,0.4c-0.1,0-0.5,0.3-0.8,0.6c-0.4,0.3-0.8,0.6-1,0.8s-0.4,0.4-0.4,0.5
	s-0.1,0.1-0.1,0.2c-0.1,0.1-0.1,0.2,0.8,1.1c0.5,0.5,1,1.1,1.2,1.2c0.1,0.1,0.3,0.3,0.3,0.5s0.2,0.2,0.2,0.2c0.1,0,0.1,0.1,0.1,0.1
	s0.1,0.3,0.3,0.6c0.2,0.3,0.5,0.7,0.6,1.1c0.2,0.3,0.4,0.7,0.4,0.8s0.2,0.5,0.4,0.8s0.4,0.6,0.4,0.7c0.1,0,0.1,0.1,0.1,0.1
	s0.5,0.5,1,1c0.6,0.5,1.2,1.2,1.4,1.4c0.3,0.2,0.6,0.5,0.8,0.7c0.2,0.1,0.4,0.3,0.5,0.3s0.1,0.1,0.2,0.1s0.3,0.3,0.5,0.5
	c0.3,0.2,0.5,0.4,0.6,0.5c0.1,0.1,0.3,0.2,0.4,0.3c0.1,0.1,0.3,0.2,0.3,0.2c0,0.1,0.1,0.1,0.2,0.2c0.1,0.1,0.5,0.3,0.8,0.5
	c0.3,0.2,0.6,0.5,0.8,0.5c0.1,0.1,0.2,0.2,0.3,0.2c0,0.1,0.1,0.1,0.1,0.1s0.3,0.1,0.5,0.3s0.5,0.3,0.5,0.3s0.1,0,0.1,0.1
	c0,0.1,0.1,0.2,0.3,0.3c0.1,0.1,0.4,0.3,0.6,0.3c0.2,0.1,0.4,0.2,0.6,0.3c0.2,0.1,0.5,0.3,0.6,0.4c0.2,0.1,0.4,0.2,0.4,0.2
	c0.1,0,0.1,0.1,0.3,0.1s0.6,0.3,1,0.6c0.5,0.3,1.1,0.5,1.4,0.6c0.3,0.1,0.6,0.3,0.6,0.3s0.3,0.1,0.5,0.2s0.5,0.3,0.6,0.3
	c0.1,0.1,0.4,0.1,0.5,0.2c0.1,0.1,0.6,0.3,1.2,0.4c0.5,0.2,1.2,0.4,1.4,0.5c0.3,0.1,0.8,0.3,1.3,0.4c0.5,0.1,0.8,0.2,1,0.2
	c0.1,0,0.2,0.1,0.2,0.1c0,0.1,0.5,0.1,0.9,0.2c0.5,0.1,1.1,0.1,1.4,0.2c0.3,0,0.5,0.1,0.5,0.1c0,0.1,0.1,0.1,0.3,0
	c0.1,0,0.4,0,0.5,0.1C119.1,91.7,119.8,91.7,120.4,91.7L120.4,91.7z M128.9,75.8c-0.3,0-0.5-0.1-0.7-0.2c-0.2-0.1-0.5-0.3-0.6-0.5
	c-0.2-0.1-0.3-0.5-0.4-0.6c-0.1-0.2-0.1-0.5-0.1-0.6c0-0.1,0.1-0.4,0.1-0.6c0.1-0.1,0.1-0.3,0.1-0.3s0.1-0.1,0.2-0.3
	c0.1-0.1,0.3-0.3,0.6-0.4c0.3-0.1,0.6-0.2,0.8-0.2c0.2,0,0.5,0.1,0.7,0.2c0.2,0.1,0.5,0.3,0.6,0.5c0.1,0.1,0.2,0.4,0.3,0.6
	s0.1,0.5,0.1,0.7c0,0.2-0.1,0.6-0.2,0.8c-0.1,0.3-0.3,0.4-0.6,0.6C129.4,75.8,129.2,75.8,128.9,75.8L128.9,75.8z M128.8,74.7
	c0.2,0,0.3-0.1,0.5-0.2c0.1-0.1,0.2-0.3,0.2-0.4c0-0.1-0.1-0.3-0.2-0.4s-0.3-0.2-0.5-0.2s-0.3,0.1-0.5,0.2c-0.1,0.1-0.2,0.3-0.2,0.4
	c0,0.1,0.1,0.3,0.2,0.4C128.5,74.6,128.6,74.7,128.8,74.7z M82.4,87.5c0.3,0,1-0.1,1.4-0.2c0.5-0.1,1-0.2,1.1-0.3
	c0.1-0.1,0.3-0.1,0.3-0.1c0.1,0,0.4-0.1,0.8-0.3c0.3-0.1,0.7-0.3,0.9-0.5c0.2-0.1,0.4-0.3,0.6-0.3c0.2-0.1,0.6-0.3,0.8-0.6
	c0.3-0.2,0.7-0.6,1-1c0.3-0.3,0.7-0.8,0.8-1c0.1-0.2,0.3-0.5,0.4-0.6c0.1-0.1,0.2-0.3,0.3-0.5c0.1-0.2,0.2-0.5,0.3-0.6
	c0.1-0.1,0.1-0.4,0.1-0.5c0-0.1,0.1-0.3,0.1-0.4c0.1-0.1,0.1-0.6,0.1-1.1c0-0.6-0.1-1.1-0.1-1.6c-0.1-0.4-0.3-0.9-0.4-1.2
	c-0.1-0.3-0.4-0.8-0.6-1.1c-0.2-0.3-0.7-0.9-1-1.3c-0.3-0.4-0.8-0.8-1.1-1c-0.3-0.2-0.7-0.5-1-0.6c-0.3-0.2-0.8-0.4-0.9-0.5
	c-0.2-0.1-0.4-0.3-0.4-0.3c-0.1-0.1-0.1-0.3-0.1-0.5c0-0.3,0.1-0.5,0.3-0.8c0.2-0.2,0.3-0.5,0.4-0.5s0.1-0.1,0.1-0.1
	s0.3-0.4,0.8-0.8c0.5-0.5,0.8-0.8,0.8-0.8c0.1,0,0.2-0.1,0.3-0.2c0.1-0.1,0.3-0.3,0.4-0.3c0.1-0.1,0.2-0.1,0.3-0.2
	c0.1-0.1,0.3-0.3,0.6-0.4c0.3-0.2,0.6-0.4,0.8-0.5c0.2-0.1,0.5-0.3,0.6-0.3s0.5-0.3,0.8-0.3c0.3-0.1,0.7-0.3,0.8-0.3
	c0.1-0.1,0.4-0.1,0.5-0.2c0.1-0.1,0.3-0.1,0.5-0.2c0.1-0.1,0.6-0.2,1-0.3c0.4-0.1,1-0.2,1.4-0.3c0.4-0.1,0.8-0.1,0.8-0.2
	c0.1-0.1,0.5-0.1,0.8-0.2c0.4-0.1,0.9-0.1,1.1-0.1s0.5-0.1,0.7-0.1c0.2-0.1,0.6-0.1,0.9-0.1c0.5-0.1,0.6-0.1,1.1-0.6
	c0.3-0.3,0.7-0.7,0.8-1c0.1-0.3,0.3-0.5,0.3-0.5l0.1-0.1c0.1-0.1,0.2-0.2,0.3-0.3c0.1-0.1,0.3-0.5,0.5-0.7c0.1-0.3,0.3-0.6,0.4-0.7
	c0.1-0.1,0.4-0.7,0.7-1.3s0.5-1.1,0.5-1.2c0-0.1,0.1-0.2,0.1-0.3c0.1-0.1,0.2-0.5,0.3-0.8c0.1-0.3,0.2-0.8,0.3-1
	c0-0.3,0.1-0.5,0.1-0.6c0.1-0.1,0.1-0.5,0.2-0.8c0.1-0.4,0.1-1,0.1-1.4c0-0.4-0.1-1-0.1-1.4c-0.1-0.4-0.1-0.8-0.2-1
	c-0.1-0.1-0.2-0.4-0.2-0.5c-0.1-0.2-0.1-0.2-0.5-0.2c-0.2,0-0.5,0.1-0.7,0.1c-0.2,0.1-0.5,0.2-0.6,0.2c-0.1,0-0.6,0.1-1,0.2
	c-0.6,0.1-1,0.1-2.2,0.1c-0.9,0-1.7-0.1-2.1-0.1s-0.8-0.1-1-0.1s-0.7,0-1,0.1c-0.3,0-1.1,0.1-1.7,0.3C94.5,50.9,94,51,94,51
	c0,0.1-0.3,0.1-0.5,0.1c-0.3,0-0.5,0.1-0.5,0.2c-0.1,0.1-0.1,0.1-0.2,0.1c-0.1,0-0.6,0.2-1.2,0.4c-0.6,0.2-1.2,0.4-1.3,0.5
	c-0.1,0.1-0.3,0.1-0.4,0.2c-0.1,0.1-0.5,0.1-0.7,0.3c-0.3,0.1-0.6,0.3-0.8,0.3c-0.1,0.1-0.5,0.2-0.8,0.3c-0.3,0.1-0.8,0.4-1.3,0.6
	c-0.4,0.2-0.8,0.4-1,0.4s-0.2,0.1-0.2,0.1c0,0.1-0.2,0.1-0.4,0.3c-0.2,0.1-0.5,0.3-0.7,0.3c-0.2,0.1-0.5,0.2-0.6,0.3
	c-0.1,0.1-0.4,0.3-0.6,0.4S82.5,56,82.5,56s-0.3,0.1-0.5,0.3c-0.3,0.1-0.5,0.3-0.6,0.3c-0.1,0.1-0.4,0.3-0.7,0.5
	c-0.3,0.2-0.6,0.4-0.6,0.5c-0.1,0.1-0.1,0.1-0.2,0.1c-0.1,0-0.1,0.1-0.2,0.1c-0.1,0.1-0.3,0.3-0.6,0.5c-0.3,0.2-0.5,0.3-0.5,0.3
	s-0.1,0.1-0.1,0.2c-0.1,0.1-0.2,0.2-0.3,0.2c-0.1,0-0.3-0.1-0.3,0s-0.1,0.2-0.2,0.3c-0.1,0.1-0.4,0.3-0.6,0.5
	c-0.2,0.2-0.6,0.5-0.9,0.8C76,60.7,75.7,61,75.7,61c-0.1,0-0.4,0.3-0.8,0.7c-0.4,0.4-0.7,0.7-0.7,0.8c0,0-0.3,0.3-0.5,0.6
	c-0.3,0.3-0.6,0.6-0.7,0.8c-0.1,0.2-0.2,0.3-0.2,0.3s-0.2,0.3-0.5,0.6s-0.6,1-0.9,1.6c-0.3,0.5-0.5,1.1-0.6,1.3s-0.1,0.4-0.1,0.4
	c0,0.1-0.1,0.3-0.1,0.5c-0.1,0.2-0.1,0.5-0.2,0.6s-0.2,0.8-0.3,1.4C70,71.6,70,72,70,73.3c0,0.9,0.1,1.8,0.1,2.1
	c0.1,0.3,0.1,0.8,0.2,1c0.1,0.3,0.1,0.6,0.2,0.6c0.1,0.1,0.1,0.1,0.1,0.2c0,0.1,0.1,0.5,0.3,0.8c0.1,0.4,0.3,0.9,0.5,1.1
	c0.1,0.2,0.3,0.5,0.3,0.7c0.1,0.2,0.4,0.7,0.6,1.2c0.3,0.5,0.6,0.9,0.7,1s0.3,0.3,0.3,0.3c0,0.1,0.3,0.4,0.6,0.8
	c0.4,0.4,0.9,0.9,1.2,1.2c0.3,0.3,0.7,0.6,0.8,0.7s0.3,0.3,0.4,0.3s0.1,0.1,0.2,0.1s0.3,0.3,0.6,0.4c0.3,0.1,0.5,0.3,0.6,0.4
	c0.1,0.1,0.3,0.2,0.6,0.3c0.3,0.1,0.6,0.3,0.7,0.3c0.1,0.1,0.3,0.1,0.5,0.2c0.1,0,0.5,0.1,0.8,0.2c0.3,0.1,0.8,0.2,1.2,0.2
	C81.6,87.5,82.1,87.6,82.4,87.5L82.4,87.5z M83.5,83.4c-0.2,0-0.4,0-0.4,0c0-0.1-0.1-0.1-0.3-0.1c-0.1,0-0.4-0.2-0.6-0.3
	c-0.2-0.2-0.4-0.4-0.5-0.6c-0.1-0.3-0.1-0.5-0.1-0.9c0-0.5,0.1-0.6,0.3-0.9c0.1-0.2,0.3-0.4,0.5-0.5c0.1-0.1,0.2-0.1,0.2-0.1
	c0-0.1,0.1-0.1,0.2-0.1c0.1,0,0.2-0.1,0.3-0.1c0-0.1,0.2-0.1,0.4-0.1s0.4,0.1,0.4,0.1c0,0.1,0.1,0.1,0.3,0.1s0.3,0.1,0.6,0.4
	c0.3,0.3,0.5,0.5,0.5,0.7c0.1,0.2,0.1,0.5,0.1,0.6c0,0.1-0.1,0.5-0.1,0.7c-0.1,0.3-0.2,0.5-0.4,0.6s-0.5,0.3-0.6,0.3
	C83.9,83.3,83.7,83.3,83.5,83.4L83.5,83.4z M83.4,82c0.1,0,0.3-0.1,0.5-0.2c0.1-0.1,0.2-0.3,0.2-0.5c0-0.1-0.1-0.3-0.2-0.5
	c-0.1-0.1-0.3-0.2-0.5-0.2s-0.3,0.1-0.5,0.2s-0.2,0.3-0.2,0.5c0,0.1,0.1,0.3,0.2,0.5C83.1,81.9,83.3,82,83.4,82z M102.9,85.6
	C102.9,85.6,102.9,85.6,102.9,85.6C102.9,85.6,102.9,85.6,102.9,85.6C102.9,85.6,102.8,85.6,102.9,85.6
	C102.8,85.6,102.8,85.6,102.9,85.6z M117.1,74.7c0.1,0,0.2-0.1,0.3-0.2c0.1-0.1,0.3-0.5,0.3-0.9c0.1-0.4,0.2-0.9,0.3-1.2
	c0.1-0.3,0.2-0.6,0.3-0.9c0.1-0.2,0.3-0.6,0.4-0.8c0.1-0.3,0.3-0.5,0.3-0.6s0.3-0.4,0.4-0.6c0.1-0.3,0.4-0.6,0.5-0.8
	c0.1-0.2,0.2-0.4,0.2-0.5s0.1-0.3,0.1-0.4c0.1-0.1,0.3-0.8,0.5-1.4c0.2-0.6,0.3-1.2,0.3-1.2c0-0.1,0.1-0.2,0.1-0.3
	c0.1-0.1,0.1-0.5,0.2-0.8c0.1-0.4,0.1-0.7,0.2-0.8c0.1-0.1,0.1-0.3,0.1-0.6c0.1-0.3,0.1-0.7,0.2-1c0.1-0.3,0.2-1,0.3-1.6
	c0.1-0.6,0.2-1.2,0.2-1.3c0.1-0.1,0.1-0.6,0.1-1s0.1-1.1,0.1-1.4c0-0.3,0.1-1,0.1-1.7c0.1-1,0.1-1.7,0-3.5c-0.1-1.3-0.1-2.8-0.2-3.3
	c-0.1-0.5-0.1-1.2-0.2-1.5c-0.1-0.3-0.2-0.9-0.3-1.4s-0.2-1.1-0.3-1.4c-0.1-0.3-0.2-0.7-0.3-0.9c-0.1-0.2-0.2-0.6-0.3-1
	s-0.3-1-0.3-1.2c-0.1-0.2-0.3-0.8-0.5-1.1c-0.2-0.4-0.4-0.8-0.5-1.1c-0.1-0.3-0.3-0.6-0.4-0.7c-0.1-0.1-0.3-0.5-0.5-0.8
	c-0.2-0.3-0.6-0.8-0.8-1s-0.4-0.5-0.4-0.6c0-0.1-0.1-0.1-0.1-0.1s-0.3-0.3-0.6-0.6c-0.3-0.3-0.8-0.7-1-0.9c-0.2-0.2-0.5-0.4-0.6-0.5
	c-0.1-0.1-0.3-0.2-0.5-0.3c-0.2-0.1-0.4-0.3-0.5-0.3c-0.1-0.1-0.5-0.3-0.6-0.4c-0.2-0.1-0.5-0.3-0.5-0.3c0-0.1-0.1-0.1-0.3-0.1
	s-0.5-0.1-0.7-0.3c-0.3-0.1-0.6-0.3-0.9-0.4c-0.2-0.1-0.5-0.2-0.6-0.3c-0.1-0.1-0.3-0.1-0.3-0.1s-0.3-0.1-0.5-0.1s-0.3-0.1-0.4-0.1
	c0-0.1-0.5-0.1-1-0.3c-0.6-0.1-1.2-0.2-1.4-0.3c-0.2-0.1-0.5-0.1-0.7-0.1c-0.1,0-0.6,0.1-1,0.1s-0.9,0.1-1.1,0.1s-0.8,0.1-1.3,0.1
	c-0.5,0.1-1.2,0.1-1.5,0.3c-0.3,0.1-0.8,0.3-1.1,0.3c-0.3,0.1-0.6,0.3-0.8,0.3c-0.2,0.1-0.4,0.1-0.5,0.1s-0.1,0.1-0.1,0.1
	c0,0.1-0.1,0.1-0.2,0.1c-0.1,0-0.5,0.3-0.9,0.5c-0.4,0.2-0.8,0.5-1,0.7c-0.2,0.2-0.6,0.5-0.8,0.7c-0.3,0.3-0.5,0.5-0.5,0.5
	s-0.2,0.3-0.4,0.5c-0.2,0.3-0.5,0.6-0.6,0.8s-0.3,0.5-0.3,0.6c-0.1,0.2-0.1,0.4-0.2,0.5c-0.1,0.1-0.2,0.5-0.3,0.8
	c-0.1,0.3-0.2,0.8-0.3,1.2c-0.1,0.3-0.1,1-0.1,1.7c0,0.6,0.1,1.5,0.1,1.8c0.1,0.3,0.2,0.9,0.3,1.2c0.1,0.3,0.3,0.8,0.4,1
	c0.1,0.2,0.3,0.6,0.5,0.8s0.4,0.6,0.5,0.8c0.1,0.2,0.5,0.5,0.6,0.7c0.2,0.2,0.5,0.5,0.7,0.6c0.2,0.2,0.5,0.4,0.8,0.5
	c0.3,0.1,0.6,0.3,0.8,0.4c0.3,0.1,0.7,0.3,1,0.3c0.3,0.1,1,0.1,1.6,0.1c0.6,0,1.4-0.1,1.8-0.1c0.4-0.1,0.8-0.1,0.8-0.2
	c0.1-0.1,0.3-0.1,0.5-0.2c0.3-0.1,0.7-0.2,1-0.3c0.3-0.1,0.8-0.3,1-0.4c0.2-0.1,0.4-0.2,0.5-0.3s0.3-0.1,0.5-0.1
	c0.3-0.1,0.4,0,0.6,0.1c0.1,0.1,0.3,0.3,0.3,0.5c0.1,0.1,0.1,0.3,0.2,0.4c0.1,0.1,0.2,0.6,0.3,1.1c0.1,0.5,0.3,1.5,0.3,2.1
	c0.1,0.6,0.1,1.6,0.1,2.1s-0.1,1.3-0.2,1.7c-0.1,0.4-0.2,1-0.3,1.2c-0.1,0.3-0.1,0.6-0.2,0.6c-0.1,0.1-0.1,0.5-0.2,0.7
	c-0.1,0.3-0.3,0.9-0.4,1.3s-0.3,0.8-0.3,0.8c0,0.1-0.1,0.3-0.1,0.4c-0.1,0.2-0.3,0.6-0.5,1.1c-0.2,0.4-0.4,0.8-0.5,1
	c-0.1,0.1-0.2,0.4-0.3,0.6c-0.1,0.2,0,0.5,0.1,0.8c0.1,0.3,0.1,0.5,0.2,0.5c0,0.1,0.1,0.3,0.2,0.4c0.1,0.2,0.2,0.5,0.3,0.8
	c0.1,0.3,0.3,0.6,0.3,0.7c0.1,0.1,0.2,0.4,0.3,0.6s0.3,0.6,0.5,0.8c0.1,0.3,0.3,0.5,0.3,0.5c0,0.1,0.1,0.1,0.1,0.1
	c0.1,0,0.1,0.1,0.1,0.2s0.1,0.3,0.2,0.4s0.3,0.5,0.6,0.8c0.3,0.3,0.6,0.8,0.8,1s0.5,0.6,0.7,0.8c0.2,0.2,0.5,0.5,0.6,0.6
	c0.1,0.1,0.4,0.3,0.6,0.5c0.2,0.1,0.3,0.3,0.3,0.3s0.2,0.1,0.4,0.3c0.2,0.1,0.4,0.3,0.5,0.3s0.1,0,0.1,0.1s0.1,0.1,0.3,0.2
	c0.1,0.1,0.6,0.3,1,0.5s0.8,0.4,1,0.5c0.1,0.1,0.6,0.3,1,0.3c0.4,0.1,0.8,0.2,0.9,0.3C116.9,74.7,117,74.7,117.1,74.7L117.1,74.7z
	 M99.5,40.6c-0.2,0-0.5,0-0.6,0c-0.1,0-0.4-0.1-0.5-0.3c-0.2-0.1-0.4-0.3-0.5-0.4c-0.1-0.1-0.2-0.3-0.3-0.4
	c-0.1-0.1-0.1-0.3-0.1-0.5s0-0.6,0.1-0.8c0.1-0.3,0.2-0.5,0.4-0.7c0.1-0.1,0.3-0.3,0.5-0.4c0.1-0.1,0.5-0.1,0.6-0.2
	c0.3-0.1,0.6,0,0.9,0.1c0.3,0.1,0.5,0.3,0.6,0.3c0.1,0.1,0.3,0.4,0.4,0.6c0.1,0.3,0.1,0.5,0.1,0.8c0,0.3-0.1,0.6-0.1,0.7
	c-0.1,0.2-0.2,0.4-0.4,0.5c-0.1,0.1-0.3,0.2-0.3,0.3c0,0.1-0.1,0.1-0.1,0.1s-0.3,0.2-0.4,0.3C99.8,40.6,99.7,40.6,99.5,40.6
	L99.5,40.6z M99.3,39.3c0.1,0,0.3-0.1,0.4-0.2c0.1-0.1,0.2-0.3,0.2-0.4c0-0.1-0.1-0.3-0.2-0.4c-0.1-0.1-0.3-0.2-0.4-0.2
	c-0.1,0-0.3,0.1-0.4,0.2s-0.2,0.3-0.2,0.4c0,0.1,0.1,0.3,0.2,0.4C99,39.3,99.2,39.3,99.3,39.3z M131.2,62.1c0.3,0,0.5-0.1,0.5-0.1
	c0.1-0.1,0.3-0.1,0.5-0.2c0.3-0.1,0.7-0.3,1-0.4c0.3-0.1,0.6-0.3,0.6-0.3c0.1,0,0.2-0.1,0.3-0.1c0.1-0.1,0.5-0.2,0.9-0.4
	c0.4-0.2,0.8-0.3,0.9-0.3c0.1,0,0.1-0.1,0.1-0.1c0-0.1,0.1-0.1,0.3-0.2c0.2-0.1,0.5-0.3,0.8-0.5c0.3-0.2,0.5-0.3,0.6-0.3
	c0.1,0,0.1-0.1,0.1-0.1c0-0.1,0.1-0.1,0.1-0.1c0.1,0,0.3-0.1,0.5-0.3c0.3-0.1,0.5-0.3,0.6-0.4c0.1-0.1,0.3-0.2,0.4-0.3
	c0.1-0.1,0.3-0.2,0.3-0.3c0.1-0.1,0.1-0.2,0.2-0.2s0.4-0.3,0.8-0.6c0.4-0.3,1-0.8,1.2-1.1c0.3-0.3,0.7-0.7,0.9-1
	c0.3-0.3,0.6-0.7,0.8-1c0.3-0.3,0.6-0.8,0.8-1.2s0.5-0.6,0.5-0.7s0.1-0.1,0.1-0.2c0.1-0.1,0.3-0.4,0.5-0.7s0.4-0.7,0.5-0.8
	c0.1-0.1,0.3-0.6,0.5-1.1c0.2-0.5,0.4-1,0.5-1.2s0.2-0.6,0.3-0.8c0.1-0.3,0.3-0.8,0.4-1.2c0.1-0.5,0.2-0.8,0.3-0.8
	c0,0,0.1-0.4,0.1-0.8c0.1-0.5,0.1-1.3,0.3-1.9c0.1-0.6,0.2-1.8,0.2-2.7c0.1-1,0-1.9-0.1-2.6c-0.1-0.6-0.2-1.5-0.3-2.1
	s-0.3-1.3-0.3-1.6c-0.1-0.3-0.3-0.8-0.3-1.2c-0.1-0.4-0.3-1-0.5-1.5c-0.1-0.5-0.3-1-0.4-1.3c-0.1-0.3-0.2-0.6-0.3-0.6
	c-0.1-0.1-0.1-0.3-0.2-0.5c-0.1-0.2-0.2-0.5-0.3-0.6c-0.1-0.2-0.2-0.5-0.3-0.6c-0.1-0.1-0.4-0.8-0.7-1.4c-0.3-0.6-0.8-1.5-1.1-1.9
	c-0.3-0.4-0.5-0.8-0.5-0.9c-0.1-0.1-0.1-0.2-0.1-0.3c-0.1-0.1-0.3-0.4-0.6-0.8s-0.6-0.7-0.6-0.8c-0.1-0.1-0.1-0.2-0.2-0.3
	c0-0.1-0.3-0.4-0.6-0.7c-0.3-0.3-1-1.1-1.6-1.6c-0.5-0.5-1-1-1.1-1s-0.1-0.1-0.1-0.1c0-0.1-0.1-0.2-0.3-0.3
	c-0.1-0.1-0.3-0.2-0.5-0.3c-0.1-0.1-0.3-0.3-0.5-0.4c-0.1-0.1-0.4-0.3-0.5-0.4c-0.1-0.1-0.2-0.2-0.3-0.2s-0.2-0.1-0.3-0.2
	c-0.1-0.1-0.4-0.3-0.6-0.5c-0.2-0.1-0.5-0.3-0.6-0.4c-0.2-0.1-0.4-0.2-0.5-0.3c-0.1-0.1-0.3-0.2-0.3-0.3c-0.1-0.1-0.4-0.3-0.6-0.4
	s-0.5-0.3-0.6-0.3c-0.1-0.1-0.3-0.2-0.4-0.3c-0.1-0.1-0.3-0.2-0.5-0.3c-0.1-0.1-0.3-0.1-0.3-0.2c0-0.1-0.1-0.1-0.1-0.1
	s-0.6-0.3-1.2-0.6c-0.6-0.3-1.2-0.6-1.2-0.6c-0.1-0.1-0.1-0.1-0.2-0.1c-0.1,0-0.3-0.1-0.6-0.3c-0.3-0.1-0.7-0.3-0.9-0.4
	c-0.2-0.1-0.5-0.2-0.8-0.3c-0.3-0.1-0.6-0.2-0.7-0.3c-0.1-0.1-0.3-0.1-0.4-0.1c-0.1,0-0.2-0.1-0.2-0.1c-0.1-0.1-0.4-0.2-0.7-0.3
	c-0.4-0.1-0.7-0.3-0.8-0.3c-0.1-0.1-0.4-0.2-0.7-0.3c-0.3-0.1-0.8-0.3-1.2-0.4c-0.4-0.1-0.7-0.2-0.8-0.2s-0.3-0.1-0.4-0.1
	c-0.1-0.1-0.3-0.1-0.5-0.1s-0.5-0.1-0.8-0.3c-0.4-0.1-0.7-0.2-0.8-0.2s-0.2,0-0.3-0.1c-0.1-0.1-0.7-0.3-1.3-0.4
	c-0.6-0.1-1.3-0.3-1.6-0.3S115.1,7,115.1,7c-0.1-0.1-0.1-0.1-0.3,0c-0.1,0-0.2,0-0.3,0c-0.1-0.1-0.6-0.1-1.1-0.2
	c-0.6-0.1-1.1-0.2-1.2-0.2c-0.1-0.1-0.7-0.1-1.3-0.2c-0.6-0.1-1.2-0.1-1.4-0.1s-0.4-0.1-0.5-0.1c-0.1,0-0.8-0.1-1.6-0.1
	c-0.8-0.1-2.6-0.1-4-0.1c-1.4,0-2.5,0-2.6,0c0,0-0.3,0.1-0.7,0.1s-1,0-1.3,0.1c-0.3,0-0.6,0.1-0.7,0.1c-0.1,0.1-0.5,0.1-1.1,0.1
	c-0.6,0.1-1.7,0.2-2.5,0.3c-0.8,0.1-1.6,0.3-1.7,0.3c-0.1,0.1-0.6,0.1-1.1,0.3c-0.5,0.1-1.2,0.3-1.7,0.3c-0.5,0.1-0.9,0.2-1,0.3
	c-0.1,0.1-0.4,0.1-0.6,0.2c-0.3,0-0.6,0.1-0.8,0.2c-0.2,0.1-0.5,0.2-0.6,0.2c-0.1,0.1-0.3,0.1-0.4,0.1c-0.1,0.1-0.1,0.1-0.2,0.1
	s-0.2,0-0.3,0.1c-0.1,0.1-0.3,0.1-0.5,0.1c-0.1,0.1-0.5,0.1-0.7,0.3C84.8,9,84.4,9,84.2,9.1c-0.2,0.1-0.5,0.2-0.6,0.3
	c-0.1,0.1-0.5,0.2-0.7,0.3c-0.3,0.1-0.6,0.2-0.8,0.3c-0.2,0.1-0.4,0.2-0.5,0.2s-0.3,0.1-0.5,0.1c-0.1,0.1-0.4,0.2-0.6,0.3
	c-0.2,0.1-0.4,0.1-0.5,0.2c-0.1,0.1-0.4,0.2-0.6,0.3c-0.3,0.1-0.5,0.2-0.6,0.3c-0.1,0.1-0.2,0.1-0.3,0.1s-0.5,0.1-0.8,0.4
	c-0.4,0.2-1,0.5-1.4,0.8s-1,0.5-1.2,0.6s-0.5,0.3-0.5,0.3c0,0-0.3,0.1-0.5,0.3c-0.3,0.1-0.6,0.3-0.8,0.5c-0.3,0.1-0.7,0.5-1.2,0.6
	c-0.4,0.3-0.8,0.5-0.8,0.5c-0.1,0.1-0.2,0.1-0.3,0.1s-0.2,0.1-0.2,0.1c0,0.1-0.1,0.1-0.3,0.2c-0.2,0.1-0.4,0.2-0.5,0.3
	c-0.1,0.1-0.1,0.1-0.2,0.1s-0.1,0.1-0.1,0.1c0,0.1-0.2,0.1-0.4,0.3c-0.2,0.1-0.4,0.3-0.5,0.3S68.9,17,68.8,17
	c-0.1,0-0.2,0.1-0.4,0.3c-0.1,0.1-0.3,0.3-0.3,0.3c0,0-0.1,0.1-0.3,0.2c-0.1,0.1-0.7,0.6-1.2,1c-0.5,0.4-1,0.8-1.1,0.8
	c-0.1,0.1-0.4,0.3-0.6,0.6c-0.3,0.3-0.6,0.5-0.7,0.6c-0.1,0.1-0.3,0.3-0.5,0.5s-0.6,0.5-1,0.8s-1,0.9-1.4,1.4
	c-0.4,0.4-1.3,1.3-1.9,2s-1.4,1.4-1.6,1.6s-0.3,0.4-0.3,0.4s-0.1,0.3-0.3,0.5c-0.2,0.3-0.5,0.6-0.7,0.8c-0.2,0.2-0.3,0.3-0.3,0.3
	c0,0.1-0.2,0.4-0.5,0.7c-0.3,0.3-0.6,0.7-0.6,0.8c-0.1,0.1-0.3,0.5-0.6,0.8c-0.2,0.3-0.6,0.8-0.8,1.2c-0.3,0.3-0.5,0.7-0.6,0.9
	c-0.1,0.2-0.3,0.6-0.6,1c-0.2,0.4-0.5,0.8-0.6,1c-0.1,0.1-0.4,0.7-0.6,1.2c-0.3,0.5-0.5,1-0.5,1c0,0.1,0.2,0,0.3-0.1
	c0.2-0.1,0.4-0.2,0.5-0.3c0.1-0.1,0.2-0.1,0.2-0.1s0.3-0.1,0.6-0.3c0.3-0.2,0.6-0.4,0.6-0.4s0.2-0.1,0.4-0.2
	c0.2-0.1,0.3-0.2,0.4-0.2c0-0.1,0.5-0.3,1.2-0.6c0.6-0.3,1.3-0.6,1.5-0.7s0.5-0.3,0.6-0.3c0.1-0.1,0.4-0.2,0.6-0.3
	c0.2-0.1,0.5-0.2,0.6-0.3c0.1-0.1,0.5-0.2,0.9-0.4c0.4-0.1,0.8-0.3,1-0.3c0.1,0,0.3-0.1,0.3-0.1s0.3-0.1,0.6-0.2
	c0.3-0.1,0.7-0.2,0.8-0.2c0.1-0.1,0.5-0.1,0.8-0.2c0.3-0.1,0.6-0.1,0.7-0.2c0.1-0.1,0.5-0.1,0.9-0.2c0.5-0.1,1.3-0.2,1.9-0.3
	c0.6-0.1,1.4-0.2,1.7-0.2c0.3,0,0.6-0.1,0.6-0.1c0.1-0.1,0.7-0.1,2.5-0.1c2.1,0,2.6,0.1,3.9,0.2c0.8,0.1,1.6,0.3,1.7,0.3
	c0.1,0.1,0.7,0.2,1.4,0.4c0.6,0.2,1.3,0.3,1.3,0.4c0.1,0,0.3,0.1,0.5,0.2c0.3,0.1,0.8,0.3,1.3,0.5s0.9,0.4,1,0.5s0.3,0.2,0.6,0.3
	c0.3,0.1,0.7,0.4,1,0.6s0.6,0.4,0.6,0.4s0.3,0.1,0.4,0.2c0.1,0.1,0.3,0.2,0.5,0.3c0.1,0.1,0.2,0.1,0.3,0.1c0,0.1,0.3,0.2,0.5,0.4
	c0.3,0.2,0.7,0.5,1,0.8c0.3,0.3,0.6,0.5,0.7,0.6s0.6,0.5,1.1,1c0.5,0.5,1,1,1,1s0.2,0.3,0.4,0.5c0.2,0.2,0.5,0.3,0.6,0.3
	c0.1,0,0.3-0.1,0.3-0.2S91,39.3,91,39c0.1-0.3,0.1-1,0.2-1.4c0.1-0.5,0.2-1,0.3-1.3c0.1-0.3,0.4-0.9,0.6-1.4c0.3-0.5,0.5-0.9,0.5-1
	c0.1-0.1,0.2-0.2,0.3-0.3s0.2-0.3,0.3-0.4s0.2-0.3,0.2-0.3c0-0.1,0.1-0.2,0.3-0.3c0.1-0.1,0.3-0.3,0.3-0.3c0.1-0.1,0.3-0.3,0.6-0.5
	c0.3-0.3,0.8-0.6,1-0.9c0.3-0.3,0.7-0.5,0.8-0.5c0.1-0.1,0.3-0.1,0.3-0.1c0-0.1,0.1-0.1,0.2-0.1c0.1,0,0.5-0.2,0.8-0.3
	c0.3-0.1,0.7-0.3,0.8-0.4c0.1-0.1,0.5-0.1,0.7-0.3c0.3-0.1,0.8-0.2,1.1-0.3c0.3-0.1,0.6-0.1,0.6-0.2c0,0,0.6-0.1,1.3-0.3
	c1-0.1,1.6-0.2,3.3-0.2c1.1,0,2.4,0,2.8,0.1c0.5,0.1,1.1,0.1,1.4,0.2c0.3,0.1,0.9,0.2,1.3,0.3c0.4,0.1,0.8,0.2,0.9,0.2
	c0.1,0,0.2,0.1,0.2,0.1c0,0.1,0.1,0.1,0.3,0.1c0.1,0,0.5,0.1,0.6,0.2c0.2,0.1,0.6,0.3,0.8,0.4c0.3,0.1,0.7,0.4,1,0.5
	c0.3,0.1,0.6,0.4,0.9,0.5c0.2,0.1,0.5,0.3,0.6,0.4c0.1,0.1,0.3,0.3,0.5,0.4c0.2,0.1,0.5,0.4,0.8,0.6c0.3,0.2,0.6,0.5,0.7,0.6
	c0.1,0.1,0.6,0.7,1,1.2c0.4,0.5,0.9,1.1,1,1.2c0.1,0.2,0.3,0.3,0.3,0.3c0.1,0,0.2-0.1,0.3-0.2s0.3-0.3,0.4-0.5
	c0.1-0.1,0.2-0.6,0.3-0.9c0.1-0.5,0.1-1,0.1-2c0-0.7-0.1-1.6-0.1-1.9c-0.1-0.3-0.1-0.7-0.2-0.8c-0.1-0.1-0.1-0.3-0.1-0.3
	s-0.1-0.5-0.3-0.9c-0.1-0.5-0.3-0.9-0.4-1c-0.1-0.1-0.2-0.4-0.3-0.6c-0.1-0.2-0.3-0.5-0.3-0.6c-0.1-0.1-0.3-0.5-0.5-0.8
	c-0.2-0.3-0.5-0.7-0.7-0.9c-0.1-0.2-0.6-0.6-1-1c-0.4-0.4-0.8-0.8-1.1-1c-0.3-0.2-0.5-0.4-0.6-0.5c-0.1-0.1-0.3-0.2-0.5-0.3
	c-0.2-0.1-0.5-0.4-0.8-0.6c-0.3-0.2-0.5-0.3-0.5-0.3c-0.1,0-0.2-0.1-0.3-0.1c-0.1-0.1-0.1-0.1-0.2-0.1c-0.1,0-0.4-0.1-0.8-0.3
	s-1-0.5-1.4-0.6c-0.4-0.1-0.8-0.3-0.8-0.3c-0.1-0.1-0.6-0.2-1.1-0.3c-0.5-0.1-1.3-0.3-1.7-0.4c-0.5-0.1-0.9-0.2-1-0.2
	c-0.1-0.1-0.6-0.1-1-0.2s-0.9-0.1-1-0.1s-0.3,0-0.4,0c-0.1-0.1-0.5-0.1-1-0.1s-1.4-0.1-2.1-0.1c-0.6,0-1.5,0-1.9,0.1
	c-0.4,0-0.7,0.1-0.8,0.1s-0.3,0.1-0.6,0.1c-0.3,0-0.8,0.1-1.3,0.1c-0.4,0.1-0.8,0.1-0.9,0.2c-0.1,0.1-0.2,0.1-0.3,0.1
	c0,0-0.3,0-0.5,0.1c-0.3,0.1-0.5,0.1-0.6,0.1s-0.4,0.1-0.6,0.1c-0.2,0.1-0.6,0.1-0.8,0.2c-0.2,0.1-0.7,0.2-1.1,0.3
	c-0.4,0.1-0.9,0.3-1,0.3c-0.2,0.1-0.5,0.2-0.7,0.3c-0.2,0.1-0.7,0.3-1,0.4c-0.4,0.1-0.8,0.3-1,0.4s-0.5,0.1-0.6,0.1s-0.4,0-0.5-0.1
	c-0.1-0.1-0.3-0.1-0.3-0.2C87,20.3,87,20.1,87,19.9c0-0.2,0.1-0.3,0.2-0.5c0.1-0.1,0.4-0.3,0.6-0.4c0.3-0.1,0.5-0.3,0.6-0.3
	c0.1-0.1,0.3-0.1,0.5-0.2c0.2-0.1,0.4-0.1,0.4-0.2c0.1-0.1,0.4-0.1,0.7-0.3c0.3-0.1,0.9-0.3,1.2-0.3c0.3-0.1,0.6-0.2,0.6-0.2
	s0.5-0.2,1-0.3c0.6-0.2,1.1-0.3,1.2-0.3s0.1,0,0.2-0.1c0-0.1,0.6-0.2,1.3-0.3c0.7-0.1,1.8-0.3,2.5-0.4c0.6-0.1,1.6-0.2,2.1-0.2
	c0.5,0,1-0.1,1-0.1s0.8-0.1,1.7-0.1c1,0,1.8,0.1,1.9,0.1s0.4,0.1,0.8,0.1c0.4,0,1,0.1,1.4,0.1c0.4,0.1,0.8,0.1,0.8,0.1
	c0.1,0.1,0.5,0.1,0.8,0.2s0.9,0.2,1.3,0.3c0.4,0.1,1,0.3,1.5,0.5c0.5,0.1,1,0.3,1.1,0.4c0.1,0.1,0.3,0.1,0.3,0.1s0.2,0.1,0.4,0.1
	s0.5,0.1,0.6,0.2c0.1,0.1,0.5,0.3,0.8,0.4c0.3,0.1,0.6,0.3,0.7,0.3s0.3,0.1,0.5,0.3c0.2,0.1,0.5,0.3,0.7,0.4
	c0.2,0.1,0.6,0.3,0.7,0.5c0.2,0.1,0.5,0.3,0.6,0.4c0.2,0.1,0.5,0.4,0.8,0.6c0.3,0.2,0.6,0.5,0.7,0.5c0.1,0.1,0.3,0.3,0.5,0.4
	c0.1,0.1,0.4,0.3,0.6,0.5c0.2,0.2,0.6,0.6,0.8,0.8c0.3,0.3,0.6,0.6,0.7,0.8c0.1,0.1,0.3,0.2,0.3,0.2c0.1,0,0.1,0.1,0.1,0.1
	c0,0.1,0.2,0.4,0.5,0.7c0.3,0.3,0.5,0.6,0.5,0.6c0,0.1,0.1,0.3,0.2,0.4c0.1,0.2,0.5,0.8,0.8,1.5c0.3,0.6,0.6,1.3,0.6,1.5
	s0.1,0.5,0.2,0.8c0.1,0.3,0.2,0.6,0.2,1c0,0.3,0.1,0.5,0.1,0.6c0.1,0.1,0.1,0.5,0.1,1.1c0,0.6,0,1.4,0,1.7c-0.1,0.4-0.1,1.2-0.3,1.6
	c-0.1,0.5-0.2,0.9-0.3,1s-0.1,0.1-0.1,0.2s-0.1,0.3-0.2,0.5c-0.1,0.2-0.3,0.7-0.5,1.1c-0.2,0.4-0.4,0.8-0.5,0.8
	c-0.1,0-0.1,0.1-0.1,0.1s-0.2,0.4-0.5,0.7c-0.3,0.3-0.5,0.7-0.6,0.9s-0.1,0.4-0.1,0.6c0,0.2,0.1,0.4,0.1,0.5
	c0.1,0.1,0.2,0.4,0.3,0.8c0.1,0.4,0.3,1,0.4,1.3c0.1,0.3,0.2,0.8,0.3,1c0.1,0.2,0.1,0.5,0.1,0.7c0,0.2,0.1,0.5,0.1,0.5
	c0.1,0.1,0.1,0.4,0.1,0.6c0.1,0.3,0.1,0.9,0.2,1.4c0.1,0.5,0.1,1,0.1,1.2c0.1,0.1,0.1,0.5,0.1,1c0,0.5,0.1,0.9,0.1,1
	c0.1,0.1,0.2,0.3,0.3,0.5c0.1,0.2,0.3,0.5,0.4,0.6c0.1,0.2,0.3,0.5,0.4,0.7c0.1,0.2,0.3,0.6,0.5,0.8c0.1,0.3,0.5,0.8,0.7,1.4
	c0.3,0.5,0.5,1.1,0.6,1.3c0.1,0.2,0.3,0.5,0.3,0.8c0.1,0.3,0.3,0.6,0.4,0.8s0.3,0.6,0.4,1c0.1,0.3,0.3,0.8,0.5,1.2
	c0.1,0.3,0.3,0.7,0.3,0.8s0.2,0.3,0.3,0.5C130.8,62.1,130.8,62.1,131.2,62.1L131.2,62.1z M123.1,24.3
	C123.1,24.3,123.1,24.3,123.1,24.3C123.1,24.2,123.1,24.2,123.1,24.3C123.1,24.2,123.1,24.2,123.1,24.3L123.1,24.3z"/>
</svg>
