<?xml version="1.0" encoding="utf-8"?>
<!-- Generator: Adobe Illustrator 26.0.1, SVG Export Plug-In . SVG Version: 6.00 Build 0)  -->
<svg version="1.1"
	 id="Layer_1" xmlns:inkscape="http://www.inkscape.org/namespaces/inkscape" xmlns:sodipodi="http://sodipodi.sourceforge.net/DTD/sodipodi-0.dtd"
	 xmlns="http://www.w3.org/2000/svg" xmlns:xlink="http://www.w3.org/1999/xlink" x="0px" y="0px" viewBox="0 0 1000 1000"
	 style="enable-background:new 0 0 1000 1000;" xml:space="preserve">
<style type="text/css">
	.st0{fill:none;stroke:#000000;stroke-width:30;stroke-linecap:round;stroke-miterlimit:10;}
	.st1{fill:none;stroke:#000000;stroke-width:35;stroke-linejoin:round;stroke-miterlimit:10;}
</style>
<line class="st0" x1="423.1" y1="150.8" x2="739.7" y2="150.8"/>
<line class="st0" x1="423.1" y1="228.3" x2="739.7" y2="228.3"/>
<line class="st0" x1="260.2" y1="305.9" x2="739.7" y2="305.9"/>
<line class="st0" x1="262.4" y1="694" x2="738.5" y2="694"/>
<line class="st0" x1="260.9" y1="771.8" x2="739.7" y2="771.8"/>
<line class="st0" x1="261" y1="396.9" x2="739.8" y2="396.9"/>
<line class="st0" x1="260.2" y1="849.5" x2="738.5" y2="849.5"/>
<polygon class="st1" points="351.5,55.6 351.5,214.8 192.3,214.8 192.3,944.5 807.8,944.5 807.8,55.6 "/>
<line class="st1" x1="192.3" y1="214.8" x2="351.5" y2="55.6"/>
<g>
	<path d="M379.4,636.2c-8.6,0-16.7-0.8-24.4-2.4c-7.6-1.6-14.7-4.1-21.4-7.3c-6.6-3.3-12.8-7.3-18.6-12.2l15.5-19
		c6.8,5.9,14.2,10.3,22.3,13.2c8.1,2.9,17,4.4,26.5,4.4c12.9,0,22.8-2.4,29.9-7.2c7.1-4.8,10.6-11.5,10.6-20.1v-0.1
		c0-6.8-1.8-11.9-5.4-15.5c-3.6-3.6-8.3-6.2-14.1-8c-5.8-1.7-12.2-3.2-19.1-4.3c-6.7-1.1-13.4-2.5-20.2-4c-6.8-1.5-13-4-18.7-7.3
		c-5.7-3.3-10.3-8-13.7-14.2c-3.5-6.2-5.2-14.4-5.2-24.8V507c0-16.5,5.5-29.3,16.5-38.4c11-9.1,26.5-13.6,46.5-13.6
		c9.5,0,18.8,1.5,28,4.6c9.1,3.1,18,7.7,26.6,14l-14.2,19.8c-6.8-5-13.5-8.8-20.2-11.2s-13.4-3.7-20.2-3.7
		c-12.1,0-21.5,2.4-28.3,7.3c-6.7,4.8-10.1,11.7-10.1,20.6v0.1c0,6.7,2,11.8,5.9,15.3c3.9,3.5,9,6.1,15.3,7.8
		c6.3,1.7,13.1,3.2,20.3,4.7c6.5,1.3,13,2.9,19.5,4.7c6.5,1.8,12.4,4.5,17.8,7.9c5.3,3.5,9.6,8.2,12.8,14.2c3.2,6,4.8,13.9,4.8,23.6
		v0.2c0,16.4-5.7,29-17.1,38C416.1,631.7,400.1,636.2,379.4,636.2z"/>
	<path d="M465.9,634.3v-26.1h26.1v26.1H465.9z"/>
	<path d="M580.7,636.2c-12.5,0-23.5-2.7-32.8-8.1c-9.4-5.4-16.6-13-21.8-22.9c-5.2-9.8-7.8-21.3-7.8-34.4v-50.3
		c0-13.2,2.6-24.7,7.8-34.5c5.2-9.8,12.4-17.4,21.8-22.8c9.4-5.4,20.3-8.1,32.8-8.1c12.5,0,23.5,2.7,32.8,8.1
		c9.4,5.4,16.6,13,21.8,22.8c5.2,9.8,7.8,21.3,7.8,34.5v50.3c0,13.1-2.6,24.6-7.8,34.4c-5.2,9.8-12.4,17.5-21.8,22.9
		C604.2,633.5,593.2,636.2,580.7,636.2z M580.7,611.6c11.1,0,20.1-3.7,26.8-11c6.7-7.3,10.1-17,10.1-29.1v-52
		c0-12.1-3.4-21.8-10.1-29.1c-6.7-7.3-15.6-10.9-26.8-10.9c-11.1,0-20,3.6-26.7,10.9c-6.8,7.3-10.1,17-10.1,29.1v52
		c0,12,3.4,21.7,10.1,29.1C560.7,608,569.6,611.6,580.7,611.6z M646.5,637.3l-66.2-52.1l12.9-16.5l66.2,52L646.5,637.3z"/>
	<path d="M679.6,634.3v-26.1h26.1v26.1H679.6z"/>
</g>
</svg>
