<?xml version="1.0" encoding="utf-8"?>
<!-- Generator: Adobe Illustrator 26.0.1, SVG Export Plug-In . SVG Version: 6.00 Build 0)  -->
<svg version="1.1"
	 id="Layer_1" xmlns:inkscape="http://www.inkscape.org/namespaces/inkscape" xmlns:sodipodi="http://sodipodi.sourceforge.net/DTD/sodipodi-0.dtd"
	 xmlns="http://www.w3.org/2000/svg" xmlns:xlink="http://www.w3.org/1999/xlink" x="0px" y="0px" viewBox="0 0 1000 1000"
	 style="enable-background:new 0 0 1000 1000;" xml:space="preserve">
<style type="text/css">
	.st0{fill:none;stroke:#000000;stroke-width:35;stroke-linejoin:round;stroke-miterlimit:10;}
	.st1{fill:none;stroke:#000000;stroke-width:20;stroke-linecap:round;stroke-linejoin:round;stroke-miterlimit:10;}
	.st2{fill:none;stroke:#000000;stroke-width:24;stroke-linecap:round;stroke-linejoin:round;stroke-miterlimit:10;}
	.st3{fill:none;stroke:#000000;stroke-width:23;stroke-miterlimit:10;}
</style>
<polygon class="st0" points="351.5,55.6 351.5,214.8 192.3,214.8 192.3,944.5 807.8,944.5 807.8,55.6 "/>
<line class="st0" x1="192.3" y1="214.8" x2="351.5" y2="55.6"/>
<path d="M626,315.5c-14.5,6-27.3,11.6-40.4,16.7c-4.9,1.9-6.6,4.5-6.5,9.7c0.3,15.7,0.4,31.4-0.1,47.1c-0.1,3.3-2.2,7.5-4.7,9.7
	c-11.2,9.7-24.7,14-39.2,15.7c-17.6,2.1-35,1.9-52.1-3.2c-4.8-1.4-9.5-3.5-14.1-5.7c-10.3-4.9-16.5-11.6-15.1-24.6
	c1.4-13.2,0.2-26.7,0.4-40.1c0.1-4.4-1.6-6.7-5.6-8.2c-13.2-5.3-26.3-10.9-40.8-16.9c4.3-1.9,7.5-3.4,10.7-4.8
	c30.6-12.7,61.3-25.3,91.8-38.3c4.7-2,8.4-1.8,13,0.2C557,286.9,590.6,300.8,626,315.5z M559.6,343.8c-3.1,1-5.2,1.6-7.3,2.4
	c-9.2,3.8-18.4,7.3-27.4,11.5c-5.7,2.7-10.6,2.7-16.3,0c-11-5.1-22.3-9.3-34.8-14.5c0,14.4-0.1,27.4,0.2,40.4c0,1.4,2.3,3.5,4,4.2
	c25.7,10.8,51.4,10.8,77.1,0.1c1.8-0.8,4.2-3.1,4.2-4.7C559.7,370.4,559.6,357.6,559.6,343.8z M571.9,316.4c0-0.6,0-1.2,0-1.8
	c-12.5-5.2-25.4-9.6-37.3-15.9c-12.3-6.5-23.1-6.5-35.5,0c-12,6.4-25.1,10.8-39.1,16.6c3.5,1.7,5.4,2.7,7.5,3.6
	c11.9,5,24.1,9.3,35.5,15.1c9.4,4.7,17.7,4.8,27.2,0.1C543.8,327.5,558,322.3,571.9,316.4z"/>
<rect x="278.7" y="553.5" class="st1" width="54.9" height="54.9"/>
<line class="st2" x1="396.7" y1="557.9" x2="723" y2="557.9"/>
<line class="st2" x1="396.7" y1="602.8" x2="606.6" y2="602.8"/>
<rect x="277.9" y="678.4" class="st1" width="54.9" height="54.9"/>
<line class="st2" x1="395.8" y1="682.7" x2="722.1" y2="682.7"/>
<line class="st2" x1="395.8" y1="727.7" x2="605.7" y2="727.7"/>
<rect x="277" y="803.2" class="st1" width="54.9" height="54.9"/>
<line class="st2" x1="395" y1="807.6" x2="721.3" y2="807.6"/>
<line class="st2" x1="395" y1="852.5" x2="604.9" y2="852.5"/>
<circle class="st3" cx="516.9" cy="339.2" r="137.2"/>
</svg>
