<?xml version="1.0" encoding="utf-8"?>
<!-- Generator: Adobe Illustrator 26.0.1, SVG Export Plug-In . SVG Version: 6.00 Build 0)  -->
<svg version="1.1"
	 id="Layer_1" xmlns:inkscape="http://www.inkscape.org/namespaces/inkscape" xmlns:sodipodi="http://sodipodi.sourceforge.net/DTD/sodipodi-0.dtd"
	 xmlns="http://www.w3.org/2000/svg" xmlns:xlink="http://www.w3.org/1999/xlink" x="0px" y="0px" viewBox="0 0 1000 1000"
	 style="enable-background:new 0 0 1000 1000;" xml:space="preserve">
<style type="text/css">
	.st0{fill:none;stroke:#000000;stroke-width:23.0003;stroke-miterlimit:10.0001;}
	.st1{fill:none;stroke:#000000;stroke-width:24;stroke-miterlimit:10;}
</style>
<path d="M32.8,588.8c-3-3.9-4.9-7.7-7.8-9.9C-16.2,547.8,0.2,482.1,35.6,457c58.5-41.4,115.7-84.5,173.5-126.9
	c84.2-61.7,168.5-123.3,252.6-185.2c10.6-7.8,20.4-10.7,34.3-7.1c111,28.3,222.3,55.5,333.4,83.2c49.8,12.4,99.6,24.9,149.2,38.3
	c6.4,1.7,15.9,9.6,15.7,14.2c-0.3,7.6-5.8,17-12,22.1c-44,36.3-88.7,71.6-133.2,107.3c-76.7,61.4-153.5,122.5-229.9,184.4
	c-14.4,11.7-27.6,15.1-46.3,10.2c-86.3-22.5-173-43.3-259.6-64.7c-70.7-17.4-141.3-35-212.2-51.8c-21.7-5.2-43.4-4.5-58.3,15.9
	c-18.8,25.7-11,55.3,19.1,66c32.3,11.5,65.6,20.7,98.8,29.4c60.5,15.9,121.3,30.8,182,46c59.1,14.7,118.3,29.2,177.5,43.8
	c16.4,4.1,33.5,6.5,49.1,12.7c15.8,6.2,26.7,1.6,38.4-8.3c50.6-42.4,101.6-84.4,152.5-126.5c67.4-55.8,134.7-111.7,202.1-167.5
	c1.3-1.1,2.4-2.4,3.8-3.3c9.3-6.1,18.7-15.9,29.2-2.8c10.6,13.2-0.9,21-9.2,27.9C861.6,518,737,621.6,611.7,724.3
	c-7.6,6.3-22.6,8.3-32.7,6c-45.7-10-91-22.2-136.4-33.6C384,682,325.5,667.3,266.9,652.5c-45.4-11.5-90.6-23.8-136.3-34.1
	c-19.1-4.3-39.1-6.1-58.7-5.9c-19.8,0-33.4,14.5-37.9,34.9c-4.1,18.8,1.8,35.1,21.4,43.1c28.6,11.6,58.3,20.8,88.1,28.8
	c61.6,16.5,123.6,31.6,185.4,47c70.6,17.6,141.4,34.6,211.9,52.7c60.4,15.5,43.3,17.5,92.6-22.9c109-89.6,217.2-180.2,326-270.2
	c10.4-8.6,22.9-23.5,36-8.2c13,15.2-4.5,24.2-14.1,32.1c-100.6,83.9-201.6,167.3-302.4,250.9c-21.7,18-43.6,35.9-65.1,54.1
	c-9.8,8.3-19.6,10.7-32.7,7.4c-118.1-30.1-236.4-59.5-354.7-89.3c-53.1-13.4-106.1-27-158.9-41.1c-10.7-2.9-21.2-8-30.9-13.6
	C-14.2,689-4.2,634.6,19.1,604.3C23.1,599,27.9,594.3,32.8,588.8z M108.8,444.4c7.9,3.9,12,6.7,16.5,7.9
	c55.2,14,110.6,27.6,165.9,41.4c62.4,15.6,124.8,31.2,187.2,46.7c32.3,8,64.5,16.8,97.1,23.1c9,1.7,21.8-1.6,29.1-7.4
	C713,470.3,820.8,383.8,928.7,297.4c4-3.2,6.7-7.9,11.7-14c-7.9-2.1-12.6-3.5-17.4-4.7c-70-17.6-140.1-35.1-210.2-52.7
	c-70.6-17.7-141-36.1-211.9-52.8c-9.4-2.2-22.9,1-30.9,6.7c-84.7,61-168.7,123-252.8,184.7C182.4,390.3,147.5,415.9,108.8,444.4z"/>
<g>
	<path d="M664.6,375.8c-19.4-0.7-36.8-1.2-54.1-2c-6.5-0.3-9.9,0.5-13,3.1c-9.3,7.7-18.8,15.3-29,22.7c-2.1,1.6-7,3.1-11.1,3.5
		c-18.1,1.9-35.4,0.6-52.2-2.1c-20.4-3.4-39.2-7.8-54.7-14.5c-4.4-1.9-8.2-4.1-11.8-6.3c-8.2-4.9-10.8-9.7-1.3-15.6
		c9.6-6,16.6-12.9,25-19.3c2.8-2.1,2.4-3.6-1.1-5.4c-11.1-5.8-21.9-11.8-34-18.3c5.8,0.1,10.2,0.2,14.6,0.3c41,1.5,82.1,3,123.3,4.3
		c6.3,0.2,10.2,1.2,14,3.3C607.1,344.9,635.1,359.9,664.6,375.8z M575.1,373c-4-0.3-6.6-0.5-9.4-0.7c-12.3-0.4-24.5-1-36.8-1.2
		c-7.9-0.1-13.2-1.3-17.7-4c-8.8-5.2-18.5-10-28.9-15.7c-8.8,7-16.9,13.2-24.5,19.6c-0.9,0.7,0.4,2.3,1.8,3
		c21.3,11.6,49.3,18,83.7,19.2c2.4,0.1,6.5-0.5,7.4-1.2C558.9,385.9,566.6,379.7,575.1,373z M605.3,362.8c0.4-0.3,0.7-0.6,1.1-0.9
		c-10.4-5.6-21.7-10.9-30.8-16.9c-9.4-6.2-21.1-8.9-38.6-8.8c-17,0.1-33.9-1-52.7-1.7c2.8,1.7,4.2,2.6,5.9,3.6
		c9.9,5.4,20.5,10.5,29.3,16.1c7.3,4.6,16.3,6.7,29.5,6.8C567.9,361.2,586.5,362.2,605.3,362.8z"/>
	
		<ellipse transform="matrix(0.9998 -2.071255e-02 2.071255e-02 0.9998 -7.3467 11.0862)" class="st0" cx="531.5" cy="360.2" rx="171.2" ry="74.5"/>
</g>
<path class="st1" d="M978.7,276c0,0-75,84,0,128"/>
<path class="st1" d="M978.7,397c0,0-75,84,0,128"/>
</svg>
